<svg xmlns="http://www.w3.org/2000/svg" width="152.999" height="101.29" viewBox="0 0 152.999 101.29"><g transform="translate(-689 -998.048)"><g transform="translate(691 1000.047)"><g transform="translate(0 0.001)"><path d="M96.268,43.173c-3.1-.753-6.214-1.474-9.322-2.2-4.345-1.005-8.832-2.045-13.207-3.155v0a31.148,31.148,0,0,1-13.311-6.854,18.935,18.935,0,0,1-4.244-5.488A13.558,13.558,0,0,1,54.6,19.193a10.1,10.1,0,0,1,1.7-5.557,15.5,15.5,0,0,1,5.139-4.042A15,15,0,0,1,67.9,8.177a21.705,21.705,0,0,1,7,1.307,29.361,29.361,0,0,1,6.678,3.354A36.655,36.655,0,0,1,87.4,17.8a95.95,95.95,0,0,1,9.911,12.925L105.171,42.7c3.444.995,7.117,2.209,10.817,3.662q-.533-1.91-1.124-3.8L104.115,26.2A103.1,103.1,0,0,0,93.3,12.141a44.728,44.728,0,0,0-7.12-6.063,37.506,37.506,0,0,0-8.542-4.3A29.927,29.927,0,0,0,67.964,0,22.8,22.8,0,0,0,57.923,2.214,23.783,23.783,0,0,0,49.9,8.554c-.064.078-.127.16-.185.244A18.306,18.306,0,0,0,46.427,19.1a21.808,21.808,0,0,0,2.489,10.122,26.774,26.774,0,0,0,6.054,7.831,39.163,39.163,0,0,0,16.722,8.681l.037.009c4.455,1.131,8.988,2.181,13.371,3.2,3.085.714,6.165,1.429,9.24,2.174,4.031.979,8.892,2.26,13.9,3.991l8.4-5.557a139.871,139.871,0,0,0-20.372-6.378" transform="translate(-46.425 0)" fill="#f03f3f"/><path d="M108.516,57.322,107.583,57c-5.275-1.825-10.354-3.121-13.715-3.938-2.94-.713-5.794-1.376-9.219-2.169-4.386-1.016-8.922-2.067-13.4-3.2l-.069-.017a41.143,41.143,0,0,1-17.547-9.125,28.64,28.64,0,0,1-6.494-8.4l-.006-.011a23.838,23.838,0,0,1-2.708-11.052A20.311,20.311,0,0,1,48.074,7.653c.084-.122.178-.246.28-.37A25.8,25.8,0,0,1,57.064.408,24.842,24.842,0,0,1,67.981-2,31.925,31.925,0,0,1,78.3-.108l.01,0A39.554,39.554,0,0,1,87.3,4.424a46.674,46.674,0,0,1,7.438,6.332,104.8,104.8,0,0,1,11.036,14.328l.012.018,10.9,16.6.084.267c.4,1.274.782,2.573,1.141,3.859l.658,2.356,2.313.957ZM72.179,43.8l.042.01c4.44,1.127,8.959,2.174,13.33,3.187,3.436.8,6.3,1.461,9.26,2.179,3.243.788,8.049,2.013,13.141,3.725l4.368-2.889A149.428,149.428,0,0,0,95.8,45.117c-2.985-.724-6.035-1.432-8.984-2.117l-.317-.074c-4.111-.951-8.772-2.029-13.247-3.165l-1.508-.383v-.046a32.356,32.356,0,0,1-12.645-6.875A20.935,20.935,0,0,1,54.41,26.4l-.006-.011a15.578,15.578,0,0,1-1.8-7.219,12.138,12.138,0,0,1,2.05-6.664l.057-.084.065-.077a17.543,17.543,0,0,1,5.809-4.559,16.9,16.9,0,0,1,7.244-1.611h.086A23.683,23.683,0,0,1,75.565,7.6l.01,0a31.394,31.394,0,0,1,7.13,3.584,38.635,38.635,0,0,1,6.132,5.229A97.516,97.516,0,0,1,98.966,29.608l.012.019,7.46,11.365c2.156.636,4.277,1.321,6.344,2.049L102.449,27.307a101.329,101.329,0,0,0-10.6-13.783,42.662,42.662,0,0,0-6.8-5.789l-.007,0a35.551,35.551,0,0,0-8.082-4.066A27.938,27.938,0,0,0,67.948,2h-.005a20.822,20.822,0,0,0-9.157,2.017,21.775,21.775,0,0,0-7.345,5.809c-.038.046-.064.082-.079.1l-.015.021a16.274,16.274,0,0,0-2.921,9.17v.007a19.825,19.825,0,0,0,2.268,9.181,24.651,24.651,0,0,0,5.594,7.243l.033.029A37.183,37.183,0,0,0,72.179,43.8ZM74.4,35.926c4.384,1.11,8.959,2.168,13,3.1l.319.074c2.959.687,6.019,1.4,9.024,2.126,1.86.452,3.914.97,6.1,1.571l-7.2-10.97a94.1,94.1,0,0,0-9.69-12.649,34.623,34.623,0,0,0-5.494-4.689l-.006,0a27.392,27.392,0,0,0-6.218-3.12,19.706,19.706,0,0,0-6.347-1.192h-.058A13.055,13.055,0,0,0,62.306,11.4l-.005,0a13.486,13.486,0,0,0-4.4,3.444,8.117,8.117,0,0,0-1.3,4.368v.006a11.572,11.572,0,0,0,1.359,5.345,16.89,16.89,0,0,0,3.783,4.9l.035.031a29.28,29.28,0,0,0,12.472,6.4Z" transform="translate(-46.425 0)" fill="#fff"/><path d="M134.865,45.739a39.907,39.907,0,0,0,16.3-8.268,29.728,29.728,0,0,0,6.022-7.343,21.784,21.784,0,0,0,2.922-9.648A18.415,18.415,0,0,0,157.792,10.3l-.507-.9c-.038-.068-.077-.132-.117-.2a7.519,7.519,0,0,0-.868-1.089l-.153-.171a18.1,18.1,0,0,0-1.761-1.815,16.034,16.034,0,0,0-1.9-1.591l-.826-.617c-.1-.077-.214-.15-.324-.218l-.906-.549A22.448,22.448,0,0,0,140.9.092a27.693,27.693,0,0,0-9.589.944,37.694,37.694,0,0,0-8.589,3.58,37.1,37.1,0,0,0-7.28,5.721A72.978,72.978,0,0,0,104.8,24.17c-1.489,2.437-2.89,4.969-4.165,7.526-.009.016-.063.124-.068.139-1.183,2.446-2.3,4.758-3.55,6.923a40.422,40.422,0,0,1-3.052,4.47c.674,2.451,1.3,4.92,1.831,7.4.129.625.263,1.291.394,1.974a22.344,22.344,0,0,0,2.467-2.289,42.5,42.5,0,0,0,5.4-7.406c1.437-2.484,2.674-5.042,3.89-7.563,1.172-2.348,2.458-4.674,3.82-6.9a65.076,65.076,0,0,1,9.418-12.289,28.924,28.924,0,0,1,5.6-4.442,29.359,29.359,0,0,1,6.664-2.782,19.441,19.441,0,0,1,6.749-.688,14.158,14.158,0,0,1,6.017,1.93l.72.436.765.568a8.968,8.968,0,0,1,1.071.911c.061.059.124.115.186.169a10,10,0,0,1,.958.995c.124.15.253.293.385.434l.371.646A10.394,10.394,0,0,1,151.949,20a13.556,13.556,0,0,1-1.833,6.028,21.486,21.486,0,0,1-4.334,5.293,32.2,32.2,0,0,1-12.961,6.5A218.488,218.488,0,0,1,110.494,41.9q-1.495.22-3.01.46c-.343.638-.7,1.277-1.064,1.913a45.888,45.888,0,0,1-5.55,7.657c3.606-.831,7.259-1.415,10.812-1.941a224.871,224.871,0,0,0,23.168-4.246Z" transform="translate(-11.145 0.002)" fill="#f03f3f"/><path d="M94.847,56.225l-.621-3.248c-.112-.585-.238-1.219-.386-1.937-.484-2.249-1.073-4.63-1.8-7.281l-.27-.983.636-.8a38.577,38.577,0,0,0,2.891-4.237c1.194-2.066,2.276-4.3,3.421-6.671l.037-.077c.04-.089.08-.167.107-.218,1.3-2.6,2.723-5.175,4.235-7.65a74.958,74.958,0,0,1,10.939-14.21l0,0a39.092,39.092,0,0,1,7.674-6.023l.029-.016a39.82,39.82,0,0,1,9.045-3.767,30.65,30.65,0,0,1,8-1.1c.765,0,1.533.032,2.283.1a24.46,24.46,0,0,1,10.393,3.347l.011.007.922.559c.16.1.313.2.454.306l.014.01.8.6a17.882,17.882,0,0,1,2.078,1.739,20.011,20.011,0,0,1,1.908,1.966l.131.146a9.384,9.384,0,0,1,1.073,1.357c.059.093.116.187.175.291l.506.9A20.4,20.4,0,0,1,162.108,20.6a23.8,23.8,0,0,1-3.188,10.534,31.684,31.684,0,0,1-6.423,7.834l-.024.021a41.957,41.957,0,0,1-17.108,8.689l-.053.013a226.8,226.8,0,0,1-23.343,4.279c-3.429.508-7.1,1.091-10.651,1.911L96.362,55.02Zm13.921-12.043c-.211.38-.415.742-.616,1.091l-.016.027c-.785,1.31-1.549,2.5-2.31,3.6,1.891-.332,3.759-.62,5.563-.887A223.361,223.361,0,0,0,134.357,43.8l.04-.01a37.994,37.994,0,0,0,15.452-7.828,27.69,27.69,0,0,0,5.607-6.837l.006-.01a19.774,19.774,0,0,0,2.652-8.758,16.413,16.413,0,0,0-2.063-9.072l-.508-.9c-.023-.041-.043-.074-.061-.1a5.6,5.6,0,0,0-.649-.806l-.022-.024-.176-.2a16.308,16.308,0,0,0-1.567-1.62L153,7.579a14.137,14.137,0,0,0-1.65-1.389l-.056-.04-.818-.611c-.054-.039-.114-.08-.18-.121l-.891-.54a20.434,20.434,0,0,0-8.677-2.793c-.637-.054-1.292-.081-1.944-.081a26.65,26.65,0,0,0-6.951.963,35.809,35.809,0,0,0-8.116,3.384,35.19,35.19,0,0,0-6.869,5.408,71.046,71.046,0,0,0-10.343,13.457c-1.456,2.382-2.829,4.864-4.08,7.372l-.109.225c-1.181,2.442-2.3,4.748-3.568,6.946l-.016.028a45.652,45.652,0,0,1-2.576,3.876c.479,1.78.9,3.447,1.262,5.043a41.456,41.456,0,0,0,4.919-6.815c1.416-2.449,2.634-4.975,3.812-7.417l.012-.024c1.2-2.412,2.518-4.785,3.9-7.053a67.008,67.008,0,0,1,9.716-12.666l.005,0a30.734,30.734,0,0,1,6-4.745l.027-.016A31.344,31.344,0,0,1,132.929,7a22.431,22.431,0,0,1,5.847-.819c.539,0,1.077.023,1.6.069a16.134,16.134,0,0,1,6.87,2.206l.01.006.8.484.822.61a10.969,10.969,0,0,1,1.293,1.1c.029.028.069.063.1.087a11.822,11.822,0,0,1,1.161,1.2l.035.041c.082.1.178.207.3.339l.16.17.494.86a12.418,12.418,0,0,1,1.529,6.775,15.587,15.587,0,0,1-2.1,6.914,23.382,23.382,0,0,1-4.735,5.783l-.024.021a34.2,34.2,0,0,1-13.767,6.925l-.008,0a220.181,220.181,0,0,1-22.53,4.117C110.118,43.976,109.444,44.078,108.767,44.183Zm.979-7.958c-.621,1.288-1.287,2.667-2,4.069.824-.129,1.648-.254,2.459-.373a217.047,217.047,0,0,0,22.12-4.035,30.205,30.205,0,0,0,12.141-6.071,19.386,19.386,0,0,0,3.919-4.787l.006-.011a11.569,11.569,0,0,0,1.563-5.135,8.375,8.375,0,0,0-1.015-4.566l-.255-.445c-.1-.115-.2-.223-.287-.329a8.463,8.463,0,0,0-.738-.774c-.107-.092-.195-.172-.276-.251a7.129,7.129,0,0,0-.829-.71l-.041-.029-.689-.512-.633-.383a12.116,12.116,0,0,0-5.157-1.652c-.412-.036-.833-.054-1.257-.054a18.437,18.437,0,0,0-4.8.68,27.336,27.336,0,0,0-6.191,2.587,26.874,26.874,0,0,0-5.191,4.131,63.111,63.111,0,0,0-9.118,11.912C112.154,31.65,110.9,33.918,109.746,36.225Z" transform="translate(-11.145 0.002)" fill="#fff"/><path d="M114.26,38.805a75.058,75.058,0,0,0-1.237-7.617c-.085-.4-.183-.791-.272-1.186L52.79,69.63l3.643,2.493,3.643,2.491Z" transform="translate(-41.702 22.265)" fill="#f03f3f"/><path d="M114.067,26.735l.636,2.828c.036.159.073.318.11.477.055.235.112.478.165.726l0,.014a77.313,77.313,0,0,1,1.268,7.82l.124,1.2L60.056,77.025,49.206,69.6Zm-1.934,11.078c-.175-1.386-.416-2.882-.73-4.523L56.374,69.659,60.095,72.2Z" transform="translate(-41.702 22.265)" fill="#fff"/><path d="M102.165,38.652l-.185.059c.085.545.167,1.1.244,1.665l-2.547,1.638c-.338-2.951-.85-5.676-1.329-7.965-.674-3.136-1.474-6.261-2.373-9.341l-9.04-1.594a125.086,125.086,0,0,1,3.416,12.63,64.156,64.156,0,0,1,1.512,11.3L93.5,45.992,96,44.38l53.371,35.271,3.643-2.491,3.643-2.493Z" transform="translate(-16.362 17.153)" fill="#f03f3f"/><path d="M83.994,20.565l13.552,2.39.348,1.193c.932,3.192,1.742,6.382,2.408,9.481l0,.011c.189.9.416,2.024.643,3.3l.432-.136.058-.019.143-.045.9-.275,57.762,38.174-10.85,7.423L95.988,46.768l-6.021,3.876-.1-3.542a62.6,62.6,0,0,0-1.47-10.943,122.954,122.954,0,0,0-3.36-12.422Zm10.4,5.9-4.571-.806c.952,3.187,1.784,6.427,2.48,9.67l0,.012a79.288,79.288,0,0,1,1.323,8.191l2.385-1.534L97.8,43.168l-.106-.926c-.356-3.108-.911-5.926-1.3-7.777C95.828,31.847,95.159,29.16,94.4,26.461ZM153.076,74.7,103.5,41.933,99.662,44.4l49.693,32.84Z" transform="translate(-16.362 17.153)" fill="#fff"/></g></g><g transform="translate(691 1000.014)"><g transform="translate(0 0)"><path d="M96.268,43.173c-3.1-.753-6.214-1.474-9.322-2.2-4.345-1.005-8.832-2.045-13.207-3.155v0a31.148,31.148,0,0,1-13.311-6.854,18.935,18.935,0,0,1-4.244-5.488A13.558,13.558,0,0,1,54.6,19.193a10.1,10.1,0,0,1,1.7-5.557,15.5,15.5,0,0,1,5.139-4.042A15,15,0,0,1,67.9,8.177a21.705,21.705,0,0,1,7,1.307,29.361,29.361,0,0,1,6.678,3.354A36.655,36.655,0,0,1,87.4,17.8a95.95,95.95,0,0,1,9.911,12.925L105.171,42.7c3.444.995,7.117,2.209,10.817,3.662q-.533-1.91-1.124-3.8L104.115,26.2A103.1,103.1,0,0,0,93.3,12.141a44.728,44.728,0,0,0-7.12-6.063,37.506,37.506,0,0,0-8.542-4.3A29.927,29.927,0,0,0,67.964,0,22.8,22.8,0,0,0,57.923,2.214,23.783,23.783,0,0,0,49.9,8.554c-.064.078-.127.16-.185.244A18.306,18.306,0,0,0,46.427,19.1a21.808,21.808,0,0,0,2.489,10.122,26.774,26.774,0,0,0,6.054,7.831,39.163,39.163,0,0,0,16.722,8.681l.037.009c4.455,1.131,8.988,2.181,13.371,3.2,3.085.714,6.165,1.429,9.24,2.174,4.031.979,8.892,2.26,13.9,3.991l8.4-5.557a139.871,139.871,0,0,0-20.372-6.378" transform="translate(-46.425 0)" fill="#f03f3f"/><path d="M134.865,45.739a39.907,39.907,0,0,0,16.3-8.268,29.728,29.728,0,0,0,6.022-7.343,21.784,21.784,0,0,0,2.922-9.648A18.415,18.415,0,0,0,157.792,10.3l-.507-.9c-.038-.068-.077-.132-.117-.2a7.519,7.519,0,0,0-.868-1.089l-.153-.171a18.1,18.1,0,0,0-1.761-1.815,16.034,16.034,0,0,0-1.9-1.591l-.826-.617c-.1-.077-.214-.15-.324-.218l-.906-.549A22.448,22.448,0,0,0,140.9.092a27.693,27.693,0,0,0-9.589.944,37.694,37.694,0,0,0-8.589,3.58,37.1,37.1,0,0,0-7.28,5.721A72.978,72.978,0,0,0,104.8,24.17c-1.489,2.437-2.89,4.969-4.165,7.526-.009.016-.063.124-.068.139-1.183,2.446-2.3,4.758-3.55,6.923a40.422,40.422,0,0,1-3.052,4.47c.674,2.451,1.3,4.92,1.831,7.4.129.625.263,1.291.394,1.974a22.344,22.344,0,0,0,2.467-2.289,42.5,42.5,0,0,0,5.4-7.406c1.437-2.484,2.674-5.042,3.89-7.563,1.172-2.348,2.458-4.674,3.82-6.9a65.076,65.076,0,0,1,9.418-12.289,28.924,28.924,0,0,1,5.6-4.442,29.359,29.359,0,0,1,6.664-2.782,19.441,19.441,0,0,1,6.749-.688,14.158,14.158,0,0,1,6.017,1.93l.72.436.765.568a8.968,8.968,0,0,1,1.071.911c.061.059.124.115.186.169a10,10,0,0,1,.958.995c.124.15.253.293.385.434l.371.646A10.394,10.394,0,0,1,151.949,20a13.556,13.556,0,0,1-1.833,6.028,21.486,21.486,0,0,1-4.334,5.293,32.2,32.2,0,0,1-12.961,6.5A218.488,218.488,0,0,1,110.494,41.9q-1.495.22-3.01.46c-.343.638-.7,1.277-1.064,1.913a45.888,45.888,0,0,1-5.55,7.657c3.606-.831,7.259-1.415,10.812-1.941a224.871,224.871,0,0,0,23.168-4.246Z" transform="translate(-11.145 0.002)" fill="#f03f3f"/><path d="M114.26,38.805a75.058,75.058,0,0,0-1.237-7.617c-.085-.4-.183-.791-.272-1.186L52.79,69.63l3.643,2.493,3.643,2.491Z" transform="translate(-41.702 22.265)" fill="#f03f3f"/><path d="M102.165,38.652l-.185.059c.085.545.167,1.1.244,1.665l-2.547,1.638c-.338-2.951-.85-5.676-1.329-7.965-.674-3.136-1.474-6.261-2.373-9.341l-9.04-1.594a125.086,125.086,0,0,1,3.416,12.63,64.156,64.156,0,0,1,1.512,11.3L93.5,45.992,96,44.38l53.371,35.271,3.643-2.491,3.643-2.493Z" transform="translate(-16.362 17.153)" fill="#f03f3f"/></g></g></g></svg>