<svg xmlns="http://www.w3.org/2000/svg" width="21.547" height="21.547" viewBox="0 0 21.547 21.547"><g transform="translate(377.946 -1655.873) rotate(45)"><path d="M1.715,4.336a1,1,0,0,1,1.951,0l1.441,6.4a1,1,0,0,1-.976,1.22H1.25a1,1,0,0,1-.976-1.22Z" transform="translate(921.557 1443.039) rotate(-180)" fill="#f03f3e"/><path d="M1.715,4.336a1,1,0,0,1,1.951,0l1.441,6.4a1,1,0,0,1-.976,1.22H1.25a1,1,0,0,1-.976-1.22Z" transform="translate(925.679 1446.551) rotate(-140)" fill="#f03f3e"/><path d="M1.715,4.336a1,1,0,0,1,1.951,0l1.441,6.4a1,1,0,0,1-.976,1.22H1.25a1,1,0,0,1-.976-1.22Z" transform="translate(916.176 1443.092) rotate(140)" fill="#f03f3e"/></g></svg>