<svg xmlns="http://www.w3.org/2000/svg" width="22.632" height="201.416" viewBox="0 0 22.632 201.416"><path d="M19.632-17.736a8.771,8.771,0,0,1-2.568.24H6.048a16.905,16.905,0,0,1-3.072-.168v3.12A19.053,19.053,0,0,1,6-14.688H17.424A16.629,16.629,0,0,1,10.152-4.224,19.527,19.527,0,0,1,4.9-1.776,8.832,8.832,0,0,1,7.008,1.08a23.368,23.368,0,0,0,8.928-6.12c2.3-2.592,3.72-5.472,4.92-10.056a3.609,3.609,0,0,1,.408-1.08ZM9.792,15.32a5.509,5.509,0,0,1,.048.888,11.327,11.327,0,0,1-.912,5.184c-.888,1.68-2.52,2.808-5.136,3.576A7.227,7.227,0,0,1,5.52,27.416c3.168-1.248,4.9-2.616,5.952-4.824a10.981,10.981,0,0,0,1.08-4.632A8.061,8.061,0,0,1,14.4,19.832a11.771,11.771,0,0,0,2.52-1.776,12.794,12.794,0,0,0,2.9-3.888,5.235,5.235,0,0,1,.72-1.3L19.2,11.24a5.858,5.858,0,0,1-2.064.192l-10.2.024a15.277,15.277,0,0,1-2.568-.168l.024,2.736a17.7,17.7,0,0,1,2.544-.12l9.5-.048a3.059,3.059,0,0,0,.672-.048l.024.024a1.339,1.339,0,0,1-.12.192.371.371,0,0,0-.072.144,8.832,8.832,0,0,1-4.392,3.672c.024-.24.024-.432.048-.864a10.554,10.554,0,0,1,.144-1.656ZM2.928,36.592a25.2,25.2,0,0,1,6.12,4.872l2.064-2.616A33.991,33.991,0,0,0,4.92,34.216Zm.84,15.84a8.5,8.5,0,0,1,1.584-.408,25.923,25.923,0,0,0,9.144-3.6c3.288-2.184,5.568-5.016,7.608-9.408a10.349,10.349,0,0,1-2.544-2.352,20.04,20.04,0,0,1-2.448,4.8,16.035,16.035,0,0,1-7.128,5.88,22.869,22.869,0,0,1-7.1,1.776Zm16.008,9.344.888-.288a14.8,14.8,0,0,0-2.208-3.72l-1.848.552a15.267,15.267,0,0,1,1.728,2.712c-.264.048-.816.072-1.32.1l-4.992.048h-.576c-.36.024-.432.024-.672.048.12-.216.168-.312.576-1.152a14.417,14.417,0,0,1,.72-1.368l-3.12-.7a12.929,12.929,0,0,1-1.416,3.336,21.047,21.047,0,0,1-6,6.864,7.619,7.619,0,0,1,2.4,1.92,25.828,25.828,0,0,0,5.616-6.456l7.464-.072a23.416,23.416,0,0,1-2.688,5.664A33.068,33.068,0,0,0,9.5,66.048L7.68,68.184a28.355,28.355,0,0,1,4.92,3.408,21.606,21.606,0,0,1-8.616,5.736,8.359,8.359,0,0,1,1.992,2.5c7.248-3.36,10.968-7.488,13.824-15.336a5.023,5.023,0,0,1,.744-1.608Zm4.128-1.2a13.684,13.684,0,0,0-2.208-3.6l-1.776.576a17.476,17.476,0,0,1,2.136,3.672ZM18.336,84.512A19.2,19.2,0,0,1,13.872,89a35.05,35.05,0,0,1-12.6,6.24A9.027,9.027,0,0,1,2.88,97.976a38.885,38.885,0,0,0,8.568-3.888v8.448a13.5,13.5,0,0,1-.144,2.592h3.36a18.156,18.156,0,0,1-.12-2.664V92.216a42.441,42.441,0,0,0,5.664-4.944,9.886,9.886,0,0,1,.888-.84ZM7.176,113.656a12.183,12.183,0,0,1,.12-2.232H4.08a12.676,12.676,0,0,1,.1,2.208L4.2,124.768a18.084,18.084,0,0,0,.072,2.208,3.318,3.318,0,0,0,1.176,2.448c.936.72,2.592,1.032,5.616,1.032,1.464,0,4.488-.144,5.9-.288,2.544-.24,2.664-.264,3.168-.264l-.144-3.192a14.18,14.18,0,0,1-2.736.576,45.261,45.261,0,0,1-5.568.384c-2.328,0-3.7-.192-4.1-.624-.336-.336-.432-.888-.432-2.28a1.593,1.593,0,0,1,.024-.312v-3.168a40.635,40.635,0,0,0,10.248-3.312c1.272-.624,1.992-.96,2.16-1.032l-1.92-2.712c-1.56,1.464-6.864,3.6-10.488,4.272Zm9.7-2.592a15.35,15.35,0,0,1,2.376,3.672l1.728-.792a15.259,15.259,0,0,0-2.4-3.648Zm7.008,1.416A14.12,14.12,0,0,0,21.528,109l-1.656.768a17.861,17.861,0,0,1,2.3,3.576ZM2.928,140.592a25.2,25.2,0,0,1,6.12,4.872l2.064-2.616a33.991,33.991,0,0,0-6.192-4.632Zm.84,15.84a8.5,8.5,0,0,1,1.584-.408,25.923,25.923,0,0,0,9.144-3.6c3.288-2.184,5.568-5.016,7.608-9.408a10.35,10.35,0,0,1-2.544-2.352,20.041,20.041,0,0,1-2.448,4.8,16.035,16.035,0,0,1-7.128,5.88,22.868,22.868,0,0,1-7.1,1.776Zm15.888,9.728,1.032-.384a15.251,15.251,0,0,0-2.136-3.792l-1.776.6a14.882,14.882,0,0,1,1.752,3,11.6,11.6,0,0,1-1.248.048l-5.256.072c-.48,0-.864.024-1.152.048l.192-.36c.048-.1.048-.12.168-.336.24-.48.456-.96.648-1.392a2.865,2.865,0,0,1,.408-.72L9,162.272a9.21,9.21,0,0,1-1.224,3.192,18.908,18.908,0,0,1-6.216,6.96,6.377,6.377,0,0,1,2.328,2.064A23.848,23.848,0,0,0,9.5,168.32l7.224-.1A19.312,19.312,0,0,1,4.464,181.16a7.941,7.941,0,0,1,2.04,2.52,24.226,24.226,0,0,0,8.544-6.072,23.666,23.666,0,0,0,4.824-9.072,4.84,4.84,0,0,1,.6-1.44Zm4.152-1.464a14,14,0,0,0-2.112-3.648l-1.728.6a17.191,17.191,0,0,1,2.064,3.72Z" transform="translate(-1.272 17.736)" fill="#303138"/></svg>