<svg xmlns="http://www.w3.org/2000/svg" width="23.4" height="177.984" viewBox="0 0 23.4 177.984"><path d="M5.952-4.056A9.229,9.229,0,0,1,7.368-2.088,17.169,17.169,0,0,0,9.888-4.7v2.256a11.891,11.891,0,0,1,1.7-.1h1.68v1.92A19.15,19.15,0,0,1,13.1,1.992H15.96a18.435,18.435,0,0,1-.168-2.616v-1.92h1.8a11.964,11.964,0,0,1,1.752.1v-2.28a23.581,23.581,0,0,0,2.688,2.784,11.913,11.913,0,0,1,1.656-2.472,19.065,19.065,0,0,1-4.08-4.008A20.924,20.924,0,0,1,16.8-13.248h3.528a23.918,23.918,0,0,1,2.688.144v-2.712a22.85,22.85,0,0,1-2.76.144h-4.44v-2.16a17.084,17.084,0,0,1,.144-2.28H13.1a13.663,13.663,0,0,1,.168,2.256v2.184h-3.5c-.936,0-1.872-.048-2.616-.12V-13.1A22.282,22.282,0,0,1,9.7-13.248h2.568A20.53,20.53,0,0,1,5.952-4.56v-9.408a52.089,52.089,0,0,0,2.256-5.616L5.544-20.3A20.1,20.1,0,0,1,.5-10.488a14.121,14.121,0,0,1,1.056,2.9,13.365,13.365,0,0,0,1.872-2.568C3.384-9.1,3.384-8.712,3.384-7.44V-.816A23.423,23.423,0,0,1,3.24,1.992H6.072a21.632,21.632,0,0,1-.12-2.784Zm9.84-.84v-3c0-.96,0-1.536-.048-2.88a26.078,26.078,0,0,0,3.408,5.808,15.818,15.818,0,0,1-1.608.072Zm-2.52,0H11.688A14.373,14.373,0,0,1,10.1-4.968,21.238,21.238,0,0,0,13.32-10.7c-.048,1.128-.048,1.632-.048,2.88Zm5.9,18.1a12.2,12.2,0,0,1,1.68.1V12.1a16.4,16.4,0,0,0,1.752.984,8.079,8.079,0,0,1,1.08-2.472,14.382,14.382,0,0,1-3.936-2.424,8.814,8.814,0,0,1-1.968-2.208H15.24a10.408,10.408,0,0,1-2.28,2.76,15.213,15.213,0,0,1-2.832,2.064V10.16a10.929,10.929,0,0,1-1.608.1H8.04V8.7h.792a9.758,9.758,0,0,1,1.824.12V6.488a13.874,13.874,0,0,1-2.256.12H4.2a16.678,16.678,0,0,1-2.424-.12,21.8,21.8,0,0,1,.1,2.472v8.3a16.6,16.6,0,0,1-.1,2.04c.528-.048,1.2-.072,1.944-.072H8.592c0,1.392-.048,2.04-.144,3.312a15.481,15.481,0,0,0-.744-2.88l-.912.288a17.471,17.471,0,0,1,.648,3.264l.984-.408c-.24,2.544-.408,2.832-1.416,2.832a7.637,7.637,0,0,1-1.632-.216A6.671,6.671,0,0,1,5.76,27.8a12.951,12.951,0,0,0,1.344.072c1.872,0,2.4-.312,2.856-1.728a7.169,7.169,0,0,1,1.416,2.04,10.361,10.361,0,0,0,5.376-5.3,11.968,11.968,0,0,0,5.664,5.3,8.832,8.832,0,0,1,1.248-2.52,11.822,11.822,0,0,1-3.312-1.9A8.121,8.121,0,0,1,18.288,21.2h2.16c.672,0,1.152.024,1.848.072a14.608,14.608,0,0,1-.072-1.728V16.3a13.027,13.027,0,0,1,.1-1.7,18.87,18.87,0,0,1-1.944.072h-2.52c0-.456,0-.576-.024-1.464Zm-3.624,0v1.464H13.2a17.5,17.5,0,0,1-1.9-.072c.048.624.072.912.072,1.7v3.24a12.175,12.175,0,0,1-.1,1.752,15.139,15.139,0,0,1,1.9-.1h1.7a8.533,8.533,0,0,1-4.824,4.656,39.384,39.384,0,0,0,.648-6.84c.024-1.032.048-1.56.1-1.992a12.031,12.031,0,0,1-1.92.1H8.04V15.512H8.5a11.36,11.36,0,0,1,1.608.1v-2.04a9.933,9.933,0,0,1-1.608.1H8.04V12.1h.48a10.929,10.929,0,0,1,1.608.1v-.936a6.371,6.371,0,0,1,1.008,1.9c.768-.48,1.032-.672,1.512-1.008V13.3a10.853,10.853,0,0,1,1.632-.1Zm-.024,3.432a24.616,24.616,0,0,1-.168,2.544H13.608V16.64Zm4.44,0v2.544h-2.3c.072-.72.1-1.128.144-2.544ZM5.952,15.512V17.12H4.176V15.512Zm0-1.848H4.176V12.1H5.952Zm0-3.408H4.176V8.7H5.952Zm8.352.84h-.36a15.476,15.476,0,0,0,2.568-2.9,15.123,15.123,0,0,0,2.9,2.9ZM1.7,19.88a20.518,20.518,0,0,1-1.08,6.168l1.728.84a29.6,29.6,0,0,0,.96-6.648Zm1.9.36c.072.96.1,1.248.1,2.4,0,1.632-.024,2.088-.1,3.312l1.584-.24V24.536c0-1.464-.072-2.712-.24-4.512Zm1.7-.072a24.52,24.52,0,0,1,.48,4.8l1.3-.384a25.763,25.763,0,0,0-.672-4.7ZM19.776,35.776l.888-.288a14.8,14.8,0,0,0-2.208-3.72l-1.848.552a15.267,15.267,0,0,1,1.728,2.712c-.264.048-.816.072-1.32.1l-4.992.048h-.576c-.36.024-.432.024-.672.048.12-.216.168-.312.576-1.152a14.417,14.417,0,0,1,.72-1.368l-3.12-.7a12.929,12.929,0,0,1-1.416,3.336,21.047,21.047,0,0,1-6,6.864,7.619,7.619,0,0,1,2.4,1.92,25.828,25.828,0,0,0,5.616-6.456l7.464-.072a23.416,23.416,0,0,1-2.688,5.664A33.068,33.068,0,0,0,9.5,40.048L7.68,42.184a28.355,28.355,0,0,1,4.92,3.408,21.606,21.606,0,0,1-8.616,5.736,8.359,8.359,0,0,1,1.992,2.5c7.248-3.36,10.968-7.488,13.824-15.336a5.023,5.023,0,0,1,.744-1.608Zm4.128-1.2a13.684,13.684,0,0,0-2.208-3.6l-1.776.576a17.476,17.476,0,0,1,2.136,3.672ZM18.336,58.512A19.2,19.2,0,0,1,13.872,63a35.05,35.05,0,0,1-12.6,6.24A9.027,9.027,0,0,1,2.88,71.976a38.885,38.885,0,0,0,8.568-3.888v8.448a13.5,13.5,0,0,1-.144,2.592h3.36a18.156,18.156,0,0,1-.12-2.664V66.216a42.44,42.44,0,0,0,5.664-4.944,9.886,9.886,0,0,1,.888-.84ZM7.176,87.656a12.183,12.183,0,0,1,.12-2.232H4.08a12.676,12.676,0,0,1,.1,2.208L4.2,98.768a18.084,18.084,0,0,0,.072,2.208,3.318,3.318,0,0,0,1.176,2.448c.936.72,2.592,1.032,5.616,1.032,1.464,0,4.488-.144,5.9-.288,2.544-.24,2.664-.264,3.168-.264l-.144-3.192a14.18,14.18,0,0,1-2.736.576,45.261,45.261,0,0,1-5.568.384c-2.328,0-3.7-.192-4.1-.624-.336-.336-.432-.888-.432-2.28a1.593,1.593,0,0,1,.024-.312V95.288a40.635,40.635,0,0,0,10.248-3.312c1.272-.624,1.992-.96,2.16-1.032l-1.92-2.712C16.1,89.7,10.8,91.832,7.176,92.5Zm9.7-2.592a15.35,15.35,0,0,1,2.376,3.672l1.728-.792a15.259,15.259,0,0,0-2.4-3.648ZM23.88,86.48A14.12,14.12,0,0,0,21.528,83l-1.656.768a17.861,17.861,0,0,1,2.3,3.576ZM2.928,114.592a25.2,25.2,0,0,1,6.12,4.872l2.064-2.616a33.991,33.991,0,0,0-6.192-4.632Zm.84,15.84a8.5,8.5,0,0,1,1.584-.408,25.923,25.923,0,0,0,9.144-3.6c3.288-2.184,5.568-5.016,7.608-9.408a10.349,10.349,0,0,1-2.544-2.352,20.04,20.04,0,0,1-2.448,4.8,16.035,16.035,0,0,1-7.128,5.88,22.869,22.869,0,0,1-7.1,1.776Zm15.888,9.728,1.032-.384a15.251,15.251,0,0,0-2.136-3.792l-1.776.6a14.882,14.882,0,0,1,1.752,3,11.6,11.6,0,0,1-1.248.048l-5.256.072c-.48,0-.864.024-1.152.048l.192-.36c.048-.1.048-.12.168-.336.24-.48.456-.96.648-1.392a2.865,2.865,0,0,1,.408-.72L9,136.272a9.21,9.21,0,0,1-1.224,3.192,18.908,18.908,0,0,1-6.216,6.96,6.377,6.377,0,0,1,2.328,2.064A23.848,23.848,0,0,0,9.5,142.32l7.224-.1A19.312,19.312,0,0,1,4.464,155.16a7.941,7.941,0,0,1,2.04,2.52,24.226,24.226,0,0,0,8.544-6.072,23.666,23.666,0,0,0,4.824-9.072,4.84,4.84,0,0,1,.6-1.44Zm4.152-1.464a14,14,0,0,0-2.112-3.648l-1.728.6a17.191,17.191,0,0,1,2.064,3.72Z" transform="translate(-0.504 20.304)" fill="#303138"/></svg>