<svg xmlns="http://www.w3.org/2000/svg" width="102" height="286" viewBox="0 0 102 286"><g transform="translate(-348 -3623)"><rect width="46" height="206" rx="5" transform="translate(404 3623)" fill="#fff"/><rect width="46" height="258" rx="5" transform="translate(348 3651)" fill="#fff"/><path d="M10.44-17.88H4.248a25.944,25.944,0,0,1-2.616-.1,13.051,13.051,0,0,1,.1,1.824v1.944a13.348,13.348,0,0,1-.12,1.872H4.224v-3.192H19.848v3.192H22.44a13.424,13.424,0,0,1-.1-1.848v-1.968a12.41,12.41,0,0,1,.1-1.824c-.816.072-1.44.1-2.664.1H13.128v-.576a8.945,8.945,0,0,1,.12-1.752H10.3a9.211,9.211,0,0,1,.144,1.752ZM7.56-7.128c-.072.672-.1.912-.168,1.3A5.466,5.466,0,0,1,4.56-1.824,16.084,16.084,0,0,1,.912-.432,11.763,11.763,0,0,1,2.376,2.04C6.24.552,7.776-.5,8.952-2.568a9.479,9.479,0,0,0,1.224-4.56h2.64v6.5c0,1.728.7,2.064,4.3,2.064,3.072,0,4.08-.144,4.752-.72.72-.6,1.008-1.656,1.1-4.056A8.305,8.305,0,0,1,20.5-4.08v.408a7.911,7.911,0,0,1-.216,2.04c-.168.5-.72.648-2.5.648-1.992,0-2.3-.1-2.3-.672V-7.128H19.9a17.97,17.97,0,0,1,2.544.144V-9.6a14.152,14.152,0,0,1-2.544.144H4.176A14.133,14.133,0,0,1,1.608-9.6v2.616a17.423,17.423,0,0,1,2.568-.144Zm-2.52-4.1a14.576,14.576,0,0,1,2.28-.12h9.408a15.107,15.107,0,0,1,2.3.12V-13.8a14.916,14.916,0,0,1-2.3.12H7.32a14.39,14.39,0,0,1-2.28-.12Zm5.472,27.488v2.712H6.984a20.055,20.055,0,0,1-2.664-.12v2.688a23.933,23.933,0,0,1,2.664-.12h3.528v3.24H4.56a24.386,24.386,0,0,1-3.072-.144V27.32a20.7,20.7,0,0,1,3-.168H19.464a21.059,21.059,0,0,1,3.024.168V24.512a25.29,25.29,0,0,1-3.048.144H13.2v-3.24h3.888a23.757,23.757,0,0,1,2.64.12V18.848a22.52,22.52,0,0,1-2.64.12H13.2V16.256h3.384a23.4,23.4,0,0,1,2.544.12V14.624c1.08.624,1.776,1.008,2.856,1.512a11.344,11.344,0,0,1,1.536-2.76,21.748,21.748,0,0,1-5.88-3.048A17.511,17.511,0,0,1,13.368,6.08H10.32a10.081,10.081,0,0,1-1.3,1.728,21.5,21.5,0,0,1-2.64,2.52A23.281,23.281,0,0,1,.576,13.5,15.128,15.128,0,0,1,2.16,16.04a21.358,21.358,0,0,0,2.616-1.368v1.7a23.583,23.583,0,0,1,2.616-.12ZM7.2,13.832c-.36,0-.576,0-1.056-.024A19.266,19.266,0,0,0,11.928,8.36a21.519,21.519,0,0,0,5.9,5.448c-.456.024-.624.024-1.128.024ZM10.656,31.96a20.256,20.256,0,0,1,.144,2.9v8.3c0,.456-.216.552-1.2.552a13.735,13.735,0,0,1-2.4-.264,8.133,8.133,0,0,1,.624,2.64c.72.048,1.056.048,1.56.048,3.264,0,4.128-.528,4.128-2.5V34.84a21.523,21.523,0,0,1,.144-2.88Zm5.28,3.96c.144.264.288.552.672,1.368a18.721,18.721,0,0,0,5.136,7.056A12.442,12.442,0,0,1,23.5,41.968a13.444,13.444,0,0,1-3.7-4.032,11.345,11.345,0,0,1-1.368-3.1ZM5.472,34.936a15.94,15.94,0,0,1-.864,2.832A16.118,16.118,0,0,1,.816,43.336a15.961,15.961,0,0,1,2.136,2.112A20,20,0,0,0,5.784,41.44,35,35,0,0,0,7.7,37.072a9.979,9.979,0,0,1,.408-1.152Zm11.976,7.272a9.382,9.382,0,0,1-.552,1.1,15.182,15.182,0,0,1-5.808,5.424,23.04,23.04,0,0,1-8.664,2.712A10.433,10.433,0,0,1,3.84,54.16a24.721,24.721,0,0,0,9.024-3.288,20.223,20.223,0,0,0,5.952-5.5,9.415,9.415,0,0,1,1.08-1.392ZM10.392,58.152a15.7,15.7,0,0,1,.1,2.016c0,5.76-1.3,9.7-4.392,13.248A16,16,0,0,1,.864,77.424,7.18,7.18,0,0,1,2.736,79.9a20.243,20.243,0,0,0,3.72-2.76,16.709,16.709,0,0,0,3.7-4.608,17.173,17.173,0,0,0,1.872-4.848,18.974,18.974,0,0,0,3.192,6.552,23.363,23.363,0,0,0,6.1,5.664,8.929,8.929,0,0,1,1.872-2.664,15.983,15.983,0,0,1-3.72-2.592,16.087,16.087,0,0,1-3.792-4.56,17.228,17.228,0,0,1-2.352-9.456,15.878,15.878,0,0,1,.168-2.472Zm12.864,29.7a13,13,0,0,1-2.256.12H16.824c.264-.936.48-1.752.624-2.376.192-.816.24-1.032.336-1.32l-2.64-.528a17.4,17.4,0,0,1-.576,3.264,17.618,17.618,0,0,1-3.24,6.912,8.422,8.422,0,0,1,1.728,1.728c.5-.672.672-.912,1.1-1.584a16.381,16.381,0,0,0,2.016,5.64,14.9,14.9,0,0,1-3.408,3,14.663,14.663,0,0,1-1.9,1.032,7.421,7.421,0,0,1,1.3,2.4,18.617,18.617,0,0,0,5.448-4.3,16.434,16.434,0,0,0,4.68,4.128,11.005,11.005,0,0,1,1.392-2.544,12.759,12.759,0,0,1-4.56-3.744,19.616,19.616,0,0,0,2.448-9.408,12.261,12.261,0,0,1,1.68.1Zm-4.128,2.424a17.38,17.38,0,0,1-1.488,7.056,18.876,18.876,0,0,1-1.92-6.312c.12-.312.12-.312.312-.744Zm-7.536,12.12a12.42,12.42,0,0,0-1.944-1.08,8.912,8.912,0,0,0,1.44-3.072,9.481,9.481,0,0,1,1.944.12V95.936a8.486,8.486,0,0,1-1.776.12H7.464c.192-.456.288-.624.5-1.224l-2.5-.48a17.367,17.367,0,0,1-.624,1.7h-1.8a9.974,9.974,0,0,1-1.9-.12V98.36a10.286,10.286,0,0,1,1.9-.12h.7a20.069,20.069,0,0,1-1.56,2.376c1.7.624,2.352.888,3.552,1.416a13.124,13.124,0,0,1-4.752,1.776,10.483,10.483,0,0,1,1.248,2.208,12.588,12.588,0,0,0,5.736-2.856,12.788,12.788,0,0,1,2.232,1.464Zm-3-4.152a6.19,6.19,0,0,1-1.08,2.136c-.72-.312-1.032-.432-2.04-.792.432-.648.5-.768.84-1.344ZM8.5,88.3v-2.88a9.43,9.43,0,0,1,.1-1.584H5.976a7.67,7.67,0,0,1,.12,1.632V88.3H3.24a11.421,11.421,0,0,1-2.016-.12v2.3a11.288,11.288,0,0,1,1.992-.12h1.3a9.592,9.592,0,0,1-3.84,3,8.163,8.163,0,0,1,1.56,1.992,13.632,13.632,0,0,0,3.912-3.768c-.048.432-.072.816-.072,1.032v.912A4.419,4.419,0,0,1,6,94.328H8.568a3.6,3.6,0,0,1-.1-.888v-.864c0-.192-.024-.48-.072-.984a8.7,8.7,0,0,0,2.136,2.28A7.719,7.719,0,0,1,11.928,91.9a6.5,6.5,0,0,1-2.112-1.536h1.608a11.554,11.554,0,0,1,1.536.072V88.232a11.069,11.069,0,0,1-1.536.072ZM1.824,84.848A12.447,12.447,0,0,1,3.432,88.04l2.112-.792a11.97,11.97,0,0,0-1.68-3.168Zm8.832-.816a11.865,11.865,0,0,1-1.7,3.216l2.04.912a20.667,20.667,0,0,0,1.824-3.24ZM6.744,115.216v2.04H3.384a13.326,13.326,0,0,1-2.136-.12V119.7a17.206,17.206,0,0,1,2.472-.12H6.744v1.9H4.272a16.661,16.661,0,0,1-2.328-.12,20.3,20.3,0,0,1,.1,2.256v4.416a13.6,13.6,0,0,1-.12,2.352H4.536a20.062,20.062,0,0,1-.1-2.328v-4.3h2.3v5.64a15.061,15.061,0,0,1-.144,2.616H9.312a17.241,17.241,0,0,1-.12-2.592V123.76h2.16v3.84c0,.312-.144.408-.6.408-.264,0-.888-.048-1.272-.1a6.647,6.647,0,0,1,.432,2.28c.672.048.888.048,1.1.048,2.064,0,2.664-.432,2.664-1.92v-4.8c0-1.08.024-1.56.072-2.136a18.523,18.523,0,0,1-2.232.1H9.192v-1.9H11.9a13.818,13.818,0,0,1,2.3.12V117.16a19.386,19.386,0,0,1-2.208.1H9.192v-2.04h2.04a20.72,20.72,0,0,1,2.376.1v-2.544a14.821,14.821,0,0,1-2.376.12H9.192v-.72a10.792,10.792,0,0,1,.144-2.28H6.6a11.888,11.888,0,0,1,.144,2.328v.672H4.9c.12-.48.264-1.008.312-1.272a7.316,7.316,0,0,1,.264-.96L3.024,110.2a3.714,3.714,0,0,1-.12.936,13.4,13.4,0,0,1-1.9,4.752,18.763,18.763,0,0,1,2.28,1.176,19.722,19.722,0,0,0,.84-1.848Zm8.28-3.648a13.838,13.838,0,0,1,.144,2.544v9.6a15.006,15.006,0,0,1-.12,2.568h2.688a15.024,15.024,0,0,1-.12-2.544v-9.672a16.572,16.572,0,0,1,.12-2.5Zm4.584-1.584a22.429,22.429,0,0,1,.144,2.976v15.672c0,.576-.216.72-1.08.72a21.783,21.783,0,0,1-3.1-.24,7.259,7.259,0,0,1,.72,2.568c1.416.048,2.16.072,2.28.072a4.8,4.8,0,0,0,2.9-.552c.576-.408.792-1.008.792-2.28V112.888a16.376,16.376,0,0,1,.168-2.9Zm-5.736,30.632a5.246,5.246,0,0,1,2.424.72,5.946,5.946,0,0,1,2.952,5.328,6.719,6.719,0,0,1-3.336,6,12.755,12.755,0,0,1-4.776,1.32,7.656,7.656,0,0,1,1.464,2.808,15.691,15.691,0,0,0,3.768-1.008,9.246,9.246,0,0,0,5.832-8.952c0-5.4-3.744-8.9-9.5-8.9a10.774,10.774,0,0,0-8.256,3.36,10.31,10.31,0,0,0-2.64,6.984c0,3.864,1.968,6.648,4.7,6.648,1.968,0,3.5-1.416,4.872-4.512A34.72,34.72,0,0,0,13.872,140.616Zm-2.928.024a31.63,31.63,0,0,1-1.992,8.112c-.864,2.064-1.68,3.072-2.472,3.072-1.056,0-1.9-1.56-1.9-3.528a8.035,8.035,0,0,1,3.264-6.48A6.109,6.109,0,0,1,10.944,140.64Z" transform="translate(415 3657)" fill="#303138"/><path d="M20.112-9.168a19.255,19.255,0,0,1,2.64.144v-2.712a17.384,17.384,0,0,1-2.64.12h-9.12c.624-1.32.624-1.32.936-1.944l.48-1.008L9.528-15a15.418,15.418,0,0,1-1.44,3.384H3.96a17.411,17.411,0,0,1-2.616-.12v2.712A18.4,18.4,0,0,1,3.96-9.168H6.72A33.487,33.487,0,0,1,3.84-5.16a50.007,50.007,0,0,1,6.432,1.992C7.92-1.8,5.376-1.08,1.3-.6a11.846,11.846,0,0,1,1.32,2.568C7.584,1.008,10.44-.1,13.008-2.04A47.537,47.537,0,0,1,20.4,1.9L22.392-.312A63.163,63.163,0,0,0,15.024-3.84a14.6,14.6,0,0,0,3.048-5.328Zm-4.824,0A10.138,10.138,0,0,1,12.5-4.824c-1.7-.624-2.28-.792-4.656-1.488A31.577,31.577,0,0,0,9.7-9.168ZM10.416-17.9H4.344a22.377,22.377,0,0,1-2.76-.12,16.636,16.636,0,0,1,.12,1.848V-14.4a12.656,12.656,0,0,1-.12,1.776h2.64V-15.5h15.5v2.88h2.64a10,10,0,0,1-.12-1.776v-1.776a15.352,15.352,0,0,1,.1-1.848,22.615,22.615,0,0,1-2.76.12H13.1v-.432a12.5,12.5,0,0,1,.12-1.8H10.3a10.569,10.569,0,0,1,.12,1.824ZM3.264,24.464C4.8,21.128,5.208,19.592,6,13.784l-2.664-.552C2.76,18.008,2.232,19.9.624,22.976Zm13.728-15.1A42.08,42.08,0,0,0,8.76,5.744L7.224,8.024a32.891,32.891,0,0,1,8.112,3.864Zm6.552,13.176a45.051,45.051,0,0,0-4.056-9.72L16.92,13.976a39.359,39.359,0,0,1,3.864,9.96Zm-13.464-9.1a14.966,14.966,0,0,1,.168-2.376h-3.1A17.254,17.254,0,0,1,7.32,13.52V24.848c0,2.184.72,2.568,4.968,2.568,3.84,0,4.9-.288,5.568-1.512.528-1.008.768-2.376.984-5.616a11.325,11.325,0,0,1-2.688-.96,15.245,15.245,0,0,1-.528,4.752c-.264.552-.96.72-2.88.72-2.208,0-2.664-.12-2.664-.72ZM12,40.024a2.856,2.856,0,1,0,2.856,2.856A2.847,2.847,0,0,0,12,40.024Zm8.112,28.808a19.255,19.255,0,0,1,2.64.144V66.264a17.384,17.384,0,0,1-2.64.12h-9.12c.624-1.32.624-1.32.936-1.944l.48-1.008L9.528,63a15.418,15.418,0,0,1-1.44,3.384H3.96a17.41,17.41,0,0,1-2.616-.12v2.712a18.4,18.4,0,0,1,2.616-.144H6.72A33.487,33.487,0,0,1,3.84,72.84a50.007,50.007,0,0,1,6.432,1.992C7.92,76.2,5.376,76.92,1.3,77.4a11.846,11.846,0,0,1,1.32,2.568c4.968-.96,7.824-2.064,10.392-4.008A47.537,47.537,0,0,1,20.4,79.9l1.992-2.208a63.162,63.162,0,0,0-7.368-3.528,14.6,14.6,0,0,0,3.048-5.328Zm-4.824,0A10.138,10.138,0,0,1,12.5,73.176c-1.7-.624-2.28-.792-4.656-1.488A31.576,31.576,0,0,0,9.7,68.832ZM10.416,60.1H4.344a22.377,22.377,0,0,1-2.76-.12,16.636,16.636,0,0,1,.12,1.848V63.6a12.657,12.657,0,0,1-.12,1.776h2.64V62.5h15.5v2.88h2.64a10,10,0,0,1-.12-1.776V61.824a15.352,15.352,0,0,1,.1-1.848,22.615,22.615,0,0,1-2.76.12H13.1v-.432a12.5,12.5,0,0,1,.12-1.8H10.3a10.569,10.569,0,0,1,.12,1.824Zm.1,34.16v2.712H6.984a20.055,20.055,0,0,1-2.664-.12v2.688a23.931,23.931,0,0,1,2.664-.12h3.528v3.24H4.56a24.385,24.385,0,0,1-3.072-.144v2.808a20.7,20.7,0,0,1,3-.168H19.464a21.058,21.058,0,0,1,3.024.168v-2.808a25.29,25.29,0,0,1-3.048.144H13.2v-3.24h3.888a23.755,23.755,0,0,1,2.64.12V96.848a22.521,22.521,0,0,1-2.64.12H13.2V94.256h3.384a23.4,23.4,0,0,1,2.544.12V92.624c1.08.624,1.776,1.008,2.856,1.512a11.344,11.344,0,0,1,1.536-2.76,21.748,21.748,0,0,1-5.88-3.048,17.511,17.511,0,0,1-4.272-4.248H10.32a10.081,10.081,0,0,1-1.3,1.728,21.5,21.5,0,0,1-2.64,2.52A23.281,23.281,0,0,1,.576,91.5,15.128,15.128,0,0,1,2.16,94.04a21.358,21.358,0,0,0,2.616-1.368v1.7a23.583,23.583,0,0,1,2.616-.12ZM7.2,91.832c-.36,0-.576,0-1.056-.024a19.266,19.266,0,0,0,5.784-5.448,21.519,21.519,0,0,0,5.9,5.448c-.456.024-.624.024-1.128.024ZM7.32,110.1a24.519,24.519,0,0,1-.72,4.176c-.528.024-.936.024-1.224.024a16.664,16.664,0,0,1-3.24-.216v2.736l1.272.024c.5.024.648.024.96.024.288,0,.432,0,1.512-.024a36.922,36.922,0,0,1-2.256,5.664,21.846,21.846,0,0,1-2.328,3.84l2.76,1.536c.144-.288.144-.288.456-.864.912-1.68,1.128-2.112,1.68-3.288a46.067,46.067,0,0,0,2.64-6.96c1.488-.12,2.952-.288,3.816-.432a4.68,4.68,0,0,1,.768-.12l-.072-2.76a20.586,20.586,0,0,1-3.84.672c.264-1.056.384-1.536.5-2.112a12.014,12.014,0,0,1,.384-1.608Zm15.36,6.24a37.885,37.885,0,0,0-6.768-3.216l-1.44,2.328a29.373,29.373,0,0,1,6.912,3.36Zm-.1,10.824a4.3,4.3,0,0,1-.36-.336,8.848,8.848,0,0,0-.84-.648,15,15,0,0,0-3.792-2.208,25.482,25.482,0,0,1-.216-3.288,8,8,0,0,1,.288-2.424l-2.784-.144a12.73,12.73,0,0,0-.192,2.424c0,.72.048,1.656.12,2.76a11.921,11.921,0,0,0-2.232-.216c-3.048,0-5.184,1.7-5.184,4.128,0,2.448,2.064,4.032,5.232,4.032a5.541,5.541,0,0,0,3.984-1.344,3.835,3.835,0,0,0,1.032-2.544c0-.1-.024-.264-.048-.48a14.515,14.515,0,0,1,3.672,2.976Zm-7.68-1.32s.048.576.048.816c0,1.344-.792,2.016-2.424,2.016-1.488,0-2.352-.576-2.352-1.56,0-1.008,1.008-1.656,2.568-1.656A6.05,6.05,0,0,1,14.9,125.848Zm4.68,14.936,1.224-.48a16.049,16.049,0,0,0-2.136-3.792l-1.752.648a15.632,15.632,0,0,1,1.872,3.312l.12.24.072.192a8.075,8.075,0,0,1-1.32.048l-5.328.024c.072-.84.072-.864.1-1.512l.072-1.3.024-.456c0-.168.024-.288.024-.432a6.7,6.7,0,0,1,.1-.768l-3.216-.072a4.9,4.9,0,0,1,.072.936v.6c0,.7-.048,2.112-.12,3l-4.2.024a14.349,14.349,0,0,1-2.664-.168l.024,2.928a16.276,16.276,0,0,1,2.592-.12H9.12a13.144,13.144,0,0,1-7.584,10.968,9.783,9.783,0,0,1,2.16,2.52c5.256-3.312,7.824-7.464,8.4-13.512h5.592a54.148,54.148,0,0,1-.528,7.68c-.384,2.088-.744,2.616-1.776,2.616a11.677,11.677,0,0,1-3.168-.576,7.327,7.327,0,0,1,.552,3.072,16.222,16.222,0,0,0,2.976.288c2.88,0,3.72-.984,4.344-5.136.24-1.584.5-5.3.576-8.016a3.626,3.626,0,0,1,.264-1.584Zm4.224-1.728a14,14,0,0,0-2.112-3.648l-1.7.672a17.191,17.191,0,0,1,2.064,3.72Zm-5.472,23.456A19.2,19.2,0,0,1,13.872,167a35.05,35.05,0,0,1-12.6,6.24,9.027,9.027,0,0,1,1.608,2.736,38.885,38.885,0,0,0,8.568-3.888v8.448a13.5,13.5,0,0,1-.144,2.592h3.36a18.156,18.156,0,0,1-.12-2.664V170.216a42.441,42.441,0,0,0,5.664-4.944,9.883,9.883,0,0,1,.888-.84ZM9.24,209.08a24.622,24.622,0,0,1-.1-2.664V200.08a13.71,13.71,0,0,0-.1-1.632,7.757,7.757,0,0,0,.816.408,58.285,58.285,0,0,1,8.5,4.584l1.68-2.832a69.806,69.806,0,0,0-10.9-5.064V191.08a19.888,19.888,0,0,1,.1-2.52H5.952a15.73,15.73,0,0,1,.144,2.448v15.384a17.5,17.5,0,0,1-.144,2.688Zm4.92-18.432a16.2,16.2,0,0,1,2.52,3.576l1.68-.888a15.553,15.553,0,0,0-2.52-3.528Zm7.056,1.128a13.879,13.879,0,0,0-2.5-3.384l-1.608.84a17.683,17.683,0,0,1,2.448,3.48Z" transform="translate(359 3685)" fill="#303138"/></g></svg>