<svg xmlns="http://www.w3.org/2000/svg" width="102" height="258" viewBox="0 0 102 258"><g transform="translate(-723 -4021)"><rect width="46" height="258" rx="5" transform="translate(779 4021)" fill="#fff"/><rect width="46" height="180" rx="5" transform="translate(723 4052)" fill="#fff"/><path d="M14.736-13.848c.5-.552,1.32-1.536,2.064-2.472a10.206,10.206,0,0,1,.96-1.152l-1.584-1.3a8.611,8.611,0,0,1-2.352.144H9.864a5.607,5.607,0,0,0,.312-.528c.288-.48.36-.576.528-.816L7.776-20.5a8.34,8.34,0,0,1-1.56,2.712A16.718,16.718,0,0,1,.672-13.008a6.374,6.374,0,0,1,1.44,2.28,18.787,18.787,0,0,0,1.56-1.056V-1.416c0,1.44.36,1.992,1.512,2.328,1.2.336,3.6.48,7.968.48,4.488,0,6.6-.168,7.7-.648,1.176-.48,1.536-1.44,1.776-4.656a9.334,9.334,0,0,1-2.76-.912c-.024,2.064-.192,3-.6,3.288-.5.36-2.256.5-6.192.5a44.354,44.354,0,0,1-5.832-.192c-.72-.12-.912-.312-.912-.984V-6.024H18.96c.648,0,1.272.024,2.112.1a14.058,14.058,0,0,1-.1-1.8v-4.44a13.35,13.35,0,0,1,.1-1.8,15.008,15.008,0,0,1-2.16.12Zm-8.664,0a15.186,15.186,0,0,0,2.28-2.544h5.376a18.273,18.273,0,0,1-2.256,2.544ZM13.32-11.52h5.04v3.192H13.32ZM10.872-8.328H6.336V-11.52h4.536Zm6.312,21.392A27.632,27.632,0,0,1,12.912,20c-1.152-.888-1.848-1.416-3.1-2.256L7.824,19.592a38.2,38.2,0,0,1,4.584,3.624,33.1,33.1,0,0,1,3.672,3.816l2.064-1.992a36.978,36.978,0,0,0-3.192-3.264,36.884,36.884,0,0,0,2.808-4.032c.816-1.32,1.68-2.9,2.232-4.032.144-.336.264-.552.288-.6l.12-.24a5.053,5.053,0,0,1,.264-.528L19.08,10.52a22.468,22.468,0,0,1-2.784.12h-5.16c.456-1.08.48-1.152.6-1.44a18.956,18.956,0,0,1,.816-1.968l-3.1-.816a15.067,15.067,0,0,1-2.088,5.5,25.442,25.442,0,0,1-6,7.368,12.507,12.507,0,0,1,2.424,1.776,32.75,32.75,0,0,0,6.144-7.992ZM7.32,32.1A24.519,24.519,0,0,1,6.6,36.28c-.528.024-.936.024-1.224.024a16.664,16.664,0,0,1-3.24-.216v2.736l1.272.024c.5.024.648.024.96.024.288,0,.432,0,1.512-.024a36.922,36.922,0,0,1-2.256,5.664A21.846,21.846,0,0,1,1.3,48.352l2.76,1.536c.144-.288.144-.288.456-.864.912-1.68,1.128-2.112,1.68-3.288a46.067,46.067,0,0,0,2.64-6.96c1.488-.12,2.952-.288,3.816-.432a4.68,4.68,0,0,1,.768-.12l-.072-2.76a20.586,20.586,0,0,1-3.84.672c.264-1.056.384-1.536.5-2.112a12.014,12.014,0,0,1,.384-1.608Zm15.36,6.24a37.886,37.886,0,0,0-6.768-3.216l-1.44,2.328a29.373,29.373,0,0,1,6.912,3.36Zm-.1,10.824a4.3,4.3,0,0,1-.36-.336,8.849,8.849,0,0,0-.84-.648,15,15,0,0,0-3.792-2.208,25.482,25.482,0,0,1-.216-3.288,8,8,0,0,1,.288-2.424L14.88,40.12a12.73,12.73,0,0,0-.192,2.424c0,.72.048,1.656.12,2.76a11.921,11.921,0,0,0-2.232-.216c-3.048,0-5.184,1.7-5.184,4.128,0,2.448,2.064,4.032,5.232,4.032A5.541,5.541,0,0,0,16.608,51.9,3.835,3.835,0,0,0,17.64,49.36c0-.1-.024-.264-.048-.48a14.515,14.515,0,0,1,3.672,2.976Zm-7.68-1.32s.048.576.048.816c0,1.344-.792,2.016-2.424,2.016-1.488,0-2.352-.576-2.352-1.56,0-1.008,1.008-1.656,2.568-1.656A6.05,6.05,0,0,1,14.9,47.848ZM4.9,59.064a15.153,15.153,0,0,1,.1,2.16v6.6a17.308,17.308,0,0,1-.12,2.16H8.16a11.585,11.585,0,0,1-.1-2.112V61.248a12.2,12.2,0,0,1,.1-2.16Zm10.824.048a12.638,12.638,0,0,1,.12,2.28v3c0,1.92-.024,2.976-.12,4.008-.264,3.168-1.056,4.632-3.312,6.12a12.945,12.945,0,0,1-5.184,1.92A8.2,8.2,0,0,1,8.9,79.3a20.3,20.3,0,0,0,4.68-1.848,9.192,9.192,0,0,0,4.728-5.592,28.347,28.347,0,0,0,.624-7.272v-3.24a11.384,11.384,0,0,1,.12-2.232Zm3.744,28.016a4.252,4.252,0,0,1-1.752.24l-5.256.072c-.456,0-.84.024-1.152.048a5.66,5.66,0,0,0,.384-.768L12,86.1a4.844,4.844,0,0,1,.312-.672,4.907,4.907,0,0,1,.408-.744l-3.288-.648A8.957,8.957,0,0,1,8.208,87.2a18.462,18.462,0,0,1-6.216,6.96A6.376,6.376,0,0,1,4.32,96.224,23.491,23.491,0,0,0,9.936,90.08l7.224-.12a19.005,19.005,0,0,1-7.008,10.128A21.613,21.613,0,0,1,4.9,102.92a7.4,7.4,0,0,1,2.04,2.52,24.245,24.245,0,0,0,8.544-6.1A24.893,24.893,0,0,0,20.4,90.08a4.515,4.515,0,0,1,.6-1.44Zm-6.12,28.808h4.032a24.415,24.415,0,0,1,3.072.12v-3a17.348,17.348,0,0,1-3.12.168H6.648a17.348,17.348,0,0,1-3.12-.168v3a24.651,24.651,0,0,1,3.072-.12h3.672V125.8H4.848a17.191,17.191,0,0,1-3.12-.168v3.024a24.65,24.65,0,0,1,3.072-.12H19.2a24.649,24.649,0,0,1,3.072.12v-3.024a17.191,17.191,0,0,1-3.12.168H13.344Zm9.048,38.36c-2.9-2.808-2.9-2.808-3.5-3.336a37.2,37.2,0,0,0-4.44-3.48,31.785,31.785,0,0,0,3.744-6.624,4.616,4.616,0,0,1,.768-1.3l-1.584-1.632a5.2,5.2,0,0,1-2.136.264l-8.448.12H6.216a10.5,10.5,0,0,1-2.112-.144l.1,3.072a18.912,18.912,0,0,1,2.616-.192c7.56-.12,7.56-.12,7.944-.144l-.264.624A23.133,23.133,0,0,1,6.432,151.3a19.815,19.815,0,0,1-4.8,2.64A9.628,9.628,0,0,1,3.576,156.6a28.521,28.521,0,0,0,9.144-6.936,46.136,46.136,0,0,1,7.368,7.128ZM9.648,183.08a26.384,26.384,0,0,1-.1-2.664V174.08a12.408,12.408,0,0,0-.1-1.632,7.757,7.757,0,0,0,.816.408,56.782,56.782,0,0,1,8.5,4.584l1.68-2.832a70.509,70.509,0,0,0-10.9-5.064V165.08a16.088,16.088,0,0,1,.1-2.52H6.36a15.426,15.426,0,0,1,.144,2.448v15.384a16.168,16.168,0,0,1-.144,2.688Zm-3.312,25.5c-.024-.312-.024-.5-.024-.648a19.7,19.7,0,0,1,2.136-7.272l-1.92-.864A24.476,24.476,0,0,0,5.28,202.96c.024-.6.048-.792.048-1.32a40.072,40.072,0,0,1,.36-5.3A33.089,33.089,0,0,1,7.2,189.16l-3.168-.336a15.7,15.7,0,0,1-.36,2.232,46.075,46.075,0,0,0-.984,9.384,41.862,41.862,0,0,0,.624,7.176c.072.552.1.7.12,1.128ZM9.648,194.2a28.489,28.489,0,0,0,4.32.264,42.989,42.989,0,0,0,5.136-.288c1.152-.144,1.512-.192,1.7-.216l-.144-2.9a26.465,26.465,0,0,1-6.528.648,17.3,17.3,0,0,1-4.44-.384Zm1.656,3.96A7.84,7.84,0,0,0,9.1,203.1a4.02,4.02,0,0,0,.72,2.352c1.056,1.416,2.976,2.088,5.952,2.088a29.6,29.6,0,0,0,4.968-.456,8.023,8.023,0,0,1,.984-.144l-.24-3.048a16.866,16.866,0,0,1-5.712.912c-2.5,0-3.816-.72-3.816-2.088,0-1.032.5-2.064,1.7-3.456Z" transform="translate(790 4055)" fill="#303138"/><path d="M9.912-7.344a15.362,15.362,0,0,1,4.608-.792c2.568,0,4.248,1.344,4.248,3.408a2.466,2.466,0,0,1-2.424,2.664,1.66,1.66,0,0,1-1.512-.816A4.624,4.624,0,0,1,14.5-4.992a8.322,8.322,0,0,1,.048-1.056A10.125,10.125,0,0,1,11.88-4.992a8.018,8.018,0,0,0,.408,3.072A3.874,3.874,0,0,0,16.224.744a5.332,5.332,0,0,0,5.448-5.472c0-3.408-2.856-5.856-6.864-5.856a16.642,16.642,0,0,0-4.9.672v-3.12c.912-.1,1.392-.168,2.184-.312,1.656-.288,2.112-.36,2.544-.432l-.1-2.688a26.766,26.766,0,0,1-4.632.912v-1.536a14.735,14.735,0,0,1,.144-2.616h-3a16.444,16.444,0,0,1,.144,2.76v1.584c-.264,0-.384,0-.96.024-.336.024-.6.024-.84.024a14.719,14.719,0,0,1-2.9-.216L2.52-12.84a4.5,4.5,0,0,1,.5-.024c.072,0,.288,0,.6.024.288,0,.96.024,1.32.024.6,0,.936,0,1.3-.024.792-.048.792-.048.984-.048l.024,3.7a12.839,12.839,0,0,0-3.5,2.04A5.122,5.122,0,0,0,1.68-3.6,3.525,3.525,0,0,0,3-.888,7.476,7.476,0,0,0,7.536.816,2.109,2.109,0,0,0,9.744-.576a7.146,7.146,0,0,0,.192-2.04ZM7.224-2.976c0,.792-.12,1.008-.528,1.008A2.885,2.885,0,0,1,5.16-2.5c-.552-.336-.792-.7-.792-1.1,0-.864,1.056-1.92,2.856-2.88ZM22.728-13.1a20.356,20.356,0,0,0-4.752-4.92L15.72-16.512a20.5,20.5,0,0,1,4.8,5.184ZM12,10.52l-1.848,1.632a23.09,23.09,0,0,1,6.1,4.392L18.1,14.5a30.567,30.567,0,0,0-6-3.984H20.04a23.226,23.226,0,0,1,2.808.12V7.976a20.475,20.475,0,0,1-2.832.144H13.8V7.088A5.42,5.42,0,0,1,13.92,5.7h-2.9a6.179,6.179,0,0,1,.12,1.368V8.12H5.016A19.3,19.3,0,0,1,2.52,8c.072.816.1,1.632.1,3.36a67.327,67.327,0,0,1-.5,10.152,11.66,11.66,0,0,1-1.56,4.176,9.207,9.207,0,0,1,2.16,2.064C4.728,24.008,5.16,20.96,5.184,10.52ZM7.416,26.168a31.351,31.351,0,0,0,1.9-9.48l-2.5-.648a29.889,29.889,0,0,1-.528,4.632,14.538,14.538,0,0,1-1.3,3.936Zm2.976-11.544a10.684,10.684,0,0,1,.144,2.232V25.88c0,1.44.84,1.8,4.176,1.8,2.04,0,3.024-.264,3.552-.936s.744-1.872.936-5.16a10.479,10.479,0,0,1-2.544-.84c0,4.32-.024,4.416-1.92,4.416-1.44,0-1.632-.1-1.632-.744V16.88a17.321,17.321,0,0,1,.12-2.256Zm12.84,9.888a43.1,43.1,0,0,0-3.048-8.592L17.9,17.048a28.814,28.814,0,0,1,2.76,8.688ZM6.1,34.984a44.5,44.5,0,0,0,9.96,1.416l.456-2.688A34.431,34.431,0,0,1,6.96,32.368Zm-1.944,6.48c.792-.1.96-.12,1.848-.192.792-.072.792-.072,1.248-.12,2.088-.168,2.088-.168,2.424-.192,1.128-.1,1.752-.192,3.12-.408q-1.836,1.728-2.808,2.664c-1.8,1.728-2.232,2.136-2.784,2.64-4.512,4.08-4.512,4.08-5.568,4.8l2.208,2.5c.864-1.008,2.16-2.4,3.384-3.576,1.944-1.872,3.024-2.544,4.152-2.544a1.109,1.109,0,0,1,1.008.5,3.9,3.9,0,0,1,.24,1.536c.12,1.9.312,2.472.984,3.1.7.648,1.656.912,3.36.912a21.081,21.081,0,0,0,3.36-.288c1.56-.24,1.7-.264,2.112-.288l-.36-2.976a12.761,12.761,0,0,1-4.728.912c-1.584,0-1.9-.336-2.064-2.232A3.908,3.908,0,0,0,14.76,46a2.163,2.163,0,0,0-1.992-1.008,3.692,3.692,0,0,0-1.464.288c.744-.576,2.808-2.424,4.1-3.672a15.851,15.851,0,0,1,2.04-1.8L15.84,37.744a5.972,5.972,0,0,1-1.92.384,82.426,82.426,0,0,1-8.52.528,10.151,10.151,0,0,1-1.416-.072ZM4.9,58.824a11.936,11.936,0,0,1,.1,1.632c0,.336,0,.84-.024,1.56-.144,6.024-.192,8.424-.192,9.672,0,3.216.7,5.064,2.352,6.168a7.825,7.825,0,0,0,4.2,1.056,9.084,9.084,0,0,0,7.2-3.048c1.176-1.32,1.9-2.88,2.856-6.12a10.365,10.365,0,0,1-2.9-1.848,16.089,16.089,0,0,1-1.1,4.032,6.175,6.175,0,0,1-5.808,4.1,3.8,3.8,0,0,1-3.216-1.248c-.48-.72-.624-1.584-.624-3.864,0-1.7.144-6.576.24-8.808a21.939,21.939,0,0,1,.288-3.24Zm16.68,42.632c-.336-.192-.456-.288-.864-.552a21.467,21.467,0,0,0-6.576-3.384c-.024-.576-.024-.576-.1-2.9.936-.048,1.3-.072,1.632-.1,1.8-.168,2.88-.288,3.24-.336.552-.072,1.152-.144,1.56-.168l-.072-2.64a17.762,17.762,0,0,1-2.976.528c-2.208.24-2.208.24-3.408.312-.024-1.488-.024-1.776-.048-2.376,2.112-.12,3.048-.192,5.16-.48a15.012,15.012,0,0,1,1.9-.216L20.9,86.48a32.47,32.47,0,0,1-6.912.912,14.879,14.879,0,0,1,.168-2.928H11.112a17.124,17.124,0,0,1,.12,3.024c-.6.024-1.416.048-1.8.048a31.558,31.558,0,0,1-6.456-.5L2.952,89.7h.384c.072,0,.264,0,.528.024,1.608.12,4.7.24,5.88.24.36,0,.744,0,1.512-.024.024,1.368.024,2.184.024,2.4-.672.024-1.488.048-1.968.048a30.947,30.947,0,0,1-5.592-.408l-.048,2.592c.36,0,.6,0,.912.024,1.992.144,2.88.168,4.344.168.5,0,1.248-.024,2.4-.048.024.96.024.96.048,1.3v.528a4.625,4.625,0,0,1,.024.576,12.539,12.539,0,0,0-1.608-.1c-4.032,0-6.408,1.536-6.408,4.152,0,2.376,2.016,3.744,5.52,3.744a6.39,6.39,0,0,0,3.96-1.032,3.744,3.744,0,0,0,1.344-3.24v-.264a10.68,10.68,0,0,1,1.3.6,16.194,16.194,0,0,1,4.44,3.288ZM11.448,99.608v.576a3.042,3.042,0,0,1-.288,1.536,2.492,2.492,0,0,1-2.088.768c-1.7,0-2.736-.552-2.736-1.44,0-1.032,1.176-1.656,3.12-1.656A8.423,8.423,0,0,1,11.448,99.608Zm4.032,17.624v-1.56c1.9-.048,2.328-.048,2.9-.048,1.992,0,3.144.048,4.032.12l-.024-2.76c-.888.1-2.76.144-6.936.168a18.869,18.869,0,0,1,.12-2.856l-3.024.024a13.022,13.022,0,0,1,.144,2.9c-1.248.048-1.248.048-2.04.072-1.968.048-2.208.048-3.768.1-3.1.12-3.48.12-4.08.12a10.452,10.452,0,0,1-1.176-.048l.1,2.856c.648-.1.648-.1,4.272-.36,1.056-.072,3.312-.144,6.744-.24,0,.648,0,1.992.024,2.04a.989.989,0,0,0,.024.288,4.011,4.011,0,0,0-2.5-.72c-2.784,0-4.776,1.824-4.776,4.368a3.75,3.75,0,0,0,1.656,3.24,4.423,4.423,0,0,0,2.784.864,3.954,3.954,0,0,0,3.528-1.7,5.052,5.052,0,0,1-2.784,3.5,11.326,11.326,0,0,1-4.08,1.392,7.877,7.877,0,0,1,1.7,2.712,16.777,16.777,0,0,0,4.344-1.968,7.7,7.7,0,0,0,3.576-6.48,7.3,7.3,0,0,0-.768-3.384c0-.288-.024-.48-.024-.576Zm-2.76,3.96a2.187,2.187,0,0,1-2.352,2.16,1.894,1.894,0,0,1-2.04-1.9,2.1,2.1,0,0,1,2.232-1.92C11.88,119.536,12.72,120.184,12.72,121.192Z" transform="translate(733 4086)" fill="#303138"/></g></svg>