<svg xmlns="http://www.w3.org/2000/svg" width="1632.241" height="124.185" viewBox="0 0 1632.241 124.185"><path d="M9.275,0l23.01-117.529L69.81-32.568l38.87-84.961L129.353,0H112.432L101.882-65.986,69.526,5.027,38.091-66.057,26.338,0ZM169-109.316V0H152.5V-109.316Zm48.357,62.092-35.684-62.092h18.975l24.993,43.684,25.063-43.684H269.68L233.855-47.224V0h-16.5ZM336.516-26.55h-46.8L277.539,0H259.768L313.86-116.184,366.04,0H347.986ZM329.79-42.056l-16.213-37.17-16.992,37.17ZM396.2-65.7l42.551-43.613h22.019l-49.419,49.49L461.055,0h-22.09L399.6-48.64l-3.4,3.4V0H379.7V-109.316h16.5Zm67.9,10.549q0-23.081,16.921-39.648a55.7,55.7,0,0,1,40.5-16.567q23.364,0,40.073,16.709,16.78,16.709,16.78,40.144a53.753,53.753,0,0,1-16.851,40q-16.921,16.5-40.852,16.5-21.169,0-38.02-14.656Q464.1-28.887,464.1-55.154Zm16.638.212q0,18.125,12.178,29.807,12.107,11.682,27.966,11.682A39.345,39.345,0,0,0,549.91-25.347a40.258,40.258,0,0,0,11.824-29.312q0-17.488-11.682-29.312Q538.44-95.864,521.306-95.864A38.945,38.945,0,0,0,492.49-83.97Q480.737-72.217,480.737-54.941Zm151.655-54.375v70.73q0,12.673-1.77,18.9A28.4,28.4,0,0,1,624.6-7.717q-8.284,9.7-21.948,9.7A36.994,36.994,0,0,1,583.328-3.4L591.4-17.488q6.018,4.036,11.257,4.036,7.363,0,10.2-5.593,2.974-5.593,2.974-19.541v-70.73Zm42.693,0V0h-16.5V-109.316ZM697.529,0l23.01-117.529,37.524,84.961,38.87-84.961L817.607,0H800.686L790.137-65.986,757.781,5.027,726.345-66.057,714.592,0ZM904.976-26.55h-46.8L846,0H828.228l54.092-116.184L934.5,0H916.445ZM898.25-42.056l-16.213-37.17-16.992,37.17ZM1009.407-65.7l42.551-43.613h22.019l-49.419,49.49L1074.26,0h-22.09l-39.365-48.64-3.4,3.4V0h-16.5V-109.316h16.5ZM1153.2-26.55h-46.8L1094.226,0h-17.771l54.092-116.184L1182.727,0h-18.054Zm-6.726-15.505-16.213-37.17-16.992,37.17Zm66.411-2.336V0h-16.5V-109.316h18.691q13.735,0,20.745,1.912a27.82,27.82,0,0,1,12.461,7.222q9.417,9.2,9.417,23.223,0,15.01-10.054,23.789t-27.117,8.779Zm0-15.293h6.16q22.727,0,22.727-17.488,0-16.921-23.435-16.921h-5.452Zm78.306-49.631V0h-16.5V-109.316Zm42.764,0v93.811H1366.1V0h-48.64V-109.316Zm64.287,0V0h-16.5V-109.316ZM1424.512,0V-116.75l79.722,83.4v-75.969h16.5V6.655l-79.722-83.191V0Zm187.48-26.55h-46.8L1553.015,0h-17.771l54.092-116.184L1641.516,0h-18.054Zm-6.726-15.505-16.213-37.17-16.992,37.17Z" transform="translate(-9.275 117.529)" fill="#f4f4f4"/></svg>