<svg xmlns="http://www.w3.org/2000/svg" width="100" height="262" viewBox="0 0 100 262"><g transform="translate(-350 -4423)"><rect width="46" height="102" rx="5" transform="translate(404 4423)" fill="#fff"/><rect width="46" height="232" rx="5" transform="translate(350 4453)" fill="#fff"/><path d="M20.52-7.488a22.752,22.752,0,0,1,2.64.144v-2.808a13.686,13.686,0,0,1-2.112.144V-14.76a17.192,17.192,0,0,1,.1-2.088,16.941,16.941,0,0,1-2.088.1H15.48v-1.32a13.36,13.36,0,0,1,.144-2.088H12.768a13.686,13.686,0,0,1,.144,2.112v1.3H11.5c-1.008,0-1.968-.048-2.64-.12v2.736a23.9,23.9,0,0,1,2.568-.12h1.488c-.024,1.824-.072,2.856-.192,4.248H10.3a26,26,0,0,1-2.808-.12v2.784A23.423,23.423,0,0,1,10.3-7.488h2.04A10.471,10.471,0,0,1,6.48-.24a7.946,7.946,0,0,1,1.656,2.3A14.267,14.267,0,0,0,11.688-.7,12.349,12.349,0,0,0,14.472-5.52,14.054,14.054,0,0,0,17.928-.744a14.852,14.852,0,0,0,3.936,2.712A12.135,12.135,0,0,1,23.28-.744,12.672,12.672,0,0,1,19.608-2.9a13,13,0,0,1-3.576-4.584Zm-5.208-2.52c.1-1.272.144-2.856.168-4.248h2.976v4.248Zm-9-4.68a17.865,17.865,0,0,1,1.152,3.576l1.776-.864a33.469,33.469,0,0,0-1.512-3.936l-1.416.648V-17.64a16,16,0,0,1,.144-2.544H3.648a16.138,16.138,0,0,1,.168,2.544V-.984A21.506,21.506,0,0,1,3.648,2.04H6.456A21.183,21.183,0,0,1,6.312-.624ZM2.472-8.352a26.142,26.142,0,0,0,.936-6.768l-1.992-.408a19.405,19.405,0,0,1-.864,6.24ZM16.9,22.064a10.328,10.328,0,0,1,.432,2.016c.432.024.744.024.888.024a10.64,10.64,0,0,0,2.712-.216c.84-.264,1.152-.816,1.152-2.112V13.544a23.187,23.187,0,0,1,.1-2.568,20.792,20.792,0,0,1-2.352.1H18.768a14.557,14.557,0,0,0,.72-1.512h.96a15.846,15.846,0,0,1,2.328.12V7.3a16.418,16.418,0,0,1-2.472.144H16.2a10.34,10.34,0,0,1,.144-1.728H13.512a10.585,10.585,0,0,1,.144,1.728H9.672A17.367,17.367,0,0,1,7.152,7.3V9.656a21.263,21.263,0,0,1,2.472-.1h.72c.264.5.456.936.7,1.512h-.672c-1.224,0-1.8-.024-2.5-.072.048.768.072,1.248.072,2.5v7.752c0,1.008-.048,2.064-.1,2.712H10.44a25.069,25.069,0,0,1-.1-2.712v-8.16h3.528V14.24H12.816a15.611,15.611,0,0,1-1.968-.1v1.944a16.363,16.363,0,0,1,1.968-.1h1.056v1.176h-.7A13.148,13.148,0,0,1,11.5,17.1a14.373,14.373,0,0,1,.072,1.584v2.9a15,15,0,0,1-.072,1.584h2.16v-1.1ZM18.36,18.7a14.852,14.852,0,0,1,.072-1.608,14.248,14.248,0,0,1-1.608.072H16.08V15.992h1.1a16.782,16.782,0,0,1,1.992.1V14.144a16.019,16.019,0,0,1-1.992.1h-1.1V13.088h3.6v8.256c0,.432-.144.5-.912.5H18.36V18.7Zm-4.752-7.632A11.622,11.622,0,0,0,12.96,9.56H16.8c-.24.648-.432,1.128-.6,1.512Zm0,7.8H16.3V20.36H13.608ZM1.056,7.856a25.829,25.829,0,0,1,4.032,4.512L7.08,10.424a29.337,29.337,0,0,0-4.1-4.368Zm-.1,9.672a8.584,8.584,0,0,1,1.608-.12H3.84v5.16A13.107,13.107,0,0,1,.48,24.92l1.176,2.736a33.124,33.124,0,0,0,3.432-2.88A5.783,5.783,0,0,0,8.136,26.96c1.3.384,2.88.5,6.936.5,2.64,0,5.28-.048,7.656-.144a9,9,0,0,1,.72-2.736,84.845,84.845,0,0,1-10.608.48,19.684,19.684,0,0,1-3.888-.336,4.354,4.354,0,0,1-1.56-.72A3.6,3.6,0,0,1,6.36,22.736V17.552a24.467,24.467,0,0,1,.1-2.616,10.569,10.569,0,0,1-1.824.12H2.88a10.413,10.413,0,0,1-1.92-.12ZM7.32,32.1A24.519,24.519,0,0,1,6.6,36.28c-.528.024-.936.024-1.224.024a16.664,16.664,0,0,1-3.24-.216v2.736l1.272.024c.5.024.648.024.96.024.288,0,.432,0,1.512-.024a36.922,36.922,0,0,1-2.256,5.664A21.846,21.846,0,0,1,1.3,48.352l2.76,1.536c.144-.288.144-.288.456-.864.912-1.68,1.128-2.112,1.68-3.288a46.067,46.067,0,0,0,2.64-6.96c1.488-.12,2.952-.288,3.816-.432a4.68,4.68,0,0,1,.768-.12l-.072-2.76a20.586,20.586,0,0,1-3.84.672c.264-1.056.384-1.536.5-2.112a12.014,12.014,0,0,1,.384-1.608Zm15.36,6.24a37.886,37.886,0,0,0-6.768-3.216l-1.44,2.328a29.373,29.373,0,0,1,6.912,3.36Zm-.1,10.824a4.3,4.3,0,0,1-.36-.336,8.849,8.849,0,0,0-.84-.648,15,15,0,0,0-3.792-2.208,25.482,25.482,0,0,1-.216-3.288,8,8,0,0,1,.288-2.424L14.88,40.12a12.73,12.73,0,0,0-.192,2.424c0,.72.048,1.656.12,2.76a11.921,11.921,0,0,0-2.232-.216c-3.048,0-5.184,1.7-5.184,4.128,0,2.448,2.064,4.032,5.232,4.032A5.541,5.541,0,0,0,16.608,51.9,3.835,3.835,0,0,0,17.64,49.36c0-.1-.024-.264-.048-.48a14.515,14.515,0,0,1,3.672,2.976Zm-7.68-1.32s.048.576.048.816c0,1.344-.792,2.016-2.424,2.016-1.488,0-2.352-.576-2.352-1.56,0-1.008,1.008-1.656,2.568-1.656A6.05,6.05,0,0,1,14.9,47.848Z" transform="translate(414 4457)" fill="#303138"/><path d="M19.776-16.224l.888-.288a14.8,14.8,0,0,0-2.208-3.72l-1.848.552a15.267,15.267,0,0,1,1.728,2.712c-.264.048-.816.072-1.32.1l-4.992.048h-.576c-.36.024-.432.024-.672.048.12-.216.168-.312.576-1.152a14.417,14.417,0,0,1,.72-1.368l-3.12-.7a12.929,12.929,0,0,1-1.416,3.336,21.047,21.047,0,0,1-6,6.864,7.619,7.619,0,0,1,2.4,1.92,25.828,25.828,0,0,0,5.616-6.456l7.464-.072a23.416,23.416,0,0,1-2.688,5.664A33.068,33.068,0,0,0,9.5-11.952L7.68-9.816A28.355,28.355,0,0,1,12.6-6.408,21.606,21.606,0,0,1,3.984-.672a8.359,8.359,0,0,1,1.992,2.5C13.224-1.536,16.944-5.664,19.8-13.512a5.023,5.023,0,0,1,.744-1.608Zm4.128-1.2a13.684,13.684,0,0,0-2.208-3.6l-1.776.576a17.476,17.476,0,0,1,2.136,3.672ZM18.336,6.512A19.2,19.2,0,0,1,13.872,11a35.05,35.05,0,0,1-12.6,6.24A9.027,9.027,0,0,1,2.88,19.976a38.885,38.885,0,0,0,8.568-3.888v8.448a13.5,13.5,0,0,1-.144,2.592h3.36a18.156,18.156,0,0,1-.12-2.664V14.216a42.44,42.44,0,0,0,5.664-4.944,9.886,9.886,0,0,1,.888-.84ZM7.176,35.656a12.183,12.183,0,0,1,.12-2.232H4.08a12.676,12.676,0,0,1,.1,2.208L4.2,46.768a18.084,18.084,0,0,0,.072,2.208,3.318,3.318,0,0,0,1.176,2.448c.936.72,2.592,1.032,5.616,1.032,1.464,0,4.488-.144,5.9-.288,2.544-.24,2.664-.264,3.168-.264l-.144-3.192a14.18,14.18,0,0,1-2.736.576,45.261,45.261,0,0,1-5.568.384c-2.328,0-3.7-.192-4.1-.624-.336-.336-.432-.888-.432-2.28a1.593,1.593,0,0,1,.024-.312V43.288a40.635,40.635,0,0,0,10.248-3.312c1.272-.624,1.992-.96,2.16-1.032l-1.92-2.712C16.1,37.7,10.8,39.832,7.176,40.5Zm9.7-2.592a15.35,15.35,0,0,1,2.376,3.672l1.728-.792a15.259,15.259,0,0,0-2.4-3.648ZM23.88,34.48A14.12,14.12,0,0,0,21.528,31l-1.656.768a17.861,17.861,0,0,1,2.3,3.576ZM2.928,62.592a25.2,25.2,0,0,1,6.12,4.872l2.064-2.616A33.991,33.991,0,0,0,4.92,60.216Zm.84,15.84a8.5,8.5,0,0,1,1.584-.408,25.923,25.923,0,0,0,9.144-3.6c3.288-2.184,5.568-5.016,7.608-9.408a10.349,10.349,0,0,1-2.544-2.352,20.04,20.04,0,0,1-2.448,4.8,16.035,16.035,0,0,1-7.128,5.88,22.869,22.869,0,0,1-7.1,1.776ZM19.656,88.16l1.032-.384a15.252,15.252,0,0,0-2.136-3.792l-1.776.6a14.882,14.882,0,0,1,1.752,3,11.6,11.6,0,0,1-1.248.048l-5.256.072c-.48,0-.864.024-1.152.048l.192-.36c.048-.1.048-.12.168-.336.24-.48.456-.96.648-1.392a2.865,2.865,0,0,1,.408-.72L9,84.272a9.21,9.21,0,0,1-1.224,3.192,18.908,18.908,0,0,1-6.216,6.96,6.377,6.377,0,0,1,2.328,2.064A23.848,23.848,0,0,0,9.5,90.32l7.224-.1A19.312,19.312,0,0,1,4.464,103.16a7.941,7.941,0,0,1,2.04,2.52,24.226,24.226,0,0,0,8.544-6.072,23.666,23.666,0,0,0,4.824-9.072,4.841,4.841,0,0,1,.6-1.44ZM23.808,86.7A14,14,0,0,0,21.7,83.048l-1.728.6a17.191,17.191,0,0,1,2.064,3.72ZM13.416,114.352V113.08a19.566,19.566,0,0,1,.1-2.568h-3.24a13.758,13.758,0,0,1,.144,2.5v1.344H5.136a15.4,15.4,0,0,1-3.072-.168v2.952a20.471,20.471,0,0,1,3.024-.12h5.328v11.616a17.872,17.872,0,0,1-.144,2.712h3.264a18.534,18.534,0,0,1-.12-2.688v-11.64H18.96a20.66,20.66,0,0,1,3.048.12v-2.952a14.993,14.993,0,0,1-3,.168l1.656-.624a15.252,15.252,0,0,0-2.136-3.792l-1.776.624a16.324,16.324,0,0,1,2.088,3.792ZM5.04,118.744a19.48,19.48,0,0,1-4.056,9.264,9.74,9.74,0,0,1,2.784,1.536A25.42,25.42,0,0,0,7.8,120.232c.048-.24.1-.384.1-.408.024-.048.048-.192.1-.36Zm10.776.72a6.556,6.556,0,0,1,.384,1.128,32.326,32.326,0,0,0,3.936,8.976,17.622,17.622,0,0,1,2.76-1.68,26.265,26.265,0,0,1-4.248-9.144Zm7.992-6.768a14,14,0,0,0-2.112-3.648l-1.7.624a17.191,17.191,0,0,1,2.064,3.72ZM9.648,183.08a26.384,26.384,0,0,1-.1-2.664V174.08a12.408,12.408,0,0,0-.1-1.632,7.757,7.757,0,0,0,.816.408,56.782,56.782,0,0,1,8.5,4.584l1.68-2.832a70.509,70.509,0,0,0-10.9-5.064V165.08a16.088,16.088,0,0,1,.1-2.52H6.36a15.426,15.426,0,0,1,.144,2.448v15.384a16.168,16.168,0,0,1-.144,2.688Z" transform="translate(361 4487)" fill="#303138"/><text transform="translate(363 4621) rotate(90)" fill="#303138" font-size="24" font-family="HiraginoSans-W6, Hiragino Sans"><tspan x="0" y="0">ー</tspan></text></g></svg>