<svg xmlns="http://www.w3.org/2000/svg" width="138.143" height="96.584" viewBox="0 0 138.143 96.584"><g transform="translate(-529.429 -2103)"><g transform="translate(522.518 2128.065)"><g transform="translate(0.001 -2)"><g transform="matrix(0.966, -0.259, 0.259, 0.966, 0, 7.81)"><path d="M10.659.589,10.4.36C10.33.3,10.376.351,10.357.34L10.33.367,10.28.421l-.1.108-.2.216-.4.44c-.263.3-.523.6-.775.9q-.757.918-1.44,1.891A32.588,32.588,0,0,0,4.921,8.05a37.406,37.406,0,0,0-3.132,8.92,43.841,43.841,0,0,0,.137,18.744A46.132,46.132,0,0,0,9.594,52.721,49.375,49.375,0,0,0,23.211,65.375l-1.219,1.861A51.293,51.293,0,0,1,8.266,53.654,47.482,47.482,0,0,1,.85,35.934a44.661,44.661,0,0,1,.379-19.1A37.922,37.922,0,0,1,4.643,7.9,32.806,32.806,0,0,1,7.209,3.871q.713-.959,1.5-1.86c.261-.3.53-.594.8-.885L9.923.7l.211-.211L10.24.381l.053-.053L10.319.3c-.011-.02.043.025-.021-.047L10.071,0Z" transform="translate(6.966 2.657)" fill="#e5c464"/><path d="M1.24,1.118A4.152,4.152,0,0,0,.14,5.183a5.08,5.08,0,0,0,3.8-1.25A5.11,5.11,0,0,0,5.353.2a4.134,4.134,0,0,0-4.112.921" transform="translate(15.213 0)" fill="#e5c464"/><path d="M2.65.2A3.945,3.945,0,0,0,0,2.9a6.106,6.106,0,0,0,4.074.053A4.162,4.162,0,0,0,6.673.708,5.243,5.243,0,0,0,2.65.2" transform="translate(9.569 13.132)" fill="#e5c464"/><path d="M3.466,3.008a5.289,5.289,0,0,1,.088,3.93A4.847,4.847,0,0,1,.4,4.279,4.855,4.855,0,0,1,.61,0,5.533,5.533,0,0,1,3.466,3.008" transform="translate(5.831 9.033)" fill="#e5c464"/><path d="M2.524.024A3.218,3.218,0,0,0,0,1.746a4.858,4.858,0,0,0,3.216.684,3.382,3.382,0,0,0,2.423-1.4,4.234,4.234,0,0,0-3.116-1" transform="translate(12.465 7.745)" fill="#e5c464"/><path d="M2.713,2.809a4.211,4.211,0,0,1-.544,3.12,3.944,3.944,0,0,1-2.074-2.6A3.893,3.893,0,0,1,.9,0,4.452,4.452,0,0,1,2.713,2.809" transform="translate(10.16 3.483)" fill="#e5c464"/><path d="M2.321.612A4.388,4.388,0,0,0,0,4.116a6.775,6.775,0,0,0,4.455-.8A4.629,4.629,0,0,0,6.817.307a5.828,5.828,0,0,0-4.5.3" transform="translate(7.867 19.43)" fill="#e5c464"/><path d="M4.011,2.675a5.865,5.865,0,0,1,.926,4.268,5.379,5.379,0,0,1-4-2.235A5.388,5.388,0,0,1,.261,0,6.152,6.152,0,0,1,4.011,2.675" transform="translate(2.714 16.573)" fill="#e5c464"/><path d="M1.87,1.334a4.948,4.948,0,0,0-1.84,4.4,7.76,7.76,0,0,0,4.8-1.855,5.23,5.23,0,0,0,2-3.83A6.623,6.623,0,0,0,1.87,1.334" transform="translate(7.572 26.255)" fill="#e5c464"/><path d="M4.8,2.2a6.732,6.732,0,0,1,1.95,4.571A6.086,6.086,0,0,1,1.8,5.143,6.154,6.154,0,0,1,.046,0,7,7,0,0,1,4.8,2.2" transform="translate(0.606 25.23)" fill="#e5c464"/><path d="M1.319,2.453A5.485,5.485,0,0,0,.261,7.684a8.807,8.807,0,0,0,4.86-3.092A5.809,5.809,0,0,0,6.5,0,7.408,7.408,0,0,0,1.319,2.453" transform="translate(8.854 33.38)" fill="#e5c464"/><path d="M5.7,1.51A7.643,7.643,0,0,1,8.846,6.116a6.761,6.761,0,0,1-5.8-.705A6.931,6.931,0,0,1,0,.085,7.863,7.863,0,0,1,5.7,1.51" transform="translate(0 35.02)" fill="#e5c464"/><path d="M.751,3.792A5.994,5.994,0,0,0,.8,9.69,9.921,9.921,0,0,0,5.348,5.22,6.363,6.363,0,0,0,5.834,0,8.181,8.181,0,0,0,.751,3.792" transform="translate(11.928 40.635)" fill="#e5c464"/><path d="M6.509.793a8.63,8.63,0,0,1,4.471,4.28,7.4,7.4,0,0,1-6.45.575A7.723,7.723,0,0,1,0,.494a8.723,8.723,0,0,1,6.509.3" transform="translate(1.476 45.392)" fill="#e5c464"/><path d="M.269,5.235a6.5,6.5,0,0,0,1.468,6.288,11.008,11.008,0,0,0,3.78-5.882A6.922,6.922,0,0,0,4.838,0,8.949,8.949,0,0,0,.269,5.235" transform="translate(16.956 47.665)" fill="#e5c464"/><path d="M7.058.207a9.617,9.617,0,0,1,5.824,3.511A8.061,8.061,0,0,1,6.117,5.9,8.524,8.524,0,0,1,0,1.393,9.609,9.609,0,0,1,7.058.207" transform="translate(5.555 55.687)" fill="#e5c464"/></g><g transform="matrix(0.966, 0.259, -0.259, 0.966, 122.816, 0)"><path d="M12.552.589,12.807.36c.074-.064.028-.009.048-.02l.025.027.051.054.1.108.2.216.4.44c.263.3.523.6.775.9q.757.918,1.44,1.891A32.487,32.487,0,0,1,18.29,8.05a37.406,37.406,0,0,1,3.132,8.92,43.827,43.827,0,0,1-.137,18.744,46.132,46.132,0,0,1-7.668,17.007A49.351,49.351,0,0,1,0,65.375l1.219,1.861A51.305,51.305,0,0,0,14.946,53.654a47.48,47.48,0,0,0,7.415-17.721,44.674,44.674,0,0,0-.379-19.1A37.927,37.927,0,0,0,18.567,7.9,32.8,32.8,0,0,0,16,3.871q-.713-.959-1.5-1.86c-.261-.3-.529-.594-.8-.885L13.288.7,13.077.486,12.971.381,12.918.329,12.891.3c.01-.02-.043.025.021-.047L13.141,0Z" transform="translate(0 2.657)" fill="#e5c464"/><path d="M4.112,1.118a4.15,4.15,0,0,1,1.1,4.065,5.079,5.079,0,0,1-3.8-1.25A5.11,5.11,0,0,1,0,.2a4.133,4.133,0,0,1,4.112.921" transform="translate(9.612 0)" fill="#e5c464"/><path d="M4.024.2A3.943,3.943,0,0,1,6.673,2.9,6.1,6.1,0,0,1,2.6,2.955,4.163,4.163,0,0,1,0,.708,5.245,5.245,0,0,1,4.024.2" transform="translate(13.934 13.132)" fill="#e5c464"/><path d="M.425,3.008a5.285,5.285,0,0,0-.088,3.93A4.842,4.842,0,0,0,3.49,4.279,4.852,4.852,0,0,0,3.28,0,5.528,5.528,0,0,0,.425,3.008" transform="translate(20.456 9.033)" fill="#e5c464"/><path d="M3.116.024A3.217,3.217,0,0,1,5.639,1.746a4.857,4.857,0,0,1-3.216.684A3.381,3.381,0,0,1,0,1.027a4.235,4.235,0,0,1,3.116-1" transform="translate(12.073 7.745)" fill="#e5c464"/><path d="M.09,2.809a4.211,4.211,0,0,0,.544,3.12,3.94,3.94,0,0,0,2.073-2.6A3.893,3.893,0,0,0,1.9,0,4.452,4.452,0,0,0,.09,2.809" transform="translate(17.215 3.483)" fill="#e5c464"/><path d="M4.5.612a4.386,4.386,0,0,1,2.321,3.5,6.776,6.776,0,0,1-4.455-.8A4.629,4.629,0,0,1,0,.307a5.828,5.828,0,0,1,4.5.3" transform="translate(15.493 19.43)" fill="#e5c464"/><path d="M1.012,2.675A5.872,5.872,0,0,0,.086,6.944a5.384,5.384,0,0,0,4-2.235A5.39,5.39,0,0,0,4.763,0,6.156,6.156,0,0,0,1.012,2.675" transform="translate(22.439 16.573)" fill="#e5c464"/><path d="M4.957,1.334a4.95,4.95,0,0,1,1.84,4.4A7.766,7.766,0,0,1,2,3.882,5.225,5.225,0,0,1,0,.052,6.62,6.62,0,0,1,4.957,1.334" transform="translate(15.777 26.255)" fill="#e5c464"/><path d="M1.95,2.2A6.737,6.737,0,0,0,0,6.776,6.087,6.087,0,0,0,4.951,5.143,6.154,6.154,0,0,0,6.706,0,7.006,7.006,0,0,0,1.95,2.2" transform="translate(22.82 25.23)" fill="#e5c464"/><path d="M5.25,2.453A5.487,5.487,0,0,1,6.307,7.684,8.806,8.806,0,0,1,1.446,4.592,5.815,5.815,0,0,1,.068,0,7.407,7.407,0,0,1,5.25,2.453" transform="translate(14.755 33.38)" fill="#e5c464"/><path d="M3.146,1.51A7.644,7.644,0,0,0,0,6.116,6.761,6.761,0,0,0,5.8,5.41,6.931,6.931,0,0,0,8.846.085a7.86,7.86,0,0,0-5.7,1.425" transform="translate(21.33 35.02)" fill="#e5c464"/><path d="M5.441,3.792a5.992,5.992,0,0,1-.05,5.9A9.925,9.925,0,0,1,.843,5.22,6.36,6.36,0,0,1,.358,0,8.183,8.183,0,0,1,5.441,3.792" transform="translate(12.057 40.635)" fill="#e5c464"/><path d="M4.47.793A8.628,8.628,0,0,0,0,5.073a7.4,7.4,0,0,0,6.45.575A7.724,7.724,0,0,0,10.98.494a8.725,8.725,0,0,0-6.51.3" transform="translate(17.723 45.392)" fill="#e5c464"/><path d="M5.538,5.235a6.5,6.5,0,0,1-1.468,6.288A10.992,10.992,0,0,1,.292,5.642,6.916,6.916,0,0,1,.968,0a8.953,8.953,0,0,1,4.57,5.235" transform="translate(7.414 47.665)" fill="#e5c464"/><path d="M5.823.207A9.614,9.614,0,0,0,0,3.718,8.061,8.061,0,0,0,6.765,5.9a8.521,8.521,0,0,0,6.116-4.508A9.608,9.608,0,0,0,5.823.207" transform="translate(11.74 55.687)" fill="#e5c464"/></g></g></g><g transform="translate(552.754 2175.828)"><path d="M18.686,37.632H1.5l4.605-6.81L1.5,23.74H18.686Z" transform="translate(-1.113 -17.82)"/><g transform="translate(0 0)"><g transform="translate(0 0)"><path d="M17.517,36.749H.386a.387.387,0,0,1-.342-.2.382.382,0,0,1,.021-.395l4.447-6.526L.062,22.832a.381.381,0,0,1-.016-.392.388.388,0,0,1,.34-.2H17.517a.385.385,0,0,1,.387.384V36.366a.385.385,0,0,1-.387.384m-16.4-.767H17.131V23.006H1.1L5.3,29.42a.381.381,0,0,1,0,.424Z" transform="translate(0 -16.55)" fill="#fff"/><path d="M47.822,43.222l-2.015,3.655,5.711,5.1V44.1" transform="translate(-33.999 -32.165)"/><path d="M50.4,51.248a.388.388,0,0,1-.259-.1l-5.711-5.1a.382.382,0,0,1-.08-.469l2.015-3.655a.388.388,0,0,1,.525-.152.382.382,0,0,1,.154.521L45.18,45.678,50.018,50v-7.02a.387.387,0,0,1,.773,0v7.882a.385.385,0,0,1-.386.384" transform="translate(-32.886 -31.049)" fill="#fff"/><path d="M333.644,37.482h17.131l-4.591-6.737,4.591-7.006H333.644Z" transform="translate(-260.267 -17.667)"/><path d="M349.663,36.749H332.532a.385.385,0,0,1-.387-.384V22.623a.385.385,0,0,1,.387-.384h17.131a.387.387,0,0,1,.34.2.381.381,0,0,1-.016.392l-4.451,6.793,4.447,6.526a.381.381,0,0,1,.021.395.388.388,0,0,1-.342.2m-16.744-.767h16.016l-4.183-6.138a.381.381,0,0,1,0-.424l4.2-6.413H332.918Z" transform="translate(-259.154 -16.55)" fill="#fff"/><path d="M337.34,43.222l2.015,3.655-5.71,5.1V44.1" transform="translate(-260.267 -32.165)"/><path d="M332.531,51.248a.389.389,0,0,1-.157-.033.384.384,0,0,1-.229-.351V42.983a.387.387,0,0,1,.773,0V50l4.838-4.324-1.869-3.389a.382.382,0,0,1,.154-.521.388.388,0,0,1,.525.152l2.015,3.655a.382.382,0,0,1-.08.469l-5.711,5.1a.388.388,0,0,1-.259.1" transform="translate(-259.154 -31.049)" fill="#fff"/><rect width="67.281" height="14.328" transform="translate(11.808 0.384)"/><path d="M111.974,15.1H44.694a.385.385,0,0,1-.387-.384V.384A.385.385,0,0,1,44.694,0h67.281a.385.385,0,0,1,.387.384V14.711a.385.385,0,0,1-.387.384M45.08,14.328h66.507V.767H45.08Z" transform="translate(-32.886)" fill="#fff"/></g></g><path d="M-20.779-.945l-.63-.644A1.469,1.469,0,0,1-22.7-.8c-.833,0-1.526-.637-1.526-1.953,0-1.2.665-1.925,1.519-1.925a1.386,1.386,0,0,1,1.232.756l.658-.609A2.089,2.089,0,0,0-22.8-5.593a2.56,2.56,0,0,0-2.548,2.842c0,1.785,1.029,2.884,2.555,2.884A2.178,2.178,0,0,0-20.779-.945ZM-13.9,0l-1.883-5.46H-17.1L-18.994,0h1.05l.5-1.421h2L-14.955,0Zm-1.848-2.3h-1.407a20.272,20.272,0,0,0,.665-2.142h.056A20.972,20.972,0,0,0-15.746-2.3ZM-6.387,0V-5.46H-7.871l-1,3.521c-.07.294-.119.854-.14.931h-.021c-.021-.084-.07-.63-.154-.938L-10.216-5.46h-1.435V0h.882V-2.695c0-.49-.042-1.5-.07-1.918h.035a7.158,7.158,0,0,0,.224,1.141L-9.551,0h1.043l.994-3.486A6.042,6.042,0,0,0-7.3-4.613h.035c-.021.392-.07,1.449-.07,1.9V0ZM.466-3.647A1.709,1.709,0,0,0-1.305-5.46H-3.5V0h1.036V-1.827h1.148A1.678,1.678,0,0,0,.466-3.647ZM-.57-3.64a.892.892,0,0,1-.966.938h-.945V-4.585h.938A.9.9,0,0,1-.57-3.64ZM7.466,0,5.583-5.46H4.267L2.37,0H3.42l.5-1.421h2L6.409,0ZM5.618-2.3H4.211a20.272,20.272,0,0,0,.665-2.142h.056A20.972,20.972,0,0,0,5.618-2.3ZM10.8,0V-5.46H9.741V0Zm7.329-.861V-3.045H15.908v.868H17.23v.917a1.238,1.238,0,0,1-1.148.532c-.861,0-1.582-.693-1.582-2.023,0-1.246.665-1.96,1.561-1.96a1.443,1.443,0,0,1,1.33.8l.651-.616a2.187,2.187,0,0,0-2.086-1.071,2.545,2.545,0,0,0-2.52,2.842A2.577,2.577,0,0,0,16.083.133,2.18,2.18,0,0,0,18.133-.861ZM25.063,0V-5.46h-.98v2.618a14.84,14.84,0,0,0,.147,1.771L24.2-1.078a7.047,7.047,0,0,0-.518-1.253L22.067-5.46H20.814V0H21.8V-2.534c0-.637-.1-1.554-.133-1.9h.021a8.806,8.806,0,0,0,.469,1.281L23.775,0Z" transform="translate(44.884 10.173)" fill="#e5c464"/></g><path d="M-12.9-4.525V-6.7H-22.07V-8h8.125v-6.35h-7.95a11.182,11.182,0,0,0,1.725-2.325h1.3a9.435,9.435,0,0,1,.975,2.25l3.275-.875a6.158,6.158,0,0,0-1.025-1.375h2.6V-19.35h-5.8a3.79,3.79,0,0,0,.3-.8l-3.2-.475a9.912,9.912,0,0,1-1.85,3.225v-1.95H-28.72a4.034,4.034,0,0,0,.4-.875l-3.125-.4a8.115,8.115,0,0,1-3.45,4l2.1,2.275h-.925v2.65h8.6v1.1h-8.075a40.387,40.387,0,0,1-.9,6.575h5.7A17.778,17.778,0,0,1-34.92-1.5l1.85,3.025a18.055,18.055,0,0,0,7.95-5.35v5.7h3.05v-5.9H-15.9V-3.6c0,1.125-.45,1.15-4.425,1.15l1.2,3.025C-13.245.45-12.9.2-12.9-4.525ZM-22.52-14.35H-32.4a8.813,8.813,0,0,0,2.2-2.325h.5A9.5,9.5,0,0,1-28.77-14.5l3.225-.825a6.836,6.836,0,0,0-.95-1.35h2.325a3.251,3.251,0,0,1-.675.5Zm5.575,3.75H-22.07v-1.1h5.125ZM-25.12-6.7h-5.525L-30.52-8h5.4ZM3.034,0V-24.18H-1.12c-.93,2.108-3.038,3.689-5.952,4.65l1.209,3.689,4.247-1.829V0ZM29.513-17.5a20.726,20.726,0,0,0-1.378-3.978l-2.86.91a18.737,18.737,0,0,1,1.4,3.952Zm-4.394-.182a25.472,25.472,0,0,0-1.872-3.77l-2.834,1.2a28.676,28.676,0,0,1,1.95,3.848Zm9.854-2.808-3.094-1.04A19.38,19.38,0,0,1,29.435-16.3h-8.32V-6.11h4.992v1.4H20.439v2.964h5.668V1.95h3.12V-1.742h5.668V-4.706H29.227v-1.4h5.044V-16.3H32.633A16.68,16.68,0,0,0,34.973-20.488ZM19.945-7.462V-9.334h-4.5s.156-1.352.26-2.6h3.8V-20.7H12.145v3.146h4.29v2.47H12.8c-.26,3.848-.988,8.892-.988,8.892h4.94v1.2c0,3.458-.208,3.51-4.706,3.51l1.014,3.354C19.893,1.872,19.945.208,19.945-7.462ZM31.2-12.376h-2.08v-1.508H31.2Zm-4.992,0H24.183v-1.508h2.028ZM31.2-8.528h-2.08v-1.638H31.2Zm-4.992,0H24.183v-1.638h2.028Z" transform="translate(598.795 2164.468)" fill="#001c10"/><path d="M32.976,10.458A6.686,6.686,0,0,0,28.994,5.45a6.893,6.893,0,0,0-5.651-.035,6.049,6.049,0,0,0-5.21.328.547.547,0,0,0-.529-.421V4.985a.369.369,0,0,0-.368-.368h-.01a9.651,9.651,0,0,1-.3-2.206c0-.012,0-.025,0-.038a7.529,7.529,0,0,1,1.715.347V1.355A7.551,7.551,0,0,1,16.96,1.7,10.53,10.53,0,0,1,17.281,0H15.916a10.522,10.522,0,0,1,.321,1.7,7.551,7.551,0,0,1-1.677-.344V2.72a7.529,7.529,0,0,1,1.715-.347c0,.012,0,.025,0,.038a9.651,9.651,0,0,1-.3,2.206h-.01a.369.369,0,0,0-.368.368v.337a.546.546,0,0,0-.537.472,6.084,6.084,0,0,0-5.31-.379,6.893,6.893,0,0,0-5.651.035A6.686,6.686,0,0,0,.112,10.458a8.156,8.156,0,0,0,2.254,7.055c1.964,1.922,3.21,3.506,3.508,5.5H5.06a.541.541,0,0,0-.539.539v.162a.783.783,0,0,0,0,1.24v.162a.541.541,0,0,0,.539.539H27.982a.541.541,0,0,0,.539-.539V24.9a.782.782,0,0,0,0-1.15v-.207a.541.541,0,0,0-.539-.539h-.769c.3-1.99,1.544-3.573,3.508-5.5a8.156,8.156,0,0,0,2.254-7.055m-6.455-3.9-.11,0a5.062,5.062,0,0,1,1.808.461,4.93,4.93,0,0,1,3,3.738,6.475,6.475,0,0,1-1.762,5.526c-2.256,2.208-3.746,4.156-4.042,6.718H22.1c.17-1.513,2.077-4.674,2.745-5.781,2.747-4.554,2.857-8.255.364-10.581a4.994,4.994,0,0,1,1.315-.085M21.5,6.7c-.041,0-.082,0-.123,0a3.9,3.9,0,0,1,1.809.614,4.019,4.019,0,0,1,2.007,4,11.941,11.941,0,0,1-1.89,5.033c-2,3.31-2.9,5.3-2.995,6.663H17.445V8.288a7.6,7.6,0,0,1,1.695-1.117A4.54,4.54,0,0,1,21.5,6.7M15.643,8.283V23.009H12.766c-.092-1.363-1-3.353-2.995-6.663a11.939,11.939,0,0,1-1.89-5.033,4.019,4.019,0,0,1,2.007-4A3.9,3.9,0,0,1,11.7,6.7c-.034,0-.067,0-.1,0a5.767,5.767,0,0,1,4.046,1.585M7.882,6.647C5.389,8.973,5.5,12.674,8.246,17.228c.668,1.107,2.575,4.268,2.745,5.781H7.663c-.3-2.563-1.786-4.511-4.042-6.718a6.476,6.476,0,0,1-1.762-5.526,4.931,4.931,0,0,1,3-3.738,5.064,5.064,0,0,1,1.808-.461l-.1,0a4.994,4.994,0,0,1,1.318.085" transform="translate(582.36 2103.001)" fill="#e5c464"/></g></svg>