<svg xmlns="http://www.w3.org/2000/svg" xmlns:xlink="http://www.w3.org/1999/xlink" width="37" height="40" viewBox="0 0 37 40"><defs><clipPath id="a"><rect width="37" height="40" transform="translate(24)" fill="#fff"/></clipPath></defs><g transform="translate(-24)" clip-path="url(#a)"><g transform="translate(10215 18529)"><path d="M16.783.737a1,1,0,0,1,1.434,0L33.35,16.3a1,1,0,0,1-.717,1.7H2.367a1,1,0,0,1-.717-1.7Z" transform="translate(-10155 -18511) rotate(180)" fill="#fff"/><path d="M16.783.737a1,1,0,0,1,1.434,0L33.35,16.3a1,1,0,0,1-.717,1.7H2.367a1,1,0,0,1-.717-1.7Z" transform="translate(-10174 -18491) rotate(180)" fill="#fff"/><path d="M16.783.737a1,1,0,0,1,1.434,0L33.35,16.3a1,1,0,0,1-.717,1.7H2.367a1,1,0,0,1-.717-1.7Z" transform="translate(-10136 -18491) rotate(180)" fill="#fff"/></g></g></svg>