<svg xmlns="http://www.w3.org/2000/svg" xmlns:xlink="http://www.w3.org/1999/xlink" width="29" height="34" viewBox="0 0 29 34"><defs><clipPath id="a"><rect width="29" height="34" transform="translate(212 10)" fill="#5c0909"/></clipPath></defs><g transform="translate(-212 -10)" clip-path="url(#a)"><g transform="translate(-112.09 -2)"><path d="M27.444.75H0V-.75H27.444Z" transform="translate(325 17)" fill="#3b3333"/><path d="M14,.75H0V-.75H14Z" transform="translate(325 23.866)" fill="#3b3333"/><path d="M27.444.75H0V-.75H27.444Z" transform="translate(325 30.733)" fill="#3b3333"/><path d="M-14.91,0l1.557-8.105,2.539,5.859,2.63-5.859L-6.784,0H-7.929l-.714-4.551-2.189,4.9-2.127-4.9L-13.755,0ZM-1.136-6.47H-4.1v1.812h2.879v1.069H-4.1v2.52h2.966V0H-5.217V-7.539h4.082ZM.331,0V-8.052L5.725-2.3V-7.539H6.842v8L1.447-5.278V0Zm9.4-7.539V-3a2.538,2.538,0,0,0,.311,1.421,1.515,1.515,0,0,0,1.308.649,1.52,1.52,0,0,0,1.313-.649A2.5,2.5,0,0,0,12.974-3V-7.539H14.09v4.854a2.745,2.745,0,0,1-.728,1.963A2.672,2.672,0,0,1,11.35.137,2.656,2.656,0,0,1,9.342-.723a2.745,2.745,0,0,1-.728-1.963V-7.539Z" transform="translate(339 45.541)" fill="#3b3333"/><path d="M7.342,1.721,1.947-4.017V.5H-.169V-9.316L5.225-3.564V-8.039H7.342ZM.831-.5H.947V-6.54L6.342-.8V-7.039H6.225v6L.831-6.788Zm-11.67,2.087-1.915-4.413L-13.335.5h-2.18l1.977-10.291,2.733,6.306L-7.969-9.8-6.19.5H-8.357l-.519-3.306ZM-7.5-.5h.124L-8.4-6.407l-2.424,5.4L-13.167-6.42-14.3-.5h.129l1.01-5.786,2.34,5.392,2.415-5.4ZM11.35.637A3.15,3.15,0,0,1,8.98-.379a3.242,3.242,0,0,1-.865-2.307V-8.039h2.116V-3a2.05,2.05,0,0,0,.22,1.133,1.021,1.021,0,0,0,.9.437,1.025,1.025,0,0,0,.906-.44A1.994,1.994,0,0,0,12.474-3V-8.039H14.59v5.354a3.241,3.241,0,0,1-.865,2.306A3.167,3.167,0,0,1,11.35.637ZM9.114-7.039v4.354a2.244,2.244,0,0,0,.592,1.62,2.157,2.157,0,0,0,1.644.7,2.172,2.172,0,0,0,1.65-.7,2.243,2.243,0,0,0,.59-1.618V-7.039h-.116V-3a2.919,2.919,0,0,1-.4,1.712,2.027,2.027,0,0,1-1.719.858,2.022,2.022,0,0,1-1.715-.858l0-.006A2.968,2.968,0,0,1,9.231-3V-7.039ZM-.636.5H-5.717V-8.039H-.636V-5.97H-3.6v.812H-.722v2.069H-3.6v1.52H-.636Zm-4.082-1h3.082V-.569H-4.6v-3.52h2.879v-.069H-4.6V-6.97h2.966v-.069H-4.717Z" transform="translate(339 45.541)" fill="rgba(0,0,0,0)"/></g></g></svg>