<svg xmlns="http://www.w3.org/2000/svg" width="12.45" height="12.45" viewBox="0 0 12.45 12.45"><g transform="translate(-4 -4)"><g transform="translate(4 4)"><path d="M15.205,19.205H5.245A1.246,1.246,0,0,1,4,17.96V9.245A1.246,1.246,0,0,1,5.245,8h2.49a.623.623,0,1,1,0,1.245H5.245V17.96h9.96V9.245h-.623a.623.623,0,1,1,0-1.245h.623A1.246,1.246,0,0,1,16.45,9.245V17.96A1.246,1.246,0,0,1,15.205,19.205Z" transform="translate(-4 -6.755)" fill="#9b9b9b"/><path d="M1.735-.755H-1.377A.623.623,0,0,1-2-1.377.623.623,0,0,1-1.377-2H1.735a.623.623,0,0,1,.623.623A.623.623,0,0,1,1.735-.755Z" transform="translate(6.98 3.245)" fill="#9b9b9b"/><path d="M-1.377,1.735A.623.623,0,0,1-2,1.113v-2.49A.623.623,0,0,1-1.377-2a.623.623,0,0,1,.623.623v2.49A.623.623,0,0,1-1.377,1.735Z" transform="translate(5.113 2)" fill="#9b9b9b"/><path d="M-1.377,1.735A.623.623,0,0,1-2,1.113v-2.49A.623.623,0,0,1-1.377-2a.623.623,0,0,1,.623.623v2.49A.623.623,0,0,1-1.377,1.735Z" transform="translate(10.093 2)" fill="#9b9b9b"/><path d="M7.338-.755H-1.377A.623.623,0,0,1-2-1.377.623.623,0,0,1-1.377-2H7.338a.623.623,0,0,1,.623.623A.623.623,0,0,1,7.338-.755Z" transform="translate(2 6.669)" fill="#9b9b9b"/></g></g></svg>