<svg xmlns="http://www.w3.org/2000/svg" width="58.208" height="64.137" viewBox="0 0 58.208 64.137"><g transform="translate(-1161.864 -8034.541)"><path d="M-26.265-6.47V0H-27.4V-6.47h-1.733V-7.539h4.6V-6.47ZM-24.136-3.8a3.692,3.692,0,0,1,1.167-2.734,3.841,3.841,0,0,1,2.793-1.143,3.77,3.77,0,0,1,2.764,1.152A3.767,3.767,0,0,1-16.255-3.76,3.707,3.707,0,0,1-17.417-1,3.889,3.889,0,0,1-20.234.137,3.89,3.89,0,0,1-22.856-.874,3.7,3.7,0,0,1-24.136-3.8Zm1.147.015a2.725,2.725,0,0,0,.84,2.056,2.7,2.7,0,0,0,1.929.806,2.713,2.713,0,0,0,2-.82A2.776,2.776,0,0,0-17.4-3.77a2.762,2.762,0,0,0-.806-2.021,2.66,2.66,0,0,0-1.982-.82,2.686,2.686,0,0,0-1.987.82A2.72,2.72,0,0,0-22.988-3.789Zm9.3.728V0h-1.138V-7.539h1.289a5.814,5.814,0,0,1,1.431.132,1.919,1.919,0,0,1,.859.5,2.146,2.146,0,0,1,.649,1.6,2.067,2.067,0,0,1-.693,1.641,2.744,2.744,0,0,1-1.87.605Zm0-1.055h.425q1.567,0,1.567-1.206,0-1.167-1.616-1.167h-.376Zm11.611-2.3L-3-5.869a1.586,1.586,0,0,0-.493-.586,1.15,1.15,0,0,0-.63-.156,1.163,1.163,0,0,0-.786.269.832.832,0,0,0-.312.664q0,.552.82.889l.752.308A3.21,3.21,0,0,1-2.3-3.577,2.042,2.042,0,0,1-1.88-2.266,2.3,2.3,0,0,1-2.573-.547,2.38,2.38,0,0,1-4.307.137,2.319,2.319,0,0,1-5.928-.444,2.675,2.675,0,0,1-6.714-2.08l1.152-.254a1.96,1.96,0,0,0,.273.918,1.184,1.184,0,0,0,1.025.488,1.19,1.19,0,0,0,.884-.356,1.233,1.233,0,0,0,.352-.9,1.268,1.268,0,0,0-.061-.4,1.022,1.022,0,0,0-.19-.337,1.522,1.522,0,0,0-.334-.288A3.222,3.222,0,0,0-4.1-3.472l-.728-.3A2.094,2.094,0,0,1-6.377-5.688a1.816,1.816,0,0,1,.649-1.421,2.346,2.346,0,0,1,1.616-.576A2.257,2.257,0,0,1-2.075-6.416Zm7.139-.718v1.348a3.155,3.155,0,0,0-2.041-.825,2.6,2.6,0,0,0-1.958.835,2.815,2.815,0,0,0-.8,2.031,2.747,2.747,0,0,0,.8,2,2.645,2.645,0,0,0,1.963.815,2.408,2.408,0,0,0,1.021-.2,2.943,2.943,0,0,0,.486-.264,5.742,5.742,0,0,0,.53-.4V-.415A4.109,4.109,0,0,1,3.013.137,3.784,3.784,0,0,1,.254-.991,3.74,3.74,0,0,1-.884-3.735,3.871,3.871,0,0,1,.068-6.3,3.791,3.791,0,0,1,3.1-7.686,3.849,3.849,0,0,1,5.063-7.134ZM9.053-3.213,11.387,0H10L7.842-3.086H7.637V0H6.5V-7.539H7.832a3.33,3.33,0,0,1,2.158.562,2.063,2.063,0,0,1,.732,1.65,2.142,2.142,0,0,1-.459,1.377A2.046,2.046,0,0,1,9.053-3.213ZM7.637-4.077H8q1.616,0,1.616-1.235,0-1.157-1.572-1.157H7.637Zm4.336.273A3.692,3.692,0,0,1,13.14-6.538a3.841,3.841,0,0,1,2.793-1.143A3.77,3.77,0,0,1,18.7-6.528,3.767,3.767,0,0,1,19.854-3.76,3.707,3.707,0,0,1,18.691-1,3.889,3.889,0,0,1,15.874.137,3.89,3.89,0,0,1,13.252-.874,3.7,3.7,0,0,1,11.973-3.8Zm1.147.015a2.725,2.725,0,0,0,.84,2.056,2.7,2.7,0,0,0,1.929.806,2.713,2.713,0,0,0,2-.82,2.776,2.776,0,0,0,.815-2.021A2.762,2.762,0,0,0,17.9-5.791a2.66,2.66,0,0,0-1.982-.82,2.686,2.686,0,0,0-1.987.82A2.72,2.72,0,0,0,13.12-3.789Zm9.3-3.75v6.47h2.217V0H21.284V-7.539Zm4.434,0v6.47h2.217V0H25.718V-7.539Z" transform="translate(1191 8098.541)" fill="#fff"/><path d="M23,1a22.006,22.006,0,0,0-8.563,42.272A22.006,22.006,0,0,0,31.563,2.728,21.861,21.861,0,0,0,23,1m0-1A23,23,0,1,1,0,23,23,23,0,0,1,23,0Z" transform="translate(1168 8034.541)" fill="#fff"/><path d="M.5,18.546h-1V0h1Z" transform="translate(1191 8048.24)" fill="#fff"/><path d="M14.492-2.587,7.418-9.31.344-2.587l-.689-.725L7.418-10.69l7.763,7.378Z" transform="translate(1183.581 8058.365)" fill="#fff"/></g></svg>