<svg xmlns="http://www.w3.org/2000/svg" width="16.298" height="16.298" viewBox="0 0 16.298 16.298"><path d="M8.15,3.876a4.273,4.273,0,1,0,4.273,4.273A4.273,4.273,0,0,0,8.15,3.876m0,7.548a3.275,3.275,0,1,1,3.275-3.275A3.279,3.279,0,0,1,8.15,11.424M8.649,0h-1V2.257h1Zm-1,16.3h1V14.041h-1Zm6.391-7.65H16.3v-1H14.042Zm-11.784-1H0v1H2.258ZM14.265,2.74l-.705-.705-1.6,1.6.705.705ZM2.035,13.559l.705.705,1.6-1.6-.705-.705Zm9.929-.891,1.6,1.6.705-.705-1.6-1.6ZM4.336,3.63l-1.6-1.6-.705.705,1.6,1.6Z" transform="translate(-0.001)" fill="#001c10"/></svg>