<svg xmlns="http://www.w3.org/2000/svg" width="28.627" height="28.814" viewBox="0 0 28.627 28.814"><path d="M24.68,0H12.509A8.186,8.186,0,0,0,4.281,8.143V20.671a8.186,8.186,0,0,0,8.228,8.143H24.68a8.186,8.186,0,0,0,8.228-8.143V8.143A8.186,8.186,0,0,0,24.68,0ZM7.2,8.143a5.285,5.285,0,0,1,5.307-5.252H24.68a5.285,5.285,0,0,1,5.307,5.252V20.671a5.285,5.285,0,0,1-5.307,5.252H12.509A5.285,5.285,0,0,1,7.2,20.671Z" transform="translate(-4.281 0)" fill="#fff"/><path d="M131.646,138.841a7.349,7.349,0,1,0-7.5-7.348A7.432,7.432,0,0,0,131.646,138.841Zm0-12.406a5.059,5.059,0,1,1-5.161,5.058A5.116,5.116,0,0,1,131.646,126.435Z" transform="translate(-117.333 -117.086)" fill="#fff"/><ellipse cx="1.68" cy="1.68" rx="1.68" ry="1.68" transform="translate(20.35 5.101)" fill="#fff"/></svg>