<svg xmlns="http://www.w3.org/2000/svg" width="24.287" height="25.14" viewBox="0 0 24.287 25.14"><path d="M15.366,30.174a.81.81,0,0,1-.81-.81V25.589A8.113,8.113,0,0,1,14,16.1,8.113,8.113,0,0,1,28.955,20.5s0,.007,0,.011a8.146,8.146,0,0,1-1.919,5.5,8.709,8.709,0,0,1-5.244,2.554.81.81,0,0,1-.129.01H20.9a8.033,8.033,0,0,1-1.772-.2l-3.394,1.712A.81.81,0,0,1,15.366,30.174Zm5.477-16.206a6.493,6.493,0,0,0-4.87,10.787.81.81,0,0,1,.2.536v2.756l2.487-1.254a.81.81,0,0,1,.576-.059,6.408,6.408,0,0,0,1.659.221h.7a7.111,7.111,0,0,0,4.237-2.032,6.587,6.587,0,0,0,1.5-4.437,6.495,6.495,0,0,0-6.492-6.518Z" transform="translate(-12.73 -12.348)"/><path d="M33.814,36.926a.81.81,0,0,1-.362-.086l-3.36-1.68a8.041,8.041,0,0,1-1.77.21h-.005a8.1,8.1,0,0,1-7.7-5.556.81.81,0,0,1,1.538-.511,6.483,6.483,0,0,0,6.166,4.447,6.41,6.41,0,0,0,1.654-.23.81.81,0,0,1,.577.056L33,34.8V32.043a.81.81,0,0,1,.2-.528,6.492,6.492,0,0,0-3.5-10.564.81.81,0,0,1,.356-1.581,8.113,8.113,0,0,1,4.564,12.964v3.781a.81.81,0,0,1-.81.81Z" transform="translate(-12.1 -11.786)"/><path d="M20.436,21.621a.81.81,0,0,1-.806-.739,2.744,2.744,0,0,1,.2-1.29l.015-.034a2.294,2.294,0,0,1,.884-.984l.047-.027a.779.779,0,0,0,.418-.656.583.583,0,0,0-.656-.587.81.81,0,0,1-.131.006.7.7,0,0,0-.727.657.81.81,0,0,1-1.617-.1A2.309,2.309,0,0,1,20.4,15.69a2.2,2.2,0,0,1,2.411,2.245v.011a2.4,2.4,0,0,1-1.258,2.023.678.678,0,0,0-.237.265,1.117,1.117,0,0,0-.074.507.81.81,0,0,1-.736.878C20.483,21.62,20.459,21.621,20.436,21.621Z" transform="translate(-12.302 -12.081)"/><circle cx="0.778" cy="0.778" r="0.778" transform="translate(7.357 10.329)"/></svg>