<svg xmlns="http://www.w3.org/2000/svg" width="20.064" height="20.147" viewBox="0 0 20.064 20.147"><path d="M13.231,18.752a.9.9,0,0,1-.638-1.539L22.985,6.821,19.16,3,8.769,13.384a.9.9,0,1,1-1.275-1.276L18.523,1.084a.9.9,0,0,1,1.275,0l5.1,5.1a.9.9,0,0,1,0,1.275L13.869,18.488A.9.9,0,0,1,13.231,18.752Z" transform="translate(-5.098 -0.82)"/><path d="M-1.1,10.007a.9.9,0,0,1-.638-.264.9.9,0,0,1,0-1.275l10.2-10.2a.9.9,0,0,1,1.275,0,.9.9,0,0,1,0,1.275L-.46,9.743A.9.9,0,0,1-1.1,10.007Z" transform="translate(7.51 4.547)"/><path d="M7.911,37.812H3.4a.9.9,0,0,1-.9-.9V32.4a.9.9,0,0,1,1.8,0v3.607H7.911a.9.9,0,1,1,0,1.8Z" transform="translate(-2.5 -17.666)"/></svg>