<svg xmlns="http://www.w3.org/2000/svg" width="14.528" height="12.704" viewBox="0 0 14.528 12.704"><g transform="translate(0 -32.144)"><path d="M13.364,33.487a2.477,2.477,0,0,1-.866-.776l-.391-.567-.391.567a2.478,2.478,0,0,1-.867.776,2.466,2.466,0,0,1-2.327,0,2.48,2.48,0,0,1-.866-.776l-.391-.567-.391.567a2.48,2.48,0,0,1-.866.776,2.466,2.466,0,0,1-2.327,0,2.479,2.479,0,0,1-.867-.776l-.391-.567-.391.567a2.478,2.478,0,0,1-.866.776A2.449,2.449,0,0,1,0,33.779v.951a3.4,3.4,0,0,0,1.613-.4,3.425,3.425,0,0,0,.808-.6,3.411,3.411,0,0,0,4.843,0,3.411,3.411,0,0,0,4.843,0,3.406,3.406,0,0,0,2.421,1.007v-.951A2.449,2.449,0,0,1,13.364,33.487Z" fill="#001c10"/><path d="M12.5,211l-.391-.568-.391.568a2.48,2.48,0,0,1-.867.776,2.467,2.467,0,0,1-2.327,0A2.482,2.482,0,0,1,7.657,211l-.391-.568L6.874,211a2.482,2.482,0,0,1-.866.776,2.467,2.467,0,0,1-2.327,0A2.481,2.481,0,0,1,2.815,211l-.391-.568L2.032,211a2.48,2.48,0,0,1-.866.776A2.445,2.445,0,0,1,0,212.067v.951a3.4,3.4,0,0,0,1.613-.4,3.42,3.42,0,0,0,.808-.6,3.41,3.41,0,0,0,4.843,0,3.41,3.41,0,0,0,4.843,0,3.4,3.4,0,0,0,2.421,1.008v-.951a2.446,2.446,0,0,1-1.163-.291A2.479,2.479,0,0,1,12.5,211Z" transform="translate(-0.002 -173.229)" fill="#001c10"/><path d="M12.5,389.288l-.391-.567-.391.567a2.481,2.481,0,0,1-.867.776,2.468,2.468,0,0,1-2.327,0,2.482,2.482,0,0,1-.866-.776l-.391-.567-.391.567a2.482,2.482,0,0,1-.866.776,2.468,2.468,0,0,1-2.327,0,2.481,2.481,0,0,1-.867-.776l-.391-.567-.391.567a2.481,2.481,0,0,1-.866.776A2.446,2.446,0,0,1,0,390.356v.951a3.4,3.4,0,0,0,1.613-.4,3.42,3.42,0,0,0,.808-.6,3.411,3.411,0,0,0,4.843,0,3.411,3.411,0,0,0,4.843,0,3.407,3.407,0,0,0,2.421,1.008v-.951a2.446,2.446,0,0,1-1.163-.291A2.48,2.48,0,0,1,12.5,389.288Z" transform="translate(0 -346.459)" fill="#001c10"/></g></svg>