<svg xmlns="http://www.w3.org/2000/svg" width="24.288" height="21.984" viewBox="0 0 24.288 21.984"><path d="M29.246,22.378a2.815,2.815,0,0,1-2.28-1.174,2.792,2.792,0,0,1-4.545.008,2.807,2.807,0,0,1-4.553,0,2.818,2.818,0,0,1-2.28,1.165,2.787,2.787,0,0,1-2.122-.926q-.084-.093-.162-.194a2.775,2.775,0,0,1-2.269,1.12h-.047A3.187,3.187,0,0,1,8,19.04a.758.758,0,0,1,.02-.14l2.1-8.788a.759.759,0,0,1,.738-.582H29.39a.759.759,0,0,1,.738.58L32.26,18.9a.759.759,0,0,1,.021.142,3.187,3.187,0,0,1-2.988,3.337Zm-6.829-4.06a.759.759,0,0,1,.756.687,2.478,2.478,0,0,0,.538,1.384,1.263,1.263,0,0,0,.983.471c.923,0,1.429-.933,1.521-1.858a.759.759,0,0,1,1.511,0c.086.915.582,1.839,1.5,1.854a1.676,1.676,0,0,0,1.543-1.681l-1.973-8.131H11.459l-1.945,8.13a1.676,1.676,0,0,0,1.544,1.682c1.192-.017,1.445-1.3,1.5-1.855a.759.759,0,0,1,1.512.011,2.378,2.378,0,0,0,.523,1.418,1.29,1.29,0,0,0,1,.427c.938,0,1.439-.929,1.52-1.85a.759.759,0,0,1,1.512,0c.087.923.59,1.854,1.521,1.854.675,0,1.407-.572,1.52-1.85a.759.759,0,0,1,.754-.692Z" transform="translate(-7.996 -9.53)" fill="#231815"/><path d="M30.126,35.124H23.38a.759.759,0,0,1-.759-.759v-2.33a2.617,2.617,0,0,0-.529-1.716,1.6,1.6,0,0,0-1.262-.561,2.083,2.083,0,0,0-1.92,2.33v2.277a.759.759,0,0,1-.759.759H11.459a.759.759,0,0,1-.759-.759V28.378a.759.759,0,1,1,1.518,0v5.228h5.175V32.089a3.579,3.579,0,0,1,3.438-3.848c1.948,0,3.309,1.56,3.309,3.795v1.571h5.228V25.259a.759.759,0,1,1,1.518,0v9.106A.759.759,0,0,1,30.126,35.124Z" transform="translate(-8.648 -13.14)" fill="#231815"/></svg>