<svg xmlns="http://www.w3.org/2000/svg" width="9.979" height="13.014" viewBox="0 0 9.979 13.014"><path d="M60.6.551c-.894.58-1.07,2.393-.732,3.87a13.346,13.346,0,0,0,1.765,4.147,13.86,13.86,0,0,0,3.067,3.3c1.211.911,2.938,1.49,3.832.91a4.528,4.528,0,0,0,1.155-1.238l-.48-.741L67.889,8.765c-.1-.151-.714-.013-1.027.164a2.978,2.978,0,0,0-.81.88c-.289.167-.532,0-1.038-.232A6.164,6.164,0,0,1,63.136,7.6a6.164,6.164,0,0,1-1.043-2.523c-.006-.557-.06-.846.211-1.042a2.978,2.978,0,0,0,1.134-.381c.289-.213.667-.719.569-.87L62.686.742,62.206,0A4.529,4.529,0,0,0,60.6.551Z" transform="translate(-59.712 0.001)" fill="#fff"/></svg>