<svg xmlns="http://www.w3.org/2000/svg" width="21.529" height="21.529" viewBox="0 0 21.529 21.529"><path d="M20.342,0H1.188A1.187,1.187,0,0,0,0,1.187V20.338a1.188,1.188,0,0,0,1.188,1.191h9.237V14.337H7.3V10.714h3.129V8.04a6.26,6.26,0,0,1,.192-1.59c0-.014.009-.028.013-.042q.055-.2.124-.393c.037-.1.079-.195.121-.29.018-.04.033-.081.052-.12q.092-.191.2-.367l.01-.018a3.974,3.974,0,0,1,.524-.675l.013-.015c.085-.087.175-.167.268-.246.021-.018.04-.037.061-.054.073-.059.151-.113.229-.168.046-.032.09-.067.138-.1s.1-.06.156-.09c.081-.047.161-.094.246-.135l.045-.02a5.277,5.277,0,0,1,2.267-.47,25.542,25.542,0,0,1,2.8.145V6.634H15.962c-1.5,0-1.8.716-1.8,1.766v2.314h3.589l-.468,3.622H14.166v7.192h6.176a1.188,1.188,0,0,0,1.188-1.191V1.187A1.187,1.187,0,0,0,20.342,0Z" fill="#487fbf"/></svg>