<svg xmlns="http://www.w3.org/2000/svg" width="32.867" height="31.003" viewBox="0 0 32.867 31.003"><path d="M15.564,31a.516.516,0,0,1-.58-.465,3.561,3.561,0,0,1,.126-1.164l0-.018a7.6,7.6,0,0,0,.2-1.617c0-.5-.248-1.271-.906-1.372C6.194,25.552,0,19.905,0,13.231A12.006,12.006,0,0,1,4.815,3.876,18.519,18.519,0,0,1,16.435,0C25.5,0,32.867,5.935,32.867,13.231a11.878,11.878,0,0,1-4.165,8.8l-.057.054A59.254,59.254,0,0,1,16.586,30.7,2.578,2.578,0,0,1,15.564,31ZM22.256,9.642a.194.194,0,0,0-.191.191v6.808a.194.194,0,0,0,.191.191h4.3a.2.2,0,0,0,.2-.191V15.482a.2.2,0,0,0-.2-.191H23.607V14.008h2.951a.2.2,0,0,0,.2-.194V12.657a.2.2,0,0,0-.2-.191H23.607V11.184h2.951a.2.2,0,0,0,.2-.191V9.833a.2.2,0,0,0-.2-.191ZM16.25,12.4l0,0,3.021,4.346a.2.2,0,0,0,.159.083h1.246a.2.2,0,0,0,.194-.191v-6.8a.2.2,0,0,0-.194-.2H19.522a.194.194,0,0,0-.191.2v4.236L16.309,9.725a.2.2,0,0,0-.159-.083H14.9a.193.193,0,0,0-.194.2v6.8a.193.193,0,0,0,.194.191h1.155a.192.192,0,0,0,.191-.191V12.4ZM12.17,9.642a.193.193,0,0,0-.194.2v6.8a.193.193,0,0,0,.194.191h1.155a.192.192,0,0,0,.191-.191v-6.8a.194.194,0,0,0-.191-.2Zm-5.814,0a.189.189,0,0,0-.191.191v6.808a.183.183,0,0,0,.055.134.2.2,0,0,0,.137.058h4.236a.189.189,0,0,0,.191-.191V15.482a.189.189,0,0,0-.191-.191H7.7V9.833a.189.189,0,0,0-.191-.191Z" transform="translate(0 0)" fill="#fff"/></svg>