<svg xmlns="http://www.w3.org/2000/svg" width="15" height="12.438" viewBox="0 0 15 12.438"><g transform="translate(-1020 -1122.281)"><path d="M3.5.8A2.1,2.1,0,0,0,1.473,2.169,9.665,9.665,0,0,0,.8,6.219a9.447,9.447,0,0,0,.716,4.042,2.118,2.118,0,0,0,3.968,0A9.447,9.447,0,0,0,6.2,6.219a9.665,9.665,0,0,0-.673-4.05A2.1,2.1,0,0,0,3.5.8m0-.8C6.162,0,7,2.784,7,6.219s-.965,6.219-3.5,6.219S0,9.653,0,6.219.838,0,3.5,0Z" transform="translate(1020 1122.281)" fill="#001c10"/><path d="M3.5.8A2.1,2.1,0,0,0,1.473,2.169,9.665,9.665,0,0,0,.8,6.219a9.447,9.447,0,0,0,.716,4.042,2.118,2.118,0,0,0,3.968,0A9.447,9.447,0,0,0,6.2,6.219a9.665,9.665,0,0,0-.673-4.05A2.1,2.1,0,0,0,3.5.8m0-.8C6.162,0,7,2.784,7,6.219s-.965,6.219-3.5,6.219S0,9.653,0,6.219.838,0,3.5,0Z" transform="translate(1028 1122.281)" fill="#001c10"/><path d="M1.912,0C3.367,0,3.825,1.473,3.825,3.29S3.3,6.58,1.912,6.58,0,5.107,0,3.29.458,0,1.912,0Z" transform="translate(1020.653 1125)" fill="#001c10"/><path d="M1.912,0C3.367,0,3.825,1.473,3.825,3.29S3.3,6.58,1.912,6.58,0,5.107,0,3.29.458,0,1.912,0Z" transform="translate(1028.653 1125)" fill="#001c10"/><path d="M.694,0c.528,0,.694.544.694,1.215S1.2,2.43.694,2.43,0,1.886,0,1.215.166,0,.694,0Z" transform="translate(1021 1125.852)" fill="#ebebeb"/><path d="M.694,0c.528,0,.694.544.694,1.215S1.2,2.43.694,2.43,0,1.886,0,1.215.166,0,.694,0Z" transform="translate(1029 1125.852)" fill="#ebebeb"/></g></svg>