<svg xmlns="http://www.w3.org/2000/svg" width="26.047" height="24.793" viewBox="0 0 26.047 24.793"><path d="M12.335,24.793a.413.413,0,0,1-.461-.374,2.916,2.916,0,0,1,.1-.929l0-.01a6.083,6.083,0,0,0,.163-1.3c0-.4-.2-1.02-.721-1.1C4.909,20.435,0,15.921,0,10.583,0,4.748,5.842,0,13.022,0S26.047,4.748,26.047,10.583a9.538,9.538,0,0,1-3.3,7.037l-.048.046a47.061,47.061,0,0,1-9.549,6.885A1.955,1.955,0,0,1,12.335,24.793ZM11.863,7.855A.147.147,0,0,0,11.716,8v5.165a.146.146,0,0,0,.148.146h.874a.146.146,0,0,0,.148-.146V9.951l2.291,3.3a.158.158,0,0,0,.122.058h.95a.143.143,0,0,0,.1-.041.165.165,0,0,0,.044-.1l0-5.165a.145.145,0,0,0-.143-.147h-.879A.147.147,0,0,0,15.221,8v3.215l-2.291-3.3a.157.157,0,0,0-.122-.061Zm5.579,0A.146.146,0,0,0,17.3,8v5.165a.144.144,0,0,0,.147.143H20.71a.142.142,0,0,0,.144-.143v-.879a.149.149,0,0,0-.144-.148H18.466v-.971H20.71a.147.147,0,0,0,.144-.147v-.875A.146.146,0,0,0,20.71,10H18.466V9.024H20.71a.147.147,0,0,0,.144-.147V8a.146.146,0,0,0-.144-.147Zm-7.655,0A.146.146,0,0,0,9.641,8v5.165a.144.144,0,0,0,.147.143h.876a.144.144,0,0,0,.147-.143V8a.146.146,0,0,0-.147-.147Zm-4.414,0A.143.143,0,0,0,5.231,8v5.165a.157.157,0,0,0,.041.1.14.14,0,0,0,.1.041H8.59a.144.144,0,0,0,.147-.143v-.879a.148.148,0,0,0-.147-.148H6.4V8a.146.146,0,0,0-.147-.147Z" transform="translate(0 0)" fill="#53ba45"/></svg>