<svg xmlns="http://www.w3.org/2000/svg" width="21.623" height="20.64" viewBox="0 0 21.623 20.64"><path d="M22.64,26.709H3.966A1.968,1.968,0,0,1,2,24.743V11.966A1.968,1.968,0,0,1,3.966,10H9.371a.983.983,0,1,1,0,1.966H3.966V24.743H22.64a.983.983,0,1,1,0,1.966Z" transform="translate(-2 -6.068)"/><path d="M2.914-.034H-1.017A.983.983,0,0,1-2-1.017.983.983,0,0,1-1.017-2H2.914a.983.983,0,0,1,.983.983A.983.983,0,0,1,2.914-.034Z" transform="translate(11.337 5.932)"/><path d="M39.423,23.76a.983.983,0,0,1-.983-.983V11.966H35.983a.983.983,0,0,1,0-1.966H38.44a1.968,1.968,0,0,1,1.966,1.966V22.777A.983.983,0,0,1,39.423,23.76Z" transform="translate(-18.783 -6.068)"/><path d="M22.863,9.863a.983.983,0,0,1-.983-.983V3.966H16.966V8.88A.983.983,0,1,1,15,8.88V3.966A1.968,1.968,0,0,1,16.966,2H21.88a1.968,1.968,0,0,1,1.966,1.966V8.88A.983.983,0,0,1,22.863,9.863Z" transform="translate(-8.611 -2)"/></svg>