<svg xmlns="http://www.w3.org/2000/svg" width="8.94" height="17.423" viewBox="0 0 8.94 17.423"><g transform="translate(-552.585 -628)"><path d="M125.87,144.417v-9.072a.348.348,0,0,1,.7,0v9.072a1.2,1.2,0,1,1-.7,0" transform="translate(431.387 495.944)" fill="#001c10"/><path d="M1.477,10.442V2.511A2.49,2.49,0,0,1,3.873,0,2.442,2.442,0,0,1,6.361,2.441l.006,8.008a3.915,3.915,0,0,1-2.232,6.968q-.11.006-.219.006a3.917,3.917,0,0,1-2.439-6.981m.226,5.4a3.2,3.2,0,0,0,2.394.878A3.265,3.265,0,0,0,7.14,13.538a3.2,3.2,0,0,0-1.209-2.544.7.7,0,0,1-.267-.548v-8A1.745,1.745,0,0,0,3.919.7H3.886A1.789,1.789,0,0,0,2.173,2.511v7.934a.7.7,0,0,1-.267.549,3.216,3.216,0,0,0-.2,4.85" transform="translate(553.687 628)" fill="#001c10"/><path d="M324.651,116.27h-1.206a.348.348,0,1,1,0-.7h1.206a.348.348,0,1,1,0,.7" transform="translate(229.488 514.944)" fill="#001c10"/><path d="M323.445,277.684h1.206a.348.348,0,0,1,0,.7h-1.206a.348.348,0,0,1,0-.7" transform="translate(229.488 356.364)" fill="#001c10"/><path d="M323.445,439.794h1.206a.348.348,0,1,1,0,.7h-1.206a.348.348,0,1,1,0-.7" transform="translate(229.488 197.785)" fill="#001c10"/></g></svg>