<svg xmlns="http://www.w3.org/2000/svg" width="29.114" height="28.814" viewBox="0 0 29.114 28.814"><path d="M27.508,0H1.606A1.6,1.6,0,0,0,0,1.589V27.221a1.6,1.6,0,0,0,1.606,1.594H14.1V19.188H9.867V14.34H14.1V10.76a8.3,8.3,0,0,1,.26-2.129c.005-.019.012-.037.018-.056q.075-.271.168-.527c.05-.133.106-.261.164-.388.024-.053.045-.109.07-.16q.125-.255.271-.492l.014-.024a5.327,5.327,0,0,1,.708-.9l.018-.02c.114-.116.237-.224.362-.329.028-.024.054-.049.082-.072.1-.08.2-.151.309-.224.062-.043.122-.089.187-.13s.141-.08.211-.12c.11-.062.217-.126.332-.181.02-.01.041-.017.061-.027A7.2,7.2,0,0,1,20.4,4.349a34.894,34.894,0,0,1,3.78.194V8.878H21.585c-2.034,0-2.429.959-2.429,2.364v3.1H24.01l-.632,4.848H19.156v9.626h8.352a1.6,1.6,0,0,0,1.606-1.594V1.589A1.6,1.6,0,0,0,27.508,0Z" fill="#fff"/></svg>