<svg xmlns="http://www.w3.org/2000/svg" width="10" height="12" viewBox="0 0 10 12"><path d="M8.694,8.6c-.4,0-.8,0-1.2,0a.132.132,0,0,0-.1.081c-.08,1.065-.153,2.13-.235,3.195a.172.172,0,0,1-.12.117c-.479.008-.959.009-1.438,0a.193.193,0,0,1-.123-.143c.066-1.046.142-2.091.21-3.136a.154.154,0,0,0-.1-.111q-.775-.011-1.551,0a.165.165,0,0,0-.115.111c-.081,1.062-.154,2.125-.234,3.187a.142.142,0,0,1-.1.094q-.745.009-1.491,0a.139.139,0,0,1-.089-.1c.07-1.068.147-2.135.217-3.2,0-.028-.065-.087-.1-.087-.667-.005-1.334,0-2-.009a.166.166,0,0,1-.117-.113q-.012-.733,0-1.467A.166.166,0,0,1,.122,6.9c.707-.007,1.413,0,2.12-.01a.157.157,0,0,0,.117-.1q.065-.787.109-1.575a.151.151,0,0,0-.1-.106c-.749-.006-1.5,0-2.247-.01a.161.161,0,0,1-.112-.111q-.012-.73,0-1.46a.176.176,0,0,1,.121-.123C.906,3.4,1.685,3.4,2.464,3.4a.2.2,0,0,0,.139-.13C2.686,2.21,2.758,1.152,2.838.1a.139.139,0,0,1,.1-.09c.5-.006.994-.007,1.491,0,.033,0,.095.093.092.139C4.453,1.2,4.377,2.247,4.309,3.3c0,.033.063.1.1.1.514.007,1.029.008,1.543,0a.181.181,0,0,0,.127-.122C6.159,2.218,6.231,1.16,6.311.1a.148.148,0,0,1,.1-.1Q7.161,0,7.907,0A.129.129,0,0,1,7.994.1c-.071,1.07-.148,2.14-.218,3.211,0,.03.067.092.1.092.669.006,1.338,0,2.008.009a.156.156,0,0,1,.107.108q.011.737,0,1.475a.161.161,0,0,1-.111.112c-.707.007-1.413,0-2.12.01a.162.162,0,0,0-.121.1Q7.576,6,7.532,6.786a.145.145,0,0,0,.1.1c.749.006,1.5,0,2.247.01a.166.166,0,0,1,.116.114q.012.733,0,1.467a.166.166,0,0,1-.117.113c-.394.009-.789.005-1.184.005m-3.756-1.7c.259,0,.519,0,.778,0a.154.154,0,0,0,.111-.1q.068-.79.115-1.581a.137.137,0,0,0-.093-.1q-.786-.009-1.572,0a.148.148,0,0,0-.1.1Q4.107,6,4.059,6.784a.147.147,0,0,0,.1.1c.259.009.519,0,.778,0" transform="translate(0 0)" fill="#9b9b9b"/></svg>