<svg xmlns="http://www.w3.org/2000/svg" width="24.383" height="17.934" viewBox="0 0 24.383 17.934"><path d="M23.533,72.981l0,0A4.37,4.37,0,0,0,21.8,71.66a8.26,8.26,0,0,0-1.243-.455,4.536,4.536,0,0,0-1.73-1.774c-.179-.122-.724-.61-.9-.748-1.107-.846-3.929-.972-5.73-.972s-4.626.126-5.73.972c-.178.135-.722.622-.9.742A4.547,4.547,0,0,0,3.828,71.2a8.585,8.585,0,0,0-1.245.455,4.194,4.194,0,0,0-1.731,1.32C.062,74.13-.182,76.9.135,78.514a4.558,4.558,0,0,0,3.1,3.641c.095.042.191.084.289.124.507.208,1.023.387,1.42.516.682,1.287,1.126,1.6,1.407,1.715a3.57,3.57,0,0,0,2.167.1,3.76,3.76,0,0,1,.627-.084,4.632,4.632,0,0,1,1.32.268,2.887,2.887,0,0,0,1.73.854,2.886,2.886,0,0,0,1.73-.854,4.628,4.628,0,0,1,1.32-.268,3.786,3.786,0,0,1,.626.083,3.571,3.571,0,0,0,2.17-.1c.162-.069.639-.273,1.4-1.714.525-.17,1-.344,1.413-.514.071-.028.14-.057.209-.087l.086-.036a4.566,4.566,0,0,0,3.1-3.642C24.567,76.9,24.324,74.136,23.533,72.981ZM20.38,81.1c-.293.122-.6.235-.9.338-.585.2-1.138.364-1.494.463-.036.01-.074.016-.112.023l-.084.012c-.038,0-.076.008-.115.008a1.132,1.132,0,0,1-.614-.178,7.1,7.1,0,0,1-2.638-2.66,2.326,2.326,0,0,1-.52.095.341.341,0,0,1-.044,0,.515.515,0,0,1-.454-.273c-.278-.531-.86-1.627-.974-1.812a.28.28,0,0,0-.242-.136.284.284,0,0,0-.244.136c-.113.184-.68,1.262-.962,1.8a.511.511,0,0,1-.453.273.433.433,0,0,1-.049,0,3.494,3.494,0,0,1-.529-.078,7.094,7.094,0,0,1-2.638,2.66,1.088,1.088,0,0,1-.73.17l-.082-.011c-.038-.007-.076-.013-.113-.023-.356-.1-.909-.262-1.494-.465-.3-.1-.6-.215-.894-.336-.087-.036-.174-.073-.26-.111a3.34,3.34,0,0,1-2.361-2.721A8.042,8.042,0,0,1,1.9,73.7a3.071,3.071,0,0,1,1.22-.887,6.841,6.841,0,0,1,.833-.318,8.961,8.961,0,0,1,2.663-.4,51.191,51.191,0,0,1,5.577.478,51.13,51.13,0,0,1,5.577-.478,8.947,8.947,0,0,1,2.661.4,6.783,6.783,0,0,1,.834.32,3.055,3.055,0,0,1,1.218.885A8.041,8.041,0,0,1,23,78.269a3.34,3.34,0,0,1-2.361,2.721C20.553,81.028,20.467,81.065,20.38,81.1Zm-8.667,2.183-.742-.987a1.879,1.879,0,0,1,.18-2.463l.2-.2a.168.168,0,0,1,.285.1l.378,3.428A.167.167,0,0,1,11.712,83.284Z" transform="translate(0 -67.712)" fill="#303138"/><path d="M68.605,189.955a11.056,11.056,0,0,0-3.138-.423,17.188,17.188,0,0,0-1.8.171,6.09,6.09,0,0,0-1.578.482,1.577,1.577,0,0,0-.34.22.688.688,0,0,0-.105.115,10.743,10.743,0,0,0-.234,3.676,2.18,2.18,0,0,0,.738.893c.125.105.264.211.409.313a5.063,5.063,0,0,0,1.88.867.007.007,0,0,0,.005,0c.063.011.122.012.182.017h.014c.055,0,.112.016.165.016a1.557,1.557,0,0,0,.545-.1,6.056,6.056,0,0,0,2.569-2.719,12.929,12.929,0,0,0,1.129-2.7C69.078,190.31,68.958,190.086,68.605,189.955Zm-3.582,5.591-.023,0a1,1,0,0,1-.111.021l-.023,0a5.8,5.8,0,0,1-.991-3.243,7.436,7.436,0,0,1,.177-1.752c.006-.025.012-.051.019-.076.012-.047.025-.094.038-.137.162-.027.333-.049.514-.067a8.087,8.087,0,0,1,.843-.04c.3,0,.6.017.893.04.075.007.147.011.224.02l-.928,1.448a.191.191,0,0,0,.321.206l1.032-1.61a7.542,7.542,0,0,1,1.318.265c0,.027,0,.065,0,.115a11.409,11.409,0,0,1-1.054,2.418,6.836,6.836,0,0,1-1.459,1.916A2.2,2.2,0,0,1,65.023,195.547Z" transform="translate(-58.429 -183.73)" fill="#303138"/><path d="M296.177,190.4a1.576,1.576,0,0,0-.34-.22,6.09,6.09,0,0,0-1.578-.482,17.206,17.206,0,0,0-1.794-.171,11.058,11.058,0,0,0-3.138.423c-.354.131-.473.355-.447.827a13.116,13.116,0,0,0,1.129,2.7,6.061,6.061,0,0,0,2.57,2.719,1.627,1.627,0,0,0,.374.089,1.649,1.649,0,0,0,.169.009,1.929,1.929,0,0,0,.36-.035l.007,0a5.082,5.082,0,0,0,1.878-.865c.147-.1.285-.209.413-.314a2.221,2.221,0,0,0,.738-.893,10.788,10.788,0,0,0-.236-3.676A.677.677,0,0,0,296.177,190.4Zm-3.143,5.168c-.809-.091-1.9-1.46-2.374-2.412a11.459,11.459,0,0,1-1.054-2.423,1.044,1.044,0,0,1,0-.109,10.687,10.687,0,0,1,2.859-.369,8.06,8.06,0,0,1,.842.04c.1.01.191.023.284.036l.017,0-1.935,2.761a.19.19,0,1,0,.312.218l1.144-1.632.759-1.075a7.55,7.55,0,0,1,.168,1.719,5.784,5.784,0,0,1-.991,3.243Z" transform="translate(-275.119 -183.729)" fill="#303138"/></svg>