<svg xmlns="http://www.w3.org/2000/svg" width="12.161" height="12.161" viewBox="0 0 12.161 12.161"><g transform="translate(14110 12466.161)"><path d="M31.067,16.574a.507.507,0,0,1-.507-.507V12.013H26.507a.507.507,0,0,1,0-1.013h4.561a.507.507,0,0,1,.507.507v4.561A.507.507,0,0,1,31.067,16.574Z" transform="translate(-14129.413 -12477.161)" fill="#303139"/><path d="M22.628,25.135H13.507A.507.507,0,0,1,13,24.628V15.507A.507.507,0,0,1,13.507,15h4.054a.507.507,0,1,1,0,1.013H14.013v8.108h8.108V20.574a.507.507,0,0,1,1.013,0v4.054A.507.507,0,0,1,22.628,25.135Z" transform="translate(-14123 -12479.135)" fill="#303139"/><path d="M-.493,5.587a.505.505,0,0,1-.358-.148.507.507,0,0,1,0-.717L4.722-.852a.507.507,0,0,1,.717,0,.507.507,0,0,1,0,.717L-.135,5.439A.505.505,0,0,1-.493,5.587Z" transform="translate(-14103.933 -12464.654)" fill="#303139"/></g></svg>