<svg xmlns="http://www.w3.org/2000/svg" width="19.296" height="22.029" viewBox="0 0 19.296 22.029"><g transform="translate(0.9 0.9)"><path d="M19.014,8.1a6.922,6.922,0,0,1,6.914,6.914c0,2.009-1.07,4.488-3.181,7.366a34.75,34.75,0,0,1-3.1,3.658.9.9,0,0,1-1.273,0,34.75,34.75,0,0,1-3.1-3.658C13.17,19.5,12.1,17.023,12.1,15.014A6.922,6.922,0,0,1,19.014,8.1Zm0,15.991a34.326,34.326,0,0,0,2.3-2.795c1.844-2.519,2.819-4.691,2.819-6.283a5.114,5.114,0,0,0-10.229,0c0,1.6.98,3.775,2.833,6.3A34.3,34.3,0,0,0,19.014,24.091Z" transform="translate(-10.266 -9)"/><path d="M1.64,0A1.64,1.64,0,1,1,0,1.64,1.64,1.64,0,0,1,1.64,0Z" transform="translate(7.108 4.372)"/><path d="M16.748,42.848a22.518,22.518,0,0,1-6.455-.842C8.836,41.55,7.1,40.7,7.1,39.214a2.352,2.352,0,0,1,1.333-1.975,9.585,9.585,0,0,1,2.7-1.052.9.9,0,0,1,.44,1.745c-2.1.53-2.638,1.139-2.671,1.281.028.12.448.635,2.082,1.12a21.127,21.127,0,0,0,5.766.714,21.127,21.127,0,0,0,5.766-.714c1.634-.485,2.054-1,2.082-1.12-.033-.142-.568-.752-2.671-1.281a.9.9,0,0,1,.44-1.745,9.585,9.585,0,0,1,2.7,1.052A2.352,2.352,0,0,1,26.4,39.214c0,1.482-1.736,2.336-3.193,2.792A22.518,22.518,0,0,1,16.748,42.848Z" transform="translate(-8 -21.719)"/></g></svg>