<svg xmlns="http://www.w3.org/2000/svg" width="57.812" height="43.106" viewBox="0 0 57.812 43.106"><g transform="translate(-478 -948.993)"><path d="M23.848,189.047a4.384,4.384,0,1,1-5.712-2.409,4.383,4.383,0,0,1,5.712,2.409" transform="translate(464.159 781.575)" fill="#383030"/><path d="M291.843,62.644a3.3,3.3,0,0,1-1.727-1.753l-5.333,5.851-5.74,1.9a27.255,27.255,0,0,1,6.415,3.826l1.86-.995.4-.216a1.78,1.78,0,0,0,.653-.6l4.794-7.439Z" transform="translate(227.259 894.277)" fill="#383030"/><path d="M86.684,149.038a3.328,3.328,0,0,1-2.085-2.287l-3.8,4.979-3.436-2.973a.686.686,0,0,1-.16-.108,25.489,25.489,0,0,0-9.086-5.313l-11.6,4.719a4.671,4.671,0,0,0-2.642,4.132l-1.091,9.751-5.346,6.187a2.285,2.285,0,0,0,3.317,3.138l6.569-6.346a2.3,2.3,0,0,0,.667-1.239l.04-.214,1.394-7.436c.1-.032,10.79-4.376,10.79-4.376l9.355,6.129.353.231a2.471,2.471,0,0,0,3.551-.946l3.954-7.763Z" transform="translate(435.872 820.195)" fill="#383030"/><path d="M412.167,36.161a1.551,1.551,0,0,1-2.13.976l-9.759-4.2a1.932,1.932,0,0,1,1.156-3.667l10.4,2.158a1.551,1.551,0,0,1,1.185,2.021Z" transform="translate(119.365 922.721)" fill="#383030"/><path d="M444.531,156.024a1.551,1.551,0,0,1-2.062,1.113l-10.012-3.551a1.932,1.932,0,0,1,.914-3.735l10.52,1.476a1.551,1.551,0,0,1,1.315,1.94Z" transform="translate(90.557 814.355)" fill="#383030"/><path d="M88.663,121.665l-.5.2a2.955,2.955,0,1,0,2.224,5.468l.5-.2Z" transform="translate(400.546 839.667)" fill="#383030"/><path d="M141.174,70.585l-1.054-2.592a1.557,1.557,0,0,0-2.023-.853l-9.961,4.052-1.773.722,2.224,5.468,1.773-.722,8.523-3.467,1.438-.585a1.557,1.557,0,0,0,.853-2.023" transform="translate(364.454 888.764)" fill="#383030"/><path d="M2.853,98.668a2.848,2.848,0,1,1,1.07-.21,2.852,2.852,0,0,1-1.07.21m-.005-4.235a1.394,1.394,0,1,0,.54.11,1.38,1.38,0,0,0-.54-.11" transform="translate(478 865.451)" fill="#383030"/><path d="M47.236,50.825a2.42,2.42,0,1,1,.909-.179,2.425,2.425,0,0,1-.909.179m0-3.381a.96.96,0,1,0,.891.6.954.954,0,0,0-.891-.6" transform="translate(437.733 907.675)" fill="#383030"/><path d="M5.432,4.121a2.062,2.062,0,1,1,.775-.153,2.06,2.06,0,0,1-.775.153m0-2.659a.6.6,0,1,0,.555.373.6.6,0,0,0-.555-.373" transform="translate(474.972 948.992)" fill="#383030"/></g></svg>