<svg xmlns="http://www.w3.org/2000/svg" xmlns:xlink="http://www.w3.org/1999/xlink" width="29" height="34" viewBox="0 0 29 34"><defs><clipPath id="a"><rect width="29" height="34" transform="translate(267 18)" fill="#901919"/></clipPath></defs><g transform="translate(-267 -18)" clip-path="url(#a)"><g transform="translate(-57.09 4.5)"><path d="M27.6,1.143-.011.75.011-.75l27.607.393Z" transform="translate(329.101 14.5) rotate(45)" fill="#3b3333"/><path d="M.011,1.143l-.021-1.5L27.6-.75l.021,1.5Z" transform="translate(348.622 14.778) rotate(135)" fill="#3b3333"/><path d="M-14.91,0l1.557-8.105,2.539,5.859,2.63-5.859L-6.784,0H-7.929l-.714-4.551-2.189,4.9-2.127-4.9L-13.755,0ZM-1.136-6.47H-4.1v1.812h2.879v1.069H-4.1v2.52h2.966V0H-5.217V-7.539h4.082ZM.331,0V-8.052L5.725-2.3V-7.539H6.842v8L1.447-5.278V0Zm9.4-7.539V-3a2.538,2.538,0,0,0,.311,1.421,1.515,1.515,0,0,0,1.308.649,1.52,1.52,0,0,0,1.313-.649A2.5,2.5,0,0,0,12.974-3V-7.539H14.09v4.854a2.745,2.745,0,0,1-.728,1.963A2.672,2.672,0,0,1,11.35.137,2.656,2.656,0,0,1,9.342-.723a2.745,2.745,0,0,1-.728-1.963V-7.539Z" transform="translate(339 47.041)" fill="#3b3333"/></g></g></svg>