<svg xmlns="http://www.w3.org/2000/svg" width="63.588" height="47.322" viewBox="0 0 63.588 47.322"><g transform="translate(-687 -1046.797)"><path d="M49.747,107.236V123.4a28.647,28.647,0,0,0-16.929-1.588,21.423,21.423,0,0,1,13.859-.721,1.386,1.386,0,0,0,1.791-1.325V108.515l-1.453,1.453a3.883,3.883,0,0,1-1.319.864v7.143a22.885,22.885,0,0,0-4.756-.492,24.558,24.558,0,0,0-4.511.422,27.407,27.407,0,0,0-8.755,3.31V94.363a21.543,21.543,0,0,1,9.37-1.965L39.64,89.8a24.355,24.355,0,0,0-13.352,2.148.058.058,0,0,1-.056,0,24.366,24.366,0,0,0-21.424.309A1.386,1.386,0,0,0,4.051,93.5v3.867A28.57,28.57,0,0,0,.757,98.786,1.386,1.386,0,0,0,0,100.021v25.54A1.386,1.386,0,0,0,2.015,126.8a26.056,26.056,0,0,1,23.589,0,1.384,1.384,0,0,0,.629.151h.054a1.385,1.385,0,0,0,.629-.151,26.056,26.056,0,0,1,23.589,0,1.386,1.386,0,0,0,2.015-1.235v-21.1ZM13.809,121.192a28.906,28.906,0,0,0-11.038,2.2V100.885q.633-.3,1.279-.557v19.434a1.386,1.386,0,0,0,1.791,1.325,21.423,21.423,0,0,1,13.859.721,28.727,28.727,0,0,0-5.891-.616m11.035.022a27.408,27.408,0,0,0-8.755-3.31,24.56,24.56,0,0,0-4.511-.422,22.885,22.885,0,0,0-4.756.492V94.364a21.592,21.592,0,0,1,18.022,0Z" transform="translate(687 967.173)" fill="#383030"/><path d="M284.976,31.945a1.316,1.316,0,0,1-1.271-1.656l3.031-11.311a1.318,1.318,0,0,1,.34-.59l18-18a1.315,1.315,0,0,1,1.86,0l8.28,8.28a1.317,1.317,0,0,1,0,1.86l-18,18a1.314,1.314,0,0,1-.59.34L285.316,31.9a1.314,1.314,0,0,1-.34.045Zm5.775-4.072,3.668-.983-.6-1.558-2.89-.726-.726-2.89-1.482-.567-.993,3.7Zm5.847-2.236L312.638,9.6l-.886-.886L296.107,24.355Zm-1.82-2.625L310.415,7.373l-2.184-2.184L292.553,20.868l.425,1.692Zm-3.5-3.544L306.894,3.852l-.886-.886L290,18.978Z" transform="translate(434.984 1046.797)" fill="#383030"/><path d="M79.4,156.335a1.222,1.222,0,0,1-.468-2.351,16.3,16.3,0,0,1,12.555,0,1.222,1.222,0,1,1-.935,2.258,13.867,13.867,0,0,0-10.685,0,1.214,1.214,0,0,1-.467.093" transform="translate(617.542 911.109)" fill="#383030"/><path d="M91.028,214.744a1.212,1.212,0,0,1-.467-.093,13.868,13.868,0,0,0-10.685,0,1.222,1.222,0,1,1-.935-2.258,16.3,16.3,0,0,1,12.555,0,1.222,1.222,0,0,1-.468,2.351" transform="translate(617.536 859.216)" fill="#383030"/><path d="M79.409,273.151a1.222,1.222,0,0,1-.468-2.351,16.3,16.3,0,0,1,12.555,0,1.222,1.222,0,1,1-.935,2.258,13.866,13.866,0,0,0-10.685,0,1.215,1.215,0,0,1-.467.093" transform="translate(617.536 807.324)" fill="#383030"/></g></svg>