<svg xmlns="http://www.w3.org/2000/svg" width="102.5" height="13.5" viewBox="0 0 102.5 13.5"><g transform="translate(-73.75 -717.25)"><path d="M6.535-9.058H2.857v2.536H6.405v1.5H2.857V0H1.265V-10.555H6.535ZM7.649-3.377A3.308,3.308,0,0,1,8.682-5.831,3.459,3.459,0,0,1,11.2-6.843a3.478,3.478,0,0,1,2.529,1.019,3.39,3.39,0,0,1,1.025,2.5A3.372,3.372,0,0,1,13.72-.813a3.528,3.528,0,0,1-2.55,1A3.383,3.383,0,0,1,8.661-.834,3.448,3.448,0,0,1,7.649-3.377Zm1.572.027a2.246,2.246,0,0,0,.533,1.579,1.877,1.877,0,0,0,1.442.588,1.875,1.875,0,0,0,1.442-.581,2.188,2.188,0,0,0,.54-1.552,2.188,2.188,0,0,0-.54-1.552A1.877,1.877,0,0,0,11.2-5.455a1.861,1.861,0,0,0-1.429.588A2.139,2.139,0,0,0,9.222-3.35Zm8.7-8.2V0H16.379V-11.546Zm3.486,0V0H19.865V-11.546Zm1.634,8.169a3.308,3.308,0,0,1,1.032-2.454,3.459,3.459,0,0,1,2.516-1.012,3.478,3.478,0,0,1,2.529,1.019,3.39,3.39,0,0,1,1.025,2.5A3.372,3.372,0,0,1,29.107-.813a3.528,3.528,0,0,1-2.55,1A3.383,3.383,0,0,1,24.049-.834,3.448,3.448,0,0,1,23.037-3.377Zm1.572.027a2.246,2.246,0,0,0,.533,1.579,1.877,1.877,0,0,0,1.442.588,1.875,1.875,0,0,0,1.442-.581,2.188,2.188,0,0,0,.54-1.552,2.188,2.188,0,0,0-.54-1.552,1.877,1.877,0,0,0-1.442-.588,1.861,1.861,0,0,0-1.429.588A2.139,2.139,0,0,0,24.609-3.35Zm7.725-3.309,1.743,3.8,1.88-4.409,1.894,4.409,1.723-3.8H41.3L37.81.5,35.957-3.787,34.084.5,30.6-6.658Zm15.859,0v3.821q0,1.654,1.306,1.654T50.8-2.837V-6.658h1.538V-2.8a4.29,4.29,0,0,1-.2,1.381,2.32,2.32,0,0,1-.663.937A2.914,2.914,0,0,1,49.5.191a2.9,2.9,0,0,1-1.976-.677,2.357,2.357,0,0,1-.677-.937A3.808,3.808,0,0,1,46.655-2.8V-6.658Zm9.96,1.135-1.271.677q-.3-.615-.745-.615a.513.513,0,0,0-.362.14.469.469,0,0,0-.15.359q0,.383.889.759a5.3,5.3,0,0,1,1.647.971,1.661,1.661,0,0,1,.424,1.2,2.1,2.1,0,0,1-.711,1.613,2.42,2.42,0,0,1-1.668.615,2.42,2.42,0,0,1-2.372-1.634l1.313-.608a2.855,2.855,0,0,0,.417.608.951.951,0,0,0,.67.26q.779,0,.779-.711,0-.41-.6-.766-.232-.116-.465-.226t-.472-.226a2.887,2.887,0,0,1-.943-.656,1.617,1.617,0,0,1-.349-1.073,1.9,1.9,0,0,1,.595-1.436,2.086,2.086,0,0,1,1.477-.567A2.014,2.014,0,0,1,58.153-5.523ZM60.368-.766a.906.906,0,0,1,.28-.663.914.914,0,0,1,.67-.28.914.914,0,0,1,.67.28.914.914,0,0,1,.28.67.922.922,0,0,1-.28.677.911.911,0,0,1-.67.273.919.919,0,0,1-.677-.273A.927.927,0,0,1,60.368-.766Zm.178-1.586v-8.2h1.545v8.2ZM65.01-.766a.906.906,0,0,1,.28-.663.914.914,0,0,1,.67-.28.914.914,0,0,1,.67.28.914.914,0,0,1,.28.67.922.922,0,0,1-.28.677.911.911,0,0,1-.67.273.919.919,0,0,1-.677-.273A.927.927,0,0,1,65.01-.766Zm.178-1.586v-8.2h1.545v8.2Z" transform="translate(91 729.5)" fill="#303138"/><path d="M0,12.75A.747.747,0,0,1-.45,12.6.75.75,0,0,1-.6,11.55l9-12A.75.75,0,0,1,9.45-.6.75.75,0,0,1,9.6.45l-9,12A.749.749,0,0,1,0,12.75Z" transform="translate(166.5 718)" fill="#303138"/><path d="M9,12.75a.749.749,0,0,1-.6-.3l-9-12A.75.75,0,0,1-.45-.6.75.75,0,0,1,.6-.45l9,12a.75.75,0,0,1-.6,1.2Z" transform="translate(74.5 718)" fill="#303138"/></g></svg>