<svg xmlns="http://www.w3.org/2000/svg" width="29.556" height="34.489" viewBox="0 0 29.556 34.489"><g transform="translate(-324.09 -13.97)"><path d="M28,.75H0V-.75H28Z" transform="translate(329.101 14.5) rotate(45)" fill="#3b3333"/><path d="M28,.75H0V-.75H28Z" transform="translate(348.899 14.5) rotate(135)" fill="#3b3333"/><path d="M-14.91,0l1.587-8.105,2.588,5.859,2.681-5.859L-6.628,0H-7.8l-.728-4.551-2.231,4.9-2.168-4.9L-13.733,0ZM-.872-6.47H-3.894v1.812H-.959v1.069H-3.894v2.52H-.872V0h-4.16V-7.539h4.16ZM.623,0V-8.052L6.121-2.3V-7.539H7.258v8L1.76-5.278V0ZM10.2-7.539V-3a2.5,2.5,0,0,0,.317,1.421,1.554,1.554,0,0,0,1.333.649,1.559,1.559,0,0,0,1.338-.649A2.457,2.457,0,0,0,13.508-3V-7.539h1.138v4.854A2.716,2.716,0,0,1,13.9-.723a2.748,2.748,0,0,1-2.051.859A2.732,2.732,0,0,1,9.807-.723a2.716,2.716,0,0,1-.742-1.963V-7.539Z" transform="translate(339 48)" fill="#3b3333"/></g></svg>