<svg xmlns="http://www.w3.org/2000/svg" width="122.995" height="122" viewBox="0 0 122.995 122"><g transform="translate(-1091.005 -7898)"><circle cx="61" cy="61" r="61" transform="translate(1214 8020) rotate(180)" fill="#ffd800"/><path d="M8.6,0l8.6,17H0Z" transform="translate(1101.599 8014.383) rotate(-128)" fill="#ffd800"/><path d="M-15.964-.4a19.321,19.321,0,0,1-3.919.331,3.7,3.7,0,0,1-2.243-.7,2.261,2.261,0,0,1-.76-1.157,6.355,6.355,0,0,1-.2-1.729V-8.931a.778.778,0,0,1,.234-.572.763.763,0,0,1,.559-.234.778.778,0,0,1,.572.234.778.778,0,0,1,.234.572v2.873q1.066-.26,2.2-.6t2.048-.7a.763.763,0,0,1,.624.006.771.771,0,0,1,.416.462.8.8,0,0,1-.013.617.7.7,0,0,1-.442.41q-1.1.4-2.392.754t-2.444.611v.845a3.641,3.641,0,0,0,.117,1.1,1.132,1.132,0,0,0,.364.526,2.024,2.024,0,0,0,.851.319,6.552,6.552,0,0,0,1.508.033q.955-.065,2.438-.312a.713.713,0,0,1,.6.137.813.813,0,0,1,.312.539.692.692,0,0,1-.137.585A.858.858,0,0,1-15.964-.4Zm1.43-6.474a.5.5,0,0,1-.4.162.581.581,0,0,1-.41-.175q-.156-.182-.4-.442t-.442-.455a.455.455,0,0,1-.143-.325.494.494,0,0,1,.143-.377.526.526,0,0,1,.351-.156.544.544,0,0,1,.377.117,3.6,3.6,0,0,1,.488.384,5.762,5.762,0,0,1,.461.461.55.55,0,0,1,.15.4A.574.574,0,0,1-14.534-6.877ZM-14.2-8.06q-.169-.182-.436-.416t-.487-.416a.5.5,0,0,1-.156-.325.472.472,0,0,1,.117-.377.5.5,0,0,1,.332-.182.6.6,0,0,1,.384.078,4.519,4.519,0,0,1,.514.364q.292.234.5.429a.567.567,0,0,1,.175.4.586.586,0,0,1-.149.41.537.537,0,0,1-.384.188A.5.5,0,0,1-14.2-8.06ZM-7.41.559a.732.732,0,0,1-.618.065.805.805,0,0,1-.487-.39.817.817,0,0,1-.072-.611.777.777,0,0,1,.371-.481,6.041,6.041,0,0,0,1.352-.981,4.275,4.275,0,0,0,.878-1.255,6.28,6.28,0,0,0,.481-1.69,15.4,15.4,0,0,0,.149-2.3q0-.546-.033-1.17a9.891,9.891,0,0,0-.1-1.027.765.765,0,0,1,.175-.6.8.8,0,0,1,.54-.3.758.758,0,0,1,.592.169.8.8,0,0,1,.292.546,6.356,6.356,0,0,1,.071.748q.02.435.026.864t.006.767a15.509,15.509,0,0,1-.312,3.3,6.411,6.411,0,0,1-1.1,2.483A6.953,6.953,0,0,1-7.41.559Zm-1.3-4.3a.727.727,0,0,1-.526-.273.862.862,0,0,1-.189-.6q.026-.338.013-.9t-.039-1.2q-.026-.631-.071-1.209t-.1-.943a.759.759,0,0,1,.156-.611.778.778,0,0,1,.533-.3.823.823,0,0,1,.6.15.722.722,0,0,1,.3.526q.039.364.085.981t.078,1.306q.033.689.052,1.319t-.007,1.021a.671.671,0,0,1-.279.546A.934.934,0,0,1-8.71-3.744ZM10.036-.4a19.321,19.321,0,0,1-3.92.331,3.7,3.7,0,0,1-2.242-.7,2.261,2.261,0,0,1-.76-1.157,6.355,6.355,0,0,1-.2-1.729V-8.931A.778.778,0,0,1,3.146-9.5.763.763,0,0,1,3.7-9.737a.778.778,0,0,1,.572.234.778.778,0,0,1,.234.572v2.873q1.066-.26,2.2-.6t2.048-.7a.763.763,0,0,1,.624.006A.771.771,0,0,1,9.8-6.89a.8.8,0,0,1-.013.617.7.7,0,0,1-.442.41q-1.105.4-2.392.754T4.511-4.5v.845a3.642,3.642,0,0,0,.117,1.1,1.132,1.132,0,0,0,.364.526,2.024,2.024,0,0,0,.852.319,6.552,6.552,0,0,0,1.508.033q.955-.065,2.438-.312a.713.713,0,0,1,.6.137.813.813,0,0,1,.312.539.692.692,0,0,1-.137.585A.858.858,0,0,1,10.036-.4Zm1.43-6.474a.5.5,0,0,1-.4.162.581.581,0,0,1-.41-.175q-.156-.182-.4-.442t-.442-.455a.455.455,0,0,1-.143-.325.494.494,0,0,1,.143-.377.526.526,0,0,1,.351-.156.544.544,0,0,1,.377.117,3.6,3.6,0,0,1,.488.384,5.762,5.762,0,0,1,.461.461.55.55,0,0,1,.15.4A.574.574,0,0,1,11.466-6.877ZM11.8-8.06q-.169-.182-.436-.416t-.487-.416a.5.5,0,0,1-.156-.325.472.472,0,0,1,.117-.377.5.5,0,0,1,.332-.182.6.6,0,0,1,.384.078,4.519,4.519,0,0,1,.514.364q.292.234.5.429a.567.567,0,0,1,.175.4.586.586,0,0,1-.149.41.537.537,0,0,1-.384.188A.5.5,0,0,1,11.8-8.06ZM18.59.559a.732.732,0,0,1-.618.065.805.805,0,0,1-.487-.39.817.817,0,0,1-.072-.611.777.777,0,0,1,.371-.481,6.041,6.041,0,0,0,1.352-.981,4.275,4.275,0,0,0,.878-1.255,6.28,6.28,0,0,0,.481-1.69,15.4,15.4,0,0,0,.15-2.3q0-.546-.033-1.17a9.89,9.89,0,0,0-.1-1.027.765.765,0,0,1,.175-.6.8.8,0,0,1,.54-.3.758.758,0,0,1,.591.169.8.8,0,0,1,.292.546,6.356,6.356,0,0,1,.072.748q.02.435.026.864t.006.767a15.509,15.509,0,0,1-.312,3.3,6.41,6.41,0,0,1-1.1,2.483A6.953,6.953,0,0,1,18.59.559Zm-1.3-4.3a.727.727,0,0,1-.527-.273.862.862,0,0,1-.188-.6q.026-.338.013-.9t-.039-1.2q-.026-.631-.071-1.209t-.1-.943a.759.759,0,0,1,.156-.611.778.778,0,0,1,.533-.3.823.823,0,0,1,.6.15.722.722,0,0,1,.3.526q.039.364.084.981t.078,1.306q.032.689.052,1.319t-.007,1.021a.671.671,0,0,1-.279.546A.934.934,0,0,1,17.29-3.744ZM-27.794,17.117a.763.763,0,0,1-.559-.234.763.763,0,0,1-.234-.559.778.778,0,0,1,.234-.572.763.763,0,0,1,.559-.234A1.217,1.217,0,0,0-27,15.342a1.051,1.051,0,0,0,.182-.734v-3.6h-3.445a.731.731,0,0,1-.546-.227.764.764,0,0,1-.221-.553.764.764,0,0,1,.221-.552.731.731,0,0,1,.546-.227h3.445v-1.4a.757.757,0,0,1,.234-.566.774.774,0,0,1,.559-.227.768.768,0,0,1,.566.227.768.768,0,0,1,.228.566v1.4h3.211a.731.731,0,0,1,.546.227.764.764,0,0,1,.221.552.764.764,0,0,1-.221.553.731.731,0,0,1-.546.227h-3.211V14.7a2.466,2.466,0,0,1-.592,1.872A2.869,2.869,0,0,1-27.794,17.117Zm-2.613-1.638a.774.774,0,0,1-.611.085.78.78,0,0,1-.494-.371.763.763,0,0,1-.078-.611.855.855,0,0,1,.377-.494,12.616,12.616,0,0,0,1.1-.819,10.177,10.177,0,0,0,1.007-.949.927.927,0,0,1,.527-.306.715.715,0,0,1,.566.124.806.806,0,0,1,.319.52.722.722,0,0,1-.137.585,7.445,7.445,0,0,1-.767.832q-.442.416-.91.78A9.452,9.452,0,0,1-30.407,15.479Zm9.607-.286a.746.746,0,0,1-.579.2.872.872,0,0,1-.566-.26q-.247-.26-.618-.592t-.754-.65a8.428,8.428,0,0,0-.7-.526.744.744,0,0,1-.331-.507.75.75,0,0,1,.123-.585.741.741,0,0,1,.5-.331.777.777,0,0,1,.592.123q.338.221.78.572t.878.722a8.385,8.385,0,0,1,.734.7.724.724,0,0,1,.215.579A.77.77,0,0,1-20.8,15.193Zm-.507-6.188a.516.516,0,0,1-.41.137.52.52,0,0,1-.383-.2q-.156-.182-.39-.448t-.429-.474a.449.449,0,0,1-.13-.332.536.536,0,0,1,.156-.371.514.514,0,0,1,.358-.143.594.594,0,0,1,.37.13,5.552,5.552,0,0,1,.481.416,4.233,4.233,0,0,1,.442.481.553.553,0,0,1,.13.4A.578.578,0,0,1-21.307,9.005Zm.39-1.17q-.169-.182-.416-.423t-.455-.436a.478.478,0,0,1-.149-.325.473.473,0,0,1,.137-.377.459.459,0,0,1,.338-.169.581.581,0,0,1,.377.1,4.539,4.539,0,0,1,.494.37,5.627,5.627,0,0,1,.481.448.543.543,0,0,1,.169.4.587.587,0,0,1-.169.41.516.516,0,0,1-.4.169A.558.558,0,0,1-20.917,7.835ZM-13,16.22a10.285,10.285,0,0,1-2.2-.195,2.818,2.818,0,0,1-1.345-.65,2.429,2.429,0,0,1-.67-1.209,7.864,7.864,0,0,1-.188-1.872,7.864,7.864,0,0,1,.188-1.872,2.429,2.429,0,0,1,.67-1.209,2.818,2.818,0,0,1,1.345-.65A10.285,10.285,0,0,1-13,8.368a10.267,10.267,0,0,1,2.21.195,2.814,2.814,0,0,1,1.339.65,2.429,2.429,0,0,1,.67,1.209,7.864,7.864,0,0,1,.188,1.872,7.864,7.864,0,0,1-.188,1.872,2.429,2.429,0,0,1-.67,1.209,2.814,2.814,0,0,1-1.339.65A10.267,10.267,0,0,1-13,16.22Zm0-1.586a8.863,8.863,0,0,0,1.476-.1,1.772,1.772,0,0,0,.845-.345,1.223,1.223,0,0,0,.39-.708,5.933,5.933,0,0,0,.1-1.189,5.933,5.933,0,0,0-.1-1.19,1.223,1.223,0,0,0-.39-.708,1.772,1.772,0,0,0-.845-.344A8.863,8.863,0,0,0-13,9.954a8.884,8.884,0,0,0-1.469.1,1.78,1.78,0,0,0-.851.344,1.223,1.223,0,0,0-.39.708,5.933,5.933,0,0,0-.1,1.19,5.933,5.933,0,0,0,.1,1.189,1.223,1.223,0,0,0,.39.708,1.78,1.78,0,0,0,.851.345A8.884,8.884,0,0,0-13,14.634Zm11.206,2.483a.763.763,0,0,1-.559-.234.763.763,0,0,1-.234-.559.778.778,0,0,1,.234-.572.763.763,0,0,1,.559-.234A1.217,1.217,0,0,0-1,15.342a1.051,1.051,0,0,0,.182-.734v-3.6H-4.264a.731.731,0,0,1-.546-.227.764.764,0,0,1-.221-.553.764.764,0,0,1,.221-.552.731.731,0,0,1,.546-.227H-.819v-1.4a.757.757,0,0,1,.234-.566A.774.774,0,0,1-.026,7.25a.768.768,0,0,1,.565.227.768.768,0,0,1,.228.566v1.4H3.978a.731.731,0,0,1,.546.227.8.8,0,0,1,0,1.105.731.731,0,0,1-.546.227H.767V14.7a2.466,2.466,0,0,1-.592,1.872A2.869,2.869,0,0,1-1.794,17.117Zm-2.613-1.638a.774.774,0,0,1-.611.085.78.78,0,0,1-.494-.371.763.763,0,0,1-.078-.611.855.855,0,0,1,.377-.494,12.615,12.615,0,0,0,1.1-.819,10.177,10.177,0,0,0,1.008-.949.927.927,0,0,1,.526-.306.715.715,0,0,1,.566.124.805.805,0,0,1,.319.52.722.722,0,0,1-.137.585,7.444,7.444,0,0,1-.767.832q-.442.416-.91.78A9.452,9.452,0,0,1-4.407,15.479ZM5.2,15.193a.746.746,0,0,1-.578.2.872.872,0,0,1-.566-.26q-.247-.26-.617-.592t-.754-.65a8.428,8.428,0,0,0-.7-.526.788.788,0,0,1,.292-1.423.777.777,0,0,1,.592.123q.338.221.78.572t.878.722a8.385,8.385,0,0,1,.734.7.724.724,0,0,1,.215.579A.77.77,0,0,1,5.2,15.193ZM4.693,9.005A.552.552,0,0,1,3.9,8.94q-.156-.182-.39-.448t-.429-.474a.449.449,0,0,1-.13-.332.536.536,0,0,1,.156-.371.514.514,0,0,1,.358-.143.594.594,0,0,1,.37.13,5.552,5.552,0,0,1,.481.416,4.233,4.233,0,0,1,.442.481.553.553,0,0,1,.13.4A.578.578,0,0,1,4.693,9.005Zm.39-1.17q-.169-.182-.416-.423t-.455-.436a.478.478,0,0,1-.149-.325A.473.473,0,0,1,4.2,6.275a.459.459,0,0,1,.338-.169.581.581,0,0,1,.377.1,4.539,4.539,0,0,1,.494.37,5.627,5.627,0,0,1,.481.448.543.543,0,0,1,.169.4.587.587,0,0,1-.169.41.516.516,0,0,1-.4.169A.558.558,0,0,1,5.083,7.835ZM13,16.22a10.285,10.285,0,0,1-2.2-.195,2.818,2.818,0,0,1-1.345-.65,2.429,2.429,0,0,1-.67-1.209,7.864,7.864,0,0,1-.188-1.872,7.864,7.864,0,0,1,.188-1.872,2.429,2.429,0,0,1,.67-1.209,2.819,2.819,0,0,1,1.345-.65A10.285,10.285,0,0,1,13,8.368a10.267,10.267,0,0,1,2.21.195,2.814,2.814,0,0,1,1.339.65,2.429,2.429,0,0,1,.67,1.209,7.864,7.864,0,0,1,.188,1.872,7.864,7.864,0,0,1-.188,1.872,2.429,2.429,0,0,1-.67,1.209,2.814,2.814,0,0,1-1.339.65A10.267,10.267,0,0,1,13,16.22Zm0-1.586a8.863,8.863,0,0,0,1.476-.1,1.772,1.772,0,0,0,.845-.345,1.223,1.223,0,0,0,.39-.708,5.933,5.933,0,0,0,.1-1.189,5.933,5.933,0,0,0-.1-1.19,1.223,1.223,0,0,0-.39-.708,1.772,1.772,0,0,0-.845-.344A8.863,8.863,0,0,0,13,9.954a8.884,8.884,0,0,0-1.469.1,1.78,1.78,0,0,0-.851.344,1.223,1.223,0,0,0-.39.708,5.933,5.933,0,0,0-.1,1.19,5.933,5.933,0,0,0,.1,1.189,1.223,1.223,0,0,0,.39.708,1.78,1.78,0,0,0,.851.345A8.884,8.884,0,0,0,13,14.634Zm12.623,3.224a2.578,2.578,0,0,1-1.631-.5,1.755,1.755,0,0,1-.644-1.476,1.744,1.744,0,0,1,.631-1.41,2.521,2.521,0,0,1,1.67-.527,7.077,7.077,0,0,1,.754.039V11.527a.758.758,0,0,1,.221-.559.785.785,0,0,1,1.092,0,.758.758,0,0,1,.221.559v2.808a8.83,8.83,0,0,1,1.333.54,8.969,8.969,0,0,1,1.111.656.777.777,0,0,1,.312.514.788.788,0,0,1-.644.89.759.759,0,0,1-.578-.13,5.751,5.751,0,0,0-.708-.475q-.4-.227-.826-.422a2.036,2.036,0,0,1-.663,1.45A2.465,2.465,0,0,1,25.623,17.858Zm-3.458-3.6a.853.853,0,0,1-.566.208.734.734,0,0,1-.54-.221.77.77,0,0,1-.234-.565.672.672,0,0,1,.247-.54,7.936,7.936,0,0,0,1.306-1.508,9.484,9.484,0,0,0,.93-1.755q-.351.052-.683.078l-.63.052a.782.782,0,0,1-.572-.195.765.765,0,0,1-.247-.572.7.7,0,0,1,.195-.54.8.8,0,0,1,.572-.227q.416-.026.877-.078t.93-.117a4.066,4.066,0,0,0,.084-.611q.02-.312.02-.6a.764.764,0,0,1,.221-.552.731.731,0,0,1,.546-.227.774.774,0,0,1,.559.227.7.7,0,0,1,.221.552,8.841,8.841,0,0,1-.078.923q.091-.026.175-.045t.163-.033a.791.791,0,0,1,.6.078.687.687,0,0,1,.338.494.744.744,0,0,1-.111.585A.8.8,0,0,1,26,9.408q-.208.052-.475.1t-.552.1a11.178,11.178,0,0,1-1.125,2.574A8.753,8.753,0,0,1,22.165,14.257Zm7.5-3.445a10.377,10.377,0,0,0-.982-.533,7.045,7.045,0,0,0-.995-.4.891.891,0,0,1-.468-.364.7.7,0,0,1-.091-.572.747.747,0,0,1,.936-.559,6.835,6.835,0,0,1,.858.3q.468.2.9.416a6.608,6.608,0,0,1,.722.416.712.712,0,0,1,.319.494.788.788,0,0,1-.124.6.708.708,0,0,1-.487.319A.809.809,0,0,1,29.666,10.812ZM25.61,16.428a.807.807,0,0,0,.611-.195.851.851,0,0,0,.182-.6v-.221a2.8,2.8,0,0,0-.41-.071q-.2-.019-.383-.019a.949.949,0,0,0-.592.149.494.494,0,0,0-.188.41.487.487,0,0,0,.182.4A.945.945,0,0,0,25.61,16.428Zm-49.2,17.312a.751.751,0,0,1-.6.032.771.771,0,0,1-.462-.41.769.769,0,0,1-.033-.611.779.779,0,0,1,.4-.455,14.692,14.692,0,0,0,3.309-2.165,12.014,12.014,0,0,0,2.359-2.75q.572-.936-.624-.936H-22.8a.753.753,0,0,1-.559-.24.785.785,0,0,1-.234-.566.778.778,0,0,1,.234-.572.763.763,0,0,1,.559-.234h3.6a3.191,3.191,0,0,1,1.794.423,1.473,1.473,0,0,1,.683,1.151,2.971,2.971,0,0,1-.488,1.677,7.985,7.985,0,0,1-.689,1.04q.6.494,1.229,1.086t1.183,1.144q.552.553.929.943a.8.8,0,0,1,.221.572.758.758,0,0,1-.247.572.756.756,0,0,1-.572.227.8.8,0,0,1-.572-.24l-.884-.917q-.533-.553-1.131-1.144T-18.9,30.3a17.7,17.7,0,0,1-2.2,1.93A15.177,15.177,0,0,1-23.595,33.74Zm13.052-3.822a.774.774,0,0,1-.565-.24.774.774,0,0,1-.241-.566.767.767,0,0,1,.241-.572.785.785,0,0,1,.565-.234h8.1a.778.778,0,0,1,.572.234.778.778,0,0,1,.234.572.785.785,0,0,1-.234.566.767.767,0,0,1-.572.24ZM4.3,34.117a.825.825,0,0,1-.618.02.8.8,0,0,1-.474-1.027.748.748,0,0,1,.416-.449,11.622,11.622,0,0,0,2.905-1.755,7.993,7.993,0,0,0,1.885-2.321,10.259,10.259,0,0,0,1.021-3.022.788.788,0,0,1,.936-.637.743.743,0,0,1,.514.325.776.776,0,0,1,.123.611,11.135,11.135,0,0,1-1.124,3.38,10.015,10.015,0,0,1-2.21,2.814A11.632,11.632,0,0,1,4.3,34.117Zm-.182-4.81a.752.752,0,0,1-.6.007.824.824,0,0,1-.448-.423q-.247-.533-.553-1.124a8.374,8.374,0,0,0-.592-.995.885.885,0,0,1-.143-.611.719.719,0,0,1,.325-.533.873.873,0,0,1,.6-.143.676.676,0,0,1,.513.325q.2.312.436.734t.474.865q.234.442.39.819a.765.765,0,0,1,.02.624A.822.822,0,0,1,4.121,29.307Zm2.717-.728a.829.829,0,0,1-1.014-.533q-.2-.585-.449-1.17T4.9,25.862a.817.817,0,0,1-.072-.611A.777.777,0,0,1,5.2,24.77a.81.81,0,0,1,.624-.084.727.727,0,0,1,.481.383q.26.494.552,1.17t.5,1.326a.793.793,0,0,1-.52,1.014Zm13.026,5.928a2.564,2.564,0,0,1-1.67-.514,1.793,1.793,0,0,1-.631-1.475,1.825,1.825,0,0,1,.631-1.463,2.584,2.584,0,0,1,1.736-.54,6.237,6.237,0,0,1,.689.039q-.013-.611-.032-1.333t-.045-1.476q-.689.039-1.333.052t-1.111,0a.754.754,0,0,1-.54-.24.731.731,0,0,1-.2-.552.791.791,0,0,1,.253-.527.714.714,0,0,1,.539-.2q.455.013,1.073.007t1.293-.045q-.013-.494-.013-.949v-.858a.764.764,0,0,1,.221-.552.731.731,0,0,1,.546-.227.746.746,0,0,1,.559.227.764.764,0,0,1,.221.552q0,.4.007.832t.007.871q.572-.052,1.046-.1t.8-.1a.694.694,0,0,1,.572.123.749.749,0,0,1,.312.5.734.734,0,0,1-.137.572.7.7,0,0,1-.5.3q-.364.052-.9.11t-1.163.111q.026.91.052,1.755t.039,1.5a9.127,9.127,0,0,1,1.345.559,7.747,7.747,0,0,1,1.1.676.777.777,0,0,1,.312.514.759.759,0,0,1-.13.579.778.778,0,0,1-.5.325.693.693,0,0,1-.579-.13,7.888,7.888,0,0,0-.715-.481,7.084,7.084,0,0,0-.806-.416Q22.074,34.507,19.864,34.507Zm-4.329.013a.792.792,0,0,1-.91-.624,9.737,9.737,0,0,1-.117-1.17q-.039-.741-.052-1.664t.006-1.917q.02-.995.072-1.937t.136-1.716a10.168,10.168,0,0,1,.2-1.255.763.763,0,0,1,.351-.481.732.732,0,0,1,.585-.091.763.763,0,0,1,.481.351.732.732,0,0,1,.091.585,9.554,9.554,0,0,0-.195,1.209q-.078.728-.13,1.592t-.072,1.774q-.019.91-.006,1.761t.058,1.547a10.848,10.848,0,0,0,.124,1.138.694.694,0,0,1-.124.572A.8.8,0,0,1,15.535,34.52Zm4.329-1.482q.806,0,.806-.767,0-.039-.007-.1t-.007-.143a4.034,4.034,0,0,0-.793-.078.92.92,0,0,0-.592.156.5.5,0,0,0-.188.4.469.469,0,0,0,.182.39A.978.978,0,0,0,19.864,33.038Zm-48.36,18.6a5.625,5.625,0,0,1-1.794-.228,1.516,1.516,0,0,1-.917-.786,3.625,3.625,0,0,1-.266-1.534V47.412a.767.767,0,0,1,.234-.585.8.8,0,0,1,.572-.221.78.78,0,0,1,.566.221.778.778,0,0,1,.227.585v1.573a1.76,1.76,0,0,0,.124.754.647.647,0,0,0,.442.332,3.578,3.578,0,0,0,.878.084h1.625v-4.03h-1.248a5.625,5.625,0,0,1-1.794-.228,1.52,1.52,0,0,1-.917-.78,3.617,3.617,0,0,1-.267-1.541v-1.7a.752.752,0,0,1,.24-.591.822.822,0,0,1,.566-.215.816.816,0,0,1,.572.215.762.762,0,0,1,.234.591v1.6a1.76,1.76,0,0,0,.124.754.644.644,0,0,0,.435.331,3.5,3.5,0,0,0,.871.085h1.183V40.9a.783.783,0,0,1,.234-.6A.8.8,0,0,1-26,40.08a.78.78,0,0,1,.566.221.8.8,0,0,1,.227.6v3.744h1.157a3.564,3.564,0,0,0,.884-.085.644.644,0,0,0,.436-.331,1.76,1.76,0,0,0,.123-.754v-1.6a.762.762,0,0,1,.234-.591.8.8,0,0,1,.559-.215.816.816,0,0,1,.572.215.762.762,0,0,1,.234.591v1.7a3.617,3.617,0,0,1-.267,1.541,1.52,1.52,0,0,1-.917.78,5.625,5.625,0,0,1-1.794.228h-1.222v4.03h1.625a3.564,3.564,0,0,0,.884-.084.644.644,0,0,0,.435-.332,1.76,1.76,0,0,0,.124-.754V47.412a.767.767,0,0,1,.234-.585.8.8,0,0,1,.572-.221.8.8,0,0,1,.572.221.767.767,0,0,1,.234.585v1.677a3.7,3.7,0,0,1-.26,1.534,1.491,1.491,0,0,1-.9.786,5.615,5.615,0,0,1-1.8.228Zm15.912-.078a3.612,3.612,0,0,1-2.451-.773,3.134,3.134,0,0,1-.891-2.489V41.367a.752.752,0,0,1,.227-.553.752.752,0,0,1,.552-.228.752.752,0,0,1,.552.228.752.752,0,0,1,.228.553V48.3a1.706,1.706,0,0,0,.435,1.339,2.019,2.019,0,0,0,1.346.377,2.875,2.875,0,0,0,1.514-.429,3.051,3.051,0,0,0,1.15-1.378.748.748,0,0,1,.455-.4.755.755,0,0,1,.6.039.683.683,0,0,1,.4.442.85.85,0,0,1-.033.611,4.344,4.344,0,0,1-1.671,1.976A4.45,4.45,0,0,1-12.584,51.559Zm11.167.221a2.737,2.737,0,0,1-1.716-.5,1.762,1.762,0,0,1-.65-1.488,1.733,1.733,0,0,1,.656-1.417,2.712,2.712,0,0,1,1.762-.533q.39,0,.78.039l-.039-1.469q-1.352.039-2.392,0a.735.735,0,0,1-.527-.266.782.782,0,0,1-.188-.553.746.746,0,0,1,.266-.52.722.722,0,0,1,.552-.182q.494.026,1.073.033t1.176-.007q-.013-.312-.013-.624t-.013-.611q-.637.013-1.235.007t-1.092-.02a.693.693,0,0,1-.527-.253.8.8,0,0,1-.188-.566.746.746,0,0,1,.266-.52.722.722,0,0,1,.552-.182q.962.065,2.2.039V41.068a.764.764,0,0,1,.221-.553.731.731,0,0,1,.546-.227.752.752,0,0,1,.553.227.752.752,0,0,1,.227.553v.5q0,.266.013.565.533-.039,1.027-.084t.9-.1a.758.758,0,0,1,.566.15.71.71,0,0,1,.292.5.779.779,0,0,1-.149.579.71.71,0,0,1-.5.292q-.455.052-.994.091t-1.112.065q0,.3.007.611t.02.624q.52-.026.995-.071t.877-.1a.7.7,0,0,1,.566.143.732.732,0,0,1,.292.507.758.758,0,0,1-.149.565.71.71,0,0,1-.5.292q-.442.052-.962.091t-1.092.065q.026.52.032.988t.02.871a9.388,9.388,0,0,1,1.43.546,8.53,8.53,0,0,1,1.2.689.712.712,0,0,1,.319.494.768.768,0,0,1-.624.9.738.738,0,0,1-.578-.123,7.8,7.8,0,0,0-.806-.5,9.018,9.018,0,0,0-.923-.436A1.915,1.915,0,0,1,.312,51.3,2.77,2.77,0,0,1-1.417,51.78Zm-.013-1.469a.952.952,0,0,0,.7-.188.782.782,0,0,0,.169-.54v-.247a5.005,5.005,0,0,0-.871-.078,1.041,1.041,0,0,0-.611.143.458.458,0,0,0-.2.39Q-2.236,50.311-1.43,50.311Zm17.888.7a13.319,13.319,0,0,1-3.1.026,3.888,3.888,0,0,1-2.152-.91,3.2,3.2,0,0,1-.832-1.268,5.444,5.444,0,0,1-.273-1.853v-1.2q-.624.078-1.183.163t-1.04.175a.748.748,0,0,1-.572-.13.727.727,0,0,1-.312-.494.763.763,0,0,1,.123-.572.7.7,0,0,1,.488-.312q.533-.078,1.164-.163t1.332-.162V42.147a.777.777,0,0,1,.78-.78.731.731,0,0,1,.546.227.764.764,0,0,1,.221.553v2.015q.676-.065,1.372-.117l1.371-.1q.065-.559.1-1.079t.045-.975a.777.777,0,0,1,.241-.546.719.719,0,0,1,.553-.208.8.8,0,0,1,.552.241.709.709,0,0,1,.215.552q-.013.442-.045.93t-.085.994q.572-.039,1.118-.058t1.04-.033a.731.731,0,0,1,.546.228.769.769,0,0,1,0,1.079.731.731,0,0,1-.546.228q-1.079-.026-2.314.039-.091.637-.2,1.242t-.227,1.1a.74.74,0,0,1-.351.474.791.791,0,0,1-.585.1.744.744,0,0,1-.488-.351.791.791,0,0,1-.1-.585q.1-.429.195-.91t.156-.975q-.637.039-1.28.1t-1.281.124v1.365a3.977,3.977,0,0,0,.156,1.209,1.745,1.745,0,0,0,.468.767,2.48,2.48,0,0,0,1.43.54,13.487,13.487,0,0,0,2.6-.072.77.77,0,0,1,.858.7.751.751,0,0,1-.162.579A.73.73,0,0,1,16.458,51.013Zm4.836.195a.707.707,0,0,1-.4-.429.753.753,0,0,1,.013-.6q.221-.481.566-1.209t.754-1.586l.839-1.755q.429-.9.845-1.742t.767-1.541q.351-.7.585-1.138a.689.689,0,0,1,.462-.37.726.726,0,0,1,.591.084.776.776,0,0,1,.37.474.735.735,0,0,1-.084.592q-.182.325-.474.884t-.65,1.261q-.357.7-.734,1.469a2.324,2.324,0,0,1,.923-.195,1.8,1.8,0,0,1,1.7.78,2.714,2.714,0,0,1,.085,2.132,1.326,1.326,0,0,0-.033.962.656.656,0,0,0,.6.26,1.263,1.263,0,0,0,.572-.136,1.625,1.625,0,0,0,.559-.553,6.159,6.159,0,0,0,.6-1.222.75.75,0,0,1,.416-.429.8.8,0,0,1,.6-.026.8.8,0,0,1,.455,1.027,5.311,5.311,0,0,1-1.294,2.164,2.8,2.8,0,0,1-1.969.708,2.619,2.619,0,0,1-1.378-.338,1.63,1.63,0,0,1-.741-1.021,3.305,3.305,0,0,1,.1-1.71,1.234,1.234,0,0,0,.039-.877.628.628,0,0,0-.6-.253,1.836,1.836,0,0,0-1.092.364,3.57,3.57,0,0,0-.988,1.365q-.052.1-.188.41t-.292.669q-.156.364-.293.656t-.175.4a.887.887,0,0,1-.423.448A.743.743,0,0,1,21.294,51.208Z" transform="translate(1153 7939)" fill="#434b5d"/></g></svg>