<svg xmlns="http://www.w3.org/2000/svg" width="192" height="192" viewBox="0 0 192 192"><g transform="translate(-165 -4541)"><circle cx="96" cy="96" r="96" transform="translate(165 4541)" fill="#f7f3f0"/><g transform="translate(258.379 4652.22)"><path d="M48.471,122.358c-2.48,1.838-6.587,3.728-7.332,2.36s1.381-3.042,1.863-4.971a5.058,5.058,0,0,0-4.847-6.09H20.507c-7.084,0-11.931,6.09-14.169,10.439s-4.474,4.475-5.593,4.973c-1.324.588-.622,2.858.124,2.858a2.268,2.268,0,0,0,.746,2.735,32.538,32.538,0,0,0,11.175,7.278A15.818,15.818,0,0,0,17,136.046a16.312,16.312,0,0,0,1.175-6.088,12.219,12.219,0,0,0-.167-2.178h0a1.025,1.025,0,0,1,2.009-.408,14.015,14.015,0,0,1,.209,2.586,18.31,18.31,0,0,1-1.326,6.859A17.714,17.714,0,0,1,15,142.678a29.793,29.793,0,0,0,8.367,1.18c12.8,0,12.428-.123,14.045-.123,4.475,0,5.717-2.735,5.717-4.476,0-3.106-2.112-3.978-1.865-5.22s2.984-1.368,5.719.5,7.134,2.609,7.331-4.722C54.438,125.215,52.324,119.5,48.471,122.358Zm-39.212,8.2a1.554,1.554,0,1,1,1.555-1.553A1.553,1.553,0,0,1,9.259,130.559Z" transform="translate(-0.002 -113.657)" fill="#ff8b00"/></g><g transform="translate(201.006 4514.631)"><path d="M78.17,110.133l6.3-16.28a.873.873,0,0,0-1.331-1.019L66.781,104.9c-3.521-.415-7.329-8.827-24.091-13l4.9-.7a2.617,2.617,0,0,0,2.089-3.485l-2.464-6.774a2.617,2.617,0,0,0-4.254-1.014L31.747,90.484C13.605,90.881,0,105.484,0,110.133c.616,3.9,8.072,12.857,19.357,17.211a35.708,35.708,0,0,0,2.892-4.749A24.576,24.576,0,0,0,25.1,111.742a12.18,12.18,0,0,0-.235-2.52,1.848,1.848,0,0,1,3.614-.771,15.98,15.98,0,0,1,.312,3.292,28.209,28.209,0,0,1-3.237,12.508,38.321,38.321,0,0,1-2.531,4.3,35.156,35.156,0,0,0,12.627,1.107l3.343,6.513a2.614,2.614,0,0,0,3.761,1l2.551-1.669a2.617,2.617,0,0,0,.211-4.23L42.1,128.51c17.268-4.117,21.124-12.725,24.684-13.146l16.36,12.067a.872.872,0,0,0,1.331-1.016Zm-65.55,1.233a2.77,2.77,0,1,1,2.77-2.77A2.773,2.773,0,0,1,12.62,111.366Z" transform="translate(0 0)" fill="#ff8b00"/></g></g></svg>