<svg xmlns="http://www.w3.org/2000/svg" width="192" height="192" viewBox="0 0 192 192"><g transform="translate(-165 -4823)"><circle cx="96" cy="96" r="96" transform="translate(165 4823)" fill="#f7f3f0"/><path d="M7399.48,16146.041v-9.724h3.58v9.724Zm-15.208-4.909,4.927-8.529,3.1,1.791-4.924,8.53Zm25.968-6.741,3.1-1.791,4.927,8.529-3.1,1.791Zm8.361-7.048,1.791-3.1,8.533,4.926-1.792,3.1Zm-44.982,1.822,8.529-4.923,1.792,3.1-8.533,4.927Zm11.085-13.9a16.568,16.568,0,1,1,16.568,16.569A16.567,16.567,0,0,1,7384.7,16115.27Zm37.612,1.793v-3.583h9.727v3.583Zm-51.818,0v-3.583h9.727v3.583Zm48.1-13.867,8.532-4.924,1.792,3.1-8.533,4.927Zm-44.982-1.823,1.788-3.1,8.533,4.924-1.792,3.1Zm36.625-5.225,4.924-8.53,3.1,1.793-4.927,8.532Zm-25.973-6.737,3.1-1.793,4.926,8.53-3.1,1.795Zm15.21,4.813v-9.724h3.58v9.724Z" transform="translate(-7162.193 -11218)" fill="#ff8b00"/><path d="M7403.06,16146.041v-9.724h-3.58v9.724h3.58m-15.684-3.117,4.924-8.53-3.1-1.791-4.927,8.529,3.1,1.792m27.792,0,3.1-1.791-4.927-8.529-3.1,1.791,4.927,8.529m11.965-10.65,1.792-3.1-8.533-4.926-1.791,3.1,8.532,4.927m-51.726,0,8.533-4.927-1.792-3.1-8.529,4.923,1.788,3.1m25.865-.431a16.568,16.568,0,1,0-16.568-16.569,16.57,16.57,0,0,0,16.568,16.569m30.771-14.776v-3.583h-9.727v3.583h9.727m-51.818,0v-3.583H7370.5v3.583h9.727m40.167-10.764,8.533-4.927-1.792-3.1-8.532,4.924,1.791,3.1m-38.244,0,1.792-3.1-8.533-4.924-1.788,3.1,8.529,4.927m31.2-8.356,4.927-8.532-3.1-1.793-4.924,8.53,3.1,1.795m-24.148,0,3.1-1.795-4.926-8.53-3.1,1.793,4.926,8.532m13.864-3.719v-9.724h-3.58v9.724h3.58m3,54.817h-9.58v-14.793q-.275-.069-.548-.146l-7.458,12.921-8.3-4.793,7.464-12.922c-.069-.066-.137-.134-.2-.2l-.2-.2-12.929,7.465-4.783-8.3,12.918-7.456q-.078-.272-.146-.547h-14.8v-9.583h14.8c.046-.184.1-.365.146-.548l-12.918-7.461,4.785-8.3,12.93,7.461.2-.2.2-.2-7.462-12.924,8.3-4.794,7.462,12.921q.272-.078.547-.147V16081.5h9.58v14.792c.184.046.368.1.551.147l7.459-12.921,8.3,4.794-7.462,12.923c.068.065.135.132.2.2s.132.133.2.2l12.925-7.459,4.794,8.295-12.921,7.46q.078.274.147.55h14.793v9.583h-14.793q-.07.275-.147.548l12.922,7.46-4.794,8.3-12.923-7.462c-.066.067-.132.135-.2.2s-.134.134-.2.2l7.464,12.922-8.3,4.79-7.461-12.915q-.273.078-.549.146Z" transform="translate(-7162.193 -11218)" fill="#f5f6fa"/><g transform="translate(211.944 4901.271)"><path d="M115.731,338.445H86.463a.628.628,0,0,0-.444,1.072L88.7,342.2a.627.627,0,0,0,.444.184h25.177a10.886,10.886,0,0,1,8.325,3.723c4.75,5.6.727,12.084-4.711,12.084a5.055,5.055,0,0,1-5.045-5.047,3.672,3.672,0,0,1,2.307-3.414,2.014,2.014,0,0,0,1.319-1.856,1.966,1.966,0,0,0-2.6-1.876c-4.028,1.478-6.454,6.292-3.947,11.161a9,9,0,0,0,8.366,4.967A10.749,10.749,0,0,0,128.7,351.375,12.945,12.945,0,0,0,115.731,338.445Z" transform="translate(-38.647 -292.249)" fill="#ff8b00"/><path d="M83.154,0A13.658,13.658,0,0,0,69.478,13.672a11.14,11.14,0,0,0,4.874,9.161c6.8,4.7,13.93,1.087,15.556-4.773A1.972,1.972,0,1,0,86.108,17c-1.164,4.177-7.153,6.4-11.511.219a6.183,6.183,0,0,1-1.177-3.549,9.705,9.705,0,0,1,9.735-9.731A12.667,12.667,0,0,1,95.807,16.594,16.352,16.352,0,0,1,79.49,32.914h-35.1a.63.63,0,0,0-.445.184l-2.685,2.685a.629.629,0,0,0,.445,1.073H79.49A20.306,20.306,0,0,0,99.749,16.594,16.618,16.618,0,0,0,83.154,0Z" transform="translate(0)" fill="#ff8b00"/></g></g></svg>