<svg xmlns="http://www.w3.org/2000/svg" width="192" height="192" viewBox="0 0 192 192"><g transform="translate(-165 -4259)"><circle cx="96" cy="96" r="96" transform="translate(165 4259)" fill="#f7f3f0"/><g transform="translate(33 -322.98)"><path d="M105.079,0A22.741,22.741,0,0,0,82.125,22.523c0,12.437,20.419,43.787,22.954,43.787s22.954-31.35,22.954-43.787A22.741,22.741,0,0,0,105.079,0Zm0,31.136a8.616,8.616,0,1,1,8.781-8.613A8.7,8.7,0,0,1,105.079,31.136Z" transform="translate(88.477 4636.092)" fill="#ff8b00"/><path d="M0,0,47.733,2.947,33.167,16.158l-25.209-1.7Z" transform="translate(193.997 4675.458)" fill="#f7f3f0"/><g transform="translate(191.446 4659.247)"><path d="M101.653,37.244c0,3.259-3.482,5.91-7.763,5.91s-7.762-2.651-7.762-5.91h-3c0,3.259-3.482,5.91-7.763,5.91S67.6,40.5,67.6,37.244h-3c0,3.259-3.482,5.91-7.762,5.91s-7.763-2.651-7.763-5.91h-3c0,3.259-3.482,5.91-7.763,5.91s-7.762-2.651-7.762-5.91h-3a7.459,7.459,0,0,0,.314,2.135A19.707,19.707,0,0,1,12.62,30.12L4.347,16.877l75.536,5.693L74.041,37.244h3.233l6.156-15.464a1.5,1.5,0,0,0-1.283-2.053l-9.824-.741,3.167-7.958A1.5,1.5,0,0,0,74.468,9.02L39.537.047A1.5,1.5,0,0,0,38.121.42L22.731,15.25,1.615,13.659A1.5,1.5,0,0,0,.228,15.952l9.844,15.759A22.713,22.713,0,0,0,29.446,42.452h.132a11.576,11.576,0,0,0,8.729,3.705,11.573,11.573,0,0,0,8.726-3.705h1.077a12.127,12.127,0,0,0,17.451,0h1.077a11.573,11.573,0,0,0,8.725,3.705,11.358,11.358,0,0,0,9.264-4.376,11.358,11.358,0,0,0,9.264,4.376c5.937,0,10.766-4,10.766-8.913ZM69.184,18.751,37.978,16.4,48.935,5.562,72.069,11.5ZM39.6,3.164l5.944,1.527L34.009,16.1l-7.264-.548Z" transform="translate(0 0)" fill="#ff8b00"/><path d="M93.89,46.657A13,13,0,0,1,88.269,45.4a10.85,10.85,0,0,1-3.643-2.8,10.849,10.849,0,0,1-3.643,2.8,13.219,13.219,0,0,1-10.8.2,11.149,11.149,0,0,1-3.776-2.652h-.629A11.149,11.149,0,0,1,62.008,45.6a13.231,13.231,0,0,1-10.347,0,11.148,11.148,0,0,1-3.776-2.652h-.629A11.148,11.148,0,0,1,43.48,45.6a13.238,13.238,0,0,1-10.349,0,11.141,11.141,0,0,1-3.777-2.652A23.208,23.208,0,0,1,9.648,31.976L-.2,16.217a1.993,1.993,0,0,1-.015-2.1A2.011,2.011,0,0,1,1.5,13.154c.05,0,.1,0,.152.006l20.893,1.574L37.774.06a1.993,1.993,0,0,1,1.39-.56,2.011,2.011,0,0,1,.5.062L74.592,8.535a2,2,0,0,1,1.362,2.679L73.039,18.54l9.146.69a2,2,0,0,1,1.71,2.736L77.613,37.744H73.3l5.863-14.728L5.295,17.449l7.749,12.406A19.2,19.2,0,0,0,27.2,38.813a7.907,7.907,0,0,1-.158-1.569v-.5h4v.5a4.787,4.787,0,0,0,2.079,3.779,9.054,9.054,0,0,0,10.367,0,4.787,4.787,0,0,0,2.079-3.779v-.5h4v.5a4.787,4.787,0,0,0,2.079,3.779,9.054,9.054,0,0,0,10.367,0A4.787,4.787,0,0,0,64.1,37.244v-.5h4v.5a4.787,4.787,0,0,0,2.079,3.779,9.054,9.054,0,0,0,10.367,0,4.787,4.787,0,0,0,2.079-3.779v-.5h4v.5a4.787,4.787,0,0,0,2.079,3.779,9.054,9.054,0,0,0,10.367,0,4.787,4.787,0,0,0,2.079-3.779v-.5h4v.5C105.156,42.434,100.1,46.657,93.89,46.657Zm-9.264-5.734.406.567A9.658,9.658,0,0,0,88.7,44.5a12,12,0,0,0,5.187,1.157c5.456,0,9.931-3.506,10.248-7.913h-2.01c-.33,3.3-3.9,5.91-8.238,5.91s-7.907-2.608-8.237-5.91H83.6c-.33,3.3-3.9,5.91-8.238,5.91s-7.907-2.608-8.237-5.91H65.072c-.33,3.3-3.9,5.91-8.237,5.91s-7.908-2.608-8.238-5.91H46.544c-.33,3.3-3.9,5.91-8.238,5.91s-7.907-2.608-8.237-5.91h-2.01a7.034,7.034,0,0,0,.275,1.492l.208.7-.727-.057A20.207,20.207,0,0,1,12.2,30.385L3.4,16.3l77.2,5.818L74.778,36.744h2.156L82.965,21.6a1,1,0,0,0-.855-1.369l-10.5-.792,3.419-8.59a1,1,0,0,0-.681-1.34L39.412.531A1.008,1.008,0,0,0,39.164.5a1,1,0,0,0-.7.28L22.917,15.766,1.577,14.157a1,1,0,0,0-.925,1.53L10.5,31.446A22.215,22.215,0,0,0,29.446,41.952H29.8l.149.171a11.137,11.137,0,0,0,8.352,3.534,11.136,11.136,0,0,0,8.349-3.534l.149-.171h1.531l.149.171a11.629,11.629,0,0,0,16.7,0l.149-.171h1.531l.149.171a11.135,11.135,0,0,0,8.349,3.534A12,12,0,0,0,80.549,44.5,9.655,9.655,0,0,0,84.22,41.49ZM69.513,19.277,36.846,16.815,48.785,5.007l23.958,6.154Zm-30.4-3.294,29.746,2.242,2.539-6.378L49.085,6.116Zm-4.911.633-8.6-.649L39.455,2.61l7.069,1.816Zm-6.3-1.478,5.924.447L44.566,4.956,39.747,3.718Z" transform="translate(0 0)" fill="rgba(0,0,0,0)"/><path d="M86.512,113.486c-4.28,0-7.762-2.651-7.762-5.909h-3c0,3.258-3.482,5.909-7.763,5.909s-7.762-2.651-7.762-5.909h-3c0,3.258-3.482,5.909-7.763,5.909s-7.762-2.651-7.762-5.909h-3c0,3.258-3.482,5.909-7.762,5.909s-7.763-2.651-7.763-5.909h-3c0,4.914,4.829,8.913,10.766,8.913a11.359,11.359,0,0,0,9.264-4.376,11.359,11.359,0,0,0,9.264,4.376,11.36,11.36,0,0,0,9.264-4.376,11.994,11.994,0,0,0,18.528,0,11.359,11.359,0,0,0,9.264,4.376c5.937,0,10.766-4,10.766-8.913h-3c0,3.258-3.482,5.909-7.763,5.909" transform="translate(-10.846 -57.87)" fill="#ff8b00"/><path d="M86.512,116.99a13,13,0,0,1-5.621-1.256,10.853,10.853,0,0,1-3.642-2.8,10.85,10.85,0,0,1-3.643,2.8,13.206,13.206,0,0,1-11.243,0,10.85,10.85,0,0,1-3.643-2.8,10.853,10.853,0,0,1-3.643,2.8,13.206,13.206,0,0,1-11.243,0,10.85,10.85,0,0,1-3.643-2.8,10.853,10.853,0,0,1-3.643,2.8,13,13,0,0,1-5.621,1.256c-6.212,0-11.266-4.222-11.266-9.413v-.5h4v.5a4.786,4.786,0,0,0,2.079,3.779,9.054,9.054,0,0,0,10.367,0,4.786,4.786,0,0,0,2.079-3.779v-.5h4v.5a4.786,4.786,0,0,0,2.079,3.779,9.054,9.054,0,0,0,10.367,0,4.786,4.786,0,0,0,2.079-3.779v-.5h4v.5a4.786,4.786,0,0,0,2.079,3.779,9.054,9.054,0,0,0,10.367,0,4.786,4.786,0,0,0,2.079-3.779v-.5h4v.5a4.786,4.786,0,0,0,2.079,3.779,9.054,9.054,0,0,0,10.367,0,4.786,4.786,0,0,0,2.079-3.779v-.5h4v.5C97.777,112.767,92.724,116.99,86.512,116.99Zm-9.264-5.734.406.566a9.661,9.661,0,0,0,3.671,3.011,12,12,0,0,0,5.187,1.157c5.456,0,9.931-3.506,10.248-7.913h-2.01c-.33,3.3-3.9,5.909-8.238,5.909s-7.907-2.608-8.237-5.909H76.221c-.33,3.3-3.9,5.909-8.238,5.909s-7.907-2.608-8.237-5.909H57.693c-.33,3.3-3.9,5.909-8.238,5.909s-7.907-2.608-8.237-5.909H39.165c-.33,3.3-3.9,5.909-8.237,5.909s-7.908-2.608-8.238-5.909H20.68c.317,4.407,4.792,7.913,10.248,7.913a12,12,0,0,0,5.187-1.157,9.661,9.661,0,0,0,3.671-3.011l.406-.566.406.566a9.658,9.658,0,0,0,3.671,3.011,12.207,12.207,0,0,0,10.374,0,9.661,9.661,0,0,0,3.671-3.011l.406-.566.406.566a9.658,9.658,0,0,0,3.671,3.011,12.207,12.207,0,0,0,10.374,0,9.658,9.658,0,0,0,3.671-3.011Z" transform="translate(-10.846 -57.87)" fill="rgba(0,0,0,0)"/></g></g></g></svg>