<svg xmlns="http://www.w3.org/2000/svg" width="12.894" height="17.567" viewBox="0 0 12.894 17.567"><g transform="translate(-721.592 -2477.982)"><path d="M87.072,0a4.947,4.947,0,0,0-4.947,4.948c0,2.732,4.4,9.619,4.947,9.619s4.947-6.887,4.947-9.619A4.948,4.948,0,0,0,87.072,0Zm0,6.84a1.893,1.893,0,1,1,1.893-1.892A1.892,1.892,0,0,1,87.072,6.84Z" transform="translate(640.967 2479.482)" fill="#53b492"/><path d="M87.072,0a4.948,4.948,0,0,0-4.947,4.948c0,2.732,4.4,9.62,4.947,9.62s4.947-6.887,4.947-9.62A4.948,4.948,0,0,0,87.072,0m0,6.84a1.893,1.893,0,1,1,1.893-1.892A1.892,1.892,0,0,1,87.072,6.84m0-8.34a6.455,6.455,0,0,1,6.447,6.448c0,1.838-1.34,4.589-2.463,6.573-.582,1.027-1.206,2.02-1.758,2.8-.843,1.185-1.391,1.75-2.226,1.75s-1.383-.564-2.226-1.75c-.552-.776-1.176-1.769-1.758-2.8-1.124-1.984-2.463-4.736-2.463-6.574A6.455,6.455,0,0,1,87.072-1.5Zm0,6.84a.393.393,0,1,0-.392-.392A.393.393,0,0,0,87.072,5.34Z" transform="translate(640.967 2479.482)" fill="#fff"/></g></svg>