<svg xmlns="http://www.w3.org/2000/svg" width="12.894" height="17.567" viewBox="0 0 12.894 17.567"><g transform="translate(1.5 1.5)"><g transform="translate(-82.125)" fill="#53b492"><path d="M 87.07210540771484 15.31749629974365 C 86.66893768310547 15.31749629974365 86.32447814941406 15.10288619995117 85.45738983154297 13.88326644897461 C 84.92000579833984 13.12741661071777 84.31047058105469 12.15741634368896 83.74106597900391 11.15194606781006 C 82.857421875 9.591586112976074 81.375 6.710706233978271 81.375 4.947996139526367 C 81.375 1.806106209754944 83.93070983886719 -0.7500037550926208 87.07210540771484 -0.7500037550926208 C 90.21353149414062 -0.7500037550926208 92.76925659179688 1.806106209754944 92.76925659179688 4.947996139526367 C 92.76925659179688 6.71078634262085 91.28694915771484 9.591596603393555 90.40336608886719 11.15192604064941 C 89.83393859863281 12.1574764251709 89.22439575195312 13.12748622894287 88.68703460693359 13.88327598571777 C 87.81990051269531 15.10288619995117 87.47538757324219 15.31749629974365 87.07210540771484 15.31749629974365 Z M 87.07210540771484 3.805046319961548 C 86.44239807128906 3.805046319961548 85.93009185791016 4.317776203155518 85.93009185791016 4.947996139526367 C 85.93009185791016 5.577736377716064 86.44239807128906 6.090066432952881 87.07210540771484 6.090066432952881 C 87.70209503173828 6.090066432952881 88.21463012695312 5.577736377716064 88.21463012695312 4.947996139526367 C 88.21463012695312 4.317776203155518 87.70209503173828 3.805046319961548 87.07210540771484 3.805046319961548 Z" stroke="none"/><path d="M 87.07210540771484 -3.814697265625e-06 C 84.33985137939453 -3.814697265625e-06 82.125 2.215256690979004 82.125 4.947996139526367 C 82.125 7.68031644821167 86.52578735351562 14.56749629974365 87.07210540771484 14.56749629974365 C 87.61892700195312 14.56749629974365 92.01925659179688 7.680286407470703 92.01925659179688 4.947996139526367 C 92.01925659179688 2.215256690979004 89.80440521240234 -3.814697265625e-06 87.07210540771484 -3.814697265625e-06 M 87.07210540771484 6.840066432952881 C 86.02738189697266 6.840066432952881 85.18009185791016 5.992735862731934 85.18009185791016 4.947996139526367 C 85.18009185791016 3.902376174926758 86.02738189697266 3.055046081542969 87.07210540771484 3.055046081542969 C 88.11685180664062 3.055046081542969 88.96463012695312 3.902376174926758 88.96463012695312 4.947996139526367 C 88.96463012695312 5.992735862731934 88.11685180664062 6.840066432952881 87.07210540771484 6.840066432952881 M 87.07210540771484 -1.500002861022949 C 90.6270751953125 -1.500002861022949 93.51925659179688 1.392556190490723 93.51925659179688 4.947996139526367 C 93.51925659179688 6.785836219787598 92.17971801757812 9.53709602355957 91.05598449707031 11.5214958190918 C 90.47429656982422 12.54869651794434 89.85006713867188 13.5418062210083 89.29828643798828 14.31786632537842 C 88.45543670654297 15.50331592559814 87.90734100341797 16.06749725341797 87.07210540771484 16.06749725341797 C 86.23700714111328 16.06749725341797 85.68894195556641 15.50330638885498 84.84611511230469 14.31784629821777 C 84.29432678222656 13.54172611236572 83.67010498046875 12.54864597320557 83.08844757080078 11.52153587341309 C 81.96463775634766 9.537076950073242 80.625 6.785766124725342 80.625 4.947996139526367 C 80.625 1.392556190490723 83.51715850830078 -1.500002861022949 87.07210540771484 -1.500002861022949 Z M 87.07210540771484 5.340065956115723 C 87.28855133056641 5.340065956115723 87.46463012695312 5.164186477661133 87.46463012695312 4.947996139526367 C 87.46463012695312 4.731326103210449 87.28855133056641 4.555046081542969 87.07210540771484 4.555046081542969 C 86.85594940185547 4.555046081542969 86.68009185791016 4.731326103210449 86.68009185791016 4.947996139526367 C 86.68009185791016 5.164186477661133 86.85594940185547 5.340065956115723 87.07210540771484 5.340065956115723 Z" stroke="none" fill="#fff"/></g></g></svg>