<svg xmlns="http://www.w3.org/2000/svg" width="11.11" height="15.885" viewBox="0 0 11.11 15.885"><path d="M87.18-.5a5.562,5.562,0,0,1,5.555,5.556c0,1.74-1.493,4.636-2.383,6.208-.577,1.02-1.2,2-1.739,2.768-.891,1.254-1.166,1.353-1.433,1.353s-.541-.1-1.433-1.353c-.544-.765-1.162-1.748-1.739-2.768-.89-1.572-2.383-4.468-2.383-6.208A5.562,5.562,0,0,1,87.18-.5Zm0,14.752a24.917,24.917,0,0,0,2.457-3.757c1.333-2.4,2.1-4.385,2.1-5.439a4.555,4.555,0,1,0-9.11,0c0,1.054.765,3.036,2.1,5.439A24.926,24.926,0,0,0,87.18,14.252Zm0-11.63a2.434,2.434,0,1,1-2.433,2.434A2.437,2.437,0,0,1,87.18,2.622Zm0,3.868a1.434,1.434,0,1,0-1.433-1.433A1.435,1.435,0,0,0,87.18,6.489Z" transform="translate(-81.625 0.5)" fill="#959595"/></svg>