<svg xmlns="http://www.w3.org/2000/svg" width="10.64" height="14.827" viewBox="0 0 10.64 14.827"><g transform="translate(-322.8 -1090.321)"><path d="M5.119,14.428a5.2,5.2,0,0,1-3.442-1.294A5.406,5.406,0,0,1,0,8.972C0,5.246,4.756.275,4.959.066a.229.229,0,0,1,.32,0c.2.21,4.96,5.18,4.96,8.906a5.406,5.406,0,0,1-1.678,4.162,5.2,5.2,0,0,1-3.442,1.294m0-13.882C4.281,1.456.444,5.8.444,8.972a4.637,4.637,0,0,0,4.675,5.011A4.637,4.637,0,0,0,9.794,8.972C9.794,5.8,5.957,1.455,5.119.546" transform="translate(323.001 1090.521)" fill="#959595"/><path d="M5.119,14.628a5.4,5.4,0,0,1-3.576-1.345A5.6,5.6,0,0,1-.2,8.972C-.2,5.167,4.61.139,4.815-.073a.429.429,0,0,1,.608,0c.2.212,5.016,5.237,5.016,9.045a5.6,5.6,0,0,1-1.744,4.31A5.4,5.4,0,0,1,5.119,14.628ZM5.119.2A.028.028,0,0,0,5.1.2C4.9.412.2,5.327.2,8.972A5.212,5.212,0,0,0,1.81,12.985a5.026,5.026,0,0,0,6.617,0,5.212,5.212,0,0,0,1.611-4.013c0-1.489-.819-3.445-2.368-5.657A28.369,28.369,0,0,0,5.135.2.028.028,0,0,0,5.119.2Zm0,13.982A4.828,4.828,0,0,1,.244,8.972c0-3.263,3.938-7.7,4.728-8.562l.147-.16.147.16c.789.857,4.728,5.3,4.728,8.562A4.828,4.828,0,0,1,5.119,14.183Zm0-13.34C4.1,1.975.644,6.023.644,8.972c0,2.317,1.4,4.811,4.475,4.811A4.446,4.446,0,0,0,9.594,8.972C9.594,6.021,6.14,1.974,5.119.843Z" transform="translate(323.001 1090.521)" fill="#959595"/><path d="M25.721,107.6A3.69,3.69,0,0,1,22,103.539a6.143,6.143,0,0,1,.717-2.552l.4.193a5.722,5.722,0,0,0-.673,2.359,3.267,3.267,0,0,0,3.276,3.612Z" transform="translate(302.398 995.953)" fill="#959595"/><path d="M25.921,107.8h-.2a3.88,3.88,0,0,1-3.921-4.257,6.333,6.333,0,0,1,.737-2.639l.087-.18.761.366-.087.18a5.534,5.534,0,0,0-.653,2.272,3.127,3.127,0,0,0,3.076,3.412h.2Zm-3.109-6.541a5.7,5.7,0,0,0-.612,2.284,3.5,3.5,0,0,0,3.321,3.851v-.045a3.559,3.559,0,0,1-2.021-.776,3.753,3.753,0,0,1-1.255-3.03,5.655,5.655,0,0,1,.608-2.265Z" transform="translate(302.398 995.953)" fill="#959595"/></g></svg>