<svg xmlns="http://www.w3.org/2000/svg" width="14.435" height="14.659" viewBox="0 0 14.435 14.659"><g transform="translate(-321 -1141.289)"><path d="M92.232,338.445H83.965a.132.132,0,0,0-.093.225l.563.563a.131.131,0,0,0,.093.039h7.409a2.283,2.283,0,0,1,1.746.781,1.471,1.471,0,0,1-.988,2.535,1.06,1.06,0,0,1-1.058-1.059.77.77,0,0,1,.484-.716.423.423,0,0,0,.277-.389.412.412,0,0,0-.546-.394,1.627,1.627,0,0,0-.828,2.341,1.889,1.889,0,0,0,1.755,1.042,2.255,2.255,0,0,0,2.174-2.256A2.715,2.715,0,0,0,92.232,338.445Z" transform="translate(238.448 812.534)" fill="#959595"/><path d="M50.031,0a2.865,2.865,0,0,0-2.869,2.868,2.337,2.337,0,0,0,1.022,1.922,2.045,2.045,0,0,0,3.263-1,.414.414,0,1,0-.8-.222c-.244.876-1.5,1.342-2.415.046a1.3,1.3,0,0,1-.247-.744A2.036,2.036,0,0,1,50.031.827a2.657,2.657,0,0,1,2.654,2.654A3.43,3.43,0,0,1,49.262,6.9h-9.49a.132.132,0,0,0-.093.039l-.563.563a.132.132,0,0,0,.093.225H49.262a4.259,4.259,0,0,0,4.249-4.25A3.486,3.486,0,0,0,50.031,0Z" transform="translate(281.923 1141.289)" fill="#959595"/></g></svg>