<svg xmlns="http://www.w3.org/2000/svg" width="819" height="496" viewBox="0 0 819 496">
  <g transform="translate(-365 -1692)">
    <g transform="translate(365 1692)">
      <g transform="translate(208.174 135.223)">
        <path d="M105.379,169.12c-1.6,1.249-1.253,2.793-2.293,5.163-1.805,4.108-5.044,4.466-10.325,8.6a46.6,46.6,0,0,0-8.6,9.176A44.475,44.475,0,0,0,76.7,204.68a32.356,32.356,0,0,0-2.3,12.045c.043,2.483.386,3.435.55,8.039.187,5.326-.242,5.011,0,7.6.7,7.532,4.374,10.749,2.53,13.386-.554.794-1.576,1.253-3.616,2.17-3.08,1.381-4.025.855-5.428,1.808-2.777,1.886-4.047,7.323-1.808,9.406a4.639,4.639,0,0,0,5.788,0c1.061-1.1.275-2.362,1.448-3.618,1.5-1.609,4.3-1.151,4.7-1.085a7.122,7.122,0,0,1,3.618,1.808c1.083,1.038,2.211,2.867,2.17,11.939-.009,2.09-.125,4.528-.362,9.4-.258,5.395-.32,5.518-.36,7.6-.095,4.893-.14,7.338.36,10.129a35.4,35.4,0,0,0,3.618,10.129c-.024.012-1.246-2.964-1.445-2.893s.7,2.739,1.445,6.873c.595,3.3.514,4.288.363,5.063a10.011,10.011,0,0,1-2.17,4.34c-2.54,3.263-4.907,4.433-9.766,7.958-3.713,2.694-5.568,4.04-6.151,5.066-2.128,3.748-1.8,9.375.363,13.021.877,1.476,1.834,2.258,2.893,4.7.952,2.2.993,3.443,1.81,3.618,1.066.225,2.639-1.554,3.255-3.255a5.486,5.486,0,0,0,.2-.718c.578-2.7-1.132-4.942-.929-5.07.294-.182,4.419,3.966,5.426,9.043.142.716.725,3.978.725,3.978a20.3,20.3,0,0,0,1.448,6.511,12.049,12.049,0,0,0,2.17,2.9,22.6,22.6,0,0,0,5.426,4.34c3.6,2.1,3.864,1.069,6.511,2.893a30.3,30.3,0,0,1,5.063,4.7s.884,1.222,1.94,2.426c.815.926,1,1.007.955,1.192-.223.886-4.644-.325-5.426,1.085-.663,1.192,1.611,3.649,3.255,5.426a16.069,16.069,0,0,0,5.426,4.341c2.947,1.317,3.909.384,5.426,1.81,1.831,1.72,2.533,5.063,2.533,5.063a50.194,50.194,0,0,0,5.788,7.6c2.734,2.883,3.338,2.507,5.786,5.425,1.9,2.265,1.962,3,2.9,3.255,3.715,1.023,9.8-8.657,9.766-8.681s-10.989,11.78-8.318,16.279c.791,1.336,2.909,2.232,3.615,2.53,2.962,1.253,4.395.258,5.788,1.448,1.426,1.218.445,2.7,1.448,6.511.417,1.585,1.481,5.639,4.7,7.6,1.829,1.111,2.346.327,3.978,1.445,2.855,1.957,1.777,4.7,4.341,6.873,1.876,1.59,2.727.358,6.873,2.17a15.081,15.081,0,0,1,6.151,4.34,11.869,11.869,0,0,1,2.53,5.065c.469,2.244-.159,2.985.362,5.426.367,1.715.742,1.654,1.808,4.341a25.612,25.612,0,0,1,2.173,8.321c.152,2.706-.386,3.815.36,4.341,1.374.967,4.781-1.67,5.426-2.17,3.293-2.549,2.919-4.161,5.065-5.426,2.317-1.369,4.092-.282,10.129.36,7.61.81,7.169-.663,10.851.362,2.656.739,2.838,1.493,12.3,7.959,1.9,1.3,3.864,2.637,6.511,4.341,4.239,2.725,4.191,2.5,10.129,6.148,6.973,4.286,7.444,4.85,9.406,5.065,2.879.318,4.561-.6,6.148.723,1.772,1.471.718,3.466,2.533,5.065,1.125.99,1.855.509,6.511,1.445,2.62.528,3.931.791,5.065,1.448,2.58,1.493,2.369,3.1,4.34,4.341,2.113,1.336,3.443.182,9.044,0,4.511-.147,8.2-.265,11.576,1.81.317.2,1.779,1.457,4.7,3.978,4.146,3.578,4.646,4.127,5.428,3.98,2.72-.512,1.568-8.1,5.426-9.768,2.831-1.225,6.719,1.455,7.233,1.81,2.7,1.86,2.263,3.393,4.7,4.7a8.336,8.336,0,0,0,7.958,0c2.071-1.313,1.654-2.931,3.618-3.98,2.125-1.135,3.471.3,6.873.362,4.476.078,4.885-2.365,11.936-3.98,3.793-.867,3.748-.178,6.873-1.085,5.272-1.528,5.4-3.49,9.4-4.7,5.535-1.673,7.515,1.4,13.384,0,3.521-.836,5.8-2.651,8.321-4.7,1.59-1.294,7.966-6.688,13.384-18.449,3.243-7.041,9.8-21.276,6.511-34a32.96,32.96,0,0,1-1.445-11.214c.246-4.362,1.343-6.605,2.17-10.126,1.718-7.319.7-13.455,0-17.727-1.346-8.153-3.554-7.053-10.129-23.15-4.871-11.922-4.471-14.512-8.683-18.81-2.556-2.613-5.12-4.122-7.233-8.321a25.439,25.439,0,0,1-2.533-10.129c-.092-2.8.389-2.966.363-5.426-.026-2.248-.457-4.916-3.98-12.3-2.038-4.274-3.881-7.548-6.148-11.576-2.357-4.184-3.433-5.88-5.066-9.4-1.739-3.762-2.616-5.7-2.893-8.321-.379-3.6.666-4.319,0-7.6a17.812,17.812,0,0,0-3.255-6.873c-2.834-4.054-4.291-3.521-6.151-6.873-1.917-3.452-.9-4.968-2.893-6.873-1.694-1.616-3.831-1.862-6.511-2.17-5.35-.614-6.53,1.043-10.491.362-2.4-.41-1.872-1-7.958-3.978-6.961-3.407-8.892-3.246-10.489-5.788-1.457-2.317-.521-3.513-2.173-5.788-2.056-2.836-5.435-3.632-6.871-3.98-11.832-2.862-23.344-6.928-35.089-10.129-7.361-2-17.262-4.7-28.215-11.574-6.909-4.336-5.992-5.16-20.617-15.554-11.846-8.42-12.351-7.809-16.642-11.939a176.157,176.157,0,0,0-13.384-11.574A18.6,18.6,0,0,0,186,189.316c-2.094-.554-3.217-.4-7.956-.363-6.08.054-9.117.081-11.214-.36-3.388-.716-4.755-1.936-9.043-4.343a103.782,103.782,0,0,0-16.279-7.233c-9.541-3.492-9.053-1.7-17.362-5.066a64.46,64.46,0,0,0-11.214-3.255c-3.758-.737-5.963-.82-7.558.424" transform="translate(42.835 -168.16)" fill="#6bdbb9" />
        <path d="M133.311,285.719c.014-1.749.381-2.5.135-4.694s-.836-3.319-.4-3.62c.471-.325,1.521.746,4.558,2.95s3,1.869,3.753,2.682c1.516,1.63,1.17,2.438,3.085,6.034a22.288,22.288,0,0,0,2.95,4.559c1.177,1.35,1.433,1.215,4.693,3.888,4.317,3.54,4.028,3.907,5.9,4.826,1.628.8,2.538.86,3.085,1.876.7,1.306-.171,2.357.268,4.158.329,1.348,1.111,1.948,2.414,3.35,4.388,4.727,3.845,6.88,7.105,8.581,1.552.81,1.791.384,3.352,1.341a13.3,13.3,0,0,1,4.291,4.693,33.969,33.969,0,0,1,2.68,5.765c2.1,5.442,1.95,7,3.62,7.911,1.244.678,1.777.059,4.426.938a11.046,11.046,0,0,1,3.62,1.744c2.72,2.251,1.038,5.179,3.62,9.517.49.827.171.081,4.021,4.558,2.668,3.1,4.018,4.684,4.829,6.17,1.372,2.516,1.114,3.3,2.279,4.156,1.971,1.445,3.506-.211,6.106.7,2,.7,3.746,3.6,7.236,9.394a14.427,14.427,0,0,0,2.284,3.3c2.374,2.346,3.8,1.523,5.459,3.556,1.5,1.836,1.076,3.421,3.047,4.824.87.616,1.035.37,1.777.889,2.471,1.73,2.516,5.81,2.54,8.124.012,1.019-.045,1.8-.763,6.729-.585,4.039-.879,6.058-1.014,6.729-.746,3.722-1.6,7.963-4.222,12.18-1.886,3.03-2.6,2.691-5.454,6.968-2.194,3.289-2.554,4.658-3.634,6.362-1.358,2.144-3.848,4.8-14.543,8.788a103.978,103.978,0,0,1-19.39,5.454c-8.852,1.595-15.142,2.729-23.631,1.514a47.156,47.156,0,0,1-16.966-5.15c-1.966-1.085-3.649-2.239-7.575-4.241a48.22,48.22,0,0,0-10-4.241c-3.329-.9-6.5-1.727-10.3-.91-3.094.666-2.838,1.606-5.148,1.817-4.483.41-8.4-2.86-11.515-5.454-3.587-2.99-2.819-3.535-4.848-4.544-3.677-1.827-5.767.187-13.026-.3-4.075-.272-7.122-.521-8.788-2.724-.524-.694-.6-1.173-1.514-6.364-1.189-6.767-1.187-6.7-1.211-6.968-.58-6.139.8-8.295-.607-9.392-2.052-1.592-6.271,1.957-7.878.3-.808-.834-.55-2.566,0-3.637.988-1.924,2.815-1.512,5.454-3.635,1.142-.919,3.068-2.469,3.331-4.848.322-2.888-2.023-5.08-2.424-5.454-.372-.348-2.7-2.521-5.452-2.12-3.431.5-3.616,4.419-8.484,6.665-.964.445-3.784,1.746-5.151.607-1.426-1.192-.794-4.646.607-6.968,2.533-4.2,8.122-5.577,8.181-5.454.076.166-8.025,6.269-13.635,3.94-3.644-1.514-5.1-6.115-5.755-8.181-.692-2.182-1.995-6.3,0-8.785,1.865-2.327,5.047-1.27,6.361-3.637.488-.874.37-1.59-.3-5.151-1.632-8.655-1.867-9.358-1.817-11.209.081-3.068.775-3.16.607-6.061-.078-1.343-.381-6.523-2.727-7.271-1.8-.573-4.087,1.689-6.364,3.94-3.5,3.464-3.817,5.551-5.755,5.755-2.6.277-4.855-3.18-5.151-3.635-2.139-3.281-1.628-6.992-1.211-10a24.755,24.755,0,0,1,2.725-8.181c1.493-2.774,3.085-5.736,6.364-7.572,2.556-1.434,4.743-1.4,4.848-2.424.1-.983-1.886-1.234-3.94-3.334-2.016-2.061-2.8-4.573-3.634-7.271-.917-2.952-.737-4.149-2.12-6.058a26.478,26.478,0,0,0-2.12-2.424c-2.277-2.433-3.142-2.888-3.03-3.637.175-1.2,2.511-.806,3.634-2.424,1.964-2.827-1.9-8.752-2.121-9.089-.3-.46-1.313-1.822-3.331-4.544-1.455-1.962-1.914-2.559-1.82-3.334.194-1.547,2.436-2.428,4.848-3.333,5.942-2.225,8.759-3.023,12.119-4.241,6.71-2.431,4.042-2.35,10-4.544,1.557-.573,3.253-1.137,3.334-2.12.1-1.237-2.481-1.54-4.544-4.241a11.561,11.561,0,0,1-2.12-5.757,14.656,14.656,0,0,1,.6-6.361c.436-1.443,1.09-2.917,6.968-10,3.39-4.082,4.423-5.1,5.454-4.848,1.275.313.936,2.17,3.334,4.544a16.587,16.587,0,0,0,3.938,2.727,28.631,28.631,0,0,0,3.334,1.514c3.222,1.445,3.381,6.518,5.454,15.149,2.379,9.913,3.746,9.78,3.634,14.542-.111,4.8-1.545,6.8,0,9.089,1.741,2.585,4.442,1.367,9.392,4.241,4.641,2.7,3.817,4.667,7.575,6.364,5.094,2.3,7.07-1.118,12.422.907,5.212,1.976,5.215,5.933,10.3,6.667a16.243,16.243,0,0,0,6.665-.3,28.175,28.175,0,0,1,3.03-.91c1.571-.362,1.635-.209,3.331-.607,1.369-.32,1.647-.493,2.064-.315.843.358,1.026,1.637,1.22,3.137.614,4.705.919,7.072.872,7.672a16.963,16.963,0,0,1-1.4,5.928c-2.519,5.466-8.108,7.764-7.845,8.193.216.355,3.227-2.414,7.5-2.265,1.616.057,2.7.507,4.184-.175a13.178,13.178,0,0,0,2.791-2.265c2.173-2.018,1.995-2.137,2.44-2.267,1.879-.552,3.111,2.147,7.148,3.488,1.31.434,3.357,1.114,4.359.173,1.18-1.107.649-4.215-1.047-5.753-1.26-1.144-2.149-.5-4.708-1.569-1.73-.727-1.926-1.275-5.229-3.663-4.006-2.9-3.871-2.2-4.883-3.312-2.988-3.293-3.009-8.1-3-8.778" transform="translate(-19.767 -92.343)" fill="#dbdbdb" />
      </g>
      <path d="M15.575,11.618l-16-11L.425-.618l16,11Z" transform="translate(128.5 94.436)" fill="#53b492" />
      <path d="M.532,11.029-.532,9.971,9.906-.529,10.969.529Z" transform="translate(117.063 134.408)" fill="#53b492" />
      <path d="M16.315,38.306l-17-38L.685-.306l17,38Z" transform="translate(149.5 69.5)" fill="#53b492" />
      <path d="M12.258,90.107l-13-90L.742-.107l13,90Z" transform="translate(210.5 24.5)" fill="#53b492" />
      <path d="M.7,91.269l-1.4-.538,35-91,1.4.538Z" transform="translate(279.5 24.5)" fill="#53b492" />
      <path d="M.668,41.342l-1.335-.684,21-41,1.335.684Z" transform="translate(308.5 56.5)" fill="#53b492" />
      <path d="M.174,25.73-.174,24.27l105-25L105.174.73Z" transform="translate(421.5 118.417)" fill="#53b492" />
      <path d="M77,.75H0V-.75H77Z" transform="translate(449.5 149.4)" fill="#53b492" />
      <path d="M.477,14.579l-.954-1.158,17-14L17.477.579Z" transform="translate(592.5 205.359)" fill="#53b492" />
      <path d="M.284,9.694-.284,8.306l22-9L22.284.694Z" transform="translate(739.5 292.301)" fill="#53b492" />
      <path d="M.671,36.335l-1.342-.671,18-36,1.342.671Z" transform="translate(326.5 86.438)" fill="#53b492" />
      <path d="M.633,11.4-.633,10.6l7-11L7.633.4Z" transform="translate(350.5 118.419)" fill="#53b492" />
      <a href="#irabu-surgeonreaf">
        <g transform="translate(0 144.898)">
          <rect width="127" height="24" rx="12" fill="#e7f8f2" />
          <path d="M4.428-7.392V-8.628A6,6,0,0,1,4.476-9.66H2.9a6.4,6.4,0,0,1,.06,1.068v1.2H2.256A8.518,8.518,0,0,1,.7-7.476v1.464a12.208,12.208,0,0,1,1.536-.06h.732V-4.3a7.9,7.9,0,0,1-.048,1.032h1.56a7.387,7.387,0,0,1-.048-1.008v-1.8H7.536c-.024.828-.024,1.116-.048,1.392A3.747,3.747,0,0,1,6.216-1.8,5.573,5.573,0,0,1,3.924-.66a3.565,3.565,0,0,1,.9,1.272,6.67,6.67,0,0,0,2.34-1.26A4.806,4.806,0,0,0,8.892-4.092a14.548,14.548,0,0,0,.084-1.98h.8a12.208,12.208,0,0,1,1.536.06V-7.476a8.518,8.518,0,0,1-1.56.084H8.988C9-8.112,9-8.112,9-8.844a4.431,4.431,0,0,1,.048-.8H7.5a7.648,7.648,0,0,1,.06,1.332v.384l-.012.54Zm8.424,3.624a13.174,13.174,0,0,1,1.956-.06H21.18a13.174,13.174,0,0,1,1.956.06V-5.436a11.785,11.785,0,0,1-1.944.084H14.8a11.785,11.785,0,0,1-1.944-.084Zm13.224-4.44a14.528,14.528,0,0,1,3.2,1.644l.768-1.32a19.761,19.761,0,0,0-3.192-1.548Zm-.948,2.916A13.928,13.928,0,0,1,28.38-3.54L29.124-4.9a18.94,18.94,0,0,0-3.192-1.632Zm7.128-3.96a8.1,8.1,0,0,1,1.26,1.788l.84-.444A7.777,7.777,0,0,0,33.1-9.672ZM25.812.492a7.086,7.086,0,0,1,.84-.2c4.3-.84,6.828-2.808,8.316-6.444A5.834,5.834,0,0,1,33.72-7.224a8.253,8.253,0,0,1-4.86,5.292,10.66,10.66,0,0,1-3.468.78Zm9.972-9.18a6.94,6.94,0,0,0-1.248-1.692l-.8.42a8.841,8.841,0,0,1,1.224,1.74ZM44.028.192V.756h1.38a6,6,0,0,1-.048-.912v-5.5c0-.528.012-.828.036-1.26a10.485,10.485,0,0,1-1.116.048H39.552a5.473,5.473,0,0,1-1.08-.084v1.332a7.8,7.8,0,0,1,1.08-.048H44.04V-4H39.864a5.393,5.393,0,0,1-1.08-.084v1.308a7.576,7.576,0,0,1,1.08-.048H44.04v1.812H39.432a5.473,5.473,0,0,1-1.08-.084V.24a7.576,7.576,0,0,1,1.08-.048Zm5.436-7.9a12.6,12.6,0,0,1,3.06,2.436l1.032-1.308a17,17,0,0,0-3.1-2.316Zm.42,7.92a4.248,4.248,0,0,1,.792-.2,12.962,12.962,0,0,0,4.572-1.8,10.532,10.532,0,0,0,3.8-4.7A5.175,5.175,0,0,1,57.78-7.668a10.02,10.02,0,0,1-1.224,2.4,8.017,8.017,0,0,1-3.564,2.94,11.434,11.434,0,0,1-3.552.888ZM62.448-9.468a7.576,7.576,0,0,1,.048,1.08v3.3a8.654,8.654,0,0,1-.06,1.08H64.08a5.792,5.792,0,0,1-.048-1.056V-8.376a6.1,6.1,0,0,1,.048-1.08Zm5.412.024a6.32,6.32,0,0,1,.06,1.14v1.5c0,.96-.012,1.488-.06,2A3.393,3.393,0,0,1,66.2-1.74a6.473,6.473,0,0,1-2.592.96,4.1,4.1,0,0,1,.84,1.428,10.15,10.15,0,0,0,2.34-.924,4.6,4.6,0,0,0,2.364-2.8,14.174,14.174,0,0,0,.312-3.636v-1.62a5.692,5.692,0,0,1,.06-1.116Zm4.992,5.676a13.174,13.174,0,0,1,1.956-.06H81.18a13.174,13.174,0,0,1,1.956.06V-5.436a11.785,11.785,0,0,1-1.944.084H74.8a11.785,11.785,0,0,1-1.944-.084Zm20-5.1a4.386,4.386,0,0,1-1.284.12H86.064a8.453,8.453,0,0,1-1.536-.084v1.56a9.526,9.526,0,0,1,1.512-.072h5.712a8.314,8.314,0,0,1-3.636,5.232A9.763,9.763,0,0,1,85.488-.888,4.416,4.416,0,0,1,86.544.54a11.684,11.684,0,0,0,4.464-3.06,11.28,11.28,0,0,0,2.46-5.028,1.8,1.8,0,0,1,.2-.54Z" transform="translate(22.063 16.984)" fill="#001c10" />
          <path d="M86.625,0a4.5,4.5,0,0,0-4.5,4.5c0,2.485,4,8.75,4.5,8.75s4.5-6.264,4.5-8.75A4.5,4.5,0,0,0,86.625,0Zm0,6.222A1.721,1.721,0,1,1,88.346,4.5,1.721,1.721,0,0,1,86.625,6.222Z" transform="translate(-72.125 5.455)" fill="#53b492" />
        </g>
      </a>
      <a href="#irabu-overHang">
        <g transform="translate(13 77.945)">
          <rect width="117" height="24" rx="12" fill="#e7f8f2" />
          <path d="M6.9-4.32,6.936-.732v.216A7.64,7.64,0,0,1,6.864.636H8.5C8.46.3,8.436-.156,8.424-.744l-.06-5.568H9.6a12.339,12.339,0,0,1,1.38.048V-7.716a6.823,6.823,0,0,1-1.416.084H8.352L8.328-8.6v-.072A7.7,7.7,0,0,1,8.376-9.7H6.792a8.651,8.651,0,0,1,.06,1.1l.012.96H2.712A6.973,6.973,0,0,1,1.2-7.716v1.464a12.5,12.5,0,0,1,1.476-.06H5.964a11.416,11.416,0,0,1-1.608,1.98,12.771,12.771,0,0,1-3.78,2.6,3.476,3.476,0,0,1,1,1.248,17.382,17.382,0,0,0,1.776-1.1A16.521,16.521,0,0,0,5.712-3.672a7.27,7.27,0,0,0,1.224-1.68c-.012.192-.036.8-.036.864Zm5.952.552a13.174,13.174,0,0,1,1.956-.06H21.18a13.174,13.174,0,0,1,1.956.06V-5.436a11.785,11.785,0,0,1-1.944.084H14.8a11.785,11.785,0,0,1-1.944-.084Zm14.112-5.22v.168a8.805,8.805,0,0,1-.108,1.164A14.594,14.594,0,0,1,25.728-3.54,8.087,8.087,0,0,1,24.012-.984,5.192,5.192,0,0,1,25.38.048c1.608-1.848,2.544-4.212,3.048-7.656l.036-.288.06-.348.024-.2a1.383,1.383,0,0,1,.06-.24Zm3.564.288a5.042,5.042,0,0,1,.168.864,15.9,15.9,0,0,0,3.18,7.9,4.939,4.939,0,0,1,1.32-1.1A11.623,11.623,0,0,1,32.52-6.228a14.867,14.867,0,0,1-.5-2.76Zm1.608-.744a7.874,7.874,0,0,1,.984,1.956l.912-.288a7.157,7.157,0,0,0-1-1.932ZM35.6-8.256a7.1,7.1,0,0,0-.984-1.86l-.888.252a8.242,8.242,0,0,1,.96,1.9Zm.408,4.488a13.174,13.174,0,0,1,1.956-.06H44.34a13.173,13.173,0,0,1,1.956.06V-5.436a11.784,11.784,0,0,1-1.944.084h-6.4a11.785,11.785,0,0,1-1.944-.084Zm14.16-5.22v.168a8.805,8.805,0,0,1-.108,1.164A14.594,14.594,0,0,1,48.936-3.54,8.087,8.087,0,0,1,47.22-.984,5.26,5.26,0,0,1,48.588.048,11.457,11.457,0,0,0,50.712-3.66a21.469,21.469,0,0,0,.948-4.1,5.08,5.08,0,0,1,.156-.924Zm3.564.288a5.98,5.98,0,0,1,.168.864,18.8,18.8,0,0,0,1.14,4.368A12.606,12.606,0,0,0,57.084.06a5.172,5.172,0,0,1,1.32-1.1,11.606,11.606,0,0,1-2.676-5.184,15.534,15.534,0,0,1-.5-2.76Zm6.528,1a12.6,12.6,0,0,1,3.06,2.436l1.032-1.308a17,17,0,0,0-3.1-2.316Zm.42,7.92a4.248,4.248,0,0,1,.792-.2,12.962,12.962,0,0,0,4.572-1.8,10.532,10.532,0,0,0,3.8-4.7A5.174,5.174,0,0,1,68.58-7.668a10.02,10.02,0,0,1-1.224,2.4,8.017,8.017,0,0,1-3.564,2.94,11.434,11.434,0,0,1-3.552.888ZM80.628-7.92l.516-.192a7.626,7.626,0,0,0-1.068-1.9l-.888.3a7.441,7.441,0,0,1,.876,1.5,5.8,5.8,0,0,1-.624.024l-2.628.036c-.24,0-.432.012-.576.024l.1-.18c.024-.048.024-.06.084-.168.12-.24.228-.48.324-.7a1.433,1.433,0,0,1,.2-.36L75.3-9.864a4.6,4.6,0,0,1-.612,1.6,9.454,9.454,0,0,1-3.108,3.48,3.188,3.188,0,0,1,1.164,1.032A11.924,11.924,0,0,0,75.552-6.84l3.612-.048A9.656,9.656,0,0,1,73.032-.42,3.971,3.971,0,0,1,74.052.84,12.113,12.113,0,0,0,78.324-2.2a11.833,11.833,0,0,0,2.412-4.536,2.42,2.42,0,0,1,.3-.72ZM82.7-8.652a7,7,0,0,0-1.056-1.824l-.864.3a8.6,8.6,0,0,1,1.032,1.86Z" transform="translate(23.023 17.186)" fill="#001c10" />
          <path d="M86.625,0a4.5,4.5,0,0,0-4.5,4.5c0,2.485,4,8.75,4.5,8.75s4.5-6.264,4.5-8.75A4.5,4.5,0,0,0,86.625,0Zm0,6.222A1.721,1.721,0,1,1,88.346,4.5,1.721,1.721,0,0,1,86.625,6.222Z" transform="translate(-71.063 5.375)" fill="#53b492" />
        </g>
      </a>
      <a href="#irabu-crossHole">
        <g transform="translate(20 45)">
          <rect width="143" height="24" rx="12" fill="#e7f8f2" />
          <path d="M9.732-8.436a2.126,2.126,0,0,1-.876.12L6.228-8.28c-.228,0-.42.012-.576.024a2.83,2.83,0,0,0,.192-.384L6-8.952a2.422,2.422,0,0,1,.156-.336,2.454,2.454,0,0,1,.2-.372L4.716-9.984A4.479,4.479,0,0,1,4.1-8.4,9.231,9.231,0,0,1,1-4.92,3.188,3.188,0,0,1,2.16-3.888,11.745,11.745,0,0,0,4.968-6.96L8.58-7.02a9.5,9.5,0,0,1-3.5,5.064A10.807,10.807,0,0,1,2.448-.54,3.7,3.7,0,0,1,3.468.72,12.123,12.123,0,0,0,7.74-2.328,12.447,12.447,0,0,0,10.2-6.96a2.257,2.257,0,0,1,.3-.72ZM20.892-.7V.132H22.44a8.225,8.225,0,0,1-.048-1.044V-7.776c0-.444.012-.684.036-1-.276.024-.492.036-1.008.036H14.6c-.48,0-.732-.012-1.02-.036a7.97,7.97,0,0,1,.048,1.008V-.888A8.019,8.019,0,0,1,13.584.144h1.548V-.7Zm0-1.368h-5.76V-7.38h5.76ZM35.2-.852c-1.452-1.4-1.452-1.4-1.752-1.668a18.6,18.6,0,0,0-2.22-1.74A15.893,15.893,0,0,0,33.1-7.572a2.308,2.308,0,0,1,.384-.648l-.792-.816A2.6,2.6,0,0,1,31.62-8.9l-4.224.06h-.288a5.252,5.252,0,0,1-1.056-.072L26.1-7.38a9.457,9.457,0,0,1,1.308-.1c3.78-.06,3.78-.06,3.972-.072l-.132.312a11.567,11.567,0,0,1-4.032,4.884,9.907,9.907,0,0,1-2.4,1.32A4.814,4.814,0,0,1,25.788.3,14.261,14.261,0,0,0,30.36-3.168,23.068,23.068,0,0,1,34.044.4Zm6.024-7H38.58a8.375,8.375,0,0,1-1.536-.084v1.476a11.89,11.89,0,0,1,1.512-.06H41.22V-.708A8.331,8.331,0,0,1,41.148.648H42.78A10.227,10.227,0,0,1,42.72-.7v-5.82h2.772a11.99,11.99,0,0,1,1.524.06V-7.932a8.446,8.446,0,0,1-1.548.084H42.72v-.636a9.923,9.923,0,0,1,.048-1.272h-1.62A6.636,6.636,0,0,1,41.22-8.52Zm-2.688,2.2a6.1,6.1,0,0,1-.348,1.476A8.6,8.6,0,0,1,36.5-1.02,5.18,5.18,0,0,1,37.9-.252a12.384,12.384,0,0,0,2.016-4.656c.048-.216.06-.228.1-.372Zm5.388.36a3.278,3.278,0,0,1,.192.564A16.017,16.017,0,0,0,46.08-.24a8.811,8.811,0,0,1,1.38-.84,11.112,11.112,0,0,1-1.7-3.228,7.7,7.7,0,0,1-.42-1.344Zm4.932,1.524a13.174,13.174,0,0,1,1.956-.06H57.18a13.174,13.174,0,0,1,1.956.06V-5.436a11.785,11.785,0,0,1-1.944.084H50.8a11.785,11.785,0,0,1-1.944-.084ZM62.436-9.384a6.031,6.031,0,0,1,.048,1.092c0,3.36-.276,4.908-1.14,6.288a4.93,4.93,0,0,1-1.236,1.38A4.271,4.271,0,0,1,61.32.54a7.642,7.642,0,0,0,1.656-2.22,11.236,11.236,0,0,0,.972-4.932,25.075,25.075,0,0,1,.12-2.688Zm3.18-.084a5.193,5.193,0,0,1,.048.792v.36L65.6-1.548A5.378,5.378,0,0,1,65.5-.276l.768.816A5.221,5.221,0,0,1,66.78.324a7.925,7.925,0,0,0,2.556-1.44,7.447,7.447,0,0,0,1.908-2.8A5.03,5.03,0,0,1,70.116-5.04a5.864,5.864,0,0,1-1.176,2.2A4.824,4.824,0,0,1,67.1-1.476l.06-6.828a6.5,6.5,0,0,1,.084-1.14ZM82.9.216C82.344-.3,82.068-.576,81.684-.96l-.876-.888A7.834,7.834,0,0,0,82.344-4.56l-1.236-.6a5.925,5.925,0,0,1-1.164,2.424L77.8-4.9a7.945,7.945,0,0,0,1.3-.7,2.117,2.117,0,0,0,.972-1.824c0-1.284-1.1-2.124-2.772-2.124-1.728,0-2.832.864-2.832,2.22a2.5,2.5,0,0,0,.8,1.764l.36.384a4.617,4.617,0,0,0-1.512,1,2.6,2.6,0,0,0-.792,1.9,2.622,2.622,0,0,0,.72,1.86,3.415,3.415,0,0,0,2.484.84A4.906,4.906,0,0,0,78.288.108a5.01,5.01,0,0,0,1.428-.864l.192.2a8.807,8.807,0,0,1,.624.768ZM76.524-6.2a1.369,1.369,0,0,1-.5-1.044c0-.66.492-1.068,1.284-1.068s1.272.4,1.272,1.044a1.092,1.092,0,0,1-.528.948,6.1,6.1,0,0,1-1.116.54Zm2.34,4.488a3.308,3.308,0,0,1-2.208.84c-1.08,0-1.776-.6-1.776-1.536a1.49,1.49,0,0,1,.492-1.128,3.889,3.889,0,0,1,1.092-.7Zm12.768-3.3h-.888a5.859,5.859,0,0,1-.936-.048v1.248a6.342,6.342,0,0,1,.9-.048h.924v1.392H90.84a5.614,5.614,0,0,1-.876-.036v1.176c.288-.024.468-.036.84-.036H93.78a5.6,5.6,0,0,1,.864.048v-1.2a5.079,5.079,0,0,1-.84.048h-.948V-3.864h1.188a6.757,6.757,0,0,1,.948.048v-1.26a5.385,5.385,0,0,1-.948.06H92.856V-6.372a15,15,0,0,0,1.824-.456l-.636-1.056a11.925,11.925,0,0,1-4.356.8,3.706,3.706,0,0,1,.432,1.092c.684-.072.924-.108,1.512-.192ZM86.124-2.8c.084.12.168.276.312.516a6.15,6.15,0,0,0,.684,1.056,5.87,5.87,0,0,1-1.62,1.2,5.761,5.761,0,0,1,.768,1.032A6.544,6.544,0,0,0,88-.408c1.224.924,2.448,1.2,5.292,1.2.384,0,.4,0,1.68-.024a6.067,6.067,0,0,1,.372-1.38c-1.14.084-1.9.12-2.82.12-1.968,0-2.94-.2-3.888-.84a8.783,8.783,0,0,0,.888-2.916c.024-.156.036-.264.036-.276.036-.192.036-.192.048-.288a4.1,4.1,0,0,1-.636.036h-.876A11.868,11.868,0,0,0,89.3-6.288a4.512,4.512,0,0,1,.336-.468l-.612-.708a5.423,5.423,0,0,1-.816.036h-.828a3.582,3.582,0,0,1-.8-.06V-6.3a3.927,3.927,0,0,1,.708-.048h.732a8.247,8.247,0,0,1-1.656,1.884l.408.768a5.358,5.358,0,0,1,.7-.024h.84a5.621,5.621,0,0,1-.516,1.572,4.157,4.157,0,0,1-.636-1.26ZM89.22-9.2H86.244c-.528,0-.96-.024-1.428-.06A8.283,8.283,0,0,1,84.864-8.2V-7.1a30.1,30.1,0,0,1-.252,4.644,6.974,6.974,0,0,1-.744,2.34A4.825,4.825,0,0,1,84.84.936a8.543,8.543,0,0,0,.888-2.52,31.946,31.946,0,0,0,.4-6.48H93.96a7.253,7.253,0,0,1,1.1.06V-9.276a11.165,11.165,0,0,1-1.4.072H90.516v-.228a3.39,3.39,0,0,1,.06-.7H89.16a2.676,2.676,0,0,1,.06.672Zm11.712,2.16v.492H98.976a4.974,4.974,0,0,1-.96-.06v1.044a5.578,5.578,0,0,1,.936-.06h5.4a5.2,5.2,0,0,1,.912.06V-6.612a4.773,4.773,0,0,1-.936.06H102.18v-.492h1.692a6.837,6.837,0,0,1,.96.048v-1a5.128,5.128,0,0,1-.96.06H102.18a3.144,3.144,0,0,1,.048-.48h-1.344c.024.156.036.288.048.48h-1.44a5.31,5.31,0,0,1-1.008-.06v1a7.766,7.766,0,0,1,1-.048ZM106.86,1.02a11.6,11.6,0,0,1-.072-1.56v-7.8a12.266,12.266,0,0,1,.06-1.44,11.493,11.493,0,0,1-1.4.06h-7.62a11.374,11.374,0,0,1-1.4-.06,13.276,13.276,0,0,1,.072,1.44V-.552A13.838,13.838,0,0,1,96.42,1.02h1.332V.528h7.776V1.02ZM97.752-8.652h7.764V-.528H97.752V-1.776a3.309,3.309,0,0,1,.756.888,9.148,9.148,0,0,0,2.208-1.452c0,.1-.012.312-.012.384v.516a3.9,3.9,0,0,1-.048.684h1.3a3.729,3.729,0,0,1-.048-.684v-.516c0-.2,0-.2-.012-.42A8.175,8.175,0,0,0,104.58-.72a8.519,8.519,0,0,1,.768-.984,8.694,8.694,0,0,1-1.212-.384,6.738,6.738,0,0,0,.708-.552,2.337,2.337,0,0,1,.216-.2l-.5-.288a4.2,4.2,0,0,1-.024-.636v-.876a4.656,4.656,0,0,1,.024-.648,6.687,6.687,0,0,1-.792.024H99.516a6.8,6.8,0,0,1-.792-.024,3.633,3.633,0,0,1,.036.648v.876a4.994,4.994,0,0,1-.036.648c.252-.012.252-.012.792-.024h.7a6.612,6.612,0,0,1-1.38.888c-.216.108-.576.252-1.08.444Zm6.012,5.508H104a5.843,5.843,0,0,1-.708.636,6.065,6.065,0,0,1-.924-.636Zm-3.8-1.272h3.36V-4H99.96Z" transform="translate(23.748 16.871)" fill="#001c10" />
          <path d="M86.625,0a4.5,4.5,0,0,0-4.5,4.5c0,2.485,4,8.75,4.5,8.75s4.5-6.264,4.5-8.75A4.5,4.5,0,0,0,86.625,0Zm0,6.222A1.721,1.721,0,1,1,88.346,4.5,1.721,1.721,0,0,1,86.625,6.222Z" transform="translate(-70.602 5.246)" fill="#53b492" />
        </g>
      </a>
      <a href="#irabu-zArch">
        <g transform="translate(189)">
          <rect width="81" height="24" rx="12" fill="#e7f8f2" />
          <path d="M9.888-1.284a14.537,14.537,0,0,1-1.74.084h-3c-.384,0-.78.012-1,.012a8.659,8.659,0,0,0,.6-.708L8.664-6.84A11.917,11.917,0,0,1,9.672-8V-9.372c-.456.024-1.092.036-1.56.036H4.236A14.919,14.919,0,0,1,2.544-9.42v1.584A14.5,14.5,0,0,1,4.236-7.92H6.78c.2,0,.612-.012.852-.024-.024.036-.2.24-.528.624L3.1-2.28a9.062,9.062,0,0,1-.972,1.116V.252c.468-.024.8-.036,1.56-.036H8.148A12.45,12.45,0,0,1,9.888.3Zm12.54-7.9a3.3,3.3,0,0,1-1.164.108H15a9.567,9.567,0,0,1-1.656-.1v1.5a11.535,11.535,0,0,1,1.632-.072h6.3a4.976,4.976,0,0,1-1.14,1.524,5.565,5.565,0,0,1-1.752,1.1,4.056,4.056,0,0,1,1.08,1.092,7.506,7.506,0,0,0,1.44-1,7.615,7.615,0,0,0,1.848-2.412,3.335,3.335,0,0,1,.48-.84Zm-5.7,2.424a3.039,3.039,0,0,1,.06.72c0,2.268-.384,3.3-1.608,4.272a5.533,5.533,0,0,1-2.1,1.02A4.236,4.236,0,0,1,14.028.624a6.934,6.934,0,0,0,3.1-2.16,6.5,6.5,0,0,0,1.188-4.248,5.509,5.509,0,0,1,.048-.972Zm7.644,2.988a13.174,13.174,0,0,1,1.956-.06H32.7a13.173,13.173,0,0,1,1.956.06V-5.436a11.784,11.784,0,0,1-1.944.084h-6.4a11.785,11.785,0,0,1-1.944-.084ZM44.64-9.744a6.311,6.311,0,0,1-1.452.564,20.715,20.715,0,0,1-5.136.7c-.18,0-.372,0-.744-.024a5.036,5.036,0,0,1,.444,1.3,26.852,26.852,0,0,0,3.324-.276c0,.84,0,1.308-.024,1.812H37.98a7.439,7.439,0,0,1-1.464-.084v1.44a10.965,10.965,0,0,1,1.44-.06H40.92a6.9,6.9,0,0,1-.132.8,3.83,3.83,0,0,1-1.38,2.04,5.534,5.534,0,0,1-1.86,1.008A3.887,3.887,0,0,1,38.592.744a7.482,7.482,0,0,0,1.116-.6,6.205,6.205,0,0,0,1.956-1.908,6.291,6.291,0,0,0,.8-2.616H45.12a10.965,10.965,0,0,1,1.44.06V-5.76a7.439,7.439,0,0,1-1.464.084H42.552c.024-.408.024-.408.036-2.028a14.841,14.841,0,0,0,2-.492c.864-.288.864-.288,1.008-.324Z" transform="translate(23.295 17)" fill="#001c10" />
          <path d="M86.625,0a4.5,4.5,0,0,0-4.5,4.5c0,2.485,4,8.75,4.5,8.75s4.5-6.264,4.5-8.75A4.5,4.5,0,0,0,86.625,0Zm0,6.222A1.721,1.721,0,1,1,88.346,4.5,1.721,1.721,0,0,1,86.625,6.222Z" transform="translate(-70.95 5.375)" fill="#53b492" />
        </g>
      </a>
      <a href="#irabu-snakeHole">
        <g transform="translate(526 105.926)">
          <rect width="198" height="24" rx="12" fill="#e7f8f2" />
          <path d="M11.2-.852c-1.452-1.4-1.452-1.4-1.752-1.668a18.6,18.6,0,0,0-2.22-1.74A15.893,15.893,0,0,0,9.1-7.572,2.308,2.308,0,0,1,9.48-8.22l-.792-.816A2.6,2.6,0,0,1,7.62-8.9L3.4-8.844H3.108a5.252,5.252,0,0,1-1.056-.072L2.1-7.38a9.457,9.457,0,0,1,1.308-.1c3.78-.06,3.78-.06,3.972-.072l-.132.312A11.567,11.567,0,0,1,3.216-2.352a9.907,9.907,0,0,1-2.4,1.32A4.814,4.814,0,0,1,1.788.3,14.261,14.261,0,0,0,6.36-3.168,23.068,23.068,0,0,1,10.044.4ZM18.684.768A5.379,5.379,0,0,1,18.624-.3V-2.94c0-.108-.012-.444-.024-.588.12.06.144.06.3.132a21.406,21.406,0,0,1,3.66,1.92l.792-1.26A19.582,19.582,0,0,0,19.164-4.62a15.479,15.479,0,0,0,2.448-2.244,2.816,2.816,0,0,1,.528-.516l-.7-.816a2.532,2.532,0,0,1-.816.108H18.6v-1a3.877,3.877,0,0,1,.06-.84H17.052a4.954,4.954,0,0,1,.06.864v.984h-2a6.164,6.164,0,0,1-1.284-.108v1.452a8.853,8.853,0,0,1,1.272-.06c4.32-.024,4.32-.024,4.392-.036h.252a12.869,12.869,0,0,1-3.72,2.544,14.939,14.939,0,0,1-3.336,1.116,4.96,4.96,0,0,1,.708,1.308A19,19,0,0,0,16.776-3.2a2.061,2.061,0,0,0,.36-.228V-.3A7.236,7.236,0,0,1,17.064.768Zm6.168-4.536a13.174,13.174,0,0,1,1.956-.06H33.18a13.174,13.174,0,0,1,1.956.06V-5.436a11.785,11.785,0,0,1-1.944.084H26.8a11.785,11.785,0,0,1-1.944-.084Zm20.88-4.668a2.126,2.126,0,0,1-.876.12l-2.628.036c-.228,0-.42.012-.576.024a2.83,2.83,0,0,0,.192-.384L42-8.952a2.422,2.422,0,0,1,.156-.336,2.454,2.454,0,0,1,.2-.372l-1.644-.324A4.479,4.479,0,0,1,40.1-8.4,9.231,9.231,0,0,1,37-4.92,3.188,3.188,0,0,1,38.16-3.888,11.745,11.745,0,0,0,40.968-6.96l3.612-.06a9.5,9.5,0,0,1-3.5,5.064A10.807,10.807,0,0,1,38.448-.54,3.7,3.7,0,0,1,39.468.72,12.123,12.123,0,0,0,43.74-2.328,12.447,12.447,0,0,0,46.2-6.96a2.257,2.257,0,0,1,.3-.72Zm7.488.588H50.58a8.375,8.375,0,0,1-1.536-.084v1.476a11.89,11.89,0,0,1,1.512-.06H53.22V-.708A8.331,8.331,0,0,1,53.148.648H54.78A10.227,10.227,0,0,1,54.72-.7v-5.82h2.772a11.99,11.99,0,0,1,1.524.06V-7.932a8.446,8.446,0,0,1-1.548.084H54.72v-.636a9.923,9.923,0,0,1,.048-1.272h-1.62A6.636,6.636,0,0,1,53.22-8.52Zm-2.688,2.2a6.1,6.1,0,0,1-.348,1.476A8.6,8.6,0,0,1,48.5-1.02,5.18,5.18,0,0,1,49.9-.252a12.384,12.384,0,0,0,2.016-4.656c.048-.216.06-.228.1-.372Zm5.388.36a3.278,3.278,0,0,1,.192.564A16.017,16.017,0,0,0,58.08-.24a8.811,8.811,0,0,1,1.38-.84,11.112,11.112,0,0,1-1.7-3.228,7.7,7.7,0,0,1-.42-1.344Zm4.932,1.524a13.174,13.174,0,0,1,1.956-.06H69.18a13.174,13.174,0,0,1,1.956.06V-5.436a11.785,11.785,0,0,1-1.944.084H62.8a11.785,11.785,0,0,1-1.944-.084ZM74.436-9.384a6.031,6.031,0,0,1,.048,1.092c0,3.36-.276,4.908-1.14,6.288a4.93,4.93,0,0,1-1.236,1.38A4.271,4.271,0,0,1,73.32.54a7.642,7.642,0,0,0,1.656-2.22,11.236,11.236,0,0,0,.972-4.932,25.075,25.075,0,0,1,.12-2.688Zm3.18-.084a5.193,5.193,0,0,1,.048.792v.36L77.6-1.548A5.378,5.378,0,0,1,77.5-.276l.768.816A5.221,5.221,0,0,1,78.78.324a7.925,7.925,0,0,0,2.556-1.44,7.447,7.447,0,0,0,1.908-2.8A5.03,5.03,0,0,1,82.116-5.04a5.864,5.864,0,0,1-1.176,2.2A4.824,4.824,0,0,1,79.1-1.476l.06-6.828a6.5,6.5,0,0,1,.084-1.14ZM93.756.144c-.552-.516-.828-.792-1.212-1.176l-.876-.888A7.834,7.834,0,0,0,93.2-4.632l-1.236-.6A5.925,5.925,0,0,1,90.8-2.808l-2.148-2.16a7.945,7.945,0,0,0,1.3-.7,2.117,2.117,0,0,0,.972-1.824c0-1.284-1.1-2.124-2.772-2.124-1.728,0-2.832.864-2.832,2.22a2.5,2.5,0,0,0,.8,1.764l.36.384a4.617,4.617,0,0,0-1.512,1,2.6,2.6,0,0,0-.792,1.9,2.622,2.622,0,0,0,.72,1.86,3.415,3.415,0,0,0,2.484.84A4.906,4.906,0,0,0,89.148.036a5.01,5.01,0,0,0,1.428-.864l.192.2a8.807,8.807,0,0,1,.624.768Zm-6.372-6.42a1.369,1.369,0,0,1-.5-1.044c0-.66.492-1.068,1.284-1.068s1.272.4,1.272,1.044a1.092,1.092,0,0,1-.528.948,6.1,6.1,0,0,1-1.116.54Zm2.34,4.488a3.308,3.308,0,0,1-2.208.84c-1.08,0-1.776-.6-1.776-1.536a1.49,1.49,0,0,1,.492-1.128,3.889,3.889,0,0,1,1.092-.7Zm7.608-7.2v.168a8.805,8.805,0,0,1-.108,1.164A14.594,14.594,0,0,1,96.1-3.54,8.086,8.086,0,0,1,94.38-.984,5.26,5.26,0,0,1,95.748.048,11.457,11.457,0,0,0,97.872-3.66a21.469,21.469,0,0,0,.948-4.1,5.08,5.08,0,0,1,.156-.924ZM100.9-8.7a5.979,5.979,0,0,1,.168.864,18.8,18.8,0,0,0,1.14,4.368A12.606,12.606,0,0,0,104.244.06a5.172,5.172,0,0,1,1.32-1.1,11.606,11.606,0,0,1-2.676-5.184,15.534,15.534,0,0,1-.5-2.76Zm12.156,1.872c0-.132,0-.132.012-.924l.012-.72a7.569,7.569,0,0,1,.06-1.152H111.48a7.553,7.553,0,0,1,.06,1.152v.708c0,.216,0,.432-.012.936H108.5a8.674,8.674,0,0,1-1.56-.084V-5.4a12.326,12.326,0,0,1,1.536-.06h2.976a5.188,5.188,0,0,1-.588,2.412,5.54,5.54,0,0,1-2.892,2.364,3.727,3.727,0,0,1,1.092,1.3,7.225,7.225,0,0,0,3.06-2.688,6.624,6.624,0,0,0,.864-3.384h2.46a12.326,12.326,0,0,1,1.536.06V-6.912a8.6,8.6,0,0,1-1.56.084Zm14.8-1.284.444-.144a7.4,7.4,0,0,0-1.1-1.86l-.924.276a7.634,7.634,0,0,1,.864,1.356c-.132.024-.408.036-.66.048l-2.5.024h-.288c-.18.012-.216.012-.336.024.06-.108.084-.156.288-.576a7.207,7.207,0,0,1,.36-.684L122.436-10a6.464,6.464,0,0,1-.708,1.668,10.523,10.523,0,0,1-3,3.432,3.809,3.809,0,0,1,1.2.96,12.914,12.914,0,0,0,2.808-3.228l3.732-.036a11.708,11.708,0,0,1-1.344,2.832,16.535,16.535,0,0,0-2.412-1.608L121.8-4.908a14.178,14.178,0,0,1,2.46,1.7,10.8,10.8,0,0,1-4.308,2.868,4.179,4.179,0,0,1,1,1.248,11.922,11.922,0,0,0,6.912-7.668,2.511,2.511,0,0,1,.372-.8Zm2.064-.6a6.842,6.842,0,0,0-1.1-1.8l-.888.288a8.738,8.738,0,0,1,1.068,1.836Zm8.256-1.032A9.6,9.6,0,0,1,135.936-7.5a17.525,17.525,0,0,1-6.3,3.12,4.514,4.514,0,0,1,.8,1.368,19.443,19.443,0,0,0,4.284-1.944V-.732a6.748,6.748,0,0,1-.072,1.3h1.68a9.077,9.077,0,0,1-.06-1.332V-5.892A21.221,21.221,0,0,0,139.1-8.364a4.941,4.941,0,0,1,.444-.42Zm9.768,2.052a2.623,2.623,0,0,1,1.212.36,2.973,2.973,0,0,1,1.476,2.664,3.36,3.36,0,0,1-1.668,3,6.377,6.377,0,0,1-2.388.66A3.828,3.828,0,0,1,147.3.4a7.845,7.845,0,0,0,1.884-.5A4.623,4.623,0,0,0,152.1-4.584c0-2.7-1.872-4.452-4.752-4.452a5.387,5.387,0,0,0-4.128,1.68,5.155,5.155,0,0,0-1.32,3.492c0,1.932.984,3.324,2.352,3.324.984,0,1.752-.708,2.436-2.256A17.36,17.36,0,0,0,147.936-7.692Zm-1.464.012a15.815,15.815,0,0,1-1,4.056c-.432,1.032-.84,1.536-1.236,1.536-.528,0-.948-.78-.948-1.764a4.018,4.018,0,0,1,1.632-3.24A3.055,3.055,0,0,1,146.472-7.68Zm17,3.444a1.425,1.425,0,0,1,.3.024,10.83,10.83,0,0,1-.036-1.272V-8.34a11.921,11.921,0,0,1,.036-1.308,8.174,8.174,0,0,1-1.26.06h-3.192a11.8,11.8,0,0,1-1.26-.048c.036.408.048.732.048,1.26v7.8a5.777,5.777,0,0,1-1.1.144l.24,1.344c.2-.048.276-.072.66-.144a26.759,26.759,0,0,0,3.48-.972l-.036-1.152a19.757,19.757,0,0,1-1.968.516V-4.26h.852a7.894,7.894,0,0,0,2.04,3.888A7.686,7.686,0,0,0,163.848.912a4.922,4.922,0,0,1,.912-1.188,5.939,5.939,0,0,1-2.208-1.68A12.9,12.9,0,0,0,164.4-3.372Zm-.8-.024c.312,0,.456,0,.756.012a5.967,5.967,0,0,1-1.5,1.32,4.432,4.432,0,0,1-.48-1.332Zm-3.288-3.18V-8.472h3.084V-7.44Zm0,1.032h3.084v1.056h-3.084ZM157.008-6.7a4.787,4.787,0,0,1,.708.048V-7.92a4.047,4.047,0,0,1-.732.048h-.516V-8.88a8.384,8.384,0,0,1,.06-1.248h-1.38a8.092,8.092,0,0,1,.06,1.248v1.008H154.5a4.873,4.873,0,0,1-.8-.048v1.272a5.906,5.906,0,0,1,.8-.048h.6a9.705,9.705,0,0,1-1.788,3.708,3.812,3.812,0,0,1,.708,1.164,8.774,8.774,0,0,0,1.26-2.532c-.048.732-.06,1.224-.06,1.7V-.444a12.1,12.1,0,0,1-.072,1.464h1.392a11.827,11.827,0,0,1-.072-1.464V-3.312c0-.744-.024-1.344-.06-1.74a6.584,6.584,0,0,0,.8,1.524,4.043,4.043,0,0,1,.78-1,5.682,5.682,0,0,1-.972-1.248,4.92,4.92,0,0,1-.48-.924Z" transform="translate(22.969 17.006)" fill="#001c10" />
          <path d="M86.625,0a4.5,4.5,0,0,0-4.5,4.5c0,2.485,4,8.75,4.5,8.75s4.5-6.264,4.5-8.75A4.5,4.5,0,0,0,86.625,0Zm0,6.222A1.721,1.721,0,1,1,88.346,4.5,1.721,1.721,0,0,1,86.625,6.222Z" transform="translate(-71.37 6.309)" fill="#53b492" />
        </g>
      </a>
      <a href="#irabu-funausagi">
        <g transform="translate(526 136.904)">
          <rect width="129" height="24" rx="12" fill="#e7f8f2" />
          <path d="M9.816-8.868a4.386,4.386,0,0,1-1.284.12H3.024a8.453,8.453,0,0,1-1.536-.084v1.56A9.526,9.526,0,0,1,3-7.344H8.712A8.314,8.314,0,0,1,5.076-2.112,9.763,9.763,0,0,1,2.448-.888,4.416,4.416,0,0,1,3.5.54,11.684,11.684,0,0,0,7.968-2.52a11.28,11.28,0,0,0,2.46-5.028,1.8,1.8,0,0,1,.2-.54Zm9.276,2.04c0-.132,0-.132.012-.924l.012-.72a7.57,7.57,0,0,1,.06-1.152H17.52a7.553,7.553,0,0,1,.06,1.152v.708c0,.216,0,.432-.012.936H14.544a8.674,8.674,0,0,1-1.56-.084V-5.4a12.326,12.326,0,0,1,1.536-.06H17.5a5.188,5.188,0,0,1-.588,2.412A5.54,5.54,0,0,1,14.016-.684a3.727,3.727,0,0,1,1.092,1.3,7.225,7.225,0,0,0,3.06-2.688,6.625,6.625,0,0,0,.864-3.384h2.46a12.326,12.326,0,0,1,1.536.06V-6.912a8.6,8.6,0,0,1-1.56.084ZM34.068-8.016c-.288.1-.288.1-1.176.1h-2.16V-8.952a5.488,5.488,0,0,1,.06-.864H29.124a4.623,4.623,0,0,1,.06.876v1.032H26.832a9.334,9.334,0,0,1-1.3-.06,9.838,9.838,0,0,1,.048,1.14v1.74a8.928,8.928,0,0,1-.06,1.008h1.608c-.024-.264-.036-.588-.036-.96V-6.588h5.856a5.935,5.935,0,0,1-2.88,4.812,7.892,7.892,0,0,1-2.556,1,4.4,4.4,0,0,1,.96,1.428,10.88,10.88,0,0,0,2.388-1.08,7.026,7.026,0,0,0,2.964-3.312,10.072,10.072,0,0,0,.756-2.9,1.91,1.91,0,0,1,.18-.66Zm6.36.624V-8.628a6,6,0,0,1,.048-1.032H38.9a6.4,6.4,0,0,1,.06,1.068v1.2h-.708a8.518,8.518,0,0,1-1.56-.084v1.464a12.208,12.208,0,0,1,1.536-.06h.732V-4.3a7.9,7.9,0,0,1-.048,1.032h1.56a7.387,7.387,0,0,1-.048-1.008v-1.8h3.108c-.024.828-.024,1.116-.048,1.392A3.747,3.747,0,0,1,42.216-1.8,5.573,5.573,0,0,1,39.924-.66a3.565,3.565,0,0,1,.9,1.272,6.67,6.67,0,0,0,2.34-1.26,4.806,4.806,0,0,0,1.728-3.444,14.547,14.547,0,0,0,.084-1.98h.8a12.208,12.208,0,0,1,1.536.06V-7.476a8.518,8.518,0,0,1-1.56.084h-.768C45-8.112,45-8.112,45-8.844a4.432,4.432,0,0,1,.048-.8H43.5a7.648,7.648,0,0,1,.06,1.332v.384l-.012.54Zm13.608-.12-.192-1.044A6.881,6.881,0,0,1,53.7-9.684l-1.584.252a5.59,5.59,0,0,1,.288,1.14l.18,1.008-2.232.348a8.845,8.845,0,0,1-1.32.132l.24,1.476a11.073,11.073,0,0,1,1.32-.264l2.232-.348.36,1.968L50.268-3.5A8.732,8.732,0,0,1,49-3.384l.24,1.464a8.277,8.277,0,0,1,1.224-.252l2.964-.468.432,2.364A8.036,8.036,0,0,1,54.012.972L55.62.7a7.9,7.9,0,0,1-.288-1.248L54.9-2.868l2.856-.456.48-.072.192-.036a4.106,4.106,0,0,1,.552-.048l-.264-1.452a8.321,8.321,0,0,1-1.248.276l-2.82.456-.36-1.968,2.532-.4.684-.108.1-.024c.132-.012.192-.012.372-.024l-.18-1.068.612-.24a8.025,8.025,0,0,0-1.068-1.9L56.46-9.6a7.71,7.71,0,0,1,.9,1.548c-.18.036-.516.1-.792.144ZM59.9-8.652a7,7,0,0,0-1.056-1.824L58-10.14a8.6,8.6,0,0,1,1.032,1.86Zm3.048-.336v.168a8.8,8.8,0,0,1-.108,1.164A14.594,14.594,0,0,1,61.716-3.54,8.087,8.087,0,0,1,60-.984,5.192,5.192,0,0,1,61.368.048c1.608-1.848,2.544-4.212,3.048-7.656l.036-.288.06-.348.024-.2a1.383,1.383,0,0,1,.06-.24Zm3.564.288a5.042,5.042,0,0,1,.168.864,15.9,15.9,0,0,0,3.18,7.9,4.939,4.939,0,0,1,1.32-1.1,11.623,11.623,0,0,1-2.676-5.184,14.868,14.868,0,0,1-.5-2.76Zm3.5-.96a1.388,1.388,0,0,0-1.38,1.38,1.391,1.391,0,0,0,1.38,1.392A1.393,1.393,0,0,0,71.412-8.28,1.391,1.391,0,0,0,70.02-9.66Zm0,.6a.781.781,0,0,1,.792.78.791.791,0,0,1-.792.792.789.789,0,0,1-.78-.792A.778.778,0,0,1,70.02-9.06Zm8.712,2.232c0-.132,0-.132.012-.924l.012-.72a7.569,7.569,0,0,1,.06-1.152H77.16a7.553,7.553,0,0,1,.06,1.152v.708c0,.216,0,.432-.012.936H74.184a8.674,8.674,0,0,1-1.56-.084V-5.4a12.326,12.326,0,0,1,1.536-.06h2.976a5.188,5.188,0,0,1-.588,2.412A5.54,5.54,0,0,1,73.656-.684a3.727,3.727,0,0,1,1.092,1.3,7.225,7.225,0,0,0,3.06-2.688,6.624,6.624,0,0,0,.864-3.384h2.46a12.326,12.326,0,0,1,1.536.06V-6.912a8.6,8.6,0,0,1-1.56.084Zm14.64-1.788a3.15,3.15,0,0,1-1.056.144c-2.928.024-2.928.024-3.12.048A5.981,5.981,0,0,0,89.484-9a6.321,6.321,0,0,1,.36-.672l-1.56-.348a7.315,7.315,0,0,1-.7,1.668,10.316,10.316,0,0,1-3.012,3.42,3.809,3.809,0,0,1,1.2.96A12.415,12.415,0,0,0,88.584-7.2l3.732-.036A11.465,11.465,0,0,1,90.972-4.4,15.619,15.619,0,0,0,88.56-6.012l-.912,1.068a13.585,13.585,0,0,1,2.46,1.716A8.711,8.711,0,0,1,88.14-1.56,12.094,12.094,0,0,1,85.8-.36a3.809,3.809,0,0,1,1,1.236,11.718,11.718,0,0,0,5.472-4.584,20.127,20.127,0,0,0,1.536-3.3,2.149,2.149,0,0,1,.372-.8Z" transform="translate(22.707 17.107)" fill="#001c10" />
          <path d="M86.625,0a4.5,4.5,0,0,0-4.5,4.5c0,2.485,4,8.75,4.5,8.75s4.5-6.264,4.5-8.75A4.5,4.5,0,0,0,86.625,0Zm0,6.222A1.721,1.721,0,1,1,88.346,4.5,1.721,1.721,0,0,1,86.625,6.222Z" transform="translate(-71.37 5.482)" fill="#53b492" />
        </g>
      </a>
      <a href="#irabu-twinHole">
        <g transform="translate(609 192.865)">
          <rect width="106" height="24" rx="12" fill="#e7f8f2" />
          <path d="M1.02-8.22A14.518,14.518,0,0,1,2.388-4.644L3.864-5.1A15.3,15.3,0,0,0,2.412-8.628Zm3.156-.6A15.14,15.14,0,0,1,5.52-5.34l1.464-.468a15.374,15.374,0,0,0-1.44-3.4ZM9.3-8.94a9.459,9.459,0,0,1-.6,2.82,7.89,7.89,0,0,1-2.1,3.3A9.352,9.352,0,0,1,3.228-.732,4.6,4.6,0,0,1,4.284.612,10.741,10.741,0,0,0,10.644-7.4a5.354,5.354,0,0,1,.3-1.164Zm11.868-.8A9.6,9.6,0,0,1,18.936-7.5a17.525,17.525,0,0,1-6.3,3.12,4.514,4.514,0,0,1,.8,1.368,19.443,19.443,0,0,0,4.284-1.944V-.732a6.75,6.75,0,0,1-.072,1.3h1.68a9.078,9.078,0,0,1-.06-1.332V-5.892A21.22,21.22,0,0,0,22.1-8.364a4.943,4.943,0,0,1,.444-.42Zm4.3,2.04a12.6,12.6,0,0,1,3.06,2.436l1.032-1.308a17,17,0,0,0-3.1-2.316Zm.42,7.92a4.248,4.248,0,0,1,.792-.2,12.962,12.962,0,0,0,4.572-1.8,10.532,10.532,0,0,0,3.8-4.7A5.175,5.175,0,0,1,33.78-7.668a10.02,10.02,0,0,1-1.224,2.4,8.017,8.017,0,0,1-3.564,2.94,11.434,11.434,0,0,1-3.552.888ZM41.22-7.848H38.58a8.375,8.375,0,0,1-1.536-.084v1.476a11.89,11.89,0,0,1,1.512-.06H41.22V-.708A8.331,8.331,0,0,1,41.148.648H42.78A10.227,10.227,0,0,1,42.72-.7v-5.82h2.772a11.99,11.99,0,0,1,1.524.06V-7.932a8.446,8.446,0,0,1-1.548.084H42.72v-.636a9.923,9.923,0,0,1,.048-1.272h-1.62A6.636,6.636,0,0,1,41.22-8.52Zm-2.688,2.2a6.1,6.1,0,0,1-.348,1.476A8.6,8.6,0,0,1,36.5-1.02,5.18,5.18,0,0,1,37.9-.252a12.384,12.384,0,0,0,2.016-4.656c.048-.216.06-.228.1-.372Zm5.388.36a3.278,3.278,0,0,1,.192.564A16.017,16.017,0,0,0,46.08-.24a8.811,8.811,0,0,1,1.38-.84,11.112,11.112,0,0,1-1.7-3.228,7.7,7.7,0,0,1-.42-1.344Zm4.932,1.524a13.174,13.174,0,0,1,1.956-.06H57.18a13.174,13.174,0,0,1,1.956.06V-5.436a11.785,11.785,0,0,1-1.944.084H50.8a11.785,11.785,0,0,1-1.944-.084ZM62.436-9.384a6.031,6.031,0,0,1,.048,1.092c0,3.36-.276,4.908-1.14,6.288a4.93,4.93,0,0,1-1.236,1.38A4.271,4.271,0,0,1,61.32.54a7.642,7.642,0,0,0,1.656-2.22,11.236,11.236,0,0,0,.972-4.932,25.075,25.075,0,0,1,.12-2.688Zm3.18-.084a5.193,5.193,0,0,1,.048.792v.36L65.6-1.548A5.378,5.378,0,0,1,65.5-.276l.768.816A5.221,5.221,0,0,1,66.78.324a7.925,7.925,0,0,0,2.556-1.44,7.447,7.447,0,0,0,1.908-2.8A5.03,5.03,0,0,1,70.116-5.04a5.864,5.864,0,0,1-1.176,2.2A4.824,4.824,0,0,1,67.1-1.476l.06-6.828a6.5,6.5,0,0,1,.084-1.14Z" transform="translate(23.454 17.055)" fill="#001c10" />
          <path d="M86.625,0a4.5,4.5,0,0,0-4.5,4.5c0,2.485,4,8.75,4.5,8.75s4.5-6.264,4.5-8.75A4.5,4.5,0,0,0,86.625,0Zm0,6.222A1.721,1.721,0,1,1,88.346,4.5,1.721,1.721,0,0,1,86.625,6.222Z" transform="translate(-71.37 6.057)" fill="#53b492" />
        </g>
      </a>
      <a href="#irabu-chinsen">
        <g transform="translate(761 279.804)">
          <rect width="58" height="24" rx="12" fill="#e7f8f2" />
          <path d="M7.584-5.76a12.059,12.059,0,0,0,.192-1.3H9.9v1.944h1.332a6.312,6.312,0,0,1-.06-.972v-1.3a7.223,7.223,0,0,1,.048-.912,9.963,9.963,0,0,1-1.308.06H7.848a11.235,11.235,0,0,1,.12-1.788H6.516A7.36,7.36,0,0,1,6.564-9c0,.348,0,.348-.012.768h-1.6c-.54,0-.9-.012-1.3-.048a7.9,7.9,0,0,1,.048.96v1.2a9.224,9.224,0,0,1-.048,1H4.932V-7.056H6.48A8.714,8.714,0,0,1,4.524-1.812,6.908,6.908,0,0,1,2.676-.228,3.866,3.866,0,0,1,3.66.852,8.915,8.915,0,0,0,6-1.524,9.678,9.678,0,0,0,7.224-4.2V-.384c0,.936.3,1.116,1.86,1.116,1.116,0,1.6-.1,1.848-.384.3-.336.444-1.152.48-2.724a4.333,4.333,0,0,1-1.2-.468A11.358,11.358,0,0,1,10.1-.876c-.084.384-.18.42-1.068.42C8.58-.456,8.5-.5,8.5-.78V-4.692a7.134,7.134,0,0,1,.06-1.068ZM.84-9.12a10.327,10.327,0,0,1,2.1,1.728l.8-1.044a12.155,12.155,0,0,0-2.088-1.608ZM.4-6.12a10.191,10.191,0,0,1,2.16,1.656l.732-1.092A11.717,11.717,0,0,0,1.14-7.08Zm1.752,2.3A14.206,14.206,0,0,1,.852-.7,6.766,6.766,0,0,1,.42-.072L1.548.912C1.584.828,1.656.7,1.836.384c.12-.228.156-.3.432-.912a21.158,21.158,0,0,0,.96-2.508ZM14.484-7.164A7.779,7.779,0,0,1,15.12-5.52l.936-.432a9.594,9.594,0,0,0-.72-1.632ZM12.5-3.78c.3-.036.3-.036.672-.084a12.325,12.325,0,0,1-.252,2.28A4.908,4.908,0,0,1,12.276.06a4.059,4.059,0,0,1,1,.96,11.294,11.294,0,0,0,1.02-4.992l.468-.048v1.848a6.294,6.294,0,0,1-.06,1.08h1.08a8.515,8.515,0,0,1-.036-1.08V-4.14l.552-.072v3.6c0,.2-.048.252-.24.252a6.006,6.006,0,0,1-1.092-.108A3.6,3.6,0,0,1,15.2.768c.276.024.552.036.816.036C17.112.8,17.376.576,17.376-.36v-4l.4-.072L17.76-5.52l-.384.048V-8c0-.384.012-.7.036-.948a5.367,5.367,0,0,1-.96.06h-.744c.156-.372.324-.768.468-1.188l-1.3-.18a6.033,6.033,0,0,1-.408,1.368h-.384a7.055,7.055,0,0,1-.924-.048,16.284,16.284,0,0,1,.072,2.076c0,.636,0,.912-.024,1.812a3.853,3.853,0,0,1-.468.024c-.084,0-.216,0-.372-.012Zm1.848-4.068H16.3v2.532c-.7.084-1.284.132-1.968.192.012-.8.024-1.164.024-1.9ZM19.008-9.9A5.093,5.093,0,0,1,18.9-9a8.019,8.019,0,0,1-1.248,3.252,4.164,4.164,0,0,1,1.128.732,10.049,10.049,0,0,0,1.308-3.648c.036-.216.072-.348.072-.372.108-.468.108-.468.132-.6Zm1.788.252c.072.2.1.288.18.6a14.223,14.223,0,0,0,1.68,4.164,3.908,3.908,0,0,1,1.068-.84A9.752,9.752,0,0,1,22.3-8.8a7.338,7.338,0,0,1-.264-1.188ZM19.536.288H21.7V.912h1.32a9.27,9.27,0,0,1-.06-1.272v-3.3A9.077,9.077,0,0,1,23-4.752a6.867,6.867,0,0,1-1,.048H19.284a8.347,8.347,0,0,1-1.044-.048,9.01,9.01,0,0,1,.048,1.116V-.228a9.384,9.384,0,0,1-.06,1.152h1.308Zm0-3.84H21.7V-.876h-2.16Z" transform="translate(23.994 16.451)" fill="#001c10" />
          <path d="M86.625,0a4.5,4.5,0,0,0-4.5,4.5c0,2.485,4,8.75,4.5,8.75s4.5-6.264,4.5-8.75A4.5,4.5,0,0,0,86.625,0Zm0,6.222A1.721,1.721,0,1,1,88.346,4.5,1.721,1.721,0,0,1,86.625,6.222Z" transform="translate(-71.37 4.826)" fill="#53b492" />
        </g>
      </a>
      <circle cx="6.084" cy="6.084" r="6.084" transform="translate(138.23 99.203)" fill="#fff" />
      <path d="M6.084,4A2.084,2.084,0,1,0,8.168,6.084,2.086,2.086,0,0,0,6.084,4m0-4A6.084,6.084,0,1,1,0,6.084,6.084,6.084,0,0,1,6.084,0Z" transform="translate(138.23 99.203)" fill="#53b492" />
      <circle cx="6" cy="6" r="6" transform="translate(121.774 127.986)" fill="#fff" />
      <path d="M6,4A2,2,0,1,0,8,6,2,2,0,0,0,6,4M6,0A6,6,0,1,1,0,6,6,6,0,0,1,6,0Z" transform="translate(121.774 127.986)" fill="#53b492" />
      <circle cx="6" cy="6" r="6" transform="translate(160.828 101.808)" fill="#fff" />
      <path d="M6,4A2,2,0,1,0,8,6,2,2,0,0,0,6,4M6,0A6,6,0,1,1,0,6,6,6,0,0,1,6,0Z" transform="translate(160.828 101.808)" fill="#53b492" />
      <circle cx="6" cy="6" r="6" transform="translate(217.322 108.757)" fill="#fff" />
      <path d="M6,4A2,2,0,1,0,8,6,2,2,0,0,0,6,4M6,0A6,6,0,1,1,0,6,6,6,0,0,1,6,0Z" transform="translate(217.322 108.757)" fill="#53b492" />
      <circle cx="6" cy="6" r="6" transform="translate(273.817 109.364)" fill="#fff" />
      <path d="M6,4A2,2,0,1,0,8,6,2,2,0,0,0,6,4M6,0A6,6,0,1,1,0,6,6,6,0,0,1,6,0Z" transform="translate(273.817 109.364)" fill="#53b492" />
      <circle cx="6" cy="6" r="6" transform="translate(302.499 90.993)" fill="#fff" />
      <path d="M6,4A2,2,0,1,0,8,6,2,2,0,0,0,6,4M6,0A6,6,0,1,1,0,6,6,6,0,0,1,6,0Z" transform="translate(302.499 90.993)" fill="#53b492" />
      <circle cx="6" cy="6" r="6" transform="translate(320.751 116.312)" fill="#fff" />
      <path d="M6,4A2,2,0,1,0,8,6,2,2,0,0,0,6,4M6,0A6,6,0,1,1,0,6,6,6,0,0,1,6,0Z" transform="translate(320.751 116.312)" fill="#53b492" />
      <circle cx="6" cy="6" r="6" transform="translate(344.218 123.653)" fill="#fff" />
      <path d="M6,4A2,2,0,1,0,8,6,2,2,0,0,0,6,4M6,0A6,6,0,1,1,0,6,6,6,0,0,1,6,0Z" transform="translate(344.218 123.653)" fill="#53b492" />
      <circle cx="6" cy="6" r="6" transform="translate(415 137.419)" fill="#fff" />
      <path d="M6,4A2,2,0,1,0,8,6,2,2,0,0,0,6,4M6,0A6,6,0,1,1,0,6,6,6,0,0,1,6,0Z" transform="translate(415 137.419)" fill="#53b492" />
      <circle cx="6" cy="6" r="6" transform="translate(443.748 143.415)" fill="#fff" />
      <path d="M6,4A2,2,0,1,0,8,6,2,2,0,0,0,6,4M6,0A6,6,0,1,1,0,6,6,6,0,0,1,6,0Z" transform="translate(443.748 143.415)" fill="#53b492" />
      <circle cx="6" cy="6" r="6" transform="translate(586.71 212.983)" fill="#fff" />
      <path d="M6,4A2,2,0,1,0,8,6,2,2,0,0,0,6,4M6,0A6,6,0,1,1,0,6,6,6,0,0,1,6,0Z" transform="translate(586.71 212.983)" fill="#53b492" />
      <circle cx="6" cy="6" r="6" transform="translate(733.596 295.496)" fill="#fff" />
      <path d="M6,4A2,2,0,1,0,8,6,2,2,0,0,0,6,4M6,0A6,6,0,1,1,0,6,6,6,0,0,1,6,0Z" transform="translate(733.596 295.496)" fill="#53b492" />
      <a href="#irabu-dentarLock">
        <g transform="translate(342 95.933)">
          <rect width="164" height="24" rx="12" fill="#e7f8f2" />
          <path d="M8.664-9.252a7.553,7.553,0,0,1-1.548.084H3.588A7.7,7.7,0,0,1,2.04-9.252v1.464a9.915,9.915,0,0,1,1.524-.06H7.14a9.812,9.812,0,0,1,1.524.06Zm.756,4.4a10.542,10.542,0,0,1,1.524.06V-6.216A7.844,7.844,0,0,1,9.4-6.132H2.376A7.844,7.844,0,0,1,.828-6.216v1.428a10.542,10.542,0,0,1,1.524-.06H5.268C5.184-2.52,4.248-1.332,1.9-.588A3.815,3.815,0,0,1,2.88.744C5.592-.3,6.72-1.884,6.852-4.848Zm2.544-3.828A7.358,7.358,0,0,0,10.908-10.5l-.864.312a8.717,8.717,0,0,1,1.032,1.86ZM8.472-9.72A8.847,8.847,0,0,1,9.528-7.8l.9-.336a8.468,8.468,0,0,0-1.068-1.9ZM13.464-7.7a12.6,12.6,0,0,1,3.06,2.436l1.032-1.308a17,17,0,0,0-3.1-2.316Zm.42,7.92a4.248,4.248,0,0,1,.792-.2,12.962,12.962,0,0,0,4.572-1.8,10.532,10.532,0,0,0,3.8-4.7A5.175,5.175,0,0,1,21.78-7.668a10.02,10.02,0,0,1-1.224,2.4,8.017,8.017,0,0,1-3.564,2.94,11.434,11.434,0,0,1-3.552.888ZM33.732-8.616a3.15,3.15,0,0,1-1.056.144c-2.928.024-2.928.024-3.12.048A5.979,5.979,0,0,0,29.844-9a6.322,6.322,0,0,1,.36-.672l-1.56-.348a7.316,7.316,0,0,1-.7,1.668,10.316,10.316,0,0,1-3.012,3.42,3.809,3.809,0,0,1,1.2.96A12.415,12.415,0,0,0,28.944-7.2l3.732-.036A11.465,11.465,0,0,1,31.332-4.4,15.62,15.62,0,0,0,28.92-6.012l-.912,1.068a13.585,13.585,0,0,1,2.46,1.716A8.711,8.711,0,0,1,28.5-1.56a12.094,12.094,0,0,1-2.34,1.2,3.809,3.809,0,0,1,1,1.236,11.718,11.718,0,0,0,5.472-4.584,20.127,20.127,0,0,0,1.536-3.3,2.15,2.15,0,0,1,.372-.8Zm3.12,4.848a13.174,13.174,0,0,1,1.956-.06H45.18a13.174,13.174,0,0,1,1.956.06V-5.436a11.785,11.785,0,0,1-1.944.084H38.8a11.785,11.785,0,0,1-1.944-.084ZM56.892-.7V.132H58.44a8.225,8.225,0,0,1-.048-1.044V-7.776c0-.444.012-.684.036-1-.276.024-.492.036-1.008.036H50.6c-.48,0-.732-.012-1.02-.036a7.97,7.97,0,0,1,.048,1.008V-.888A8.019,8.019,0,0,1,49.584.144h1.548V-.7Zm0-1.368h-5.76V-7.38h5.76ZM61.92-6.528a12.005,12.005,0,0,1,1.092,2.9l1.356-.432A13.842,13.842,0,0,0,63.192-6.9Zm2.568-.5a13.2,13.2,0,0,1,1.092,2.82l1.332-.42a11.789,11.789,0,0,0-1.164-2.76Zm4.128-.12a5.323,5.323,0,0,1-.216,1.38,6.9,6.9,0,0,1-2.724,4.164,7.784,7.784,0,0,1-2.04,1.1A4.359,4.359,0,0,1,64.6.684a9.211,9.211,0,0,0,3.66-2.892,10.243,10.243,0,0,0,1.656-4,2.525,2.525,0,0,1,.168-.612ZM81.732-8.436a2.126,2.126,0,0,1-.876.12l-2.628.036c-.228,0-.42.012-.576.024a2.83,2.83,0,0,0,.192-.384L78-8.952a2.423,2.423,0,0,1,.156-.336,2.454,2.454,0,0,1,.2-.372l-1.644-.324A4.479,4.479,0,0,1,76.1-8.4,9.231,9.231,0,0,1,73-4.92,3.188,3.188,0,0,1,74.16-3.888,11.745,11.745,0,0,0,76.968-6.96l3.612-.06a9.5,9.5,0,0,1-3.5,5.064A10.807,10.807,0,0,1,74.448-.54,3.7,3.7,0,0,1,75.468.72,12.123,12.123,0,0,0,79.74-2.328,12.447,12.447,0,0,0,82.2-6.96a2.257,2.257,0,0,1,.3-.72Zm6.828,9.7a8.309,8.309,0,0,1-1.248-2.376,8.587,8.587,0,0,1-.384-2.6,8.3,8.3,0,0,1,.408-2.652A7.917,7.917,0,0,1,88.584-8.76l-1.272-.816a9.656,9.656,0,0,0-1.5,2.844,9.388,9.388,0,0,0-.468,2.988,9.13,9.13,0,0,0,.7,3.576,9.936,9.936,0,0,0,1.272,2.28Zm3.18-9.768a10.622,10.622,0,0,1-1.32-.06c.036.4.06.864.06,1.476v6.36a13.869,13.869,0,0,1-.072,1.6h1.416V.252h6.084V.864h1.44a13.128,13.128,0,0,1-.072-1.572V-7.08c0-.624.024-1.056.06-1.488a11.673,11.673,0,0,1-1.38.06H94.9a10.312,10.312,0,0,0,.54-1.044.494.494,0,0,0,.036-.1c.036-.06.048-.1.06-.108.06-.132.06-.132.084-.192l-1.524-.2a6.966,6.966,0,0,1-.7,1.644Zm.084,1.26h6.084v2.412H91.824Zm0,3.672h6.084v2.532H91.824ZM103.908-9.12a8.019,8.019,0,0,1-1.032-.048,9.789,9.789,0,0,1,.048,1.08V-3.4a11.453,11.453,0,0,1-.048,1.236c.384-.024.564-.024.96-.024h6.852A9.013,9.013,0,0,1,110.5-.84c-.108.456-.228.564-.66.564-.2,0-.624-.024-.948-.06l.9-.372A10.05,10.05,0,0,0,109.1-2.1l-.948.336a12.055,12.055,0,0,1,.576,1.4l-.192-.024a5.03,5.03,0,0,1,.288,1.236c.228.024.588.036.936.036,1.044,0,1.452-.192,1.74-.828a9.6,9.6,0,0,0,.48-2.736c.024-.216.048-.408.084-.6a5.556,5.556,0,0,1-.888.048h-7v-.5h6.9a8.331,8.331,0,0,1,1.164.06V-4.848a7.574,7.574,0,0,1-1.14.06h-6.924v-.468H109.5c.372,0,.648.012,1.008.036a7.287,7.287,0,0,1-.048-.96V-8.244a6.6,6.6,0,0,1,.048-.924,7.9,7.9,0,0,1-1.032.048h-2.724c.108-.168.348-.612.5-.936l-1.416-.132a5.9,5.9,0,0,1-.468,1.068Zm.276,1.488V-8.1h5.028v.468Zm0,.888h5.028v.5h-5.028Zm-1.716,4.62a6.287,6.287,0,0,1-1.152,2.34l1.092.744a8.843,8.843,0,0,0,1.176-2.628Zm1.632.42A19.721,19.721,0,0,1,104.34.72l1.272-.144a20.633,20.633,0,0,0-.372-2.4Zm2-.024a12.886,12.886,0,0,1,.564,2.112L107.8.12a11.758,11.758,0,0,0-.672-2.052ZM120.66-8.1v1.32c0,.2-.036.228-.324.228a6.155,6.155,0,0,1-.672-.06,2.874,2.874,0,0,1,.24,1.032c.528.036.588.036.768.036.816,0,1.14-.24,1.14-.828V-8.1h1.2a9.68,9.68,0,0,1,1.284.06V-9.252a9.389,9.389,0,0,1-1.32.072h-2.148v-.108a3.835,3.835,0,0,1,.06-.816H119.46a3.835,3.835,0,0,1,.06.816v.108h-1.752a10.218,10.218,0,0,1-1.356-.072v1.2A10.918,10.918,0,0,1,117.7-8.1h.924a2.145,2.145,0,0,1-1.428,2.2,2.618,2.618,0,0,1,.732.552h-.144a6.671,6.671,0,0,1-1.128-.06v1.1a9.613,9.613,0,0,1,1.128-.048h4.452v.576H118.1c-.384,0-.924-.012-1.164-.024a11.88,11.88,0,0,1-.84,3.06l1.32.12c.12-.336.144-.42.2-.588h4.98c-.108.96-.192,1.056-.864,1.056a17.653,17.653,0,0,1-1.764-.132,3.331,3.331,0,0,1,.348,1.164c.924.048,1.152.06,1.428.06a3.181,3.181,0,0,0,1.356-.192c.4-.2.636-.744.732-1.6.108-.924.168-1.4.168-1.44-.252.024-.54.036-.924.036h-5.172c.072-.288.084-.324.144-.576h4.308c.5,0,.792.012,1.14.036a7.788,7.788,0,0,1-.036-.888V-4.5a8.548,8.548,0,0,1,.036-.888c-.264.024-.264.024-1.128.036h-3.924a2.656,2.656,0,0,0,.924-.984,3.6,3.6,0,0,0,.408-1.764Zm-6.936-1.044a9.325,9.325,0,0,1,1.872,1.62l.768-1.044a9.752,9.752,0,0,0-1.86-1.464ZM113.268-6.1a8.888,8.888,0,0,1,2.016,1.548l.732-1.068A11.313,11.313,0,0,0,114-7.056Zm1.8,2.352A10.037,10.037,0,0,1,113.3-.1l1.1,1c.2-.324.348-.588.444-.768A16.978,16.978,0,0,0,116.1-2.952Zm6.948-3.576a7.318,7.318,0,0,1,1.428,1.752l.9-.732a8.318,8.318,0,0,0-1.428-1.6Zm-4.968-.612a3.3,3.3,0,0,1-1.3,1.536,2.677,2.677,0,0,1,.84.744A5.059,5.059,0,0,0,118.02-7.5Zm9.384,10.044a10.518,10.518,0,0,0,1.284-2.28,9.3,9.3,0,0,0,.684-3.576,9.734,9.734,0,0,0-.456-2.988,10.023,10.023,0,0,0-1.512-2.844l-1.272.816a7.917,7.917,0,0,1,1.248,2.388,8.3,8.3,0,0,1,.408,2.652,8.587,8.587,0,0,1-.384,2.6,8.309,8.309,0,0,1-1.248,2.376Z" transform="translate(23.626 16.164)" fill="#001c10" />
          <path d="M86.625,0a4.5,4.5,0,0,0-4.5,4.5c0,2.485,4,8.75,4.5,8.75s4.5-6.264,4.5-8.75A4.5,4.5,0,0,0,86.625,0Zm0,6.222A1.721,1.721,0,1,1,88.346,4.5,1.721,1.721,0,0,1,86.625,6.222Z" transform="translate(-71.37 5.541)" fill="#53b492" />
        </g>
      </a>
      <a href="#irabu-lArch-warpHole">
        <g transform="translate(314 34)">
          <rect width="177" height="24" rx="12" fill="#e7f8f2" />
          <path d="M9.744-1.32a12.664,12.664,0,0,1-1.7.084H4.68V-7.572a10.942,10.942,0,0,1,.1-1.764H2.964a11.7,11.7,0,0,1,.1,1.776v6.228a9.521,9.521,0,0,1-.1,1.584C3.4.228,3.816.216,4.488.216H8.04A11.649,11.649,0,0,1,9.744.3Zm7.5-7.608h-3.06c-.6,0-.924-.012-1.38-.048a5.553,5.553,0,0,1,.06.948v.972a5.118,5.118,0,0,1-.06.912h1.32v-1.6h7.8v1.6h1.32a7.124,7.124,0,0,1-.06-.912v-.972a7.327,7.327,0,0,1,.048-.948c-.456.036-.756.048-1.368.048H18.588v-.264a5.118,5.118,0,0,1,.06-.912H17.184a5.284,5.284,0,0,1,.06.912Zm.192,5.112h-3.3a13.265,13.265,0,0,1-1.464-.072v1.356A12.96,12.96,0,0,1,14.136-2.6h3.3V-.66c0,.24-.132.324-.552.324A13.986,13.986,0,0,1,15.2-.48,4.417,4.417,0,0,1,15.588.792c.588.048,1.044.072,1.452.072,1.308,0,1.7-.324,1.7-1.356V-2.6h3.168a12.664,12.664,0,0,1,1.464.072V-3.888a12.519,12.519,0,0,1-1.464.072H18.744V-3.9A14.75,14.75,0,0,0,21.2-5.688c.168-.144.168-.144.48-.408l-.636-.8a5.879,5.879,0,0,1-.924.048h-4.38a8.892,8.892,0,0,1-1.248-.06V-5.6a8.966,8.966,0,0,1,1.248-.072H19.5a6.625,6.625,0,0,1-1.488,1.02h-.624a5.5,5.5,0,0,1,.048.768ZM34.428-9.18a3.3,3.3,0,0,1-1.164.108H27a9.567,9.567,0,0,1-1.656-.1v1.5a11.535,11.535,0,0,1,1.632-.072h6.3a4.976,4.976,0,0,1-1.14,1.524,5.565,5.565,0,0,1-1.752,1.1,4.056,4.056,0,0,1,1.08,1.092,7.506,7.506,0,0,0,1.44-1,7.615,7.615,0,0,0,1.848-2.412,3.335,3.335,0,0,1,.48-.84Zm-5.7,2.424a3.039,3.039,0,0,1,.06.72c0,2.268-.384,3.3-1.608,4.272a5.533,5.533,0,0,1-2.1,1.02A4.236,4.236,0,0,1,26.028.624a6.934,6.934,0,0,0,3.1-2.16,6.5,6.5,0,0,0,1.188-4.248,5.509,5.509,0,0,1,.048-.972Zm7.644,2.988a13.174,13.174,0,0,1,1.956-.06H44.7a13.173,13.173,0,0,1,1.956.06V-5.436a11.784,11.784,0,0,1-1.944.084h-6.4a11.785,11.785,0,0,1-1.944-.084ZM56.64-9.744a6.311,6.311,0,0,1-1.452.564,20.715,20.715,0,0,1-5.136.7c-.18,0-.372,0-.744-.024a5.036,5.036,0,0,1,.444,1.3,26.852,26.852,0,0,0,3.324-.276c0,.84,0,1.308-.024,1.812H49.98a7.439,7.439,0,0,1-1.464-.084v1.44a10.965,10.965,0,0,1,1.44-.06H52.92a6.9,6.9,0,0,1-.132.8,3.83,3.83,0,0,1-1.38,2.04,5.534,5.534,0,0,1-1.86,1.008A3.887,3.887,0,0,1,50.592.744a7.482,7.482,0,0,0,1.116-.6,6.205,6.205,0,0,0,1.956-1.908,6.291,6.291,0,0,0,.8-2.616H57.12a10.965,10.965,0,0,1,1.44.06V-5.76a7.439,7.439,0,0,1-1.464.084H54.552c.024-.408.024-.408.036-2.028a14.841,14.841,0,0,0,2-.492c.864-.288.864-.288,1.008-.324ZM70.776.216C70.224-.3,69.948-.576,69.564-.96l-.876-.888A7.833,7.833,0,0,0,70.224-4.56l-1.236-.6a5.925,5.925,0,0,1-1.164,2.424L65.676-4.9a7.946,7.946,0,0,0,1.3-.7,2.117,2.117,0,0,0,.972-1.824c0-1.284-1.1-2.124-2.772-2.124-1.728,0-2.832.864-2.832,2.22a2.5,2.5,0,0,0,.8,1.764l.36.384a4.617,4.617,0,0,0-1.512,1,2.6,2.6,0,0,0-.792,1.9,2.622,2.622,0,0,0,.72,1.86A3.415,3.415,0,0,0,64.4.42,4.906,4.906,0,0,0,66.168.108,5.01,5.01,0,0,0,67.6-.756l.192.2a8.808,8.808,0,0,1,.624.768ZM64.4-6.2a1.369,1.369,0,0,1-.5-1.044c0-.66.492-1.068,1.284-1.068s1.272.4,1.272,1.044a1.092,1.092,0,0,1-.528.948,6.1,6.1,0,0,1-1.116.54Zm2.34,4.488a3.308,3.308,0,0,1-2.208.84c-1.08,0-1.776-.6-1.776-1.536a1.49,1.49,0,0,1,.492-1.128,3.889,3.889,0,0,1,1.092-.7Zm14.7-7.3a5.008,5.008,0,0,1-1.476.132H74.16a9.825,9.825,0,0,1-1-.06,7.264,7.264,0,0,1,.036.972v2.292a7.228,7.228,0,0,1-.048,1.032l1.608-.012a5.525,5.525,0,0,1-.048-1.056V-7.5l5.712-.012c-.24,2.6-1.14,4.368-2.856,5.532A7.838,7.838,0,0,1,75.132-.864a5.158,5.158,0,0,1,.984,1.38,9.753,9.753,0,0,0,3.72-2.376c1.248-1.344,1.812-2.76,2.2-5.568a3.277,3.277,0,0,1,.2-.852Zm2.928,5.244a13.174,13.174,0,0,1,1.956-.06H92.7a13.174,13.174,0,0,1,1.956.06V-5.436a11.785,11.785,0,0,1-1.944.084h-6.4a11.785,11.785,0,0,1-1.944-.084ZM97.284-8.724a8.222,8.222,0,0,1-1.536-.084v1.56A8.646,8.646,0,0,1,97.26-7.32h5.712A8.7,8.7,0,0,1,96.708-.864,4.416,4.416,0,0,1,97.764.564a10.763,10.763,0,0,0,6.888-7.956,1.64,1.64,0,0,0,.228.024,1.393,1.393,0,0,0,1.392-1.392,1.391,1.391,0,0,0-1.392-1.38,1.383,1.383,0,0,0-1.38,1.392c-.2.012-.348.024-.708.024Zm7.6-.816a.781.781,0,0,1,.792.78.791.791,0,0,1-.792.792.789.789,0,0,1-.78-.792A.778.778,0,0,1,104.88-9.54Zm6.78,1.692h-2.64a8.375,8.375,0,0,1-1.536-.084v1.476A11.89,11.89,0,0,1,109-6.516h2.664V-.708a8.331,8.331,0,0,1-.072,1.356h1.632A10.228,10.228,0,0,1,113.16-.7v-5.82h2.772a11.99,11.99,0,0,1,1.524.06V-7.932a8.446,8.446,0,0,1-1.548.084H113.16v-.636a9.925,9.925,0,0,1,.048-1.272h-1.62a6.637,6.637,0,0,1,.072,1.236Zm-2.688,2.2a6.1,6.1,0,0,1-.348,1.476,8.6,8.6,0,0,1-1.68,3.156,5.18,5.18,0,0,1,1.392.768,12.384,12.384,0,0,0,2.016-4.656c.048-.216.06-.228.1-.372Zm5.388.36a3.278,3.278,0,0,1,.192.564A16.017,16.017,0,0,0,116.52-.24a8.811,8.811,0,0,1,1.38-.84,11.112,11.112,0,0,1-1.7-3.228,7.7,7.7,0,0,1-.42-1.344Zm4.932,1.524a13.174,13.174,0,0,1,1.956-.06h6.372a13.174,13.174,0,0,1,1.956.06V-5.436a11.784,11.784,0,0,1-1.944.084h-6.4a11.785,11.785,0,0,1-1.944-.084Zm13.584-5.616a6.033,6.033,0,0,1,.048,1.092c0,3.36-.276,4.908-1.14,6.288a4.93,4.93,0,0,1-1.236,1.38A4.271,4.271,0,0,1,131.76.54a7.642,7.642,0,0,0,1.656-2.22,11.236,11.236,0,0,0,.972-4.932,25.085,25.085,0,0,1,.12-2.688Zm3.18-.084a5.194,5.194,0,0,1,.048.792v.36l-.06,6.768a5.378,5.378,0,0,1-.108,1.272L136.7.54a5.223,5.223,0,0,1,.516-.216,7.925,7.925,0,0,0,2.556-1.44,7.447,7.447,0,0,0,1.908-2.8,5.03,5.03,0,0,1-1.128-1.128,5.864,5.864,0,0,1-1.176,2.2,4.824,4.824,0,0,1-1.836,1.368L137.6-8.3a6.5,6.5,0,0,1,.084-1.14Z" transform="translate(23.813 16.871)" fill="#001c10" />
          <path d="M86.625,0a4.5,4.5,0,0,0-4.5,4.5c0,2.485,4,8.75,4.5,8.75s4.5-6.264,4.5-8.75A4.5,4.5,0,0,0,86.625,0Zm0,6.222A1.721,1.721,0,1,1,88.346,4.5,1.721,1.721,0,0,1,86.625,6.222Z" transform="translate(-71.028 5.244)" fill="#53b492" />
        </g>
      </a>
      <a href="#irabu-wArch">
        <g transform="translate(299 3)">
          <rect width="82" height="24" rx="12" fill="#e7f8f2" />
          <path d="M9.264.216c.024-.132.12-.552.288-1.248l1.776-6.876a9.647,9.647,0,0,1,.432-1.428H9.9a7.229,7.229,0,0,1-.192,1.284L8.724-3.528c-.036.156-.108.588-.144.78-.06.408-.06.408-.12.7-.18-.888-.2-1.02-.312-1.464L6.972-8.136c-.156-.636-.216-.9-.264-1.2H5.268a5.77,5.77,0,0,1-.24,1.212L3.864-3.492c-.12.492-.168.684-.3,1.428-.084-.48-.084-.48-.276-1.416L2.316-8.052a7.387,7.387,0,0,1-.192-1.284H.252A10.506,10.506,0,0,1,.7-7.908L2.472-1.032A11.165,11.165,0,0,1,2.76.216H4.308A10.709,10.709,0,0,1,4.572-1l1.1-4.284c.108-.408.2-.888.324-1.536.108.588.192.984.324,1.536L7.44-1A11.057,11.057,0,0,1,7.692.216Zm13.164-9.4a3.3,3.3,0,0,1-1.164.108H15a9.567,9.567,0,0,1-1.656-.1v1.5a11.535,11.535,0,0,1,1.632-.072h6.3a4.976,4.976,0,0,1-1.14,1.524,5.565,5.565,0,0,1-1.752,1.1,4.056,4.056,0,0,1,1.08,1.092,7.506,7.506,0,0,0,1.44-1,7.615,7.615,0,0,0,1.848-2.412,3.335,3.335,0,0,1,.48-.84Zm-5.7,2.424a3.039,3.039,0,0,1,.06.72c0,2.268-.384,3.3-1.608,4.272a5.533,5.533,0,0,1-2.1,1.02A4.236,4.236,0,0,1,14.028.624a6.934,6.934,0,0,0,3.1-2.16,6.5,6.5,0,0,0,1.188-4.248,5.509,5.509,0,0,1,.048-.972Zm7.644,2.988a13.174,13.174,0,0,1,1.956-.06H32.7a13.173,13.173,0,0,1,1.956.06V-5.436a11.784,11.784,0,0,1-1.944.084h-6.4a11.785,11.785,0,0,1-1.944-.084ZM44.64-9.744a6.311,6.311,0,0,1-1.452.564,20.715,20.715,0,0,1-5.136.7c-.18,0-.372,0-.744-.024a5.036,5.036,0,0,1,.444,1.3,26.852,26.852,0,0,0,3.324-.276c0,.84,0,1.308-.024,1.812H37.98a7.439,7.439,0,0,1-1.464-.084v1.44a10.965,10.965,0,0,1,1.44-.06H40.92a6.9,6.9,0,0,1-.132.8,3.83,3.83,0,0,1-1.38,2.04,5.534,5.534,0,0,1-1.86,1.008A3.887,3.887,0,0,1,38.592.744a7.482,7.482,0,0,0,1.116-.6,6.205,6.205,0,0,0,1.956-1.908,6.291,6.291,0,0,0,.8-2.616H45.12a10.965,10.965,0,0,1,1.44.06V-5.76a7.439,7.439,0,0,1-1.464.084H42.552c.024-.408.024-.408.036-2.028a14.841,14.841,0,0,0,2-.492c.864-.288.864-.288,1.008-.324Z" transform="translate(23.786 16.793)" fill="#001c10" />
          <path d="M86.625,0a4.5,4.5,0,0,0-4.5,4.5c0,2.485,4,8.75,4.5,8.75s4.5-6.264,4.5-8.75A4.5,4.5,0,0,0,86.625,0Zm0,6.222A1.721,1.721,0,1,1,88.346,4.5,1.721,1.721,0,0,1,86.625,6.222Z" transform="translate(-71.324 5.168)" fill="#53b492" />
        </g>
      </a>
      <a href="#irabu-hakuchoYouchien">
        <g transform="translate(332 65)">
          <rect width="95" height="24" rx="12" fill="#e7f8f2" />
          <path d="M2.868-8.508a10.622,10.622,0,0,1-1.32-.06c.036.4.06.864.06,1.476v6.36a13.868,13.868,0,0,1-.072,1.6H2.952V.252H9.036V.864h1.44A13.127,13.127,0,0,1,10.4-.708V-7.08c0-.624.024-1.056.06-1.488a11.673,11.673,0,0,1-1.38.06H6.024a10.31,10.31,0,0,0,.54-1.044.494.494,0,0,0,.036-.1c.036-.06.048-.1.06-.108.06-.132.06-.132.084-.192l-1.524-.2a6.966,6.966,0,0,1-.7,1.644Zm.084,1.26H9.036v2.412H2.952Zm0,3.672H9.036v2.532H2.952ZM15.036-9.12A8.019,8.019,0,0,1,14-9.168a9.79,9.79,0,0,1,.048,1.08V-3.4A11.453,11.453,0,0,1,14-2.16c.384-.024.564-.024.96-.024h6.852A9.013,9.013,0,0,1,21.624-.84c-.108.456-.228.564-.66.564-.2,0-.624-.024-.948-.06l.9-.372A10.05,10.05,0,0,0,20.232-2.1l-.948.336a12.055,12.055,0,0,1,.576,1.4l-.192-.024A5.03,5.03,0,0,1,19.956.852c.228.024.588.036.936.036,1.044,0,1.452-.192,1.74-.828a9.6,9.6,0,0,0,.48-2.736c.024-.216.048-.408.084-.6a5.556,5.556,0,0,1-.888.048h-7v-.5h6.9a8.331,8.331,0,0,1,1.164.06V-4.848a7.574,7.574,0,0,1-1.14.06H15.312v-.468h5.316c.372,0,.648.012,1.008.036a7.288,7.288,0,0,1-.048-.96V-8.244a6.6,6.6,0,0,1,.048-.924A7.9,7.9,0,0,1,20.6-9.12H17.88c.108-.168.348-.612.5-.936l-1.416-.132A5.9,5.9,0,0,1,16.5-9.12Zm.276,1.488V-8.1H20.34v.468Zm0,.888H20.34v.5H15.312ZM13.6-2.124A6.287,6.287,0,0,1,12.444.216L13.536.96a8.843,8.843,0,0,0,1.176-2.628Zm1.632.42A19.721,19.721,0,0,1,15.468.72L16.74.576a20.632,20.632,0,0,0-.372-2.4Zm2-.024A12.886,12.886,0,0,1,17.8.384L18.924.12a11.757,11.757,0,0,0-.672-2.052Zm12.336.936a7.577,7.577,0,0,1-.66.744,5.1,5.1,0,0,1,1,1.08,8.251,8.251,0,0,0,1.92-3.42,16.385,16.385,0,0,0,.684-4.02h1.368a42.139,42.139,0,0,1-.3,5.076c-.12.816-.216.936-.768.936a7.475,7.475,0,0,1-1.08-.12A3.481,3.481,0,0,1,31.98.768c.708.06.732.06.9.06a2.1,2.1,0,0,0,1.248-.24c.42-.288.612-.78.732-1.884.108-.9.216-2.724.276-4.464.036-1.344.06-1.668.084-1.884A8.032,8.032,0,0,1,34-7.6h-1.44c.012-.24.012-.288.012-.444a11.615,11.615,0,0,1,.084-1.872H31.2a12.127,12.127,0,0,1,.06,1.332c0,.3,0,.564-.024.984h-.264a7.046,7.046,0,0,1-1.212-.072v.66L28.476-7.56a17.935,17.935,0,0,1-1.14,2.592c-.348-.456-.48-.612-.816-1.008a20.08,20.08,0,0,0,1.5-3.012,5.764,5.764,0,0,1,.264-.54l-1.368-.42a11.475,11.475,0,0,1-1.284,3.036l-.516-.516L24.408-6.3a14.567,14.567,0,0,1,2.28,2.5c-.948,1.62-.948,1.62-1.5,2.436a7.311,7.311,0,0,1-.78.06L24.732.108c.228-.06.3-.072.444-.108a32.576,32.576,0,0,0,3.876-.972c.048.156.06.2.1.348Zm-1.5-2.616a8.722,8.722,0,0,1,.612,1.344c-.54.144-1.284.312-1.968.456A37.714,37.714,0,0,0,29.328-6.12c.24-.48.324-.636.432-.84v.612a9.9,9.9,0,0,1,1.14-.06h.288a12.357,12.357,0,0,1-1.08,4.764,18.135,18.135,0,0,0-1-2.172ZM45.3-4.512h.828a5.27,5.27,0,0,1,.972.06V-5.676a4.951,4.951,0,0,1-.984.06H45.3V-6.84h.78a10.66,10.66,0,0,1,1.212.06v-1.3A8.185,8.185,0,0,1,46.08-8h-.612a12.178,12.178,0,0,0,.54-1.128c.084-.18.156-.36.2-.444l-1.3-.384A9.776,9.776,0,0,1,44.148-8H42.816c.168-.372.3-.7.492-1.2.084-.228.1-.24.192-.468l-1.284-.372a8.157,8.157,0,0,1-.372,1.3,10.019,10.019,0,0,1-1.272,2.46V-7.02a5.977,5.977,0,0,1-.924.048h-.192v-1.62a10.1,10.1,0,0,0,1.4-.516l-.78-1.032a3.081,3.081,0,0,1-.444.252,10.266,10.266,0,0,1-3.108.744,3.764,3.764,0,0,1,.48,1.1c.564-.084.756-.12,1.224-.228v1.3h-.66a5.167,5.167,0,0,1-1-.06V-5.76a5.415,5.415,0,0,1,.984-.06h.492a9.481,9.481,0,0,1-1.728,3.276,4.461,4.461,0,0,1,.66,1.26A6.737,6.737,0,0,0,37.656-2.4a9.709,9.709,0,0,0,.66-1.632,12.054,12.054,0,0,0-.084,1.644v1.92A11.3,11.3,0,0,1,38.16,1h1.368a9.2,9.2,0,0,1-.072-1.464V-2.676a12.413,12.413,0,0,0-.072-1.584,6.973,6.973,0,0,0,1,1.716,6.558,6.558,0,0,1,.54-1.14,5.913,5.913,0,0,1-.972-1.2,5.933,5.933,0,0,1-.48-.936h.168c.228,0,.372,0,.564.012-.108.12-.156.168-.312.324a3.251,3.251,0,0,1,.876.936c.288-.348.36-.456.576-.756-.012.348-.024.66-.024.756V-.336A10.071,10.071,0,0,1,41.244,1h1.32V.348h3.588A10.459,10.459,0,0,1,47.484.42V-.864A7.5,7.5,0,0,1,46.3-.8h-1V-2.16h.816a5.415,5.415,0,0,1,.984.06V-3.324a5.1,5.1,0,0,1-.984.06H45.3Zm-1.212,0v1.248H42.564V-4.512Zm0-1.1H42.564V-6.84h1.524ZM42.564-2.16h1.524V-.8H42.564ZM53.292-7.044v.492H51.336a4.974,4.974,0,0,1-.96-.06v1.044a5.578,5.578,0,0,1,.936-.06h5.4a5.2,5.2,0,0,1,.912.06V-6.612a4.773,4.773,0,0,1-.936.06H54.54v-.492h1.692a6.837,6.837,0,0,1,.96.048v-1a5.128,5.128,0,0,1-.96.06H54.54a3.143,3.143,0,0,1,.048-.48H53.244c.024.156.036.288.048.48h-1.44a5.31,5.31,0,0,1-1.008-.06v1a7.766,7.766,0,0,1,1-.048ZM59.22,1.02a11.605,11.605,0,0,1-.072-1.56v-7.8a12.265,12.265,0,0,1,.06-1.44,11.493,11.493,0,0,1-1.4.06h-7.62a11.374,11.374,0,0,1-1.4-.06,13.277,13.277,0,0,1,.072,1.44V-.552A13.839,13.839,0,0,1,48.78,1.02h1.332V.528h7.776V1.02ZM50.112-8.652h7.764V-.528H50.112V-1.776a3.309,3.309,0,0,1,.756.888A9.147,9.147,0,0,0,53.076-2.34c0,.1-.012.312-.012.384v.516a3.9,3.9,0,0,1-.048.684h1.3a3.728,3.728,0,0,1-.048-.684v-.516c0-.2,0-.2-.012-.42A8.175,8.175,0,0,0,56.94-.72a8.519,8.519,0,0,1,.768-.984A8.694,8.694,0,0,1,56.5-2.088,6.738,6.738,0,0,0,57.2-2.64a2.337,2.337,0,0,1,.216-.2l-.5-.288a4.2,4.2,0,0,1-.024-.636v-.876a4.656,4.656,0,0,1,.024-.648,6.687,6.687,0,0,1-.792.024H51.876a6.8,6.8,0,0,1-.792-.024,3.634,3.634,0,0,1,.036.648v.876a4.994,4.994,0,0,1-.036.648c.252-.012.252-.012.792-.024h.7a6.612,6.612,0,0,1-1.38.888c-.216.108-.576.252-1.08.444Zm6.012,5.508h.24a5.843,5.843,0,0,1-.708.636,6.065,6.065,0,0,1-.924-.636Zm-3.8-1.272h3.36V-4H52.32Z" transform="translate(23.704 16.518)" fill="#001c10" />
          <path d="M86.625,0a4.5,4.5,0,0,0-4.5,4.5c0,2.485,4,8.75,4.5,8.75s4.5-6.264,4.5-8.75A4.5,4.5,0,0,0,86.625,0Zm0,6.222A1.721,1.721,0,1,1,88.346,4.5,1.721,1.721,0,0,1,86.625,6.222Z" transform="translate(-70.339 4.893)" fill="#53b492" />
        </g>
      </a>
    </g>
  </g>
</svg>
