<svg xmlns="http://www.w3.org/2000/svg" width="696.435" height="462.091" viewBox="0 0 696.435 462.091">
  <g transform="translate(-306.438 -5214)">
    <g transform="translate(-24 3496.445)">
      <g transform="translate(0 10)">
        <path d="M105.379,169.12c-1.6,1.249-1.253,2.793-2.293,5.163-1.805,4.108-5.044,4.466-10.325,8.6a46.6,46.6,0,0,0-8.6,9.176A44.475,44.475,0,0,0,76.7,204.68a32.356,32.356,0,0,0-2.3,12.045c.043,2.483.386,3.435.55,8.039.187,5.326-.242,5.011,0,7.6.7,7.532,4.374,10.749,2.53,13.386-.554.794-1.576,1.253-3.616,2.17-3.08,1.381-4.025.855-5.428,1.808-2.777,1.886-4.047,7.323-1.808,9.406a4.639,4.639,0,0,0,5.788,0c1.061-1.1.275-2.362,1.448-3.618,1.5-1.609,4.3-1.151,4.7-1.085a7.122,7.122,0,0,1,3.618,1.808c1.083,1.038,2.211,2.867,2.17,11.939-.009,2.09-.125,4.528-.362,9.4-.258,5.395-.32,5.518-.36,7.6-.095,4.893-.14,7.338.36,10.129a35.4,35.4,0,0,0,3.618,10.129c-.024.012-1.246-2.964-1.445-2.893s.7,2.739,1.445,6.873c.595,3.3.514,4.288.363,5.063a10.011,10.011,0,0,1-2.17,4.34c-2.54,3.263-4.907,4.433-9.766,7.958-3.713,2.694-5.568,4.04-6.151,5.066-2.128,3.748-1.8,9.375.363,13.021.877,1.476,1.834,2.258,2.893,4.7.952,2.2.993,3.443,1.81,3.618,1.066.225,2.639-1.554,3.255-3.255a5.486,5.486,0,0,0,.2-.718c.578-2.7-1.132-4.942-.929-5.07.294-.182,4.419,3.966,5.426,9.043.142.716.725,3.978.725,3.978a20.3,20.3,0,0,0,1.448,6.511,12.049,12.049,0,0,0,2.17,2.9,22.6,22.6,0,0,0,5.426,4.34c3.6,2.1,3.864,1.069,6.511,2.893a30.3,30.3,0,0,1,5.063,4.7s.884,1.222,1.94,2.426c.815.926,1,1.007.955,1.192-.223.886-4.644-.325-5.426,1.085-.663,1.192,1.611,3.649,3.255,5.426a16.069,16.069,0,0,0,5.426,4.341c2.947,1.317,3.909.384,5.426,1.81,1.831,1.72,2.533,5.063,2.533,5.063a50.194,50.194,0,0,0,5.788,7.6c2.734,2.883,3.338,2.507,5.786,5.425,1.9,2.265,1.962,3,2.9,3.255,3.715,1.023,9.8-8.657,9.766-8.681s-10.989,11.78-8.318,16.279c.791,1.336,2.909,2.232,3.615,2.53,2.962,1.253,4.395.258,5.788,1.448,1.426,1.218.445,2.7,1.448,6.511.417,1.585,1.481,5.639,4.7,7.6,1.829,1.111,2.346.327,3.978,1.445,2.855,1.957,1.777,4.7,4.341,6.873,1.876,1.59,2.727.358,6.873,2.17a15.081,15.081,0,0,1,6.151,4.34,11.869,11.869,0,0,1,2.53,5.065c.469,2.244-.159,2.985.362,5.426.367,1.715.742,1.654,1.808,4.341a25.612,25.612,0,0,1,2.173,8.321c.152,2.706-.386,3.815.36,4.341,1.374.967,4.781-1.67,5.426-2.17,3.293-2.549,2.919-4.161,5.065-5.426,2.317-1.369,4.092-.282,10.129.36,7.61.81,7.169-.663,10.851.362,2.656.739,2.838,1.493,12.3,7.959,1.9,1.3,3.864,2.637,6.511,4.341,4.239,2.725,4.191,2.5,10.129,6.148,6.973,4.286,7.444,4.85,9.406,5.065,2.879.318,4.561-.6,6.148.723,1.772,1.471.718,3.466,2.533,5.065,1.125.99,1.855.509,6.511,1.445,2.62.528,3.931.791,5.065,1.448,2.58,1.493,2.369,3.1,4.34,4.341,2.113,1.336,3.443.182,9.044,0,4.511-.147,8.2-.265,11.576,1.81.317.2,1.779,1.457,4.7,3.978,4.146,3.578,4.646,4.127,5.428,3.98,2.72-.512,1.568-8.1,5.426-9.768,2.831-1.225,6.719,1.455,7.233,1.81,2.7,1.86,2.263,3.393,4.7,4.7a8.336,8.336,0,0,0,7.958,0c2.071-1.313,1.654-2.931,3.618-3.98,2.125-1.135,3.471.3,6.873.362,4.476.078,4.885-2.365,11.936-3.98,3.793-.867,3.748-.178,6.873-1.085,5.272-1.528,5.4-3.49,9.4-4.7,5.535-1.673,7.515,1.4,13.384,0,3.521-.836,5.8-2.651,8.321-4.7,1.59-1.294,7.966-6.688,13.384-18.449,3.243-7.041,9.8-21.276,6.511-34a32.96,32.96,0,0,1-1.445-11.214c.246-4.362,1.343-6.605,2.17-10.126,1.718-7.319.7-13.455,0-17.727-1.346-8.153-3.554-7.053-10.129-23.15-4.871-11.922-4.471-14.512-8.683-18.81-2.556-2.613-5.12-4.122-7.233-8.321a25.439,25.439,0,0,1-2.533-10.129c-.092-2.8.389-2.966.363-5.426-.026-2.248-.457-4.916-3.98-12.3-2.038-4.274-3.881-7.548-6.148-11.576-2.357-4.184-3.433-5.88-5.066-9.4-1.739-3.762-2.616-5.7-2.893-8.321-.379-3.6.666-4.319,0-7.6a17.812,17.812,0,0,0-3.255-6.873c-2.834-4.054-4.291-3.521-6.151-6.873-1.917-3.452-.9-4.968-2.893-6.873-1.694-1.616-3.831-1.862-6.511-2.17-5.35-.614-6.53,1.043-10.491.362-2.4-.41-1.872-1-7.958-3.978-6.961-3.407-8.892-3.246-10.489-5.788-1.457-2.317-.521-3.513-2.173-5.788-2.056-2.836-5.435-3.632-6.871-3.98-11.832-2.862-23.344-6.928-35.089-10.129-7.361-2-17.262-4.7-28.215-11.574-6.909-4.336-5.992-5.16-20.617-15.554-11.846-8.42-12.351-7.809-16.642-11.939a176.157,176.157,0,0,0-13.384-11.574A18.6,18.6,0,0,0,186,189.316c-2.094-.554-3.217-.4-7.956-.363-6.08.054-9.117.081-11.214-.36-3.388-.716-4.755-1.936-9.043-4.343a103.782,103.782,0,0,0-16.279-7.233c-9.541-3.492-9.053-1.7-17.362-5.066a64.46,64.46,0,0,0-11.214-3.255c-3.758-.737-5.963-.82-7.558.424" transform="translate(616.009 1539.395)" fill="#dbdbdb" />
        <path d="M133.311,285.719c.014-1.749.381-2.5.135-4.694s-.836-3.319-.4-3.62c.471-.325,1.521.746,4.558,2.95s3,1.869,3.753,2.682c1.516,1.63,1.17,2.438,3.085,6.034a22.288,22.288,0,0,0,2.95,4.559c1.177,1.35,1.433,1.215,4.693,3.888,4.317,3.54,4.028,3.907,5.9,4.826,1.628.8,2.538.86,3.085,1.876.7,1.306-.171,2.357.268,4.158.329,1.348,1.111,1.948,2.414,3.35,4.388,4.727,3.845,6.88,7.105,8.581,1.552.81,1.791.384,3.352,1.341a13.3,13.3,0,0,1,4.291,4.693,33.969,33.969,0,0,1,2.68,5.765c2.1,5.442,1.95,7,3.62,7.911,1.244.678,1.777.059,4.426.938a11.046,11.046,0,0,1,3.62,1.744c2.72,2.251,1.038,5.179,3.62,9.517.49.827.171.081,4.021,4.558,2.668,3.1,4.018,4.684,4.829,6.17,1.372,2.516,1.114,3.3,2.279,4.156,1.971,1.445,3.506-.211,6.106.7,2,.7,3.746,3.6,7.236,9.394a14.427,14.427,0,0,0,2.284,3.3c2.374,2.346,3.8,1.523,5.459,3.556,1.5,1.836,1.076,3.421,3.047,4.824.87.616,1.035.37,1.777.889,2.471,1.73,2.516,5.81,2.54,8.124.012,1.019-.045,1.8-.763,6.729-.585,4.039-.879,6.058-1.014,6.729-.746,3.722-1.6,7.963-4.222,12.18-1.886,3.03-2.6,2.691-5.454,6.968-2.194,3.289-2.554,4.658-3.634,6.362-1.358,2.144-3.848,4.8-14.543,8.788a103.978,103.978,0,0,1-19.39,5.454c-8.852,1.595-15.142,2.729-23.631,1.514a47.156,47.156,0,0,1-16.966-5.15c-1.966-1.085-3.649-2.239-7.575-4.241a48.22,48.22,0,0,0-10-4.241c-3.329-.9-6.5-1.727-10.3-.91-3.094.666-2.838,1.606-5.148,1.817-4.483.41-8.4-2.86-11.515-5.454-3.587-2.99-2.819-3.535-4.848-4.544-3.677-1.827-5.767.187-13.026-.3-4.075-.272-7.122-.521-8.788-2.724-.524-.694-.6-1.173-1.514-6.364-1.189-6.767-1.187-6.7-1.211-6.968-.58-6.139.8-8.295-.607-9.392-2.052-1.592-6.271,1.957-7.878.3-.808-.834-.55-2.566,0-3.637.988-1.924,2.815-1.512,5.454-3.635,1.142-.919,3.068-2.469,3.331-4.848.322-2.888-2.023-5.08-2.424-5.454-.372-.348-2.7-2.521-5.452-2.12-3.431.5-3.616,4.419-8.484,6.665-.964.445-3.784,1.746-5.151.607-1.426-1.192-.794-4.646.607-6.968,2.533-4.2,8.122-5.577,8.181-5.454.076.166-8.025,6.269-13.635,3.94-3.644-1.514-5.1-6.115-5.755-8.181-.692-2.182-1.995-6.3,0-8.785,1.865-2.327,5.047-1.27,6.361-3.637.488-.874.37-1.59-.3-5.151-1.632-8.655-1.867-9.358-1.817-11.209.081-3.068.775-3.16.607-6.061-.078-1.343-.381-6.523-2.727-7.271-1.8-.573-4.087,1.689-6.364,3.94-3.5,3.464-3.817,5.551-5.755,5.755-2.6.277-4.855-3.18-5.151-3.635-2.139-3.281-1.628-6.992-1.211-10a24.755,24.755,0,0,1,2.725-8.181c1.493-2.774,3.085-5.736,6.364-7.572,2.556-1.434,4.743-1.4,4.848-2.424.1-.983-1.886-1.234-3.94-3.334-2.016-2.061-2.8-4.573-3.634-7.271-.917-2.952-.737-4.149-2.12-6.058a26.478,26.478,0,0,0-2.12-2.424c-2.277-2.433-3.142-2.888-3.03-3.637.175-1.2,2.511-.806,3.634-2.424,1.964-2.827-1.9-8.752-2.121-9.089-.3-.46-1.313-1.822-3.331-4.544-1.455-1.962-1.914-2.559-1.82-3.334.194-1.547,2.436-2.428,4.848-3.333,5.942-2.225,8.759-3.023,12.119-4.241,6.71-2.431,4.042-2.35,10-4.544,1.557-.573,3.253-1.137,3.334-2.12.1-1.237-2.481-1.54-4.544-4.241a11.561,11.561,0,0,1-2.12-5.757,14.656,14.656,0,0,1,.6-6.361c.436-1.443,1.09-2.917,6.968-10,3.39-4.082,4.423-5.1,5.454-4.848,1.275.313.936,2.17,3.334,4.544a16.587,16.587,0,0,0,3.938,2.727,28.631,28.631,0,0,0,3.334,1.514c3.222,1.445,3.381,6.518,5.454,15.149,2.379,9.913,3.746,9.78,3.634,14.542-.111,4.8-1.545,6.8,0,9.089,1.741,2.585,4.442,1.367,9.392,4.241,4.641,2.7,3.817,4.667,7.575,6.364,5.094,2.3,7.07-1.118,12.422.907,5.212,1.976,5.215,5.933,10.3,6.667a16.243,16.243,0,0,0,6.665-.3,28.175,28.175,0,0,1,3.03-.91c1.571-.362,1.635-.209,3.331-.607,1.369-.32,1.647-.493,2.064-.315.843.358,1.026,1.637,1.22,3.137.614,4.705.919,7.072.872,7.672a16.963,16.963,0,0,1-1.4,5.928c-2.519,5.466-8.108,7.764-7.845,8.193.216.355,3.227-2.414,7.5-2.265,1.616.057,2.7.507,4.184-.175a13.178,13.178,0,0,0,2.791-2.265c2.173-2.018,1.995-2.137,2.44-2.267,1.879-.552,3.111,2.147,7.148,3.488,1.31.434,3.357,1.114,4.359.173,1.18-1.107.649-4.215-1.047-5.753-1.26-1.144-2.149-.5-4.708-1.569-1.73-.727-1.926-1.275-5.229-3.663-4.006-2.9-3.871-2.2-4.883-3.312-2.988-3.293-3.009-8.1-3-8.778" transform="translate(553.407 1615.211)" fill="#68b3f2" />
      </g>
    </g>
    <g transform="translate(0 -109.555)">
      <path d="M28.655,16.475-.359.659.359-.659,29.373,15.158Z" transform="translate(483.788 5463.667)" fill="#5a83c3" />
      <path d="M101.421,12.439-.086.745.086-.745,101.593,10.949Z" transform="translate(417.385 5494.76)" fill="#5a83c3" />
      <path d="M91.9,11.05-.084.745.084-.745,92.065,9.56Z" transform="translate(437.351 5526.6)" fill="#5a83c3" />
      <path d="M94.988,12.789-.094.744.094-.744,95.176,11.3Z" transform="translate(443.82 5557.05)" fill="#5a83c3" />
      <path d="M.015,2.1-.015.6,66.477-.75l.031,1.5Z" transform="translate(478.5 5582.145)" fill="#5a83c3" />
      <path d="M.091,7.672-.091,6.183,56.578-.744,56.76.744Z" transform="translate(492.674 5601.285)" fill="#5a83c3" />
      <path d="M.213,18.663l-.426-1.438L60.33-.719,60.756.719Z" transform="translate(497.5 5619.556)" fill="#5a83c3" />
      <path d="M.21,22.044-.21,20.6,72.993-.72l.42,1.44Z" transform="translate(500.5 5642.176)" fill="#5a83c3" />
      <path d="M.308,33.129l-.616-1.368,72-32.445L72.308.684Z" transform="translate(508.5 5658.055)" fill="#5a83c3" />
      <path d="M.434,39.875l-.869-1.223L54.819-.611,55.688.611Z" transform="translate(531.5 5675.236)" fill="#5a83c3" />
      <path d="M.463,59.414l-.925-1.181L74.58-.59,75.506.59Z" transform="translate(526.5 5685.677)" fill="#5a83c3" />
      <path d="M.733,36.452l-1.466-.318L7.14-.159,8.606.159Z" transform="translate(601.5 5702.207)" fill="#5a83c3" />
      <path d="M24.223,26.7-.545.515.545-.515,25.313,25.674Z" transform="translate(696.732 5730.311)" fill="#5a83c3" />
      <path d="M15.177,18.072-.559.5.559-.5,16.295,17.072Z" transform="translate(776.34 5708.995)" fill="#5a83c3" />
      <circle cx="6" cy="6" r="6" transform="translate(522.751 5530.782)" fill="#fff" />
      <path d="M6,4A2,2,0,1,0,8,6,2,2,0,0,0,6,4M6,0A6,6,0,1,1,0,6,6,6,0,0,1,6,0Z" transform="translate(522.751 5530.782)" fill="#5a83c3" />
      <circle cx="6" cy="6" r="6" transform="translate(506.221 5473.361)" fill="#fff" />
      <path d="M6,4A2,2,0,1,0,8,6,2,2,0,0,0,6,4M6,0A6,6,0,1,1,0,6,6,6,0,0,1,6,0Z" transform="translate(506.221 5473.361)" fill="#5a83c3" />
      <circle cx="6" cy="6" r="6" transform="translate(512.746 5500.332)" fill="#fff" />
      <path d="M6,4A2,2,0,1,0,8,6,2,2,0,0,0,6,4M6,0A6,6,0,1,1,0,6,6,6,0,0,1,6,0Z" transform="translate(512.746 5500.332)" fill="#5a83c3" />
      <circle cx="6" cy="6" r="6" transform="translate(532.322 5562.973)" fill="#fff" />
      <path d="M6,4A2,2,0,1,0,8,6,2,2,0,0,0,6,4M6,0A6,6,0,1,1,0,6,6,6,0,0,1,6,0Z" transform="translate(532.322 5562.973)" fill="#5a83c3" />
      <circle cx="6" cy="6" r="6" transform="translate(538.847 5576.022)" fill="#fff" />
      <path d="M6,4A2,2,0,1,0,8,6,2,2,0,0,0,6,4M6,0A6,6,0,1,1,0,6,6,6,0,0,1,6,0Z" transform="translate(538.847 5576.022)" fill="#5a83c3" />
      <circle cx="6" cy="6" r="6" transform="translate(542.74 5595.163)" fill="#fff" />
      <path d="M6,4A2,2,0,1,0,8,6,2,2,0,0,0,6,4M6,0A6,6,0,1,1,0,6,6,6,0,0,1,6,0Z" transform="translate(542.74 5595.163)" fill="#5a83c3" />
      <circle cx="6" cy="6" r="6" transform="translate(551.897 5613.053)" fill="#fff" />
      <path d="M6,4A2,2,0,1,0,8,6,2,2,0,0,0,6,4M6,0A6,6,0,1,1,0,6,6,6,0,0,1,6,0Z" transform="translate(551.897 5613.053)" fill="#5a83c3" />
      <circle cx="6" cy="6" r="6" transform="translate(567.535 5636.054)" fill="#fff" />
      <path d="M6,4A2,2,0,1,0,8,6,2,2,0,0,0,6,4M6,0A6,6,0,1,1,0,6,6,6,0,0,1,6,0Z" transform="translate(567.535 5636.054)" fill="#5a83c3" />
      <circle cx="6" cy="6" r="6" transform="translate(574.753 5651.89)" fill="#fff" />
      <path d="M6,4A2,2,0,1,0,8,6,2,2,0,0,0,6,4M6,0A6,6,0,1,1,0,6,6,6,0,0,1,6,0Z" transform="translate(574.753 5651.89)" fill="#5a83c3" />
      <circle cx="6" cy="6" r="6" transform="translate(580.585 5668.975)" fill="#fff" />
      <path d="M6,4A2,2,0,1,0,8,6,2,2,0,0,0,6,4M6,0A6,6,0,1,1,0,6,6,6,0,0,1,6,0Z" transform="translate(580.585 5668.975)" fill="#5a83c3" />
      <circle cx="6" cy="6" r="6" transform="translate(595.321 5679.5)" fill="#fff" />
      <path d="M6,4A2,2,0,1,0,8,6,2,2,0,0,0,6,4M6,0A6,6,0,1,1,0,6,6,6,0,0,1,6,0Z" transform="translate(595.321 5679.5)" fill="#5a83c3" />
      <circle cx="6" cy="6" r="6" transform="translate(603.206 5695.945)" fill="#fff" />
      <path d="M6,4A2,2,0,1,0,8,6,2,2,0,0,0,6,4M6,0A6,6,0,1,1,0,6,6,6,0,0,1,6,0Z" transform="translate(603.206 5695.945)" fill="#5a83c3" />
      <circle cx="6" cy="6" r="6" transform="translate(690.207 5723.786)" fill="#fff" />
      <path d="M6,4A2,2,0,1,0,8,6,2,2,0,0,0,6,4M6,0A6,6,0,1,1,0,6,6,6,0,0,1,6,0Z" transform="translate(690.207 5723.786)" fill="#5a83c3" />
      <circle cx="6" cy="6" r="6" transform="translate(769.815 5702.47)" fill="#fff" />
      <path d="M6,4A2,2,0,1,0,8,6,2,2,0,0,0,6,4M6,0A6,6,0,1,1,0,6,6,6,0,0,1,6,0Z" transform="translate(769.815 5702.47)" fill="#5a83c3" />
      <a href="#shimoji-triple3">
        <g transform="translate(-31.275 3722.377)">
          <path d="M11.62,0H136.6a11.722,11.722,0,0,1,11.62,11.821A11.722,11.722,0,0,1,136.6,23.641H11.62A11.722,11.722,0,0,1,0,11.821,11.722,11.722,0,0,1,11.62,0Z" transform="translate(365 1727.455)" fill="#edf5ff" />
          <path d="M.492-2.124A3.169,3.169,0,0,0,1.164-.78,3.748,3.748,0,0,0,4.212.36,4.145,4.145,0,0,0,7.164-.612a2.541,2.541,0,0,0,.72-1.752A2.305,2.305,0,0,0,7.308-4.02a2.525,2.525,0,0,0-1.716-.8,2.962,2.962,0,0,0,1.164-.468,2.188,2.188,0,0,0,.828-1.764c0-1.56-1.3-2.568-3.3-2.568a3.9,3.9,0,0,0-2.352.66A2.982,2.982,0,0,0,.792-7.248l1.716.288a1.763,1.763,0,0,1,.5-.924A2,2,0,0,1,4.32-8.256c1.02,0,1.584.468,1.584,1.3C5.9-6.036,5.2-5.484,4-5.484a8.227,8.227,0,0,1-1.164-.06v1.488a10.247,10.247,0,0,1,1.284-.06,3.109,3.109,0,0,1,1.38.288,1.4,1.4,0,0,1,.672,1.26c0,.948-.756,1.56-1.944,1.56a2.266,2.266,0,0,1-1.452-.468,1.559,1.559,0,0,1-.564-.984Zm8.544,0A3.169,3.169,0,0,0,9.708-.78,3.748,3.748,0,0,0,12.756.36a4.145,4.145,0,0,0,2.952-.972,2.541,2.541,0,0,0,.72-1.752,2.305,2.305,0,0,0-.576-1.656,2.525,2.525,0,0,0-1.716-.8A2.962,2.962,0,0,0,15.3-5.292a2.188,2.188,0,0,0,.828-1.764c0-1.56-1.3-2.568-3.3-2.568a3.9,3.9,0,0,0-2.352.66,2.982,2.982,0,0,0-1.14,1.716l1.716.288a1.763,1.763,0,0,1,.5-.924,2,2,0,0,1,1.308-.372c1.02,0,1.584.468,1.584,1.3,0,.924-.708,1.476-1.908,1.476a8.227,8.227,0,0,1-1.164-.06v1.488a10.247,10.247,0,0,1,1.284-.06,3.109,3.109,0,0,1,1.38.288,1.4,1.4,0,0,1,.672,1.26c0,.948-.756,1.56-1.944,1.56a2.266,2.266,0,0,1-1.452-.468,1.559,1.559,0,0,1-.564-.984Zm8.544,0A3.169,3.169,0,0,0,18.252-.78,3.748,3.748,0,0,0,21.3.36a4.144,4.144,0,0,0,2.952-.972,2.541,2.541,0,0,0,.72-1.752A2.305,2.305,0,0,0,24.4-4.02a2.525,2.525,0,0,0-1.716-.8,2.962,2.962,0,0,0,1.164-.468,2.188,2.188,0,0,0,.828-1.764c0-1.56-1.3-2.568-3.3-2.568a3.9,3.9,0,0,0-2.352.66,2.982,2.982,0,0,0-1.14,1.716L19.6-6.96a1.763,1.763,0,0,1,.5-.924,2,2,0,0,1,1.308-.372c1.02,0,1.584.468,1.584,1.3,0,.924-.708,1.476-1.908,1.476a8.227,8.227,0,0,1-1.164-.06v1.488a10.247,10.247,0,0,1,1.284-.06,3.109,3.109,0,0,1,1.38.288,1.4,1.4,0,0,1,.672,1.26c0,.948-.756,1.56-1.944,1.56a2.266,2.266,0,0,1-1.452-.468A1.559,1.559,0,0,1,19.3-2.46ZM30.192,1.26a8.309,8.309,0,0,1-1.248-2.376,8.587,8.587,0,0,1-.384-2.6,8.3,8.3,0,0,1,.408-2.652A7.917,7.917,0,0,1,30.216-8.76l-1.272-.816a9.656,9.656,0,0,0-1.5,2.844,9.388,9.388,0,0,0-.468,2.988,9.13,9.13,0,0,0,.7,3.576,9.936,9.936,0,0,0,1.272,2.28ZM35.328.54A13.192,13.192,0,0,1,35.28-.792V-3.96a6.2,6.2,0,0,0-.048-.816,3.877,3.877,0,0,0,.408.2A28.391,28.391,0,0,1,39.888-2.28l.84-1.416A35.255,35.255,0,0,0,35.28-6.228V-8.46a8.044,8.044,0,0,1,.048-1.26H33.684A7.713,7.713,0,0,1,33.756-8.5V-.8A8.084,8.084,0,0,1,33.684.54ZM44.952-9.468A7.577,7.577,0,0,1,45-8.388v3.3a8.654,8.654,0,0,1-.06,1.08h1.644a5.793,5.793,0,0,1-.048-1.056V-8.376a6.1,6.1,0,0,1,.048-1.08Zm5.412.024a6.319,6.319,0,0,1,.06,1.14v1.5c0,.96-.012,1.488-.06,2a3.393,3.393,0,0,1-1.656,3.06,6.473,6.473,0,0,1-2.592.96,4.1,4.1,0,0,1,.84,1.428A10.15,10.15,0,0,0,49.3-.276a4.6,4.6,0,0,0,2.364-2.8,14.174,14.174,0,0,0,.312-3.636v-1.62a5.692,5.692,0,0,1,.06-1.116Zm6.984.72a8.222,8.222,0,0,1-1.536-.084v1.56a8.646,8.646,0,0,1,1.512-.072h5.712A8.7,8.7,0,0,1,56.772-.864,4.416,4.416,0,0,1,57.828.564a10.763,10.763,0,0,0,6.888-7.956,1.64,1.64,0,0,0,.228.024A1.393,1.393,0,0,0,66.336-8.76a1.391,1.391,0,0,0-1.392-1.38,1.383,1.383,0,0,0-1.38,1.392c-.2.012-.348.024-.708.024Zm7.6-.816a.781.781,0,0,1,.792.78.791.791,0,0,1-.792.792.789.789,0,0,1-.78-.792A.778.778,0,0,1,64.944-9.54Zm3.756.156a6.031,6.031,0,0,1,.048,1.092c0,3.36-.276,4.908-1.14,6.288a4.93,4.93,0,0,1-1.236,1.38A4.271,4.271,0,0,1,67.584.54,7.642,7.642,0,0,0,69.24-1.68a11.236,11.236,0,0,0,.972-4.932,25.075,25.075,0,0,1,.12-2.688Zm3.18-.084a5.193,5.193,0,0,1,.048.792v.36l-.06,6.768A5.377,5.377,0,0,1,71.76-.276l.768.816a5.221,5.221,0,0,1,.516-.216A7.925,7.925,0,0,0,75.6-1.116a7.447,7.447,0,0,0,1.908-2.8A5.03,5.03,0,0,1,76.38-5.04a5.864,5.864,0,0,1-1.176,2.2,4.824,4.824,0,0,1-1.836,1.368l.06-6.828a6.5,6.5,0,0,1,.084-1.14ZM88.74-.852c-1.452-1.4-1.452-1.4-1.752-1.668a18.6,18.6,0,0,0-2.22-1.74A15.893,15.893,0,0,0,86.64-7.572a2.308,2.308,0,0,1,.384-.648l-.792-.816a2.6,2.6,0,0,1-1.068.132l-4.224.06h-.288A5.251,5.251,0,0,1,79.6-8.916l.048,1.536a9.457,9.457,0,0,1,1.308-.1c3.78-.06,3.78-.06,3.972-.072l-.132.312A11.567,11.567,0,0,1,80.76-2.352a9.907,9.907,0,0,1-2.4,1.32A4.814,4.814,0,0,1,79.332.3,14.261,14.261,0,0,0,83.9-3.168,23.068,23.068,0,0,1,87.588.4Zm2.892-8.616a7.576,7.576,0,0,1,.048,1.08v3.3a8.653,8.653,0,0,1-.06,1.08h1.644a5.792,5.792,0,0,1-.048-1.056V-8.376a6.1,6.1,0,0,1,.048-1.08Zm5.412.024A6.32,6.32,0,0,1,97.1-8.3v1.5c0,.96-.012,1.488-.06,2a3.393,3.393,0,0,1-1.656,3.06A6.473,6.473,0,0,1,92.8-.78a4.1,4.1,0,0,1,.84,1.428,10.15,10.15,0,0,0,2.34-.924,4.6,4.6,0,0,0,2.364-2.8,14.174,14.174,0,0,0,.312-3.636v-1.62a5.692,5.692,0,0,1,.06-1.116Zm4.992,5.676a13.174,13.174,0,0,1,1.956-.06h6.372a13.174,13.174,0,0,1,1.956.06V-5.436a11.785,11.785,0,0,1-1.944.084h-6.4a11.785,11.785,0,0,1-1.944-.084Zm12.708,5.88a10.518,10.518,0,0,0,1.284-2.28,9.3,9.3,0,0,0,.684-3.576,9.734,9.734,0,0,0-.456-2.988,10.023,10.023,0,0,0-1.512-2.844l-1.272.816a7.917,7.917,0,0,1,1.248,2.388,8.3,8.3,0,0,1,.408,2.652,8.587,8.587,0,0,1-.384,2.6A8.309,8.309,0,0,1,113.5,1.26Z" transform="translate(386.508 1743.984)" fill="#001c10" />
          <path d="M86.625,0a4.5,4.5,0,0,0-4.5,4.5c0,2.485,4,8.75,4.5,8.75s4.5-6.264,4.5-8.75A4.5,4.5,0,0,0,86.625,0Zm0,6.222A1.721,1.721,0,1,1,88.346,4.5,1.721,1.721,0,0,1,86.625,6.222Z" transform="translate(292.875 1732.455)" fill="#5a83c3" />
        </g>
      </a>
      <a href="#shimoji-panata">
        <g transform="translate(17.889 96.27)">
          <rect width="66.176" height="23.25" rx="11.625" transform="translate(331.434 5386.235)" fill="#edf5ff" />
          <g transform="translate(-33.566 3658.78)">
            <path d="M3.312-8.988v.168A8.805,8.805,0,0,1,3.2-7.656,14.594,14.594,0,0,1,2.076-3.54,8.087,8.087,0,0,1,.36-.984,5.192,5.192,0,0,1,1.728.048C3.336-1.8,4.272-4.164,4.776-7.608L4.812-7.9l.06-.348.024-.2a1.383,1.383,0,0,1,.06-.24ZM6.876-8.7a5.042,5.042,0,0,1,.168.864,15.9,15.9,0,0,0,3.18,7.9,4.939,4.939,0,0,1,1.32-1.1A11.623,11.623,0,0,1,8.868-6.228a14.867,14.867,0,0,1-.5-2.76Zm3.5-.96A1.388,1.388,0,0,0,9-8.28a1.391,1.391,0,0,0,1.38,1.392A1.393,1.393,0,0,0,11.772-8.28,1.391,1.391,0,0,0,10.38-9.66Zm0,.6a.781.781,0,0,1,.792.78.791.791,0,0,1-.792.792A.789.789,0,0,1,9.6-8.28.778.778,0,0,1,10.38-9.06Zm8.712,2.232c0-.132,0-.132.012-.924l.012-.72a7.57,7.57,0,0,1,.06-1.152H17.52a7.553,7.553,0,0,1,.06,1.152v.708c0,.216,0,.432-.012.936H14.544a8.674,8.674,0,0,1-1.56-.084V-5.4a12.326,12.326,0,0,1,1.536-.06H17.5a5.188,5.188,0,0,1-.588,2.412A5.54,5.54,0,0,1,14.016-.684a3.727,3.727,0,0,1,1.092,1.3,7.225,7.225,0,0,0,3.06-2.688,6.625,6.625,0,0,0,.864-3.384h2.46a12.326,12.326,0,0,1,1.536.06V-6.912a8.6,8.6,0,0,1-1.56.084Zm14.64-1.788a3.15,3.15,0,0,1-1.056.144c-2.928.024-2.928.024-3.12.048A5.979,5.979,0,0,0,29.844-9a6.322,6.322,0,0,1,.36-.672l-1.56-.348a7.316,7.316,0,0,1-.7,1.668,10.316,10.316,0,0,1-3.012,3.42,3.809,3.809,0,0,1,1.2.96A12.415,12.415,0,0,0,28.944-7.2l3.732-.036A11.465,11.465,0,0,1,31.332-4.4,15.62,15.62,0,0,0,28.92-6.012l-.912,1.068a13.585,13.585,0,0,1,2.46,1.716A8.711,8.711,0,0,1,28.5-1.56a12.094,12.094,0,0,1-2.34,1.2,3.809,3.809,0,0,1,1,1.236,11.718,11.718,0,0,0,5.472-4.584,20.127,20.127,0,0,0,1.536-3.3,2.15,2.15,0,0,1,.372-.8Z" transform="translate(386.64 1743.984)" fill="#001c10" />
            <path d="M86.625,0a4.5,4.5,0,0,0-4.5,4.5c0,2.485,4,8.75,4.5,8.75s4.5-6.264,4.5-8.75A4.5,4.5,0,0,0,86.625,0Zm0,6.222A1.721,1.721,0,1,1,88.346,4.5,1.721,1.721,0,0,1,86.625,6.222Z" transform="translate(292.875 1732.455)" fill="#5a83c3" />
          </g>
        </g>
      </a>
      <a href="#shimoji-maou">
        <g transform="translate(13.969 128.747)">
          <rect width="91.616" height="23.25" rx="11.625" transform="translate(331.434 5386.236)" fill="#edf5ff" />
          <g transform="translate(-33.566 3658.781)">
            <path d="M8.256-8.28v.564H7.5a4.088,4.088,0,0,1-.756-.048v.9c.384-.024.528-.036.78-.036h.288A3.81,3.81,0,0,1,6.6-5.952a2.366,2.366,0,0,1,.564.66L6.012-5.52a3.058,3.058,0,0,1-.372.66H4.164a8.411,8.411,0,0,1-1.116-.048c.024.288.036.564.036.888V-2.5a5.982,5.982,0,0,1-.048.876c.3-.024.612-.036.984-.036h.552C4.248-.66,3.468-.168,1.944,0a3.09,3.09,0,0,1,.624,1.08A4.224,4.224,0,0,0,5.148-.252a3.025,3.025,0,0,0,.684-1.4H6.54V.072a.678.678,0,0,0,.192.576,5.388,5.388,0,0,0,2.244.24c1.464,0,2.04-.108,2.292-.42a2.7,2.7,0,0,0,.384-1.38A3.388,3.388,0,0,1,10.6-1.3c-.012.252-.024.336-.048.528a7.321,7.321,0,0,0-.54-.876c.132,0,.132,0,.348.012-.012-.324-.024-.54-.024-.948V-3.888a7.7,7.7,0,0,1,.048-1.02,12.1,12.1,0,0,1-1.26.048h-2.2c.216-.3.216-.3.312-.42H7.224A4.257,4.257,0,0,0,8.28-6.348c-.012.144-.012.144-.024.48v.2a2.79,2.79,0,0,1-.036.576H9.3a3.159,3.159,0,0,1-.048-.564v-.216c0-.084-.012-.276-.024-.408a.3.3,0,0,0-.012-.1A5.963,5.963,0,0,0,11.04-4.944a3.631,3.631,0,0,1,.516-.912A5.071,5.071,0,0,1,9.78-6.9h.5a4.873,4.873,0,0,1,.8.048v-.912a4.431,4.431,0,0,1-.8.048H9.252V-8.28h.84a12.1,12.1,0,0,1,1.26.048V-9.4a10.237,10.237,0,0,1-1.416.072H6.876v-.132a2.756,2.756,0,0,1,.06-.708H5.5a2.961,2.961,0,0,1,.06.684v.156H2.568c-.54,0-1.008-.024-1.428-.06.036.348.06.96.06,1.428v.144c-.012.492-.012,1-.012,1.488a35.265,35.265,0,0,1-.252,4.2A5.143,5.143,0,0,1,.2.024a3.566,3.566,0,0,1,1.044.984A4.937,4.937,0,0,0,1.8-.156a12.414,12.414,0,0,0,.468-2.376,54.47,54.47,0,0,0,.18-5.748H4.3v.564H3.468a4.741,4.741,0,0,1-.78-.048v.912A4.553,4.553,0,0,1,3.432-6.9h.444a3.974,3.974,0,0,1-1.44,1.116,2.645,2.645,0,0,1,.66.792,4.72,4.72,0,0,0,1.248-1.3,3.118,3.118,0,0,0-.036.42L4.3-5.64a2.908,2.908,0,0,1-.036.552H5.316A3.876,3.876,0,0,1,5.28-5.64v-.252c0-.132-.012-.4-.024-.492a7.33,7.33,0,0,0,.864.84,4.089,4.089,0,0,1,.552-.72A3.527,3.527,0,0,1,5.64-6.9h.168a4.51,4.51,0,0,1,.7.036v-.9a4.072,4.072,0,0,1-.72.048h-.5V-8.28ZM10.524-.648c-.048.216-.084.276-.168.348a1.775,1.775,0,0,1-1.068.192H9.156C8.664-.12,8.34-.132,8.22-.132,7.8-.12,7.7-.168,7.7-.408V-1.656h.7c-.084.228-.12.312-.228.552H7.956a1.234,1.234,0,0,0-.2-.012l.24.816a1.368,1.368,0,0,1,.36-.072c1.1-.12,1.212-.132,1.5-.18.036.1.048.12.084.228ZM9.516-1.656h.3l-.48.192c.108.132.132.18.2.276a4.343,4.343,0,0,1-.6.048c.132-.264.168-.336.252-.516ZM4.26-4.08h1.8v.432H4.26Zm2.892,0H9.168v.432H7.152ZM4.26-2.892h1.8v.444H4.26Zm2.9,0h2v.444h-2ZM17.22-8.136V-5.46H15.24a11.174,11.174,0,0,1-1.464-.072V-4.14a14.1,14.1,0,0,1,1.488-.06H17.22V-.984H14.244a10.678,10.678,0,0,1-1.6-.072V.384A12.831,12.831,0,0,1,14.244.3h7.572a11.5,11.5,0,0,1,1.56.084v-1.44a12.543,12.543,0,0,1-1.584.072H18.636V-4.2h2.148a13,13,0,0,1,1.452.06V-5.532a12.884,12.884,0,0,1-1.452.072H18.636V-8.136h2.7a14.459,14.459,0,0,1,1.6.072V-9.492a11.047,11.047,0,0,1-1.6.084h-6.66A10.258,10.258,0,0,1,13.1-9.492v1.428a14.1,14.1,0,0,1,1.608-.072Zm13.716.444a2.623,2.623,0,0,1,1.212.36,2.973,2.973,0,0,1,1.476,2.664,3.36,3.36,0,0,1-1.668,3,6.377,6.377,0,0,1-2.388.66A3.828,3.828,0,0,1,30.3.4a7.845,7.845,0,0,0,1.884-.5A4.623,4.623,0,0,0,35.1-4.584c0-2.7-1.872-4.452-4.752-4.452a5.387,5.387,0,0,0-4.128,1.68A5.155,5.155,0,0,0,24.9-3.864c0,1.932.984,3.324,2.352,3.324.984,0,1.752-.708,2.436-2.256A17.36,17.36,0,0,0,30.936-7.692Zm-1.464.012a15.815,15.815,0,0,1-1,4.056c-.432,1.032-.84,1.536-1.236,1.536-.528,0-.948-.78-.948-1.764a4.018,4.018,0,0,1,1.632-3.24A3.055,3.055,0,0,1,29.472-7.68Zm11.76-1.428H38.124a13.081,13.081,0,0,1-1.32-.048,6.268,6.268,0,0,1,.048.888v1.116a6.6,6.6,0,0,1-.048.924h1.3V-7.92h7.824v1.692h1.3a7.174,7.174,0,0,1-.048-.924V-8.268a5.951,5.951,0,0,1,.048-.888c-.372.036-.744.048-1.32.048H42.576v-.24a3.515,3.515,0,0,1,.072-.756H41.16a3.17,3.17,0,0,1,.072.756Zm0,5.076a9.821,9.821,0,0,1-.4.912H38.712A9.784,9.784,0,0,1,37.6-3.168a7.458,7.458,0,0,1,.06,1.152v1.8A10.015,10.015,0,0,1,37.584.972h1.332v-.5h6.2v.5h1.32A9.174,9.174,0,0,1,46.38-.2V-2a10.713,10.713,0,0,1,.048-1.164A8.86,8.86,0,0,1,45.3-3.12H42.216a8.431,8.431,0,0,0,.372-.912h1.7c.564,0,.876.012,1.26.036A6.757,6.757,0,0,1,45.5-5.064V-6.312a7.771,7.771,0,0,1,.036-.936,5.91,5.91,0,0,1-.864.048H39.408a6.235,6.235,0,0,1-.9-.048c.024.264.036.5.036.9v1.284A7.379,7.379,0,0,1,38.5-4c.372-.024.624-.036,1.26-.036Zm-1.44-2.1h4.464v1.02H39.792ZM38.916-1.98h6.2V-.7h-6.2Zm19.692-3.2a4.146,4.146,0,0,1-.84.048h-2.6A3.116,3.116,0,0,1,54.4-5.2v1.248a3.007,3.007,0,0,1,.444-.036,7.18,7.18,0,0,0,1.116,2.52A7.13,7.13,0,0,1,54.2-.336a6.426,6.426,0,0,1-.852-1.548l-1.008.4A7.173,7.173,0,0,0,53.3.432,3,3,0,0,1,53.592.24a3.751,3.751,0,0,1,.516.888A9.118,9.118,0,0,0,56.76-.54a9.359,9.359,0,0,0,2.376,1.56A5.358,5.358,0,0,1,59.82-.264a6.875,6.875,0,0,1-2.2-1.224,9.705,9.705,0,0,0,1.44-2.52,3.591,3.591,0,0,1,.216-.48ZM57.756-4a6.5,6.5,0,0,1-.96,1.668A4.592,4.592,0,0,1,56.028-4Zm-4.2,1.956a5.968,5.968,0,0,1,.816.048V-3.18a3.323,3.323,0,0,1-.816.06h-.108V-4.344a6.111,6.111,0,0,1,.72.036V-5.424a3.741,3.741,0,0,1-.72.048V-5.46a3.608,3.608,0,0,1,.06-.78H52.464a4.216,4.216,0,0,1,.048.78v.084H51.78V-5.46a3.477,3.477,0,0,1,.06-.78H50.784a4.385,4.385,0,0,1,.048.78v.084H50.34l-.156-.012.024-1.092h3.036c.312,0,.624.012.816.012l.156.012a7.814,7.814,0,0,1-.036-.972V-8.712a9.11,9.11,0,0,1,.036-1.02,10.227,10.227,0,0,1-1.188.048H50.3a11.508,11.508,0,0,1-1.32-.048,19.777,19.777,0,0,1,.06,1.992c0,4.464-.168,5.928-.852,7.548A4.044,4.044,0,0,1,49.116.852a9.554,9.554,0,0,0,.852-2.892Zm-3.48-1.08c.048-.528.06-.744.084-1.212l.18-.012h.492V-3.12Zm1.7,0V-4.344h.732V-3.12ZM50.208-8.6H52.98v1.1H50.208Zm.624,6.768a5.589,5.589,0,0,1-1.1,2.22,3.2,3.2,0,0,1,1.068.708A8.943,8.943,0,0,0,51.96-1.464Zm7.956-6.24a4.792,4.792,0,0,1-.1,1.116c-.036.12-.132.168-.3.168s-.24-.06-.24-.2V-8.688a7.7,7.7,0,0,1,.048-1.02,6.729,6.729,0,0,1-.96.048h-1.4a5.367,5.367,0,0,1-.888-.048,4.888,4.888,0,0,1,.024.72,3.817,3.817,0,0,1-.984,2.964,2.554,2.554,0,0,1,1.02.78,4.243,4.243,0,0,0,.84-1.56,5.406,5.406,0,0,0,.264-1.7h.96v2c0,.456.084.612.384.708a2.889,2.889,0,0,0,.912.108c1.128,0,1.284-.24,1.428-2.112a2.493,2.493,0,0,1-1.008-.54Z" transform="translate(386.796 1743.984)" fill="#001c10" />
            <path d="M86.625,0a4.5,4.5,0,0,0-4.5,4.5c0,2.485,4,8.75,4.5,8.75s4.5-6.264,4.5-8.75A4.5,4.5,0,0,0,86.625,0Zm0,6.222A1.721,1.721,0,1,1,88.346,4.5,1.721,1.721,0,0,1,86.625,6.222Z" transform="translate(292.875 1732.455)" fill="#5a83c3" />
          </g>
        </g>
      </a>
      <a href="#shimoji-toriike">
        <g transform="translate(44.324 157.747)">
          <rect width="67.28" height="23.25" rx="11.625" transform="translate(331.434 5386.236)" fill="#edf5ff" />
          <g transform="translate(-33.566 3658.781)">
            <path d="M5.256-7.512a10.007,10.007,0,0,1-1.344-.06,14.03,14.03,0,0,1,.048,1.4v3.792A9.108,9.108,0,0,1,3.9-1.068H5.256a6.519,6.519,0,0,1-.072-1.308v-.612H6.8v.5a9.231,9.231,0,0,1-.072,1.332H8.064a7.674,7.674,0,0,1-.072-1.332v-.5h1.8v.468c0,.312-.012.336-.276.336a5.791,5.791,0,0,1-.792-.072A2.95,2.95,0,0,1,9-1.116c.228.012.432.012.54.012.744,0,1.044-.072,1.26-.276.168-.18.216-.42.216-1.1v-3.7a13.02,13.02,0,0,1,.048-1.392,7.648,7.648,0,0,1-1.224.06H8.88a15.944,15.944,0,0,0,1.548-1.14,4.575,4.575,0,0,1,.6-.456l-.612-.744a6.041,6.041,0,0,1-1.356.084H5.172A10.681,10.681,0,0,1,3.744-9.84v1.224a8.892,8.892,0,0,1,1.248-.06h1.14l-.924.54a6.918,6.918,0,0,1,1,.624Zm2.736,1.02h1.8v.78h-1.8Zm-1.188,0v.78H5.184v-.78Zm-1.62,1.74H6.8v.8H5.184Zm4.608.8h-1.8v-.8h1.8ZM8.676-8.676a11.389,11.389,0,0,1-1.2.9c-.708-.528-.816-.6-1.248-.9ZM.42-9.048A11.485,11.485,0,0,1,2.46-6.8l1-.972A13.909,13.909,0,0,0,1.38-9.948ZM.456-4.212a3.986,3.986,0,0,1,.768-.06h.612v2.556A6.88,6.88,0,0,1,.252-.564L.9.756A10.062,10.062,0,0,0,2.232-.408a2.16,2.16,0,0,0,.192-.18A2.915,2.915,0,0,0,3.816.432a8.929,8.929,0,0,0,2.7.3c2.016,0,3.228-.024,4.8-.1a8.023,8.023,0,0,1,.348-1.428A33.848,33.848,0,0,1,6.648-.48,9.747,9.747,0,0,1,4.26-.7a2.221,2.221,0,0,1-.6-.312,1.827,1.827,0,0,1-.588-.672V-4.248A12.091,12.091,0,0,1,3.12-5.556a5.2,5.2,0,0,1-.912.06h-.84a5.037,5.037,0,0,1-.912-.06Zm14.28-5.676a2.82,2.82,0,0,1-.036.408l-.18,1.488c-.1.828-.168,2.16-.168,3.132,0,.24.024,1.128.036,1.476v.228A.933.933,0,0,1,14.376-3l1.44-.024v-.252a5.753,5.753,0,0,1,1.512-3.876,1.786,1.786,0,0,1,1.3-.636c1.032,0,1.608.96,1.608,2.688A3.658,3.658,0,0,1,18.2-1.428a7,7,0,0,1-2.628.684A4.59,4.59,0,0,1,16.284.672,10.234,10.234,0,0,0,18.636,0a5.044,5.044,0,0,0,3.1-4.932,5.026,5.026,0,0,0-.864-3.192A2.513,2.513,0,0,0,18.816-9.2a2.865,2.865,0,0,0-2.28,1.224,4.851,4.851,0,0,0-.756,1.428,2.634,2.634,0,0,1-.072.264h-.036c.024-.288.072-.7.156-1.2A11.771,11.771,0,0,1,16.26-9.8ZM30.948-5.556v2.6a9.019,9.019,0,0,1-.06,1.236h1.38a8.259,8.259,0,0,1-.06-1.2V-5.964l1.62-.516c-.06,2.76-.06,2.772-.72,2.772a5.373,5.373,0,0,1-.7-.072,3.627,3.627,0,0,1,.336,1.212c.312.024.42.036.552.036a1.741,1.741,0,0,0,1.224-.324c.324-.3.444-1.092.5-3.264.048-1.272.048-1.272.048-1.428s.012-.24.012-.288A3.171,3.171,0,0,1,35.1-8.22a8.543,8.543,0,0,1-.972.36l-1.92.588V-8.736a7.471,7.471,0,0,1,.072-1.284h-1.4a9.223,9.223,0,0,1,.072,1.272v1.86l-1.368.432V-7.584a8.364,8.364,0,0,1,.072-1.224H28.236a7.651,7.651,0,0,1,.072,1.272v1.464a6.212,6.212,0,0,1-1.092.252l.288,1.4a7.139,7.139,0,0,1,.672-.264,1.162,1.162,0,0,0,.132-.036V-.564a.938.938,0,0,0,.6,1.02,7.791,7.791,0,0,0,2.7.252c.78,0,1.8-.036,2.22-.084a1.746,1.746,0,0,0,1.02-.336c.408-.324.552-.78.684-2.184a4.045,4.045,0,0,1-1.272-.372C34.2-1.14,34.14-.876,33.852-.72A5.919,5.919,0,0,1,31.6-.5,9.175,9.175,0,0,1,29.88-.6c-.228-.06-.3-.156-.3-.408V-5.124ZM24.816-9.048A10.542,10.542,0,0,1,26.832-7.4l.852-1.044a12.884,12.884,0,0,0-2.028-1.56Zm-.48,3.036A11.369,11.369,0,0,1,26.448-4.44l.744-1.1A11.219,11.219,0,0,0,25.08-7.02Zm1.776,2.268A11.755,11.755,0,0,1,24.96-.852a3.389,3.389,0,0,1-.5.708L25.62.864a15.948,15.948,0,0,0,1.572-3.828Z" transform="translate(386.748 1743.984)" fill="#001c10" />
            <path d="M86.625,0a4.5,4.5,0,0,0-4.5,4.5c0,2.485,4,8.75,4.5,8.75s4.5-6.264,4.5-8.75A4.5,4.5,0,0,0,86.625,0Zm0,6.222A1.721,1.721,0,1,1,88.346,4.5,1.721,1.721,0,0,1,86.625,6.222Z" transform="translate(292.875 1732.455)" fill="#5a83c3" />
          </g>
        </g>
      </a>
      <a href="#shimoji-miniToriike">
        <g transform="translate(55.481 185.472)">
          <rect width="90.032" height="23.25" rx="11.625" transform="translate(331.434 5386.234)" fill="#edf5ff" />
          <g transform="translate(-33.566 3658.779)">
            <path d="M2.664-8.208a31.655,31.655,0,0,1,6.552,1.38L9.7-8.3A40,40,0,0,0,3.2-9.6Zm-.192,3.3a26.39,26.39,0,0,1,3.036.528,20.626,20.626,0,0,1,3.3.96L9.276-4.9A37.709,37.709,0,0,0,3.024-6.288ZM1.5-1.536a33.386,33.386,0,0,1,3.768.7A22.015,22.015,0,0,1,9.516.5l.516-1.512A37.566,37.566,0,0,0,2.064-2.9ZM14.22-6.708a10.352,10.352,0,0,1,1.4-.06h4.74a10.352,10.352,0,0,1,1.4.06V-8.292a7.464,7.464,0,0,1-1.416.084H15.636a7.464,7.464,0,0,1-1.416-.084ZM13.008-.84A11.89,11.89,0,0,1,14.52-.9h6.936a11.89,11.89,0,0,1,1.512.06V-2.448a8.375,8.375,0,0,1-1.536.084H14.544a8.375,8.375,0,0,1-1.536-.084ZM29.256-7.512a10.007,10.007,0,0,1-1.344-.06,14.03,14.03,0,0,1,.048,1.4v3.792a9.108,9.108,0,0,1-.06,1.308h1.356a6.518,6.518,0,0,1-.072-1.308v-.612H30.8v.5a9.231,9.231,0,0,1-.072,1.332h1.332a7.674,7.674,0,0,1-.072-1.332v-.5h1.8v.468c0,.312-.012.336-.276.336a5.791,5.791,0,0,1-.792-.072A2.95,2.95,0,0,1,33-1.116c.228.012.432.012.54.012.744,0,1.044-.072,1.26-.276.168-.18.216-.42.216-1.1v-3.7a13.02,13.02,0,0,1,.048-1.392,7.648,7.648,0,0,1-1.224.06h-.96a15.944,15.944,0,0,0,1.548-1.14,4.575,4.575,0,0,1,.6-.456l-.612-.744a6.041,6.041,0,0,1-1.356.084H29.172a10.681,10.681,0,0,1-1.428-.072v1.224a8.892,8.892,0,0,1,1.248-.06h1.14l-.924.54a6.918,6.918,0,0,1,1,.624Zm2.736,1.02h1.8v.78h-1.8Zm-1.188,0v.78h-1.62v-.78Zm-1.62,1.74H30.8v.8h-1.62Zm4.608.8h-1.8v-.8h1.8ZM32.676-8.676a11.389,11.389,0,0,1-1.2.9c-.708-.528-.816-.6-1.248-.9ZM24.42-9.048A11.485,11.485,0,0,1,26.46-6.8l1-.972A13.909,13.909,0,0,0,25.38-9.948Zm.036,4.836a3.986,3.986,0,0,1,.768-.06h.612v2.556A6.88,6.88,0,0,1,24.252-.564L24.9.756A10.062,10.062,0,0,0,26.232-.408a2.16,2.16,0,0,0,.192-.18A2.915,2.915,0,0,0,27.816.432a8.929,8.929,0,0,0,2.7.3c2.016,0,3.228-.024,4.8-.1a8.023,8.023,0,0,1,.348-1.428,33.848,33.848,0,0,1-5.016.312A9.747,9.747,0,0,1,28.26-.7a2.221,2.221,0,0,1-.6-.312,1.827,1.827,0,0,1-.588-.672V-4.248a12.091,12.091,0,0,1,.048-1.308,5.2,5.2,0,0,1-.912.06h-.84a5.037,5.037,0,0,1-.912-.06Zm14.28-5.676a2.821,2.821,0,0,1-.036.408l-.18,1.488c-.1.828-.168,2.16-.168,3.132,0,.24.024,1.128.036,1.476v.228A.933.933,0,0,1,38.376-3l1.44-.024v-.252a5.753,5.753,0,0,1,1.512-3.876,1.786,1.786,0,0,1,1.3-.636c1.032,0,1.608.96,1.608,2.688A3.658,3.658,0,0,1,42.2-1.428a7,7,0,0,1-2.628.684A4.59,4.59,0,0,1,40.284.672,10.234,10.234,0,0,0,42.636,0a5.044,5.044,0,0,0,3.1-4.932,5.026,5.026,0,0,0-.864-3.192A2.513,2.513,0,0,0,42.816-9.2a2.865,2.865,0,0,0-2.28,1.224,4.851,4.851,0,0,0-.756,1.428,2.635,2.635,0,0,1-.072.264h-.036c.024-.288.072-.7.156-1.2A11.771,11.771,0,0,1,40.26-9.8ZM54.948-5.556v2.6a9.02,9.02,0,0,1-.06,1.236h1.38a8.259,8.259,0,0,1-.06-1.2V-5.964l1.62-.516c-.06,2.76-.06,2.772-.72,2.772a5.373,5.373,0,0,1-.7-.072,3.627,3.627,0,0,1,.336,1.212c.312.024.42.036.552.036a1.741,1.741,0,0,0,1.224-.324c.324-.3.444-1.092.5-3.264.048-1.272.048-1.272.048-1.428s.012-.24.012-.288A3.171,3.171,0,0,1,59.1-8.22a8.543,8.543,0,0,1-.972.36l-1.92.588V-8.736a7.471,7.471,0,0,1,.072-1.284h-1.4a9.223,9.223,0,0,1,.072,1.272v1.86l-1.368.432V-7.584a8.364,8.364,0,0,1,.072-1.224H52.236a7.651,7.651,0,0,1,.072,1.272v1.464a6.212,6.212,0,0,1-1.092.252l.288,1.4a7.139,7.139,0,0,1,.672-.264,1.162,1.162,0,0,0,.132-.036V-.564a.938.938,0,0,0,.6,1.02,7.791,7.791,0,0,0,2.7.252c.78,0,1.8-.036,2.22-.084a1.746,1.746,0,0,0,1.02-.336c.408-.324.552-.78.684-2.184a4.045,4.045,0,0,1-1.272-.372C58.2-1.14,58.14-.876,57.852-.72A5.919,5.919,0,0,1,55.6-.5,9.175,9.175,0,0,1,53.88-.6c-.228-.06-.3-.156-.3-.408V-5.124ZM48.816-9.048A10.542,10.542,0,0,1,50.832-7.4l.852-1.044a12.884,12.884,0,0,0-2.028-1.56Zm-.48,3.036A11.369,11.369,0,0,1,50.448-4.44l.744-1.1A11.219,11.219,0,0,0,49.08-7.02Zm1.776,2.268A11.755,11.755,0,0,1,48.96-.852a3.389,3.389,0,0,1-.5.708L49.62.864a15.948,15.948,0,0,0,1.572-3.828Z" transform="translate(385.5 1743.984)" fill="#001c10" />
            <path d="M86.625,0a4.5,4.5,0,0,0-4.5,4.5c0,2.485,4,8.75,4.5,8.75s4.5-6.264,4.5-8.75A4.5,4.5,0,0,0,86.625,0Zm0,6.222A1.721,1.721,0,1,1,88.346,4.5,1.721,1.721,0,0,1,86.625,6.222Z" transform="translate(292.875 1732.455)" fill="#5a83c3" />
          </g>
        </g>
      </a>
      <a href="#shimoji-antonio">
        <g transform="translate(21.177 212.449)">
          <rect width="136.208" height="23.25" rx="11.625" transform="translate(331.434 5386.235)" fill="#edf5ff" />
          <g transform="translate(-33.566 3658.78)">
            <path d="M10.428-9.18a3.3,3.3,0,0,1-1.164.108H3a9.567,9.567,0,0,1-1.656-.1v1.5A11.535,11.535,0,0,1,2.976-7.74h6.3a4.976,4.976,0,0,1-1.14,1.524,5.565,5.565,0,0,1-1.752,1.1A4.056,4.056,0,0,1,7.464-4.02a7.506,7.506,0,0,0,1.44-1,7.615,7.615,0,0,0,1.848-2.412,3.335,3.335,0,0,1,.48-.84Zm-5.7,2.424a3.039,3.039,0,0,1,.06.72c0,2.268-.384,3.3-1.608,4.272a5.533,5.533,0,0,1-2.1,1.02A4.236,4.236,0,0,1,2.028.624a6.934,6.934,0,0,0,3.1-2.16A6.5,6.5,0,0,0,6.312-5.784a5.509,5.509,0,0,1,.048-.972ZM13.464-7.7a12.6,12.6,0,0,1,3.06,2.436l1.032-1.308a17,17,0,0,0-3.1-2.316Zm.42,7.92a4.248,4.248,0,0,1,.792-.2,12.962,12.962,0,0,0,4.572-1.8,10.532,10.532,0,0,0,3.8-4.7A5.175,5.175,0,0,1,21.78-7.668a10.02,10.02,0,0,1-1.224,2.4,8.017,8.017,0,0,1-3.564,2.94,11.434,11.434,0,0,1-3.552.888ZM28.824.54a13.192,13.192,0,0,1-.048-1.332V-3.96a6.2,6.2,0,0,0-.048-.816,3.877,3.877,0,0,0,.408.2A28.391,28.391,0,0,1,33.384-2.28l.84-1.416a35.255,35.255,0,0,0-5.448-2.532V-8.46a8.044,8.044,0,0,1,.048-1.26H27.18A7.713,7.713,0,0,1,27.252-8.5V-.8A8.084,8.084,0,0,1,27.18.54Zm9.4-7.248a10.352,10.352,0,0,1,1.4-.06h4.74a10.352,10.352,0,0,1,1.4.06V-8.292a7.464,7.464,0,0,1-1.416.084H39.636a7.464,7.464,0,0,1-1.416-.084ZM37.008-.84A11.89,11.89,0,0,1,38.52-.9h6.936a11.89,11.89,0,0,1,1.512.06V-2.448a8.375,8.375,0,0,1-1.536.084H38.544a8.375,8.375,0,0,1-1.536-.084ZM54.9-4.32l.036,3.588v.216A7.64,7.64,0,0,1,54.864.636H56.5c-.036-.336-.06-.792-.072-1.38l-.06-5.568H57.6a12.339,12.339,0,0,1,1.38.048V-7.716a6.823,6.823,0,0,1-1.416.084H56.352L56.328-8.6v-.072a7.7,7.7,0,0,1,.048-1.02H54.792a8.652,8.652,0,0,1,.06,1.1l.012.96H50.712A6.973,6.973,0,0,1,49.2-7.716v1.464a12.5,12.5,0,0,1,1.476-.06h3.288a11.416,11.416,0,0,1-1.608,1.98,12.771,12.771,0,0,1-3.78,2.6,3.476,3.476,0,0,1,1,1.248,17.382,17.382,0,0,0,1.776-1.1,16.521,16.521,0,0,0,2.364-2.088,7.27,7.27,0,0,0,1.224-1.68c-.012.192-.036.8-.036.864ZM69.792-7.608l.612-.24a8.024,8.024,0,0,0-1.068-1.9l-.876.324A7.816,7.816,0,0,1,69.4-7.764l.06.12.036.1a4.038,4.038,0,0,1-.66.024l-2.664.012c.036-.42.036-.432.048-.756l.036-.648.012-.228c0-.084.012-.144.012-.216a3.352,3.352,0,0,1,.048-.384L64.716-9.78a2.452,2.452,0,0,1,.036.468v.3c0,.348-.024,1.056-.06,1.5l-2.1.012a7.174,7.174,0,0,1-1.332-.084l.012,1.464a8.137,8.137,0,0,1,1.3-.06H64.56A6.572,6.572,0,0,1,60.768-.7a4.891,4.891,0,0,1,1.08,1.26,8.293,8.293,0,0,0,4.2-6.756h2.8a27.074,27.074,0,0,1-.264,3.84c-.192,1.044-.372,1.308-.888,1.308a5.839,5.839,0,0,1-1.584-.288A3.664,3.664,0,0,1,66.384.2a8.111,8.111,0,0,0,1.488.144c1.44,0,1.86-.492,2.172-2.568.12-.792.252-2.652.288-4.008a1.813,1.813,0,0,1,.132-.792ZM71.9-8.472A7,7,0,0,0,70.848-10.3L70-9.96A8.6,8.6,0,0,1,71.028-8.1Zm10.164.456c-.288.1-.288.1-1.176.1h-2.16V-8.952a5.488,5.488,0,0,1,.06-.864H77.124a4.624,4.624,0,0,1,.06.876v1.032H74.832a9.334,9.334,0,0,1-1.3-.06,9.84,9.84,0,0,1,.048,1.14v1.74a8.929,8.929,0,0,1-.06,1.008h1.608c-.024-.264-.036-.588-.036-.96V-6.588h5.856a5.935,5.935,0,0,1-2.88,4.812,7.892,7.892,0,0,1-2.556,1,4.4,4.4,0,0,1,.96,1.428,10.88,10.88,0,0,0,2.388-1.08,7.026,7.026,0,0,0,2.964-3.312,10.072,10.072,0,0,0,.756-2.9,1.91,1.91,0,0,1,.18-.66Zm10.6-1.236a7.553,7.553,0,0,1-1.548.084H87.588a7.7,7.7,0,0,1-1.548-.084v1.464a9.915,9.915,0,0,1,1.524-.06H91.14a9.812,9.812,0,0,1,1.524.06Zm.756,4.4a10.542,10.542,0,0,1,1.524.06V-6.216a7.844,7.844,0,0,1-1.548.084h-7.02a7.844,7.844,0,0,1-1.548-.084v1.428a10.542,10.542,0,0,1,1.524-.06h2.916c-.084,2.328-1.02,3.516-3.372,4.26A3.815,3.815,0,0,1,86.88.744C89.592-.3,90.72-1.884,90.852-4.848Zm2.544-3.828A7.358,7.358,0,0,0,94.908-10.5l-.864.312a8.717,8.717,0,0,1,1.032,1.86ZM92.472-9.72A8.847,8.847,0,0,1,93.528-7.8l.9-.336a8.468,8.468,0,0,0-1.068-1.9Zm11.592,1.968a4.5,4.5,0,0,1-.732.864,13.689,13.689,0,0,1-3.408,2.436,12.8,12.8,0,0,1-2.844,1.08,4.91,4.91,0,0,1,.744,1.248,16.929,16.929,0,0,0,3.4-1.524V-.432a7.2,7.2,0,0,1-.06,1.14l1.548.012a7.088,7.088,0,0,1-.06-1.152v-4.08A16.058,16.058,0,0,0,104.88-6.48a2.34,2.34,0,0,1,.408-.4Z" transform="translate(385.92 1743.984)" fill="#001c10" />
            <path d="M86.625,0a4.5,4.5,0,0,0-4.5,4.5c0,2.485,4,8.75,4.5,8.75s4.5-6.264,4.5-8.75A4.5,4.5,0,0,0,86.625,0Zm0,6.222A1.721,1.721,0,1,1,88.346,4.5,1.721,1.721,0,0,1,86.625,6.222Z" transform="translate(292.875 1732.455)" fill="#5a83c3" />
          </g>
        </g>
      </a>
      <a href="#shimoji-honDrop">
        <g transform="translate(73.966 239.618)">
          <rect width="91.508" height="23.25" rx="11.625" transform="translate(331.434 5386.236)" fill="#edf5ff" />
          <g transform="translate(-33.566 3658.781)">
            <path d="M4.5-6.8A11.285,11.285,0,0,1,.324-2.2,4.136,4.136,0,0,1,1.14-.936a11.471,11.471,0,0,0,1.944-1.68V-1.26a8.585,8.585,0,0,1,1.2-.072h.948v.816A11.08,11.08,0,0,1,5.148.972H6.66A10.844,10.844,0,0,1,6.576-.516v-.816H7.644a8.707,8.707,0,0,1,1.2.072V-2.628A13.378,13.378,0,0,0,10.86-.96a4.9,4.9,0,0,1,.816-1.308A10.268,10.268,0,0,1,9.06-4.284,11.9,11.9,0,0,1,7.26-6.8H9.828a14.173,14.173,0,0,1,1.452.072V-8.2a9.853,9.853,0,0,1-1.452.084H6.576v-.864a5.991,5.991,0,0,1,.084-1.1H5.16a7.459,7.459,0,0,1,.072,1.116v.852H2.148A10.4,10.4,0,0,1,.72-8.2v1.464A13.7,13.7,0,0,1,2.148-6.8ZM6.576-2.628v-1.9a9.7,9.7,0,0,0-.108-1.332A12.989,12.989,0,0,0,8.8-2.676a7.509,7.509,0,0,1-1.056.048Zm-1.344,0H4.212a7.6,7.6,0,0,1-1.068-.048,11.9,11.9,0,0,0,2.184-3.18,11.751,11.751,0,0,0-.1,1.344ZM16.62.54a12.311,12.311,0,0,1-.048-1.332V-3.96a6.855,6.855,0,0,0-.048-.816,3.877,3.877,0,0,0,.408.2A29.142,29.142,0,0,1,21.18-2.28L22.02-3.7a34.9,34.9,0,0,0-5.448-2.532V-8.46a9.944,9.944,0,0,1,.048-1.26H14.976A7.865,7.865,0,0,1,15.048-8.5V-.8A8.752,8.752,0,0,1,14.976.54Zm2.46-9.216a8.1,8.1,0,0,1,1.26,1.788l.84-.444A7.777,7.777,0,0,0,19.92-9.1Zm3.528.564A6.94,6.94,0,0,0,21.36-9.8l-.8.42a8.841,8.841,0,0,1,1.224,1.74ZM32.892-.7V.132H34.44a8.225,8.225,0,0,1-.048-1.044V-7.776c0-.444.012-.684.036-1-.276.024-.492.036-1.008.036H26.6c-.48,0-.732-.012-1.02-.036a7.969,7.969,0,0,1,.048,1.008V-.888A8.019,8.019,0,0,1,25.584.144h1.548V-.7Zm0-1.368h-5.76V-7.38h5.76ZM37.92-6.528a12.005,12.005,0,0,1,1.092,2.9l1.356-.432A13.842,13.842,0,0,0,39.192-6.9Zm2.568-.5a13.2,13.2,0,0,1,1.092,2.82l1.332-.42a11.789,11.789,0,0,0-1.164-2.76Zm4.128-.12a5.323,5.323,0,0,1-.216,1.38,6.9,6.9,0,0,1-2.724,4.164,7.784,7.784,0,0,1-2.04,1.1A4.359,4.359,0,0,1,40.6.684a9.211,9.211,0,0,0,3.66-2.892,10.244,10.244,0,0,0,1.656-4,2.525,2.525,0,0,1,.168-.612Zm6.228-1.572a8.222,8.222,0,0,1-1.536-.084v1.56A8.646,8.646,0,0,1,50.82-7.32h5.712A8.7,8.7,0,0,1,50.268-.864,4.416,4.416,0,0,1,51.324.564a10.763,10.763,0,0,0,6.888-7.956,1.64,1.64,0,0,0,.228.024A1.393,1.393,0,0,0,59.832-8.76a1.391,1.391,0,0,0-1.392-1.38,1.383,1.383,0,0,0-1.38,1.392c-.2.012-.348.024-.708.024Zm7.6-.816a.781.781,0,0,1,.792.78.791.791,0,0,1-.792.792.789.789,0,0,1-.78-.792A.778.778,0,0,1,58.44-9.54Z" transform="translate(386.676 1743.984)" fill="#001c10" />
            <path d="M86.625,0a4.5,4.5,0,0,0-4.5,4.5c0,2.485,4,8.75,4.5,8.75s4.5-6.264,4.5-8.75A4.5,4.5,0,0,0,86.625,0Zm0,6.222A1.721,1.721,0,1,1,88.346,4.5,1.721,1.721,0,0,1,86.625,6.222Z" transform="translate(292.875 1732.455)" fill="#5a83c3" />
          </g>
        </g>
      </a>
      <a href="#shimoji-nakanoshimaHole">
        <g transform="translate(-24.997 265.89)">
          <rect width="192.488" height="23.485" rx="11.743" transform="translate(331.434 5386.234)" fill="#edf5ff" />
          <g transform="translate(-33.566 3658.779)">
            <path d="M5.244-8.064H2.088a9.246,9.246,0,0,1-1.08-.048,9.394,9.394,0,0,1,.048,1.044V-3.4A8.993,8.993,0,0,1,1-2.2H2.412v-.72H5.244V-.48A10.061,10.061,0,0,1,5.16,1.008H6.7A9.44,9.44,0,0,1,6.612-.48V-2.916H9.588v.72H11a8.259,8.259,0,0,1-.06-1.2v-3.66a8.81,8.81,0,0,1,.048-1.056A8.582,8.582,0,0,1,9.9-8.064H6.612v-.78a8.8,8.8,0,0,1,.072-1.26H5.172A7.78,7.78,0,0,1,5.244-8.8Zm0,1.272v2.6H2.412v-2.6Zm1.368,2.6v-2.6H9.588v2.6Zm13.932-5.28a10.566,10.566,0,0,1-1.2,3.048,11.148,11.148,0,0,1-6.024,5.2A4.993,4.993,0,0,1,14.388.228a14.972,14.972,0,0,0,4.152-2.88,14.715,14.715,0,0,0,3.24-5.22A6.569,6.569,0,0,1,22.2-8.9Zm7.368,8.46H26.34V-1.38a2.974,2.974,0,0,1,.036-.588H25.044a4.634,4.634,0,0,1,.06.732v.828a6.047,6.047,0,0,1-.072,1H26.34V.12h4.512c.252,0,.384,0,.528.012.42.012.42.012.684.024a3.7,3.7,0,0,1,.144.708c.276.012.432.012.54.012a3.135,3.135,0,0,0,1.14-.144,1.346,1.346,0,0,0,.684-.744,10.822,10.822,0,0,0,.384-2.148c.06-.612.06-.612.072-.732,0-.072.012-.132.012-.156.012-.12.012-.132.024-.24a5.925,5.925,0,0,1-.9.048H27.228V-3.8H34.2a8.36,8.36,0,0,1,1.152.06V-4.86a7.12,7.12,0,0,1-1.128.06h-7v-.552h5.256c.372,0,.672.012,1.008.036-.024-.3-.036-.576-.036-.96v-1.98a6.863,6.863,0,0,1,.036-.924,7.785,7.785,0,0,1-1.032.048h-2.7a8.422,8.422,0,0,0,.5-.936L28.848-10.2a4.936,4.936,0,0,1-.456,1.068H26.94a8.019,8.019,0,0,1-1.032-.048,9.75,9.75,0,0,1,.06,1.08v4.644c0,.552-.024.876-.048,1.236.312-.024.516-.024.96-.024h1.032Zm1.248,0V-2.244h4.524a8.9,8.9,0,0,1-.24,1.6c-.084.288-.2.372-.54.372a7.282,7.282,0,0,1-.852-.06V-1.26a5.779,5.779,0,0,1,.036-.732H30.78a4.5,4.5,0,0,1,.048.6v.384ZM27.228-7.656v-.516h4.92v.516Zm0,.84h4.92v.54h-4.92ZM45.12-9.744a6.311,6.311,0,0,1-1.452.564,20.715,20.715,0,0,1-5.136.7c-.18,0-.372,0-.744-.024a5.036,5.036,0,0,1,.444,1.3,26.853,26.853,0,0,0,3.324-.276c0,.84,0,1.308-.024,1.812H38.46A7.439,7.439,0,0,1,37-5.76v1.44a10.965,10.965,0,0,1,1.44-.06H41.4a6.9,6.9,0,0,1-.132.8,3.83,3.83,0,0,1-1.38,2.04,5.534,5.534,0,0,1-1.86,1.008A3.887,3.887,0,0,1,39.072.744a7.482,7.482,0,0,0,1.116-.6,6.205,6.205,0,0,0,1.956-1.908,6.291,6.291,0,0,0,.8-2.616H45.6a10.965,10.965,0,0,1,1.44.06V-5.76a7.439,7.439,0,0,1-1.464.084H43.032c.024-.408.024-.408.036-2.028a14.841,14.841,0,0,0,2-.492c.864-.288.864-.288,1.008-.324Zm6.612,3.936-1,.168a6.73,6.73,0,0,1-1.14.108l.252,1.368A6.17,6.17,0,0,1,50.9-4.428L51.936-4.6,52.752-.12a5,5,0,0,1,.1.972l1.5-.264a4.593,4.593,0,0,1-.228-.972l-.852-4.44,2.82-.468a3.7,3.7,0,0,0,.444-.084,5.651,5.651,0,0,1-2.04,2.148,3.381,3.381,0,0,1,1.116.852A6.816,6.816,0,0,0,57.972-5.5a2.747,2.747,0,0,1,.3-.576l-.84-.756a3.029,3.029,0,0,1-.792.2l-3.588.6-.18-.924a4.714,4.714,0,0,1-.12-.924l-1.428.216a3.775,3.775,0,0,1,.228.9ZM66.684.768A5.379,5.379,0,0,1,66.624-.3V-2.94c0-.108-.012-.444-.024-.588.12.06.144.06.3.132a21.406,21.406,0,0,1,3.66,1.92l.792-1.26A19.582,19.582,0,0,0,67.164-4.62a15.478,15.478,0,0,0,2.448-2.244,2.815,2.815,0,0,1,.528-.516l-.7-.816a2.532,2.532,0,0,1-.816.108H66.6v-1a3.877,3.877,0,0,1,.06-.84H65.052a4.955,4.955,0,0,1,.06.864v.984h-2a6.164,6.164,0,0,1-1.284-.108v1.452a8.853,8.853,0,0,1,1.272-.06c4.32-.024,4.32-.024,4.392-.036h.252a12.869,12.869,0,0,1-3.72,2.544,14.939,14.939,0,0,1-3.336,1.116,4.96,4.96,0,0,1,.708,1.308A19,19,0,0,0,64.776-3.2a2.061,2.061,0,0,0,.36-.228V-.3A7.236,7.236,0,0,1,65.064.768ZM74.8-9.384a6.031,6.031,0,0,1,.048,1.092c0,3.36-.276,4.908-1.14,6.288a4.93,4.93,0,0,1-1.236,1.38A4.271,4.271,0,0,1,73.68.54a7.642,7.642,0,0,0,1.656-2.22,11.236,11.236,0,0,0,.972-4.932,25.075,25.075,0,0,1,.12-2.688Zm3.18-.084a5.193,5.193,0,0,1,.048.792v.36l-.06,6.768a5.378,5.378,0,0,1-.108,1.272l.768.816A5.221,5.221,0,0,1,79.14.324,7.925,7.925,0,0,0,81.7-1.116a7.447,7.447,0,0,0,1.908-2.8A5.03,5.03,0,0,1,82.476-5.04a5.864,5.864,0,0,1-1.176,2.2,4.824,4.824,0,0,1-1.836,1.368l.06-6.828a6.5,6.5,0,0,1,.084-1.14Zm10.584.06L84.216,1.956h1.476L90.024-9.408Zm6.924,1.344H92.328a9.246,9.246,0,0,1-1.08-.048A9.4,9.4,0,0,1,91.3-7.068V-3.4a8.994,8.994,0,0,1-.06,1.2h1.416v-.72h2.832V-.48A10.06,10.06,0,0,1,95.4,1.008h1.536A9.44,9.44,0,0,1,96.852-.48V-2.916h2.976v.72h1.416a8.259,8.259,0,0,1-.06-1.2v-3.66a8.811,8.811,0,0,1,.048-1.056,8.582,8.582,0,0,1-1.092.048H96.852v-.78a8.8,8.8,0,0,1,.072-1.26H95.412A7.779,7.779,0,0,1,95.484-8.8Zm0,1.272v2.6H92.652v-2.6Zm1.368,2.6v-2.6h2.976v2.6Zm12.324-3.5a2.623,2.623,0,0,1,1.212.36,2.973,2.973,0,0,1,1.476,2.664,3.36,3.36,0,0,1-1.668,3,6.377,6.377,0,0,1-2.388.66A3.828,3.828,0,0,1,108.54.4a7.845,7.845,0,0,0,1.884-.5,4.623,4.623,0,0,0,2.916-4.476c0-2.7-1.872-4.452-4.752-4.452a5.387,5.387,0,0,0-4.128,1.68,5.155,5.155,0,0,0-1.32,3.492c0,1.932.984,3.324,2.352,3.324.984,0,1.752-.708,2.436-2.256A17.36,17.36,0,0,0,109.176-7.692Zm-1.464.012a15.815,15.815,0,0,1-1,4.056c-.432,1.032-.84,1.536-1.236,1.536-.528,0-.948-.78-.948-1.764a4.018,4.018,0,0,1,1.632-3.24A3.055,3.055,0,0,1,107.712-7.68Zm10.44,6.672H116.58V-1.38a2.973,2.973,0,0,1,.036-.588h-1.332a4.633,4.633,0,0,1,.06.732v.828a6.047,6.047,0,0,1-.072,1h1.308V.12h4.512c.252,0,.384,0,.528.012.42.012.42.012.684.024a3.7,3.7,0,0,1,.144.708c.276.012.432.012.54.012a3.135,3.135,0,0,0,1.14-.144,1.346,1.346,0,0,0,.684-.744A10.822,10.822,0,0,0,125.2-2.16c.06-.612.06-.612.072-.732,0-.072.012-.132.012-.156.012-.12.012-.132.024-.24a5.925,5.925,0,0,1-.9.048h-6.936V-3.8h6.972a8.36,8.36,0,0,1,1.152.06V-4.86a7.12,7.12,0,0,1-1.128.06h-7v-.552h5.256c.372,0,.672.012,1.008.036-.024-.3-.036-.576-.036-.96v-1.98a6.864,6.864,0,0,1,.036-.924,7.785,7.785,0,0,1-1.032.048H120a8.422,8.422,0,0,0,.5-.936l-1.416-.132a4.936,4.936,0,0,1-.456,1.068H117.18a8.019,8.019,0,0,1-1.032-.048,9.749,9.749,0,0,1,.06,1.08v4.644c0,.552-.024.876-.048,1.236.312-.024.516-.024.96-.024h1.032Zm1.248,0V-2.244h4.524a8.9,8.9,0,0,1-.24,1.6c-.084.288-.2.372-.54.372a7.282,7.282,0,0,1-.852-.06V-1.26a5.781,5.781,0,0,1,.036-.732H121.02a4.5,4.5,0,0,1,.048.6v.384Zm-1.932-6.648v-.516h4.92v.516Zm0,.84h4.92v.54h-4.92ZM131.46-7.848h-2.64a8.375,8.375,0,0,1-1.536-.084v1.476a11.89,11.89,0,0,1,1.512-.06h2.664V-.708a8.332,8.332,0,0,1-.072,1.356h1.632A10.226,10.226,0,0,1,132.96-.7v-5.82h2.772a11.99,11.99,0,0,1,1.524.06V-7.932a8.446,8.446,0,0,1-1.548.084H132.96v-.636a9.925,9.925,0,0,1,.048-1.272h-1.62a6.637,6.637,0,0,1,.072,1.236Zm-2.688,2.2a6.1,6.1,0,0,1-.348,1.476,8.6,8.6,0,0,1-1.68,3.156,5.18,5.18,0,0,1,1.392.768,12.384,12.384,0,0,0,2.016-4.656c.048-.216.06-.228.1-.372Zm5.388.36a3.278,3.278,0,0,1,.192.564A16.018,16.018,0,0,0,136.32-.24a8.811,8.811,0,0,1,1.38-.84A11.112,11.112,0,0,1,136-4.308a7.7,7.7,0,0,1-.42-1.344Zm4.932,1.524a13.173,13.173,0,0,1,1.956-.06h6.372a13.173,13.173,0,0,1,1.956.06V-5.436a11.784,11.784,0,0,1-1.944.084h-6.4a11.784,11.784,0,0,1-1.944-.084Zm13.584-5.616a6.033,6.033,0,0,1,.048,1.092c0,3.36-.276,4.908-1.14,6.288a4.93,4.93,0,0,1-1.236,1.38A4.271,4.271,0,0,1,151.56.54a7.642,7.642,0,0,0,1.656-2.22,11.236,11.236,0,0,0,.972-4.932,25.085,25.085,0,0,1,.12-2.688Zm3.18-.084a5.194,5.194,0,0,1,.048.792v.36l-.06,6.768a5.378,5.378,0,0,1-.108,1.272L156.5.54a5.223,5.223,0,0,1,.516-.216,7.925,7.925,0,0,0,2.556-1.44,7.447,7.447,0,0,0,1.908-2.8,5.03,5.03,0,0,1-1.128-1.128,5.864,5.864,0,0,1-1.176,2.2,4.824,4.824,0,0,1-1.836,1.368L157.4-8.3a6.5,6.5,0,0,1,.084-1.14Z" transform="translate(386.004 1743.984)" fill="#001c10" />
            <path d="M86.625,0a4.5,4.5,0,0,0-4.5,4.5c0,2.485,4,8.75,4.5,8.75s4.5-6.264,4.5-8.75A4.5,4.5,0,0,0,86.625,0Zm0,6.222A1.721,1.721,0,1,1,88.346,4.5,1.721,1.721,0,0,1,86.625,6.222Z" transform="translate(292.875 1732.455)" fill="#5a83c3" />
          </g>
        </g>
      </a>
      <a href="#shimoji-marineLake">
        <g transform="translate(74.415 292.031)">
          <rect width="100.304" height="23.25" rx="11.625" transform="translate(331.434 5386.235)" fill="#edf5ff" />
          <g transform="translate(-33.566 3658.78)">
            <path d="M2.388-4.908a19.369,19.369,0,0,1,2.4,2.316A19.755,19.755,0,0,1,7.1.432L8.364-.576C7.74-1.428,7.284-2,6.78-2.58a18.561,18.561,0,0,0,3.876-4.548,3.747,3.747,0,0,1,.528-.708l-.84-.948a3.142,3.142,0,0,1-1,.1l-6.672.012a8.752,8.752,0,0,1-1.56-.084v1.524A13.015,13.015,0,0,1,2.652-7.3H8.376c.252,0,.432-.012.552-.024a.308.308,0,0,0-.024.06.842.842,0,0,0-.072.108A15.872,15.872,0,0,1,7.368-5.2,14.737,14.737,0,0,1,5.8-3.684c-.084-.072-.084-.072-.744-.744-.492-.48-.852-.8-1.488-1.332Zm12.06-4.56a7.576,7.576,0,0,1,.048,1.08v3.3a8.654,8.654,0,0,1-.06,1.08H16.08a5.792,5.792,0,0,1-.048-1.056V-8.376a6.1,6.1,0,0,1,.048-1.08Zm5.412.024a6.319,6.319,0,0,1,.06,1.14v1.5c0,.96-.012,1.488-.06,2A3.393,3.393,0,0,1,18.2-1.74a6.473,6.473,0,0,1-2.592.96,4.1,4.1,0,0,1,.84,1.428,10.15,10.15,0,0,0,2.34-.924,4.6,4.6,0,0,0,2.364-2.8,14.174,14.174,0,0,0,.312-3.636v-1.62a5.692,5.692,0,0,1,.06-1.116Zm5.6,1.74a12.6,12.6,0,0,1,3.06,2.436l1.032-1.308a17,17,0,0,0-3.1-2.316Zm.42,7.92a4.248,4.248,0,0,1,.792-.2,12.962,12.962,0,0,0,4.572-1.8,10.532,10.532,0,0,0,3.8-4.7A5.175,5.175,0,0,1,33.78-7.668a10.02,10.02,0,0,1-1.224,2.4,8.017,8.017,0,0,1-3.564,2.94,11.434,11.434,0,0,1-3.552.888ZM38.4-9.444a5.837,5.837,0,0,1,.06,1.236l-.048,6.48A4.232,4.232,0,0,1,38.3-.492l.768.924a3.438,3.438,0,0,1,.72-.2A10.939,10.939,0,0,0,44.16-1.416a8.946,8.946,0,0,0,2.676-2.8A5.637,5.637,0,0,1,45.7-5.436a7.091,7.091,0,0,1-2.448,2.748,8.631,8.631,0,0,1-3.276,1.32l.06-6.852A9.286,9.286,0,0,1,40.1-9.432Zm18.768-.3A9.6,9.6,0,0,1,54.936-7.5a17.525,17.525,0,0,1-6.3,3.12,4.514,4.514,0,0,1,.8,1.368,19.443,19.443,0,0,0,4.284-1.944V-.732a6.75,6.75,0,0,1-.072,1.3h1.68a9.078,9.078,0,0,1-.06-1.332V-5.892A21.22,21.22,0,0,0,58.1-8.364a4.943,4.943,0,0,1,.444-.42ZM68.652-8.436a2.126,2.126,0,0,1-.876.12l-2.628.036c-.228,0-.42.012-.576.024a2.83,2.83,0,0,0,.192-.384l.156-.312a2.423,2.423,0,0,1,.156-.336,2.454,2.454,0,0,1,.2-.372l-1.644-.324A4.479,4.479,0,0,1,63.024-8.4a9.231,9.231,0,0,1-3.108,3.48A3.188,3.188,0,0,1,61.08-3.888,11.745,11.745,0,0,0,63.888-6.96L67.5-7.02A9.5,9.5,0,0,1,64-1.956,10.807,10.807,0,0,1,61.368-.54,3.7,3.7,0,0,1,62.388.72,12.123,12.123,0,0,0,66.66-2.328,12.447,12.447,0,0,0,69.12-6.96a2.257,2.257,0,0,1,.3-.72Z" transform="translate(385.884 1743.984)" fill="#001c10" />
            <path d="M86.625,0a4.5,4.5,0,0,0-4.5,4.5c0,2.485,4,8.75,4.5,8.75s4.5-6.264,4.5-8.75A4.5,4.5,0,0,0,86.625,0Zm0,6.222A1.721,1.721,0,1,1,88.346,4.5,1.721,1.721,0,0,1,86.625,6.222Z" transform="translate(292.875 1732.455)" fill="#5a83c3" />
          </g>
        </g>
      </a>
      <a href="#shimoji-ichinoseDrop">
        <g transform="translate(6.393 318.894)">
          <rect width="193.088" height="23.485" rx="11.743" transform="translate(331.434 5386.234)" fill="#edf5ff" />
          <g transform="translate(-33.566 3658.779)">
            <path d="M11.388-5.556a14.48,14.48,0,0,1-1.824.084H2.46A15.475,15.475,0,0,1,.624-5.556v1.584c.54-.048,1.164-.084,1.836-.084h7.1a16.362,16.362,0,0,1,1.824.084Zm9.156-3.912a10.566,10.566,0,0,1-1.2,3.048,11.148,11.148,0,0,1-6.024,5.2A4.993,4.993,0,0,1,14.388.228a14.972,14.972,0,0,0,4.152-2.88,14.715,14.715,0,0,0,3.24-5.22A6.569,6.569,0,0,1,22.2-8.9Zm8,1.6v.732h-.48a6.807,6.807,0,0,1-1.032-.048,6.809,6.809,0,0,1,.048.972V-4.56a6.762,6.762,0,0,1-.048,1A9.6,9.6,0,0,1,28.164-3.6h.12A6.809,6.809,0,0,1,26.34-.912a3.739,3.739,0,0,1,.7,1.032,8.261,8.261,0,0,0,1.56-2.3,7.37,7.37,0,0,0-.048.936V-.132a6.86,6.86,0,0,1-.072,1.1H29.7a8.513,8.513,0,0,1-.06-1.1V-1.464a6.4,6.4,0,0,0-.072-1.1A7.585,7.585,0,0,0,30.816-.984a5.214,5.214,0,0,1,.576-1.068A5.648,5.648,0,0,1,29.856-3.6h.216c.552,0,.792.012,1.092.036a6.241,6.241,0,0,1-.048-1.008V-6.228a5.919,5.919,0,0,1,.048-.96,6.546,6.546,0,0,1-1.08.048H29.64v-.732H30.2a6.789,6.789,0,0,1,.936.048V-9.048A8.445,8.445,0,0,1,30.156-9H29.64v-.3a3.867,3.867,0,0,1,.06-.792H28.488a4.473,4.473,0,0,1,.06.876V-9h-.576a6.867,6.867,0,0,1-.948-.048v.24a8.107,8.107,0,0,0-1.5-1.248l-.876.912a6.79,6.79,0,0,1,1.62,1.476l.756-.912v.756a6.526,6.526,0,0,1,.912-.048Zm.06,1.8v1.416h-.564V-6.072Zm.948,0h.564v1.416h-.564ZM32.832-8.52a8.519,8.519,0,0,1-.276.852c-.516,0-.708-.012-1.02-.036.024.372.036.66.036,1.092V-2.5c0,.516,0,.708-.024,1.068.312-.024.528-.036.936-.036h1.848c.432,0,.612.012.912.036-.024-.336-.036-.66-.036-1.164V-6.648c0-.552.012-.78.036-1.056a9.61,9.61,0,0,1-1.008.036h-.528a7.864,7.864,0,0,0,.3-.852H34.5a6.268,6.268,0,0,1,1.1.06V-9.744a7.942,7.942,0,0,1-1.188.072H32.58a8.707,8.707,0,0,1-1.2-.072v1.272a11.15,11.15,0,0,1,1.2-.048Zm-.18,1.884H34.1v.7H32.652Zm0,1.668H34.1v.72H32.652Zm0,1.68H34.1v.732H32.652ZM24.336-6.132a7.741,7.741,0,0,1,1.812,1.488L26.916-5.7a9.37,9.37,0,0,0-1.8-1.38ZM25.86-3.756a15.959,15.959,0,0,1-.828,2.532,5.392,5.392,0,0,1-.624,1.14l1.08.9A18.567,18.567,0,0,0,26.9-3Zm6.3,2.34A4.639,4.639,0,0,1,30.54.24a5.333,5.333,0,0,1,.948.828,8.035,8.035,0,0,0,1.632-1.9Zm1.212.576A8.651,8.651,0,0,0,35,1.044a7.507,7.507,0,0,1,.768-1,5.114,5.114,0,0,1-1.5-1.464ZM41.22-7.848H38.58a8.375,8.375,0,0,1-1.536-.084v1.476a11.89,11.89,0,0,1,1.512-.06H41.22V-.708A8.331,8.331,0,0,1,41.148.648H42.78A10.227,10.227,0,0,1,42.72-.7v-5.82h2.772a11.99,11.99,0,0,1,1.524.06V-7.932a8.446,8.446,0,0,1-1.548.084H42.72v-.636a9.923,9.923,0,0,1,.048-1.272h-1.62A6.636,6.636,0,0,1,41.22-8.52Zm-2.688,2.2a6.1,6.1,0,0,1-.348,1.476A8.6,8.6,0,0,1,36.5-1.02,5.18,5.18,0,0,1,37.9-.252a12.384,12.384,0,0,0,2.016-4.656c.048-.216.06-.228.1-.372Zm5.388.36a3.278,3.278,0,0,1,.192.564A16.017,16.017,0,0,0,46.08-.24a8.811,8.811,0,0,1,1.38-.84,11.112,11.112,0,0,1-1.7-3.228,7.7,7.7,0,0,1-.42-1.344Zm4.932,1.524a13.174,13.174,0,0,1,1.956-.06H57.18a13.174,13.174,0,0,1,1.956.06V-5.436a11.785,11.785,0,0,1-1.944.084H50.8a11.785,11.785,0,0,1-1.944-.084ZM62.436-9.384a6.031,6.031,0,0,1,.048,1.092c0,3.36-.276,4.908-1.14,6.288a4.93,4.93,0,0,1-1.236,1.38A4.271,4.271,0,0,1,61.32.54a7.642,7.642,0,0,0,1.656-2.22,11.236,11.236,0,0,0,.972-4.932,25.075,25.075,0,0,1,.12-2.688Zm3.18-.084a5.193,5.193,0,0,1,.048.792v.36L65.6-1.548A5.378,5.378,0,0,1,65.5-.276l.768.816A5.221,5.221,0,0,1,66.78.324a7.925,7.925,0,0,0,2.556-1.44,7.447,7.447,0,0,0,1.908-2.8A5.03,5.03,0,0,1,70.116-5.04a5.864,5.864,0,0,1-1.176,2.2A4.824,4.824,0,0,1,67.1-1.476l.06-6.828a6.5,6.5,0,0,1,.084-1.14Zm10.584.06L71.856,1.956h1.476L77.664-9.408ZM89.268-5.556a14.48,14.48,0,0,1-1.824.084h-7.1A15.475,15.475,0,0,1,78.5-5.556v1.584c.54-.048,1.164-.084,1.836-.084h7.1a16.361,16.361,0,0,1,1.824.084Zm9.156-3.912a10.566,10.566,0,0,1-1.2,3.048,11.148,11.148,0,0,1-6.024,5.2A4.993,4.993,0,0,1,92.268.228a14.972,14.972,0,0,0,4.152-2.88,14.715,14.715,0,0,0,3.24-5.22,6.568,6.568,0,0,1,.42-1.032Zm8,1.6v.732h-.48a6.806,6.806,0,0,1-1.032-.048,6.81,6.81,0,0,1,.048.972V-4.56a6.763,6.763,0,0,1-.048,1,9.6,9.6,0,0,1,1.128-.036h.12A6.809,6.809,0,0,1,104.22-.912a3.739,3.739,0,0,1,.7,1.032,8.261,8.261,0,0,0,1.56-2.3,7.37,7.37,0,0,0-.048.936V-.132a6.86,6.86,0,0,1-.072,1.1h1.224a8.514,8.514,0,0,1-.06-1.1V-1.464a6.4,6.4,0,0,0-.072-1.1A7.585,7.585,0,0,0,108.7-.984a5.214,5.214,0,0,1,.576-1.068A5.648,5.648,0,0,1,107.736-3.6h.216c.552,0,.792.012,1.092.036A6.24,6.24,0,0,1,109-4.572V-6.228a5.919,5.919,0,0,1,.048-.96,6.546,6.546,0,0,1-1.08.048h-.444v-.732h.564a6.789,6.789,0,0,1,.936.048V-9.048a8.445,8.445,0,0,1-.984.048h-.516v-.3a3.868,3.868,0,0,1,.06-.792h-1.212a4.472,4.472,0,0,1,.06.876V-9h-.576a6.867,6.867,0,0,1-.948-.048v.24a8.107,8.107,0,0,0-1.5-1.248l-.876.912a6.79,6.79,0,0,1,1.62,1.476l.756-.912v.756a6.526,6.526,0,0,1,.912-.048Zm.06,1.8v1.416h-.564V-6.072Zm.948,0H108v1.416h-.564Zm3.276-2.448a8.518,8.518,0,0,1-.276.852c-.516,0-.708-.012-1.02-.036.024.372.036.66.036,1.092V-2.5c0,.516,0,.708-.024,1.068.312-.024.528-.036.936-.036h1.848c.432,0,.612.012.912.036-.024-.336-.036-.66-.036-1.164V-6.648c0-.552.012-.78.036-1.056a9.61,9.61,0,0,1-1.008.036h-.528a7.864,7.864,0,0,0,.3-.852h.492a6.268,6.268,0,0,1,1.1.06V-9.744a7.942,7.942,0,0,1-1.188.072H110.46a8.707,8.707,0,0,1-1.2-.072v1.272a11.15,11.15,0,0,1,1.2-.048Zm-.18,1.884h1.452v.7h-1.452Zm0,1.668h1.452v.72h-1.452Zm0,1.68h1.452v.732h-1.452Zm-8.316-2.844a7.741,7.741,0,0,1,1.812,1.488L104.8-5.7A9.37,9.37,0,0,0,103-7.08Zm1.524,2.376a15.959,15.959,0,0,1-.828,2.532,5.392,5.392,0,0,1-.624,1.14l1.08.9A18.567,18.567,0,0,0,104.784-3Zm6.3,2.34A4.639,4.639,0,0,1,108.42.24a5.334,5.334,0,0,1,.948.828A8.035,8.035,0,0,0,111-.828Zm1.212.576a8.651,8.651,0,0,0,1.632,1.884,7.506,7.506,0,0,1,.768-1,5.113,5.113,0,0,1-1.5-1.464ZM118.5.54a12.31,12.31,0,0,1-.048-1.332V-3.96a6.856,6.856,0,0,0-.048-.816,3.877,3.877,0,0,0,.408.2A29.142,29.142,0,0,1,123.06-2.28L123.9-3.7a34.9,34.9,0,0,0-5.448-2.532V-8.46a9.943,9.943,0,0,1,.048-1.26h-1.644a7.864,7.864,0,0,1,.072,1.224V-.8A8.752,8.752,0,0,1,116.856.54Zm2.46-9.216a8.1,8.1,0,0,1,1.26,1.788l.84-.444A7.777,7.777,0,0,0,121.8-9.1Zm3.528.564A6.94,6.94,0,0,0,123.24-9.8l-.8.42a8.841,8.841,0,0,1,1.224,1.74ZM134.772-.7V.132h1.548a8.227,8.227,0,0,1-.048-1.044V-7.776c0-.444.012-.684.036-1-.276.024-.492.036-1.008.036h-6.816c-.48,0-.732-.012-1.02-.036a7.969,7.969,0,0,1,.048,1.008V-.888a8.018,8.018,0,0,1-.048,1.032h1.548V-.7Zm0-1.368h-5.76V-7.38h5.76ZM139.8-6.528a12,12,0,0,1,1.092,2.9l1.356-.432A13.842,13.842,0,0,0,141.072-6.9Zm2.568-.5a13.2,13.2,0,0,1,1.092,2.82l1.332-.42a11.789,11.789,0,0,0-1.164-2.76Zm4.128-.12a5.323,5.323,0,0,1-.216,1.38,6.9,6.9,0,0,1-2.724,4.164,7.784,7.784,0,0,1-2.04,1.1,4.359,4.359,0,0,1,.96,1.188,9.211,9.211,0,0,0,3.66-2.892,10.244,10.244,0,0,0,1.656-4,2.525,2.525,0,0,1,.168-.612Zm6.228-1.572a8.222,8.222,0,0,1-1.536-.084v1.56A8.646,8.646,0,0,1,152.7-7.32h5.712a8.7,8.7,0,0,1-6.264,6.456A4.416,4.416,0,0,1,153.2.564a10.763,10.763,0,0,0,6.888-7.956,1.64,1.64,0,0,0,.228.024,1.393,1.393,0,0,0,1.392-1.392,1.391,1.391,0,0,0-1.392-1.38,1.383,1.383,0,0,0-1.38,1.392c-.2.012-.348.024-.708.024Zm7.6-.816a.781.781,0,0,1,.792.78.791.791,0,0,1-.792.792.789.789,0,0,1-.78-.792A.778.778,0,0,1,160.32-9.54Z" transform="translate(386.376 1743.984)" fill="#001c10" />
            <path d="M86.625,0a4.5,4.5,0,0,0-4.5,4.5c0,2.485,4,8.75,4.5,8.75s4.5-6.264,4.5-8.75A4.5,4.5,0,0,0,86.625,0Zm0,6.222A1.721,1.721,0,1,1,88.346,4.5,1.721,1.721,0,0,1,86.625,6.222Z" transform="translate(292.875 1732.455)" fill="#5a83c3" />
          </g>
        </g>
      </a>
      <a href="#shimoji-naruhodo">
        <g transform="translate(43.966 347.426)">
          <rect width="151.304" height="23.25" rx="11.625" transform="translate(331.434 5386.235)" fill="#edf5ff" />
          <g transform="translate(-33.566 3658.78)">
            <path d="M3.66-9.948A12.259,12.259,0,0,1,3.3-7.86c-.264.012-.468.012-.612.012a8.332,8.332,0,0,1-1.62-.108v1.368l.636.012c.252.012.324.012.48.012s.216,0,.756-.012A18.461,18.461,0,0,1,1.812-3.744,10.923,10.923,0,0,1,.648-1.824l1.38.768C2.1-1.2,2.1-1.2,2.256-1.488c.456-.84.564-1.056.84-1.644a23.034,23.034,0,0,0,1.32-3.48c.744-.06,1.476-.144,1.908-.216a2.34,2.34,0,0,1,.384-.06l-.036-1.38a10.293,10.293,0,0,1-1.92.336C4.884-8.46,4.944-8.7,5-8.988a6.007,6.007,0,0,1,.192-.8Zm7.68,3.12A18.943,18.943,0,0,0,7.956-8.436l-.72,1.164a14.687,14.687,0,0,1,3.456,1.68Zm-.048,5.412a2.149,2.149,0,0,1-.18-.168,4.425,4.425,0,0,0-.42-.324,7.5,7.5,0,0,0-1.9-1.1,12.741,12.741,0,0,1-.108-1.644,4,4,0,0,1,.144-1.212L7.44-5.94a6.365,6.365,0,0,0-.1,1.212c0,.36.024.828.06,1.38a5.96,5.96,0,0,0-1.116-.108C4.764-3.456,3.7-2.6,3.7-1.392S4.728.624,6.312.624A2.77,2.77,0,0,0,8.3-.048,1.918,1.918,0,0,0,8.82-1.32c0-.048-.012-.132-.024-.24A7.258,7.258,0,0,1,10.632-.072Zm-3.84-.66s.024.288.024.408C7.476-1,7.08-.66,6.264-.66c-.744,0-1.176-.288-1.176-.78s.5-.828,1.284-.828A3.025,3.025,0,0,1,7.452-2.076Zm9.276-2.9a4.71,4.71,0,0,0,.492-.312c.24-.156,1.1-.8,1.32-.984.408-.348,1.284-1.128,1.884-1.68a2.572,2.572,0,0,1,.624-.492L20.3-9.5a1.768,1.768,0,0,1-.744.156c-1.164.084-2.628.144-3.648.144A10.853,10.853,0,0,1,14.5-9.276l.06,1.44a4.048,4.048,0,0,1,.576-.06c2.172-.1,2.94-.144,3.4-.2l.012.012-.216.216a40.069,40.069,0,0,1-3.588,3.12,10.792,10.792,0,0,1-1.692,1.128l.816,1.3A7.394,7.394,0,0,1,18.8-4.344c1.452,0,2.376.612,2.376,1.548,0,.852-.432,1.368-1.428,1.74a3.227,3.227,0,0,0-.552-1.08,2.583,2.583,0,0,0-2.076-.984A1.847,1.847,0,0,0,15.06-1.4a1.713,1.713,0,0,0,.72,1.38,4.06,4.06,0,0,0,2.328.552,5.937,5.937,0,0,0,2.9-.684,2.933,2.933,0,0,0,1.632-2.652c0-1.644-1.32-2.7-3.372-2.7a5.858,5.858,0,0,0-2.52.552ZM18.456-.708a3.248,3.248,0,0,1-.624.048c-.888,0-1.428-.276-1.428-.756,0-.336.276-.552.708-.552C17.784-1.968,18.24-1.536,18.456-.708Zm16.836-.984a3.737,3.737,0,0,1-.324-.216A9.212,9.212,0,0,0,33.012-3c-.06-.936-.072-1.2-.084-2.088.408-.036.984-.108,1.584-.2a3.064,3.064,0,0,1,.408-.048l-.048-1.308a10.238,10.238,0,0,1-1.956.348c0-.264-.012-.588-.012-.6a6.565,6.565,0,0,1,.036-.876c.324-.036.624-.072,1.092-.132A6.521,6.521,0,0,1,34.8-8l-.036-1.3a19.024,19.024,0,0,1-4.236.42,10.409,10.409,0,0,1-2.16-.156L28.32-7.728a.98.98,0,0,1,.168-.012,1.7,1.7,0,0,1,.228.012c.984.048,1.164.06,1.644.06.324,0,.828-.012,1.224-.036-.012.312-.012.444-.012.672,0,.156,0,.264.012.8-.48.024-.876.036-1.2.036A9.09,9.09,0,0,1,28.3-6.36L28.26-5.04h.192a2.418,2.418,0,0,1,.276.012c1.068.036,1.3.048,1.62.048q.108,0,1.26-.036c.048,1.428.06,1.56.072,1.7a3.463,3.463,0,0,0-1.068-.144c-1.476,0-2.5.792-2.5,1.92,0,1.188.96,1.932,2.5,1.932a2.55,2.55,0,0,0,2.2-.864,1.624,1.624,0,0,0,.24-.864,1.382,1.382,0,0,0-.012-.24,3.184,3.184,0,0,0,.276.168A6.036,6.036,0,0,1,34.764-.276Zm-3.6-.408s.024.264.024.36c0,.648-.348.948-1.116.948-.7,0-1.1-.276-1.1-.72s.468-.756,1.128-.756A3.141,3.141,0,0,1,31.692-2.1ZM26.94.408a1.776,1.776,0,0,1-.012-.24,9.11,9.11,0,0,1,1.164-3.744l-.972-.468a2.988,2.988,0,0,1-.168.4c-.072.156-.264.612-.324.792-.12.336-.12.336-.168.444h-.024v-.24c.012-.12.012-.252.012-.4.012-.36.024-.948.036-1.116A22.923,22.923,0,0,1,27.4-9.552l-1.56-.156a3.679,3.679,0,0,1-.108.78,27.659,27.659,0,0,0-.552,5.136,24.828,24.828,0,0,0,.216,3.264A6.066,6.066,0,0,1,25.5.48Zm12.528-9.9a6.477,6.477,0,0,1,.192.792,29.745,29.745,0,0,0,.8,3.252,7.418,7.418,0,0,0-1.632,1.02A2.856,2.856,0,0,0,37.764-2.28a2.257,2.257,0,0,0,1.044,2,6.72,6.72,0,0,0,3.48.66A25.36,25.36,0,0,0,45.1.2c.636-.06.72-.072.972-.084l-.132-1.632a13.6,13.6,0,0,1-3.876.48c-1.932,0-2.748-.372-2.748-1.248s.876-1.62,2.628-2.268A27.668,27.668,0,0,1,45.9-5.7l-.516-1.512a4.438,4.438,0,0,1-.852.312c-1.512.48-1.968.636-2.712.924a20.752,20.752,0,0,1-.792-3.756Zm4.7.18a8.1,8.1,0,0,1,1.26,1.788l.84-.444a7.777,7.777,0,0,0-1.26-1.764Zm3.528.564a6.94,6.94,0,0,0-1.248-1.692l-.8.42a8.841,8.841,0,0,1,1.224,1.74ZM54-5.988A1.424,1.424,0,0,0,52.572-4.56,1.424,1.424,0,0,0,54-3.132,1.424,1.424,0,0,0,55.428-4.56,1.424,1.424,0,0,0,54-5.988Zm10.308-1.32V-8.556a6.067,6.067,0,0,1,.048-1.02H62.784a5.57,5.57,0,0,1,.06,1.068v1.2h-.708a7.987,7.987,0,0,1-1.56-.084v1.464a10.531,10.531,0,0,1,1.536-.06h.732v1.764A7.717,7.717,0,0,1,62.8-3.192h1.56A6.845,6.845,0,0,1,64.308-4.2V-5.988h3.108a7.573,7.573,0,0,1-.384,3A4.484,4.484,0,0,1,63.8-.588,3.671,3.671,0,0,1,64.7.684a5.788,5.788,0,0,0,3.564-2.8,8.3,8.3,0,0,0,.588-3.876h.792a10.627,10.627,0,0,1,1.548.06V-7.392a8.057,8.057,0,0,1-1.572.084h-.756c0-.48.012-.948.012-1.392a4.926,4.926,0,0,1,.036-.792H67.38A8.863,8.863,0,0,1,67.428-8.3v1ZM68.9-9.96a7.231,7.231,0,0,1,.816,1.884l.828-.24a7.338,7.338,0,0,0-.828-1.872Zm3.06,1.236a7.629,7.629,0,0,0-.816-1.8l-.768.24A7.6,7.6,0,0,1,71.2-8.472ZM78-5.988A1.424,1.424,0,0,0,76.572-4.56,1.424,1.424,0,0,0,78-3.132,1.424,1.424,0,0,0,79.428-4.56,1.424,1.424,0,0,0,78-5.988Zm15.624-.336c.372.012.636.012.792.012a4.3,4.3,0,0,1,.732.036V-7.752a9.618,9.618,0,0,1-1.512.072c-4.9,0-4.9,0-5.244.012.144-.3.264-.564.36-.78.36-.84.36-.84.456-1.032l-1.56-.372a6.137,6.137,0,0,1-.6,1.716,8.91,8.91,0,0,1-2.532,3.3,3.743,3.743,0,0,1,1.224.948,9.9,9.9,0,0,0,1.992-2.436h2.88A5.569,5.569,0,0,1,88.9-2.076,6.772,6.772,0,0,1,86.46-.7a3.566,3.566,0,0,1,1,1.32,8.254,8.254,0,0,0,3.12-2.2,7.167,7.167,0,0,0,1.548-4.44c.012-.192.012-.192.024-.312Zm3.228,2.556a13.174,13.174,0,0,1,1.956-.06h6.372a13.174,13.174,0,0,1,1.956.06V-5.436a11.785,11.785,0,0,1-1.944.084H98.8a11.785,11.785,0,0,1-1.944-.084Zm21.084-4.14.48-.192a7.416,7.416,0,0,0-1.068-1.9l-.876.324a6.872,6.872,0,0,1,.744,1.212,7.445,7.445,0,0,1-.864.036h-5.508a8.222,8.222,0,0,1-1.536-.084v1.56a8.646,8.646,0,0,1,1.512-.072h5.712a8.7,8.7,0,0,1-6.264,6.456A4.416,4.416,0,0,1,111.324.864a10.674,10.674,0,0,0,6.828-7.788,2.314,2.314,0,0,1,.2-.54Zm2.016-.768A6.68,6.68,0,0,0,118.9-10.5l-.864.324a8.117,8.117,0,0,1,1.032,1.86Z" transform="translate(386.352 1743.984)" fill="#001c10" />
            <path d="M86.625,0a4.5,4.5,0,0,0-4.5,4.5c0,2.485,4,8.75,4.5,8.75s4.5-6.264,4.5-8.75A4.5,4.5,0,0,0,86.625,0Zm0,6.222A1.721,1.721,0,1,1,88.346,4.5,1.721,1.721,0,0,1,86.625,6.222Z" transform="translate(292.875 1732.455)" fill="#5a83c3" />
          </g>
        </g>
      </a>
      <a href="#shimoji-sangoHole">
        <g transform="translate(91.966 375.679)">
          <rect width="102.548" height="23.25" rx="11.625" transform="translate(331.434 5386.234)" fill="#edf5ff" />
          <g transform="translate(-33.566 3658.779)">
            <path d="M4.428-7.392V-8.628A6,6,0,0,1,4.476-9.66H2.9a6.4,6.4,0,0,1,.06,1.068v1.2H2.256A8.518,8.518,0,0,1,.7-7.476v1.464a12.208,12.208,0,0,1,1.536-.06h.732V-4.3a7.9,7.9,0,0,1-.048,1.032h1.56a7.387,7.387,0,0,1-.048-1.008v-1.8H7.536c-.024.828-.024,1.116-.048,1.392A3.747,3.747,0,0,1,6.216-1.8,5.573,5.573,0,0,1,3.924-.66a3.565,3.565,0,0,1,.9,1.272,6.67,6.67,0,0,0,2.34-1.26A4.806,4.806,0,0,0,8.892-4.092a14.548,14.548,0,0,0,.084-1.98h.8a12.208,12.208,0,0,1,1.536.06V-7.476a8.518,8.518,0,0,1-1.56.084H8.988C9-8.112,9-8.112,9-8.844a4.431,4.431,0,0,1,.048-.8H7.5a7.648,7.648,0,0,1,.06,1.332v.384l-.012.54ZM13.464-7.7a12.6,12.6,0,0,1,3.06,2.436l1.032-1.308a17,17,0,0,0-3.1-2.316Zm.42,7.92a4.248,4.248,0,0,1,.792-.2,12.962,12.962,0,0,0,4.572-1.8,10.532,10.532,0,0,0,3.8-4.7A5.175,5.175,0,0,1,21.78-7.668a10.02,10.02,0,0,1-1.224,2.4,8.017,8.017,0,0,1-3.564,2.94,11.434,11.434,0,0,1-3.552.888ZM34.38-8.1A8.025,8.025,0,0,0,33.312-10l-.876.324A8.959,8.959,0,0,1,33.2-8.4H27.036a7.625,7.625,0,0,1-1.548-.084v1.56a10.638,10.638,0,0,1,1.536-.06H32.28v5.232H26.82a7.425,7.425,0,0,1-1.5-.084V-.288A9.933,9.933,0,0,1,26.8-.348l5.472.012v.72h1.608a7.491,7.491,0,0,1-.06-1.224V-7.872ZM35.9-8.652a6.68,6.68,0,0,0-1.056-1.824L34-10.14a8.117,8.117,0,0,1,1.032,1.86Zm5.316.8H38.58a8.375,8.375,0,0,1-1.536-.084v1.476a11.89,11.89,0,0,1,1.512-.06H41.22V-.708A8.331,8.331,0,0,1,41.148.648H42.78A10.227,10.227,0,0,1,42.72-.7v-5.82h2.772a11.99,11.99,0,0,1,1.524.06V-7.932a8.446,8.446,0,0,1-1.548.084H42.72v-.636a9.923,9.923,0,0,1,.048-1.272h-1.62A6.636,6.636,0,0,1,41.22-8.52Zm-2.688,2.2a6.1,6.1,0,0,1-.348,1.476A8.6,8.6,0,0,1,36.5-1.02,5.18,5.18,0,0,1,37.9-.252a12.384,12.384,0,0,0,2.016-4.656c.048-.216.06-.228.1-.372Zm5.388.36a3.278,3.278,0,0,1,.192.564A16.017,16.017,0,0,0,46.08-.24a8.811,8.811,0,0,1,1.38-.84,11.112,11.112,0,0,1-1.7-3.228,7.7,7.7,0,0,1-.42-1.344Zm4.932,1.524a13.174,13.174,0,0,1,1.956-.06H57.18a13.174,13.174,0,0,1,1.956.06V-5.436a11.785,11.785,0,0,1-1.944.084H50.8a11.785,11.785,0,0,1-1.944-.084ZM62.436-9.384a6.031,6.031,0,0,1,.048,1.092c0,3.36-.276,4.908-1.14,6.288a4.93,4.93,0,0,1-1.236,1.38A4.271,4.271,0,0,1,61.32.54a7.642,7.642,0,0,0,1.656-2.22,11.236,11.236,0,0,0,.972-4.932,25.075,25.075,0,0,1,.12-2.688Zm3.18-.084a5.193,5.193,0,0,1,.048.792v.36L65.6-1.548A5.378,5.378,0,0,1,65.5-.276l.768.816A5.221,5.221,0,0,1,66.78.324a7.925,7.925,0,0,0,2.556-1.44,7.447,7.447,0,0,0,1.908-2.8A5.03,5.03,0,0,1,70.116-5.04a5.864,5.864,0,0,1-1.176,2.2A4.824,4.824,0,0,1,67.1-1.476l.06-6.828a6.5,6.5,0,0,1,.084-1.14Z" transform="translate(386.304 1743.984)" fill="#001c10" />
            <path d="M86.625,0a4.5,4.5,0,0,0-4.5,4.5c0,2.485,4,8.75,4.5,8.75s4.5-6.264,4.5-8.75A4.5,4.5,0,0,0,86.625,0Zm0,6.222A1.721,1.721,0,1,1,88.346,4.5,1.721,1.721,0,0,1,86.625,6.222Z" transform="translate(292.875 1732.455)" fill="#5a83c3" />
          </g>
        </g>
      </a>
      <a href="#shimoji-joouRoom">
        <g transform="translate(255.235 349.55)">
          <rect width="90.86" height="23.25" rx="11.625" transform="translate(331.434 5386.234)" fill="#edf5ff" />
          <g transform="translate(-33.566 3658.779)">
            <path d="M11.22-.168A28.049,28.049,0,0,0,7.728-2.376,8.98,8.98,0,0,0,9.444-6.312h.66a11.149,11.149,0,0,1,1.38.072V-7.632a10.981,10.981,0,0,1-1.416.072H5.58c.192-.516.312-.864.5-1.452a7.676,7.676,0,0,1,.3-.84l-1.56-.216A13.539,13.539,0,0,1,4.068-7.56H2.028A11.647,11.647,0,0,1,.612-7.632V-6.24a11.11,11.11,0,0,1,1.416-.072h1.5a14.843,14.843,0,0,1-2.076,3.3A11.824,11.824,0,0,1,2.8-2.436c.2-.288.228-.324.42-.588a21.537,21.537,0,0,1,2.292,1A9.277,9.277,0,0,1,3.552-1.02,10.186,10.186,0,0,1,.6-.4,4.828,4.828,0,0,1,1.236.9,12.647,12.647,0,0,0,4.188.18,8.383,8.383,0,0,0,6.78-1.356,23.251,23.251,0,0,1,10.26.984ZM8.04-6.312A7.068,7.068,0,0,1,6.516-3a23.276,23.276,0,0,0-2.6-1.116,19.48,19.48,0,0,0,1.152-2.2Zm9.18-1.824V-5.46H15.24a11.174,11.174,0,0,1-1.464-.072V-4.14a14.1,14.1,0,0,1,1.488-.06H17.22V-.984H14.244a10.678,10.678,0,0,1-1.6-.072V.384A12.831,12.831,0,0,1,14.244.3h7.572a11.5,11.5,0,0,1,1.56.084v-1.44a12.543,12.543,0,0,1-1.584.072H18.636V-4.2h2.148a13,13,0,0,1,1.452.06V-5.532a12.884,12.884,0,0,1-1.452.072H18.636V-8.136h2.7a14.459,14.459,0,0,1,1.6.072V-9.492a11.047,11.047,0,0,1-1.6.084h-6.66A10.258,10.258,0,0,1,13.1-9.492v1.428a14.1,14.1,0,0,1,1.608-.072Zm13.716.444a2.623,2.623,0,0,1,1.212.36,2.973,2.973,0,0,1,1.476,2.664,3.36,3.36,0,0,1-1.668,3,6.377,6.377,0,0,1-2.388.66A3.828,3.828,0,0,1,30.3.4a7.845,7.845,0,0,0,1.884-.5A4.623,4.623,0,0,0,35.1-4.584c0-2.7-1.872-4.452-4.752-4.452a5.387,5.387,0,0,0-4.128,1.68A5.155,5.155,0,0,0,24.9-3.864c0,1.932.984,3.324,2.352,3.324.984,0,1.752-.708,2.436-2.256A17.36,17.36,0,0,0,30.936-7.692Zm-1.464.012a15.815,15.815,0,0,1-1,4.056c-.432,1.032-.84,1.536-1.236,1.536-.528,0-.948-.78-.948-1.764a4.018,4.018,0,0,1,1.632-3.24A3.055,3.055,0,0,1,29.472-7.68ZM40.428-8.916v-.336a5.383,5.383,0,0,1,.06-.84H39.06a4.212,4.212,0,0,1,.072.84v.336H37.908a6.487,6.487,0,0,1-1.14-.06v1.3a5.415,5.415,0,0,1,.984-.06h3.84a5.157,5.157,0,0,1,1.008.06v-1.3a6.28,6.28,0,0,1-1.092.06Zm.888,3.24a10.566,10.566,0,0,0,.636-1.644l-1.236-.312a9.785,9.785,0,0,1-.624,1.956H37.728a7.661,7.661,0,0,1-1.212-.06v1.32a7.866,7.866,0,0,1,1.2-.06h4.02a5.6,5.6,0,0,1,.972.06v-1.32a5.289,5.289,0,0,1-1.032.06ZM37.548-7.368a7.251,7.251,0,0,1,.564,1.68l1.188-.36a8.14,8.14,0,0,0-.624-1.68Zm.936,7.62h2.34V.936h1.32a6.026,6.026,0,0,1-.048-.9V-2.88a6.831,6.831,0,0,1,.036-.888,6.48,6.48,0,0,1-.876.036h-3.1c-.444,0-.684-.012-.96-.036.024.276.036.492.036.984v2.6A9.744,9.744,0,0,1,37.188.948h1.3Zm0-2.832h2.352V-.9H38.484ZM47.04-9.8a4.616,4.616,0,0,1-.948.06H44.016a8.182,8.182,0,0,1-.984-.048,9.154,9.154,0,0,1,.048,1.008V-.348a11.353,11.353,0,0,1-.072,1.368h1.416a8.279,8.279,0,0,1-.084-1.4V-8.556h1.668a13.238,13.238,0,0,1-1.32,3.144,4.895,4.895,0,0,1,1.248,1.56A3.55,3.55,0,0,1,46.32-2.3c0,.384-.192.516-.792.516a5.363,5.363,0,0,1-.9-.072A2.826,2.826,0,0,1,44.9-.552a5.766,5.766,0,0,0,.6.024,3.207,3.207,0,0,0,1.224-.156,1.456,1.456,0,0,0,.852-1.5,4.5,4.5,0,0,0-.336-1.668,5.379,5.379,0,0,0-1.152-1.74,24.85,24.85,0,0,0,1.3-2.856,3.942,3.942,0,0,1,.24-.528ZM54.084-2.34H52.32a9.477,9.477,0,0,1-1.248-.048v1.152a11.888,11.888,0,0,1,1.236-.048h1.776v.876h-2.46a9.216,9.216,0,0,1-1.392-.06V.744A12.022,12.022,0,0,1,51.744.672h6.12a10.486,10.486,0,0,1,1.6.072V-.468a9.364,9.364,0,0,1-1.452.06h-2.64v-.876H57.5a11.835,11.835,0,0,1,1.212.048V-2.388a8.06,8.06,0,0,1-1.2.048H55.368v-.984l1.884-.144.612.768,1.092-.624c-.816-.9-1.356-1.452-1.812-1.872h.78a8.955,8.955,0,0,1,1.272.06V-6.3a9.317,9.317,0,0,1-1.392.06H50.772l.012-.636h6.9c.5,0,.84.012,1.284.036a6.2,6.2,0,0,1-.036-.864V-8.832a8.141,8.141,0,0,1,.036-.96,9.721,9.721,0,0,1-1.32.06H51.06A10.7,10.7,0,0,1,49.488-9.8a10.546,10.546,0,0,1,.072,1.368,29.9,29.9,0,0,1-.4,5.892,6.559,6.559,0,0,1-.876,2.352A5.754,5.754,0,0,1,49.356.9a8.194,8.194,0,0,0,.972-2.676,19.929,19.929,0,0,0,.408-3.42h2.232a6.619,6.619,0,0,1-.576,1h-.9a4.353,4.353,0,0,1-.528-.024l.18,1.164c.192-.036.756-.072,1.992-.144.876-.048.876-.048.948-.048ZM56.364-5.2l-.552.264a8.438,8.438,0,0,1,.636.576c-.5.036-.8.06-.9.06-.252.024-.864.036-1.824.072a10.3,10.3,0,0,0,.588-.972ZM50.8-7.908v-.78h6.888v.78Z" transform="translate(386.4 1743.984)" fill="#001c10" />
            <path d="M86.625,0a4.5,4.5,0,0,0-4.5,4.5c0,2.485,4,8.75,4.5,8.75s4.5-6.264,4.5-8.75A4.5,4.5,0,0,0,86.625,0Zm0,6.222A1.721,1.721,0,1,1,88.346,4.5,1.721,1.721,0,0,1,86.625,6.222Z" transform="translate(292.875 1732.455)" fill="#5a83c3" />
          </g>
        </g>
      </a>
      <a href="#shimoji-lockBeauty">
        <g transform="translate(388.431 358.265)">
          <rect width="137.192" height="23.25" rx="11.625" transform="translate(331.434 5386.234)" fill="#edf5ff" />
          <g transform="translate(-33.566 3658.779)">
            <path d="M8.892-.7V.132H10.44a8.225,8.225,0,0,1-.048-1.044V-7.776c0-.444.012-.684.036-1-.276.024-.492.036-1.008.036H2.6c-.48,0-.732-.012-1.02-.036a7.97,7.97,0,0,1,.048,1.008V-.888A8.019,8.019,0,0,1,1.584.144H3.132V-.7Zm0-1.368H3.132V-7.38h5.76ZM13.92-6.528a12.005,12.005,0,0,1,1.092,2.9l1.356-.432A13.842,13.842,0,0,0,15.192-6.9Zm2.568-.5a13.2,13.2,0,0,1,1.092,2.82l1.332-.42a11.789,11.789,0,0,0-1.164-2.76Zm4.128-.12a5.323,5.323,0,0,1-.216,1.38,6.9,6.9,0,0,1-2.724,4.164,7.784,7.784,0,0,1-2.04,1.1A4.359,4.359,0,0,1,16.6.684a9.211,9.211,0,0,0,3.66-2.892,10.244,10.244,0,0,0,1.656-4,2.526,2.526,0,0,1,.168-.612ZM33.732-8.436a2.126,2.126,0,0,1-.876.12l-2.628.036c-.228,0-.42.012-.576.024a2.83,2.83,0,0,0,.192-.384L30-8.952a2.422,2.422,0,0,1,.156-.336,2.454,2.454,0,0,1,.2-.372l-1.644-.324A4.479,4.479,0,0,1,28.1-8.4,9.231,9.231,0,0,1,25-4.92,3.188,3.188,0,0,1,26.16-3.888,11.745,11.745,0,0,0,28.968-6.96l3.612-.06a9.5,9.5,0,0,1-3.5,5.064A10.807,10.807,0,0,1,26.448-.54,3.7,3.7,0,0,1,27.468.72,12.123,12.123,0,0,0,31.74-2.328,12.447,12.447,0,0,0,34.2-6.96a2.257,2.257,0,0,1,.3-.72Zm5.856.264a6.091,6.091,0,0,1,.06-1.116H38.04a6.338,6.338,0,0,1,.048,1.1L38.1-2.616a9.041,9.041,0,0,0,.036,1.1,1.659,1.659,0,0,0,.588,1.224,4.8,4.8,0,0,0,2.808.516c.732,0,2.244-.072,2.952-.144,1.272-.12,1.332-.132,1.584-.132L46-1.644a7.09,7.09,0,0,1-1.368.288,22.63,22.63,0,0,1-2.784.192c-1.164,0-1.848-.1-2.052-.312-.168-.168-.216-.444-.216-1.14a.8.8,0,0,1,.012-.156V-4.356a20.317,20.317,0,0,0,5.124-1.656c.636-.312,1-.48,1.08-.516l-.96-1.356a14.12,14.12,0,0,1-5.244,2.136Zm4.848-1.3a7.675,7.675,0,0,1,1.188,1.836l.864-.4a7.63,7.63,0,0,0-1.2-1.824Zm3.5.708a7.06,7.06,0,0,0-1.176-1.74l-.828.384a8.931,8.931,0,0,1,1.152,1.788Zm7.548,7.7c.2-1.08.336-1.932.516-3.252a4.319,4.319,0,0,1,.276-1.368l-.66-.576a2.677,2.677,0,0,1-.888.108H51.7a6.86,6.86,0,0,1-1.1-.072V-4.86a7.708,7.708,0,0,1,1.068-.048h2.976c-.12,1.092-.372,2.784-.576,3.852H50.52a5.42,5.42,0,0,1-1.1-.072V.24a8.918,8.918,0,0,1,1.1-.048h6.228a9.169,9.169,0,0,1,1.1.048V-1.128a5.35,5.35,0,0,1-1.1.072Zm5-2.712a13.174,13.174,0,0,1,1.956-.06H68.82a13.174,13.174,0,0,1,1.956.06V-5.436a11.785,11.785,0,0,1-1.944.084h-6.4a11.785,11.785,0,0,1-1.944-.084ZM81.168-4.9a11.874,11.874,0,0,1,1.524.06V-6.264a8.524,8.524,0,0,1-1.548.084h-7.02a8.446,8.446,0,0,1-1.548-.084v1.428A11.874,11.874,0,0,1,74.1-4.9h2.928A5.1,5.1,0,0,1,76.5-2.628a4.462,4.462,0,0,1-2.844,2A3.807,3.807,0,0,1,74.628.7,5.7,5.7,0,0,0,77.76-1.668,6.516,6.516,0,0,0,78.6-4.9Zm-7.38-2.928a11.3,11.3,0,0,1,1.524-.06h4.656a11.3,11.3,0,0,1,1.524.06V-9.288a8.141,8.141,0,0,1-1.548.084H75.336a8.141,8.141,0,0,1-1.548-.084Zm18.4.072a4.5,4.5,0,0,1-.732.864,13.689,13.689,0,0,1-3.408,2.436A12.8,12.8,0,0,1,85.2-3.372a4.91,4.91,0,0,1,.744,1.248,16.929,16.929,0,0,0,3.4-1.524V-.432a7.2,7.2,0,0,1-.06,1.14L90.828.72a7.087,7.087,0,0,1-.06-1.152v-4.08A16.058,16.058,0,0,0,93-6.48a2.34,2.34,0,0,1,.408-.4Zm4.308,3.984a13.174,13.174,0,0,1,1.956-.06h6.372a13.174,13.174,0,0,1,1.956.06V-5.436a11.785,11.785,0,0,1-1.944.084h-6.4a11.785,11.785,0,0,1-1.944-.084Z" transform="translate(385.416 1743.984)" fill="#001c10" />
            <path d="M86.625,0a4.5,4.5,0,0,0-4.5,4.5c0,2.485,4,8.75,4.5,8.75s4.5-6.264,4.5-8.75A4.5,4.5,0,0,0,86.625,0Zm0,6.222A1.721,1.721,0,1,1,88.346,4.5,1.721,1.721,0,0,1,86.625,6.222Z" transform="translate(292.875 1732.455)" fill="#5a83c3" />
          </g>
        </g>
      </a>
      <a href="#shimoji-cristalPark">
        <g transform="translate(460.642 328.706)">
          <rect width="124.184" height="23.25" rx="11.625" transform="translate(331.434 5386.234)" fill="#edf5ff" />
          <g transform="translate(-33.566 3658.779)">
            <path d="M9.732-8.436a2.126,2.126,0,0,1-.876.12L6.228-8.28c-.228,0-.42.012-.576.024a2.83,2.83,0,0,0,.192-.384L6-8.952a2.422,2.422,0,0,1,.156-.336,2.454,2.454,0,0,1,.2-.372L4.716-9.984A4.479,4.479,0,0,1,4.1-8.4,9.231,9.231,0,0,1,1-4.92,3.188,3.188,0,0,1,2.16-3.888,11.745,11.745,0,0,0,4.968-6.96L8.58-7.02a9.5,9.5,0,0,1-3.5,5.064A10.807,10.807,0,0,1,2.448-.54,3.7,3.7,0,0,1,3.468.72,12.123,12.123,0,0,0,7.74-2.328,12.447,12.447,0,0,0,10.2-6.96a2.257,2.257,0,0,1,.3-.72Zm4.716-1.032a7.576,7.576,0,0,1,.048,1.08v3.3a8.654,8.654,0,0,1-.06,1.08H16.08a5.792,5.792,0,0,1-.048-1.056V-8.376a6.1,6.1,0,0,1,.048-1.08Zm5.412.024a6.319,6.319,0,0,1,.06,1.14v1.5c0,.96-.012,1.488-.06,2A3.393,3.393,0,0,1,18.2-1.74a6.473,6.473,0,0,1-2.592.96,4.1,4.1,0,0,1,.84,1.428,10.15,10.15,0,0,0,2.34-.924,4.6,4.6,0,0,0,2.364-2.8,14.174,14.174,0,0,0,.312-3.636v-1.62a5.692,5.692,0,0,1,.06-1.116ZM34.836-.852c-1.452-1.4-1.452-1.4-1.752-1.668a18.6,18.6,0,0,0-2.22-1.74,15.893,15.893,0,0,0,1.872-3.312,2.308,2.308,0,0,1,.384-.648l-.792-.816A2.6,2.6,0,0,1,31.26-8.9l-4.224.06h-.288a5.252,5.252,0,0,1-1.056-.072L25.74-7.38a9.457,9.457,0,0,1,1.308-.1c3.78-.06,3.78-.06,3.972-.072l-.132.312a11.567,11.567,0,0,1-4.032,4.884,9.907,9.907,0,0,1-2.4,1.32A4.814,4.814,0,0,1,25.428.3,14.261,14.261,0,0,0,30-3.168,23.068,23.068,0,0,1,33.684.4ZM45.372-8.616a3.15,3.15,0,0,1-1.056.144c-2.928.024-2.928.024-3.12.048A5.979,5.979,0,0,0,41.484-9a6.321,6.321,0,0,1,.36-.672l-1.56-.348a7.315,7.315,0,0,1-.7,1.668,10.316,10.316,0,0,1-3.012,3.42,3.809,3.809,0,0,1,1.2.96A12.415,12.415,0,0,0,40.584-7.2l3.732-.036A11.465,11.465,0,0,1,42.972-4.4,15.619,15.619,0,0,0,40.56-6.012l-.912,1.068a13.585,13.585,0,0,1,2.46,1.716A8.711,8.711,0,0,1,40.14-1.56,12.094,12.094,0,0,1,37.8-.36a3.809,3.809,0,0,1,1,1.236,11.718,11.718,0,0,0,5.472-4.584,20.127,20.127,0,0,0,1.536-3.3,2.15,2.15,0,0,1,.372-.8Zm4.464-.768a6.031,6.031,0,0,1,.048,1.092c0,3.36-.276,4.908-1.14,6.288a4.93,4.93,0,0,1-1.236,1.38A4.271,4.271,0,0,1,48.72.54a7.642,7.642,0,0,0,1.656-2.22,11.236,11.236,0,0,0,.972-4.932,25.078,25.078,0,0,1,.12-2.688Zm3.18-.084a5.193,5.193,0,0,1,.048.792v.36L53-1.548A5.377,5.377,0,0,1,52.9-.276l.768.816A5.221,5.221,0,0,1,54.18.324a7.925,7.925,0,0,0,2.556-1.44,7.447,7.447,0,0,0,1.908-2.8A5.03,5.03,0,0,1,57.516-5.04a5.864,5.864,0,0,1-1.176,2.2A4.824,4.824,0,0,1,54.5-1.476l.06-6.828a6.5,6.5,0,0,1,.084-1.14Zm8.976.48v.168a8.8,8.8,0,0,1-.108,1.164A14.594,14.594,0,0,1,60.756-3.54,8.087,8.087,0,0,1,59.04-.984,5.192,5.192,0,0,1,60.408.048c1.608-1.848,2.544-4.212,3.048-7.656l.036-.288.06-.348.024-.2a1.383,1.383,0,0,1,.06-.24Zm3.564.288a5.042,5.042,0,0,1,.168.864A15.9,15.9,0,0,0,68.9.06a4.939,4.939,0,0,1,1.32-1.1,11.623,11.623,0,0,1-2.676-5.184,14.867,14.867,0,0,1-.5-2.76Zm3.5-.96a1.388,1.388,0,0,0-1.38,1.38,1.391,1.391,0,0,0,1.38,1.392A1.393,1.393,0,0,0,70.452-8.28,1.391,1.391,0,0,0,69.06-9.66Zm0,.6a.781.781,0,0,1,.792.78.791.791,0,0,1-.792.792.789.789,0,0,1-.78-.792A.778.778,0,0,1,69.06-9.06Zm2.472,5.292a13.174,13.174,0,0,1,1.956-.06H79.86a13.174,13.174,0,0,1,1.956.06V-5.436a11.785,11.785,0,0,1-1.944.084h-6.4a11.785,11.785,0,0,1-1.944-.084Zm20.88-4.668a2.126,2.126,0,0,1-.876.12l-2.628.036c-.228,0-.42.012-.576.024a2.83,2.83,0,0,0,.192-.384l.156-.312a2.423,2.423,0,0,1,.156-.336,2.454,2.454,0,0,1,.2-.372L87.4-9.984A4.479,4.479,0,0,1,86.784-8.4a9.231,9.231,0,0,1-3.108,3.48A3.188,3.188,0,0,1,84.84-3.888,11.745,11.745,0,0,0,87.648-6.96l3.612-.06a9.5,9.5,0,0,1-3.5,5.064A10.806,10.806,0,0,1,85.128-.54,3.7,3.7,0,0,1,86.148.72,12.123,12.123,0,0,0,90.42-2.328,12.447,12.447,0,0,0,92.88-6.96a2.257,2.257,0,0,1,.3-.72Z" transform="translate(386.004 1743.984)" fill="#001c10" />
            <path d="M86.625,0a4.5,4.5,0,0,0-4.5,4.5c0,2.485,4,8.75,4.5,8.75s4.5-6.264,4.5-8.75A4.5,4.5,0,0,0,86.625,0Zm0,6.222A1.721,1.721,0,1,1,88.346,4.5,1.721,1.721,0,0,1,86.625,6.222Z" transform="translate(292.875 1732.455)" fill="#5a83c3" />
          </g>
        </g>
      </a>
      <a href="#shimoji-twinCave">
        <g transform="translate(255.235 376.16)">
          <rect width="102.932" height="23.25" rx="11.625" transform="translate(331.434 5386.235)" fill="#edf5ff" />
          <g transform="translate(-33.566 3658.78)">
            <path d="M1.02-8.22A14.518,14.518,0,0,1,2.388-4.644L3.864-5.1A15.3,15.3,0,0,0,2.412-8.628Zm3.156-.6A15.14,15.14,0,0,1,5.52-5.34l1.464-.468a15.374,15.374,0,0,0-1.44-3.4ZM9.3-8.94a9.459,9.459,0,0,1-.6,2.82,7.89,7.89,0,0,1-2.1,3.3A9.352,9.352,0,0,1,3.228-.732,4.6,4.6,0,0,1,4.284.612,10.741,10.741,0,0,0,10.644-7.4a5.354,5.354,0,0,1,.3-1.164Zm11.868-.8A9.6,9.6,0,0,1,18.936-7.5a17.525,17.525,0,0,1-6.3,3.12,4.514,4.514,0,0,1,.8,1.368,19.443,19.443,0,0,0,4.284-1.944V-.732a6.75,6.75,0,0,1-.072,1.3h1.68a9.078,9.078,0,0,1-.06-1.332V-5.892A21.22,21.22,0,0,0,22.1-8.364a4.943,4.943,0,0,1,.444-.42Zm4.3,2.04a12.6,12.6,0,0,1,3.06,2.436l1.032-1.308a17,17,0,0,0-3.1-2.316Zm.42,7.92a4.248,4.248,0,0,1,.792-.2,12.962,12.962,0,0,0,4.572-1.8,10.532,10.532,0,0,0,3.8-4.7A5.175,5.175,0,0,1,33.78-7.668a10.02,10.02,0,0,1-1.224,2.4,8.017,8.017,0,0,1-3.564,2.94,11.434,11.434,0,0,1-3.552.888Zm19.74-6.54c.372.012.636.012.792.012a4.3,4.3,0,0,1,.732.036V-7.752a9.618,9.618,0,0,1-1.512.072c-4.9,0-4.9,0-5.244.012.144-.3.264-.564.36-.78.36-.84.36-.84.456-1.032l-1.56-.372a6.136,6.136,0,0,1-.6,1.716,8.91,8.91,0,0,1-2.532,3.3,3.743,3.743,0,0,1,1.224.948,9.9,9.9,0,0,0,1.992-2.436h2.88A5.569,5.569,0,0,1,40.9-2.076,6.772,6.772,0,0,1,38.46-.7a3.566,3.566,0,0,1,1,1.32,8.254,8.254,0,0,0,3.12-2.2,7.167,7.167,0,0,0,1.548-4.44c.012-.192.012-.192.024-.312Zm3.228,2.556a13.174,13.174,0,0,1,1.956-.06H57.18a13.174,13.174,0,0,1,1.956.06V-5.436a11.785,11.785,0,0,1-1.944.084H50.8a11.785,11.785,0,0,1-1.944-.084Zm21.084-4.14.48-.192A7.416,7.416,0,0,0,69.348-10l-.876.324a6.872,6.872,0,0,1,.744,1.212,7.445,7.445,0,0,1-.864.036H62.844a8.222,8.222,0,0,1-1.536-.084v1.56A8.646,8.646,0,0,1,62.82-7.02h5.712A8.7,8.7,0,0,1,62.268-.564,4.416,4.416,0,0,1,63.324.864a10.674,10.674,0,0,0,6.828-7.788,2.314,2.314,0,0,1,.2-.54Zm2.016-.768A6.68,6.68,0,0,0,70.9-10.5l-.864.324a8.117,8.117,0,0,1,1.032,1.86Z" transform="translate(385.98 1743.984)" fill="#001c10" />
            <path d="M86.625,0a4.5,4.5,0,0,0-4.5,4.5c0,2.485,4,8.75,4.5,8.75s4.5-6.264,4.5-8.75A4.5,4.5,0,0,0,86.625,0Zm0,6.222A1.721,1.721,0,1,1,88.346,4.5,1.721,1.721,0,0,1,86.625,6.222Z" transform="translate(292.875 1732.455)" fill="#5a83c3" />
          </g>
        </g>
      </a>
    </g>
  </g>
</svg>
