<svg xmlns="http://www.w3.org/2000/svg" width="121.372" height="97.331" viewBox="0 0 121.372 97.331"><g transform="translate(-574.502 -2698)"><g transform="translate(3.329 992.445)"><path d="M75.807,168.408c-.414.323-.324.723-.593,1.336-.467,1.063-1.3,1.155-2.671,2.225a12.056,12.056,0,0,0-2.225,2.374,11.505,11.505,0,0,0-1.929,3.264,8.37,8.37,0,0,0-.594,3.116c.011.642.1.889.142,2.08.048,1.378-.063,1.3,0,1.965.181,1.948,1.131,2.781.655,3.463-.143.205-.408.324-.935.561-.8.357-1.041.221-1.4.468-.718.488-1.047,1.895-.468,2.433a1.2,1.2,0,0,0,1.5,0c.275-.284.071-.611.374-.936a1.45,1.45,0,0,1,1.216-.281,1.842,1.842,0,0,1,.936.468c.28.268.572.742.561,3.089,0,.541-.032,1.171-.094,2.433-.067,1.4-.083,1.428-.093,1.965a12.96,12.96,0,0,0,.093,2.62,9.157,9.157,0,0,0,.936,2.62,4.927,4.927,0,0,0-.374-.748c-.049.017.181.709.374,1.778a3.407,3.407,0,0,1,.094,1.31,2.59,2.59,0,0,1-.561,1.123,10.764,10.764,0,0,1-2.526,2.059,7.005,7.005,0,0,0-1.591,1.31,3.616,3.616,0,0,0,.094,3.369,7.363,7.363,0,0,1,.748,1.217c.246.569.257.891.468.936.276.058.683-.4.842-.842a1.419,1.419,0,0,0,.053-.186,2.451,2.451,0,0,0-.24-1.312,4.157,4.157,0,0,1,1.4,2.339c.037.185.188,1.029.188,1.029a5.252,5.252,0,0,0,.374,1.684,3.117,3.117,0,0,0,.561.749,5.848,5.848,0,0,0,1.4,1.123c.932.544,1,.276,1.684.748a7.839,7.839,0,0,1,1.31,1.217s.229.316.5.628c.211.24.259.26.247.308-.058.229-1.2-.084-1.4.281-.172.308.417.944.842,1.4a4.157,4.157,0,0,0,1.4,1.123c.762.341,1.011.1,1.4.468a2.923,2.923,0,0,1,.655,1.31,12.986,12.986,0,0,0,1.5,1.965c.707.746.864.648,1.5,1.4.492.586.507.776.749.842.961.265,2.534-2.24,2.526-2.246s-2.843,3.047-2.152,4.211a2.108,2.108,0,0,0,.935.655c.766.324,1.137.067,1.5.374s.115.7.374,1.684a3.186,3.186,0,0,0,1.217,1.966c.473.288.607.085,1.029.374.739.506.46,1.215,1.123,1.778.485.411.705.093,1.778.561a3.9,3.9,0,0,1,1.591,1.123,3.07,3.07,0,0,1,.655,1.31c.121.58-.041.772.094,1.4a6.787,6.787,0,0,0,.468,1.123,6.626,6.626,0,0,1,.562,2.152c.039.7-.1.987.093,1.123.355.25,1.237-.432,1.4-.561.852-.66.755-1.076,1.31-1.4.6-.354,1.059-.073,2.62.093,1.969.21,1.855-.172,2.807.094.687.191.734.386,3.182,2.059.491.335,1,.682,1.684,1.123,1.1.7,1.084.647,2.62,1.59,1.8,1.109,1.926,1.255,2.433,1.31.745.082,1.18-.154,1.591.187.458.381.186.9.655,1.31.291.256.48.132,1.684.374a4.358,4.358,0,0,1,1.31.374c.667.386.613.8,1.123,1.123.547.346.891.047,2.34,0a5.1,5.1,0,0,1,2.995.468c.082.051.46.377,1.216,1.029,1.073.925,1.2,1.068,1.4,1.03.7-.132.406-2.1,1.4-2.527.732-.317,1.738.376,1.871.468.7.481.585.878,1.217,1.217a2.156,2.156,0,0,0,2.059,0c.536-.34.428-.758.936-1.03.55-.294.9.078,1.778.094,1.158.02,1.264-.612,3.088-1.03.981-.224.97-.046,1.778-.281,1.364-.4,1.4-.9,2.433-1.217,1.432-.433,1.944.362,3.462,0a5.157,5.157,0,0,0,2.153-1.216,13.06,13.06,0,0,0,3.462-4.773c.839-1.822,2.536-5.5,1.684-8.8a8.527,8.527,0,0,1-.374-2.9,12.439,12.439,0,0,1,.561-2.62,11.126,11.126,0,0,0,0-4.586c-.348-2.109-.919-1.825-2.62-5.989-1.26-3.084-1.157-3.754-2.246-4.866a7.665,7.665,0,0,1-1.871-2.153,6.581,6.581,0,0,1-.655-2.62c-.024-.724.1-.767.094-1.4a7.372,7.372,0,0,0-1.03-3.182c-.527-1.106-1-1.953-1.591-2.995-.61-1.082-.888-1.521-1.31-2.433a6.578,6.578,0,0,1-.748-2.153c-.1-.931.172-1.117,0-1.965a4.608,4.608,0,0,0-.842-1.778c-.733-1.049-1.11-.911-1.591-1.778-.5-.893-.232-1.285-.748-1.778a2.683,2.683,0,0,0-1.684-.561c-1.384-.159-1.689.27-2.714.094-.62-.106-.484-.259-2.059-1.029-1.8-.881-2.3-.84-2.713-1.5-.377-.6-.135-.909-.562-1.5a2.963,2.963,0,0,0-1.777-1.03c-3.061-.74-6.039-1.792-9.077-2.62a25.275,25.275,0,0,1-7.3-2.994c-1.787-1.122-1.55-1.335-5.334-4.024-3.065-2.178-3.2-2.02-4.305-3.088a45.567,45.567,0,0,0-3.462-2.994,4.812,4.812,0,0,0-1.778-.936,7.23,7.23,0,0,0-2.058-.094,16.239,16.239,0,0,1-2.9-.093,7.6,7.6,0,0,1-2.34-1.123,26.847,26.847,0,0,0-4.211-1.871c-2.468-.9-2.342-.439-4.491-1.31a16.674,16.674,0,0,0-2.9-.842c-.972-.191-1.543-.212-1.955.11" transform="translate(535.71 1539.395)" fill="#92d1bb"/><path d="M127.023,262.1a2.454,2.454,0,0,1-1.5-.546c-.2-.151-.426-.346-.8-.669l-.353-.305c-.437-.377-.852-.736-1.023-.876a2.321,2.321,0,0,0-1.051-.154c-.233,0-.492.008-.765.017a9.146,9.146,0,0,0-1.026.094,5.783,5.783,0,0,1-.811.071,2.976,2.976,0,0,1-1.636-.474,3.454,3.454,0,0,1-1.048-1.046l-.022-.032c-.136-.038-.414-.093-.683-.148h-.007c-.4-.081-.662-.112-.871-.137a2.838,2.838,0,0,1-2.466-1.678c-.142,0-.279-.013-.417-.029a4.985,4.985,0,0,1-2.339-1.022c-.244-.153-.549-.343-.922-.572-.68-.418-1.051-.636-1.349-.81-.376-.221-.673-.395-1.305-.8-.721-.464-1.258-.831-1.731-1.154-.87-.595-1.436-1-1.848-1.3-.306-.22-.594-.427-.675-.466,0,0-.017-.006-.067-.02s-.081-.021-.1-.024l-.142.014a8.237,8.237,0,0,1-.947.055,12.266,12.266,0,0,1-1.3-.077c-.544-.058-.976-.129-1.291-.182l-.129-.021a5.117,5.117,0,0,1-1.074,1.106,4.026,4.026,0,0,1-2.433,1.035,2.324,2.324,0,0,1-1.346-.419,2.383,2.383,0,0,1-.944-2.229,3.567,3.567,0,0,0,0-.418,4.851,4.851,0,0,0-.423-1.525,4.076,4.076,0,0,0-.195-.427,3.7,3.7,0,0,1-.371-1.017,4.525,4.525,0,0,1-.094-1.241.554.554,0,0,0,0-.172,1.152,1.152,0,0,0-.255-.466,2.009,2.009,0,0,0-.833-.544,1.553,1.553,0,0,0-.542-.149,3.036,3.036,0,0,1-1.728-.719,3.579,3.579,0,0,1-1.07-1.6,3.292,3.292,0,0,1-.828-.364,5.1,5.1,0,0,1-2.112-3.165c-.049-.187-.086-.361-.114-.521a4.416,4.416,0,0,1-.6-.206,3.815,3.815,0,0,1-1.877-1.477,2.865,2.865,0,0,1-.369-1.806,4.213,4.213,0,0,1-.269-.347c-.079-.111-.161-.225-.3-.388a2.494,2.494,0,0,0-.473-.456,7.9,7.9,0,0,1-.943-.856,14.781,14.781,0,0,1-1.76-2.31l-.186-.309-.057-.3c-.006-.023-.013-.047-.02-.073a4.586,4.586,0,0,1-.9-.3,6.041,6.041,0,0,1-2.056-1.592,9.446,9.446,0,0,1-.814-.968,2.527,2.527,0,0,1-.388-2.605L73,222.96l-.074-.021a5.357,5.357,0,0,1-1.415-.6,7.867,7.867,0,0,1-1.88-1.509l-.005-.006a4.922,4.922,0,0,1-.862-1.192l0,0a2.659,2.659,0,0,1-.118-.26c-.057-.146-.112-.308-.162-.482a8.129,8.129,0,0,1-.2-.878,2.3,2.3,0,0,1-.769-.028h-.007a2.408,2.408,0,0,1-1.755-1.751c-.04-.116-.077-.225-.129-.346a2.056,2.056,0,0,0-.285-.474,6.193,6.193,0,0,1-.348-.516,5.59,5.59,0,0,1-.113-5.377,6.9,6.9,0,0,1,2.154-1.941c.32-.232.6-.424.839-.593a4.971,4.971,0,0,0,1.285-1.077,1.5,1.5,0,0,0,.165-.246c-.006-.079-.025-.256-.088-.6-.092-.511-.193-.923-.267-1.224-.038-.157-.069-.281-.092-.393,0-.022-.009-.044-.013-.066a10.434,10.434,0,0,1-.565-1.967,14.635,14.635,0,0,1-.124-3.013c.007-.346.016-.516.035-.856.014-.246.032-.583.06-1.166.062-1.273.089-1.856.092-2.346,0-.238,0-.448-.006-.633a3.054,3.054,0,0,1-4.865-2.816,4,4,0,0,1,1.629-2.969,3.194,3.194,0,0,1,1.25-.495l.048-.01a8.867,8.867,0,0,1-.481-2.148,5.592,5.592,0,0,1-.013-.979,10.031,10.031,0,0,0,.005-1.1c-.021-.585-.053-.909-.082-1.195-.027-.269-.055-.546-.061-.921a10.344,10.344,0,0,1,.715-3.836,13.358,13.358,0,0,1,2.224-3.8,13.992,13.992,0,0,1,2.575-2.726,14.423,14.423,0,0,1,1.441-.982c.557-.342.593-.383.632-.473a1.89,1.89,0,0,0,.088-.289,3.107,3.107,0,0,1,1.106-1.818,3.3,3.3,0,0,1,2.083-.672,7.617,7.617,0,0,1,1.488.176,18.889,18.889,0,0,1,3.263.949,7.873,7.873,0,0,0,1.788.54,15.05,15.05,0,0,1,2.645.747,28.882,28.882,0,0,1,4.5,2c.289.162.524.3.731.424a2.989,2.989,0,0,0,1.044.488,8.947,8.947,0,0,0,1.292.058c.334,0,.725,0,1.178-.008l.585-.007c.2,0,.369-.006.524-.006a5.335,5.335,0,0,1,1.479.173,6.778,6.778,0,0,1,2.492,1.289,47.69,47.69,0,0,1,3.618,3.129l.005.005a7.5,7.5,0,0,0,1.431,1.094c.534.349,1.34.877,2.646,1.805,2.062,1.466,2.976,2.227,3.644,2.782a12.2,12.2,0,0,0,1.594,1.178,23.28,23.28,0,0,0,6.761,2.758c1.3.355,2.6.751,3.851,1.135,1.7.519,3.448,1.055,5.171,1.471l.012,0a4.86,4.86,0,0,1,2.914,1.8,3.558,3.558,0,0,1,.643,1.532c.1.046.235.1.349.148.37.154.876.366,1.543.692a15.788,15.788,0,0,1,1.5.822l.064.039a.761.761,0,0,0,.1.007,2.43,2.43,0,0,0,.362-.048,6.968,6.968,0,0,1,1.273-.125,7.155,7.155,0,0,1,.822.049,4.483,4.483,0,0,1,2.837,1.1,3.265,3.265,0,0,1,.969,1.821,1.3,1.3,0,0,0,.148.434c.063.114.063.114.244.265a6.238,6.238,0,0,1,1.237,1.338l0,.006a6.5,6.5,0,0,1,1.159,2.52,4.652,4.652,0,0,1,.045,1.654,1.765,1.765,0,0,0-.016.5,5.093,5.093,0,0,0,.575,1.523c.293.631.5.991.871,1.645.109.191.23.4.366.645.589,1.046,1.1,1.949,1.653,3.116a9.108,9.108,0,0,1,1.224,4.019,5.371,5.371,0,0,1-.071.958,1.7,1.7,0,0,0-.024.4,4.57,4.57,0,0,0,.442,1.786,3.4,3.4,0,0,0,.907,1.078c.183.166.391.355.607.576a7.461,7.461,0,0,1,1.81,3.235c.206.58.462,1.3.858,2.273a26.832,26.832,0,0,0,1.627,3.394,7.888,7.888,0,0,1,1.116,3.026,12.969,12.969,0,0,1-.026,5.369c-.077.328-.16.613-.233.865a5.658,5.658,0,0,0-.279,1.411,6.253,6.253,0,0,0,.264,2.1c.018.068.035.13.05.187,1.03,3.983-.884,8.137-1.8,10.134a15.2,15.2,0,0,1-4.017,5.488,7.045,7.045,0,0,1-2.952,1.611,5.352,5.352,0,0,1-1.254.151,6.427,6.427,0,0,1-1.336-.157,2.846,2.846,0,0,0-.484-.073.911.911,0,0,0-.273.047,1.32,1.32,0,0,0-.451.249,6.129,6.129,0,0,1-2,.974,5.142,5.142,0,0,1-1.285.221,2.981,2.981,0,0,0-.6.088,4.533,4.533,0,0,0-1.267.478,4.4,4.4,0,0,1-2.212.6h-.089a5.145,5.145,0,0,1-.817-.08,3.208,3.208,0,0,1-.791.705,3.829,3.829,0,0,1-2.055.573,4.344,4.344,0,0,1-2.02-.5,3.4,3.4,0,0,1-1.162-1.009,4.212,4.212,0,0,1-.2.567,2.464,2.464,0,0,1-1.809,1.488A2.3,2.3,0,0,1,127.023,262.1Zm1.883-6.615a4.792,4.792,0,0,1,2.584.905,4.045,4.045,0,0,1,1.055,1.044,2.949,2.949,0,0,1,1.077-.975,2.891,2.891,0,0,1,1.375-.349,3.953,3.953,0,0,1,.957.135,1.83,1.83,0,0,0,.423.071h.019a.421.421,0,0,0,.066,0c.041-.012.189-.089.3-.146a8.492,8.492,0,0,1,2.224-.83,6.853,6.853,0,0,1,1.266-.183,1.314,1.314,0,0,0,.4-.069,2.2,2.2,0,0,0,.815-.4,5.144,5.144,0,0,1,1.6-.807,4.881,4.881,0,0,1,1.431-.219,6.148,6.148,0,0,1,1.269.151,2.938,2.938,0,0,0,.551.079,1.393,1.393,0,0,0,.328-.043,3.371,3.371,0,0,0,1.354-.822,11.289,11.289,0,0,0,2.908-4.058c.726-1.577,2.237-4.857,1.564-7.459-.011-.044-.025-.093-.039-.146a10.1,10.1,0,0,1-.4-3.369,9.441,9.441,0,0,1,.431-2.3c.065-.225.127-.437.18-.664a9.2,9.2,0,0,0-.026-3.8,4.05,4.05,0,0,0-.657-1.721,30.779,30.779,0,0,1-1.842-3.84c-.432-1.058-.706-1.83-.925-2.449-.408-1.151-.487-1.354-.9-1.773-.134-.137-.282-.271-.438-.413a7.193,7.193,0,0,1-1.792-2.241,8.613,8.613,0,0,1-.868-3.455,5.558,5.558,0,0,1,.067-1.135,1.5,1.5,0,0,0,.025-.312,5.84,5.84,0,0,0-.835-2.341c-.5-1.045-.953-1.853-1.528-2.875-.133-.235-.249-.44-.355-.626-.385-.674-.662-1.161-1.027-1.947a8.344,8.344,0,0,1-.923-2.783,5.669,5.669,0,0,1,.026-1.425.755.755,0,0,0,0-.352,2.739,2.739,0,0,0-.519-1.028l0,0a2.329,2.329,0,0,0-.518-.555,4.494,4.494,0,0,1-1.181-1.4,5.055,5.055,0,0,1-.5-1.271c-.129-.019-.283-.037-.411-.051a2.769,2.769,0,0,0-.956.043,5.793,5.793,0,0,1-1.046.107,4.813,4.813,0,0,1-.823-.072,3.562,3.562,0,0,1-1.443-.571,11.839,11.839,0,0,0-1.157-.633c-.56-.274-.985-.451-1.326-.594a4.091,4.091,0,0,1-2.2-1.636,3.75,3.75,0,0,1-.531-1.43,1.873,1.873,0,0,0-.575-.214l-.011,0c-1.837-.444-3.648-1-5.4-1.534-1.225-.375-2.491-.762-3.733-1.1a27.083,27.083,0,0,1-7.836-3.23,16.106,16.106,0,0,1-2.027-1.492c-.618-.514-1.464-1.218-3.4-2.6-1.243-.884-1.98-1.366-2.519-1.718A11.29,11.29,0,0,1,100.518,179l-.006-.006a43.425,43.425,0,0,0-3.295-2.848,2.89,2.89,0,0,0-1.064-.583,1.41,1.41,0,0,0-.456-.04c-.126,0-.283,0-.464.005l-.61.008c-.462,0-.861.008-1.213.008a10.407,10.407,0,0,1-2.116-.144,6.732,6.732,0,0,1-2.257-.959c-.188-.112-.4-.238-.65-.377a25.036,25.036,0,0,0-3.919-1.737,11.145,11.145,0,0,0-2.032-.577,11.645,11.645,0,0,1-2.524-.758,14.863,14.863,0,0,0-2.536-.733l-.2-.038c-.036.1-.079.211-.129.325a4.831,4.831,0,0,1-2.2,2.272,10.713,10.713,0,0,0-1.069.724,10.142,10.142,0,0,0-1.876,2.022,9.558,9.558,0,0,0-1.632,2.726,6.457,6.457,0,0,0-.473,2.4c0,.207.019.359.042.589.033.329.074.738.1,1.453a13.849,13.849,0,0,1-.01,1.481,1.767,1.767,0,0,0,0,.369,5.665,5.665,0,0,0,.411,1.571,3.479,3.479,0,0,1,.133,2.809,3.7,3.7,0,0,1,.72.538c.88.844,1.188,2.032,1.177,4.541,0,.575-.031,1.188-.1,2.521-.029.6-.048.942-.062,1.194-.018.328-.024.438-.03.713a11.434,11.434,0,0,0,.062,2.229,6.606,6.606,0,0,0,.388,1.3,7.918,7.918,0,0,1,.353.739l.024.054a2,2,0,0,1,.139,1.378q.016.086.032.175a5.244,5.244,0,0,1,.088,2.048,4.562,4.562,0,0,1-.945,1.967,8.618,8.618,0,0,1-2.16,1.906c-.227.158-.485.337-.771.544-.429.311-.869.63-1.079.8-.009.029-.017.059-.024.092a2.017,2.017,0,0,1,.309-.024c.83,0,1.51.456,2.274,1.526a6.43,6.43,0,0,1,1.085,2.426c.038.194.169.922.195,1.066l.014.077.008.078a4.745,4.745,0,0,0,.19,1.014c.029.041.092.112.233.267l.006.006a3.935,3.935,0,0,0,.929.737,1.5,1.5,0,0,0,.459.2,4.048,4.048,0,0,1,1.353.629,9.767,9.767,0,0,1,1.707,1.578l.046.055.042.059s.181.248.384.48c.047.054.082.091.115.126a2.064,2.064,0,0,1,.572,1.975l0,.014a2.059,2.059,0,0,1-.211.523.9.9,0,0,0,.175.032,2.893,2.893,0,0,1,1.712.776,4.509,4.509,0,0,1,1.138,1.953,10.733,10.733,0,0,0,1.094,1.4,3.983,3.983,0,0,0,.515.466,6.515,6.515,0,0,1,.547.469c.1-.125.193-.237.274-.333.161-.191.291-.338.372-.427a2.085,2.085,0,0,1,1.614-.8h1.9l.094,1.9a2.167,2.167,0,0,1-.442,1.381c-.077.116-.2.3-.361.517a10.383,10.383,0,0,1-1.026,1.212l-.05.079a2.71,2.71,0,0,1,1.461.629,2.756,2.756,0,0,1,.933,2.117,2.5,2.5,0,0,0,.077.579,2.286,2.286,0,0,0,.273.709,2.974,2.974,0,0,1,1.169.489,3.4,3.4,0,0,1,1.314,1.762,5.537,5.537,0,0,1,1.257.395,5.882,5.882,0,0,1,2.346,1.7,5.086,5.086,0,0,1,1.057,2.159,4.338,4.338,0,0,1,.083,1.162.7.7,0,0,0,.006.219l.017.033a7.941,7.941,0,0,1,.356.783c.063.159.132.332.2.519a3.357,3.357,0,0,1,.293-.194,3.159,3.159,0,0,1,1.65-.448,6.769,6.769,0,0,1,1.137.125c.3.049.632.1,1.06.15a8.5,8.5,0,0,0,.874.055,4.3,4.3,0,0,0,.52-.032,5.169,5.169,0,0,1,.583-.038,4.22,4.22,0,0,1,1.156.171,5.666,5.666,0,0,1,2,1.091c.4.285.94.675,1.771,1.243.452.308.964.658,1.638,1.092.563.362.8.5,1.166.716.313.184.7.413,1.419.852.386.237.7.432.947.588.3.186.58.363.725.443.086,0,.19,0,.313-.008s.242-.014.384-.014a2.83,2.83,0,0,1,1.886.654,2.79,2.79,0,0,1,.826,1.149c.178.028.387.064.629.113l.008,0a5.792,5.792,0,0,1,1.91.6,3.724,3.724,0,0,1,1.108.964,12.426,12.426,0,0,1,1.288-.109c.293-.01.6-.019.9-.019a5.86,5.86,0,0,1,3.211.782l.006,0a6.338,6.338,0,0,1,.789.629,2.969,2.969,0,0,1,1.388-1.232A3.049,3.049,0,0,1,128.906,255.49Z" transform="translate(535.71 1539.395)" fill="#fff"/><path d="M49.14,239.618a6.941,6.941,0,0,0,.035-1.214c-.065-.57-.216-.859-.1-.937s.393.193,1.179.763a7.706,7.706,0,0,1,.971.694c.392.422.3.631.8,1.561a5.766,5.766,0,0,0,.763,1.179A9.4,9.4,0,0,0,54,242.67c1.117.916,1.042,1.011,1.526,1.249.421.207.656.222.8.485.181.338-.044.61.069,1.076.085.349.287.5.625.867,1.135,1.223.995,1.78,1.838,2.22.4.21.463.1.867.347a3.442,3.442,0,0,1,1.11,1.214,8.788,8.788,0,0,1,.693,1.491c.543,1.408.5,1.811.937,2.046.322.175.46.015,1.145.243a2.857,2.857,0,0,1,.937.451c.7.582.268,1.34.937,2.462.127.214.044.021,1.04,1.179a10.788,10.788,0,0,1,1.249,1.6c.355.651.288.854.59,1.075.51.374.907-.054,1.579.18.518.181.969.931,1.872,2.43a3.732,3.732,0,0,0,.591.854c.614.607.984.394,1.412.92.388.475.278.885.788,1.248.225.159.268.1.46.23.639.447.651,1.5.657,2.1a11.224,11.224,0,0,1-.2,1.741c-.151,1.045-.227,1.567-.262,1.741a8.929,8.929,0,0,1-1.092,3.151c-.488.784-.672.7-1.411,1.8-.568.851-.661,1.205-.94,1.646-.351.555-1,1.242-3.762,2.273a26.9,26.9,0,0,1-5.016,1.411,17.515,17.515,0,0,1-6.113.392,12.2,12.2,0,0,1-4.389-1.332c-.509-.281-.944-.579-1.959-1.1a12.476,12.476,0,0,0-2.587-1.1,5.33,5.33,0,0,0-2.665-.235c-.8.172-.734.416-1.332.47-1.16.106-2.174-.74-2.979-1.411-.928-.774-.729-.915-1.254-1.176-.951-.473-1.492.048-3.37-.078-1.054-.07-1.842-.135-2.273-.7-.135-.18-.156-.3-.392-1.646-.308-1.751-.307-1.732-.313-1.8-.15-1.588.208-2.146-.157-2.43-.531-.412-1.622.506-2.038.078a.9.9,0,0,1,0-.941c.256-.5.728-.391,1.411-.94a1.984,1.984,0,0,0,.862-1.254,1.8,1.8,0,0,0-.627-1.411,1.857,1.857,0,0,0-1.41-.549c-.888.129-.935,1.143-2.195,1.724-.249.115-.979.452-1.332.157-.369-.308-.205-1.2.157-1.8a3.448,3.448,0,0,1,2.116-1.411c.02.043-2.076,1.622-3.527,1.019a3.23,3.23,0,0,1-1.489-2.116c-.179-.564-.516-1.629,0-2.273.482-.6,1.306-.328,1.646-.941.126-.226.1-.411-.078-1.332a15.354,15.354,0,0,1-.47-2.9,13.863,13.863,0,0,0,.157-1.568c-.02-.347-.1-1.687-.705-1.881-.465-.148-1.057.437-1.646,1.019-.907.9-.987,1.436-1.489,1.489-.673.072-1.256-.823-1.332-.94a3.607,3.607,0,0,1-.313-2.586,6.4,6.4,0,0,1,.7-2.116,4.371,4.371,0,0,1,1.646-1.959c.661-.371,1.227-.362,1.254-.627s-.488-.319-1.019-.862a4.323,4.323,0,0,1-.94-1.881,4.522,4.522,0,0,0-.549-1.567,6.847,6.847,0,0,0-.549-.627c-.589-.629-.813-.747-.784-.941.045-.311.65-.208.94-.627.508-.731-.49-2.264-.549-2.351-.078-.119-.34-.471-.862-1.176-.376-.508-.5-.662-.471-.862.05-.4.63-.628,1.254-.862,1.537-.576,2.266-.782,3.135-1.1,1.736-.629,1.046-.608,2.587-1.176.4-.148.842-.294.862-.549.026-.32-.642-.4-1.176-1.1a2.991,2.991,0,0,1-.549-1.489,3.791,3.791,0,0,1,.156-1.646c.113-.373.282-.755,1.8-2.587.877-1.056,1.144-1.32,1.411-1.254.33.081.242.561.862,1.176a4.291,4.291,0,0,0,1.019.705,7.4,7.4,0,0,0,.862.392c.834.374.875,1.686,1.411,3.919.615,2.564.969,2.53.94,3.762s-.4,1.758,0,2.351c.45.669,1.149.354,2.43,1.1,1.2.7.987,1.207,1.959,1.646,1.318.595,1.829-.289,3.214.235,1.348.511,1.349,1.535,2.665,1.725a4.2,4.2,0,0,0,1.724-.078,7.3,7.3,0,0,1,.784-.235c.406-.094.423-.054.862-.157.354-.083.426-.127.534-.081.218.093.265.424.316.811.159,1.217.238,1.83.226,1.985a4.388,4.388,0,0,1-.361,1.533c-.652,1.414-2.1,2.009-2.029,2.119a4.713,4.713,0,0,1,1.939-.586,2.068,2.068,0,0,0,1.082-.045,3.409,3.409,0,0,0,.722-.586c.562-.522.516-.553.631-.587.486-.143.8.555,1.849.9.339.112.868.288,1.128.045.305-.286.168-1.09-.271-1.488-.326-.3-.556-.128-1.218-.406a7.171,7.171,0,0,1-1.353-.948c-1.036-.749-1-.568-1.263-.857a3.561,3.561,0,0,1-.777-2.271" transform="translate(553.407 1517.962)" fill="#e2e2e2"/><path d="M58.736,284.923a14.656,14.656,0,0,1-2.1-.152,14.079,14.079,0,0,1-5.072-1.561c-.194-.107-.37-.211-.556-.321-.338-.2-.722-.427-1.346-.745a10.681,10.681,0,0,0-2.2-.949,5.267,5.267,0,0,0-1.324-.252,1.867,1.867,0,0,0-.4.042.84.84,0,0,0-.117.031l-.061.034a3.229,3.229,0,0,1-1.392.441c-.126.011-.254.017-.381.017a6.457,6.457,0,0,1-4.061-1.884,7.046,7.046,0,0,1-.93-.909c-.09.007-.208.022-.332.037a11.669,11.669,0,0,1-1.486.1c-.238,0-.483-.008-.73-.025-1.221-.082-2.743-.183-3.734-1.494-.425-.563-.488-.925-.756-2.449l-.01-.057-.2-1.13c-.123-.7-.125-.707-.136-.838q-.021-.22-.031-.419a2.4,2.4,0,0,1-1.606-.719,2.565,2.565,0,0,1-.695-1.937,3.227,3.227,0,0,1,.107-.674,3.443,3.443,0,0,1-.887.122,2.559,2.559,0,0,1-1.663-.582,2.644,2.644,0,0,1-.921-1.964,5.169,5.169,0,0,1-2.448-3.279c-.251-.792-.84-2.648.346-4.127a3.064,3.064,0,0,1,1.12-.873c-.065-.343-.12-.632-.168-.879a15.078,15.078,0,0,1-.289-1.783,2.557,2.557,0,0,1-1.48.662,2.725,2.725,0,0,1-.286.015,3.578,3.578,0,0,1-2.931-1.853,5.473,5.473,0,0,1-.618-3.952,8.46,8.46,0,0,1,.924-2.788,7.411,7.411,0,0,1,1.484-2.071,8.206,8.206,0,0,1-.69-1.716c-.1-.322-.16-.58-.2-.769-.018-.078-.04-.173-.054-.22-.056-.078-.2-.229-.376-.42l-.013-.014c-.159-.17-.286-.3-.4-.406a2.46,2.46,0,0,1-.9-2.195,2.227,2.227,0,0,1,.808-1.4c-.034-.061-.069-.119-.1-.171l0-.007c-.064-.095-.4-.554-.8-1.086l-.027-.036a2.984,2.984,0,0,1-.822-2.26v-.006a2.629,2.629,0,0,1,1.374-1.963,7.066,7.066,0,0,1,1.162-.522c.979-.366,1.63-.585,2.205-.778.343-.115.639-.214.951-.327a5.726,5.726,0,0,0,.941-.4,5.237,5.237,0,0,1-.518-1.769,5.767,5.767,0,0,1,.224-2.484c.232-.769.6-1.381,2.179-3.288a14.7,14.7,0,0,1,1.025-1.154,2.68,2.68,0,0,1,1.85-.832,2.318,2.318,0,0,1,.553.067,2.443,2.443,0,0,1,1.647,1.463.612.612,0,0,0,.145.233,2.637,2.637,0,0,0,.572.372,3.982,3.982,0,0,0,.5.23c.07.028.142.056.22.091a3.317,3.317,0,0,1,1.731,1.952,13.154,13.154,0,0,1,.507,1.963c.085.406.181.867.3,1.362a17.839,17.839,0,0,0,.593,2.011,5.491,5.491,0,0,1,.4,2.265,8.806,8.806,0,0,1-.085,1.022,6.625,6.625,0,0,1,1.519.65,5.368,5.368,0,0,1,1.621,1.4c.036.045.084.1.11.132l.048.024a.407.407,0,0,0,.116.038,2.726,2.726,0,0,0,.325-.046,5.861,5.861,0,0,1,1.048-.108,4.478,4.478,0,0,1,1.61.3,5.173,5.173,0,0,1,2.007,1.394c.073.075.168.175.22.22l.015,0a2.824,2.824,0,0,0,.4.029,2.187,2.187,0,0,0,.459-.044l.058-.02a7.776,7.776,0,0,1,.855-.249c.184-.042.322-.067.432-.084a3.193,3.193,0,0,1-.072-.476,2.118,2.118,0,0,1,.9-1.9l.006,0a2.079,2.079,0,0,1,1.184-.367,2.808,2.808,0,0,1,1.786.772c.147.112.313.238.518.387.325.236.482.335.586.4a3.035,3.035,0,0,1,.675.55,3.726,3.726,0,0,1,.8,1.316,5.605,5.605,0,0,0,.3.667,3.969,3.969,0,0,0,.506.806c.028.032.039.043.04.044.016.014.09.069.149.113.161.121.4.3.785.615.536.44.829.713,1.022.894l.113.1.005,0c.061.03.124.056.2.087a2.7,2.7,0,0,1,1.478,1.245,2.664,2.664,0,0,1,.307,1.432l.091.1a9.159,9.159,0,0,1,1.213,1.628c.036.06.078.129.111.18a3.386,3.386,0,0,1,.962.414,5.511,5.511,0,0,1,1.765,1.866,11.355,11.355,0,0,1,.859,1.825c.151.391.261.713.347.971.148.033.314.078.5.139l.007,0a4.691,4.691,0,0,1,1.575.806,3.427,3.427,0,0,1,1.194,2.331,1.877,1.877,0,0,0,.135.554c.144.149.4.425.889.994a11.748,11.748,0,0,1,1.488,1.942q.039.072.074.14a3.335,3.335,0,0,1,1,.185c1.2.42,1.812,1.437,2.924,3.283l.122.2c.061.1.129.217.156.254l.009.009.018.017.092.037a3.291,3.291,0,0,1,1.446,1.024,3.692,3.692,0,0,1,.548.921,2.783,2.783,0,0,1,.3.182c1.483,1.038,1.5,2.917,1.51,3.72a12.605,12.605,0,0,1-.218,2.05c-.174,1.2-.236,1.625-.281,1.847a10.872,10.872,0,0,1-1.355,3.813,6.2,6.2,0,0,1-.818,1.057,5.253,5.253,0,0,0-.627.8,7.856,7.856,0,0,0-.539.929c-.1.2-.216.424-.376.677-.649,1.025-1.706,1.941-4.753,3.076a28.9,28.9,0,0,1-5.359,1.5A25.641,25.641,0,0,1,58.736,284.923Zm-12.6-7.981a8.78,8.78,0,0,1,2.373.392,14.25,14.25,0,0,1,2.971,1.246c.736.375,1.2.647,1.565.866.166.1.31.183.452.262a10.22,10.22,0,0,0,3.706,1.1,10.706,10.706,0,0,0,1.532.112,22.074,22.074,0,0,0,3.939-.491,24.972,24.972,0,0,0,4.677-1.318,7.851,7.851,0,0,0,2.77-1.469c.059-.093.11-.194.188-.348a11.836,11.836,0,0,1,.778-1.338,9.137,9.137,0,0,1,1.028-1.305,2.3,2.3,0,0,0,.349-.444,7.107,7.107,0,0,0,.829-2.487c.028-.141.133-.866.244-1.634a11.873,11.873,0,0,0,.177-1.431c0-.129,0-.372-.024-.563-.079-.045-.162-.1-.249-.16a3.194,3.194,0,0,1-1.157-1.512,3.966,3.966,0,0,1-1.293-.865A4.68,4.68,0,0,1,70.2,264.5l-.109-.183c-.345-.573-.7-1.158-.934-1.5-.094.009-.2.015-.313.015a2.809,2.809,0,0,1-2.666-1.9,2.853,2.853,0,0,0-.17-.374A12.373,12.373,0,0,0,65,259.3c-.519-.6-.709-.8-.8-.891a2.679,2.679,0,0,1-.444-.572,5.335,5.335,0,0,1-.689-2l-.09-.03-.005,0a.641.641,0,0,0-.224-.044,2.81,2.81,0,0,1-1.246-.34,3.192,3.192,0,0,1-1.5-2.1c-.084-.257-.189-.576-.346-.985a8,8,0,0,0-.53-1.162,2.281,2.281,0,0,0-.421-.535,3.574,3.574,0,0,1-.78-.3,3.974,3.974,0,0,1-1.656-1.655,5.211,5.211,0,0,0-.722-.977c-.051-.055-.1-.1-.142-.15-.086-.089-.18-.188-.276-.3a2.52,2.52,0,0,1-1.481.451,4.363,4.363,0,0,1-1.381-.268,5.212,5.212,0,0,1-.888-.39,3.462,3.462,0,0,1-.853.579,3.005,3.005,0,0,1-1.282.279,4.632,4.632,0,0,1-.538-.037c-.069-.008-.129-.015-.167-.016h-.016a1.514,1.514,0,0,0-.643.24,2.328,2.328,0,0,1-1.192.356,2.005,2.005,0,0,1-1.723-.963h0a2.047,2.047,0,0,1,.509-2.682c.108-.087.216-.161.331-.239a2.983,2.983,0,0,0,1.078-1.081,2.3,2.3,0,0,0,.175-.753c-.007-.083-.022-.216-.042-.383l-.066.022a5.619,5.619,0,0,1-1.646.224,6.84,6.84,0,0,1-.975-.07,4.149,4.149,0,0,1-2.545-1.407,1.359,1.359,0,0,0-.543-.427.5.5,0,0,0-.193-.044,2.609,2.609,0,0,0-.36.049,5.613,5.613,0,0,1-1.013.106,4.206,4.206,0,0,1-1.761-.392,4.078,4.078,0,0,1-1.621-1.284,1.486,1.486,0,0,0-.521-.456,3.066,3.066,0,0,0-.922-.345,3.32,3.32,0,0,1-2.162-1.364,3.424,3.424,0,0,1-.432-2.664,5.946,5.946,0,0,0,.091-.851,1.686,1.686,0,0,0-.176-.842,21.9,21.9,0,0,1-.71-2.407c-.133-.554-.236-1.046-.326-1.481-.087-.419-.191-.916-.279-1.21-.181-.077-.414-.185-.684-.333a6.939,6.939,0,0,1-1.11-.719,10.237,10.237,0,0,0-1.1,1.477l-.008.025a1.809,1.809,0,0,0-.088.8,1.187,1.187,0,0,0,.155.539,1.136,1.136,0,0,0,.295.225,3.563,3.563,0,0,1,.578.434,2.253,2.253,0,0,1,.707,1.812,2.345,2.345,0,0,1-1.274,1.882,5.515,5.515,0,0,1-.826.359l-.065.024a3.937,3.937,0,0,0-.844.38,8.4,8.4,0,0,1-1.752.8c-.358.13-.69.241-1.042.359s-.729.244-1.2.411c.078.108.129.18.167.238.4.6,1.568,2.59.728,4.262.058.071.114.143.169.22a4.15,4.15,0,0,1,.708,1.654c.037.159.072.309.129.492a2.931,2.931,0,0,0,.46,1.076,1.392,1.392,0,0,0,.294.209,3.373,3.373,0,0,1,.559.4,2.188,2.188,0,0,1-.444,3.581,3.853,3.853,0,0,1-.671.275,2.46,2.46,0,0,0-.424.169,2.743,2.743,0,0,0-.863,1.161,4.423,4.423,0,0,0-.485,1.441l-.015.111a3.923,3.923,0,0,1,2.661-1.387,2.5,2.5,0,0,1,.761.118,2.916,2.916,0,0,1,1.908,2.315,7.711,7.711,0,0,1,.186,1.355,4.532,4.532,0,0,1-.105,1.35,1.674,1.674,0,0,0-.049.387,7.726,7.726,0,0,0,.225,1.365c.058.3.128.666.212,1.112a3.546,3.546,0,0,1-.141,2.678,2.82,2.82,0,0,1-1.584,1.305c.036.132.076.257.1.329a3.059,3.059,0,0,0,.364.855,5.127,5.127,0,0,1,2.737-1.156A1.993,1.993,0,0,1,32,263.036l.017.035.084.185a4.035,4.035,0,0,1,2.128,1.068,3.7,3.7,0,0,1,1.248,3.093,3.361,3.361,0,0,1-.625,1.608,2.888,2.888,0,0,1,.549,2.206,6.937,6.937,0,0,0,0,1.232c.012.072.044.252.1.543.045.256.109.618.2,1.133l.01.057c.038.217.073.416.1.585.23.026.513.045.715.059.159.011.314.016.462.016a7.862,7.862,0,0,0,1.006-.074,7.385,7.385,0,0,1,.91-.07,3.842,3.842,0,0,1,1.748.411,3.133,3.133,0,0,1,1.149.939,2.952,2.952,0,0,0,.5.492,4.915,4.915,0,0,0,1.425.948,4.238,4.238,0,0,1,1.185-.427A5.9,5.9,0,0,1,46.137,276.943Z" transform="translate(553.407 1517.962)" fill="#fff"/></g><g transform="translate(3.329 992.445)"><path d="M75.807,168.408c-.414.323-.324.723-.593,1.336-.467,1.063-1.3,1.155-2.671,2.225a12.056,12.056,0,0,0-2.225,2.374,11.505,11.505,0,0,0-1.929,3.264,8.37,8.37,0,0,0-.594,3.116c.011.642.1.889.142,2.08.048,1.378-.063,1.3,0,1.965.181,1.948,1.131,2.781.655,3.463-.143.205-.408.324-.935.561-.8.357-1.041.221-1.4.468-.718.488-1.047,1.895-.468,2.433a1.2,1.2,0,0,0,1.5,0c.275-.284.071-.611.374-.936a1.45,1.45,0,0,1,1.216-.281,1.842,1.842,0,0,1,.936.468c.28.268.572.742.561,3.089,0,.541-.032,1.171-.094,2.433-.067,1.4-.083,1.428-.093,1.965a12.96,12.96,0,0,0,.093,2.62,9.157,9.157,0,0,0,.936,2.62,4.927,4.927,0,0,0-.374-.748c-.049.017.181.709.374,1.778a3.407,3.407,0,0,1,.094,1.31,2.59,2.59,0,0,1-.561,1.123,10.764,10.764,0,0,1-2.526,2.059,7.005,7.005,0,0,0-1.591,1.31,3.616,3.616,0,0,0,.094,3.369,7.363,7.363,0,0,1,.748,1.217c.246.569.257.891.468.936.276.058.683-.4.842-.842a1.419,1.419,0,0,0,.053-.186,2.451,2.451,0,0,0-.24-1.312,4.157,4.157,0,0,1,1.4,2.339c.037.185.188,1.029.188,1.029a5.252,5.252,0,0,0,.374,1.684,3.117,3.117,0,0,0,.561.749,5.848,5.848,0,0,0,1.4,1.123c.932.544,1,.276,1.684.748a7.839,7.839,0,0,1,1.31,1.217s.229.316.5.628c.211.24.259.26.247.308-.058.229-1.2-.084-1.4.281-.172.308.417.944.842,1.4a4.157,4.157,0,0,0,1.4,1.123c.762.341,1.011.1,1.4.468a2.923,2.923,0,0,1,.655,1.31,12.986,12.986,0,0,0,1.5,1.965c.707.746.864.648,1.5,1.4.492.586.507.776.749.842.961.265,2.534-2.24,2.526-2.246s-2.843,3.047-2.152,4.211a2.108,2.108,0,0,0,.935.655c.766.324,1.137.067,1.5.374s.115.7.374,1.684a3.186,3.186,0,0,0,1.217,1.966c.473.288.607.085,1.029.374.739.506.46,1.215,1.123,1.778.485.411.705.093,1.778.561a3.9,3.9,0,0,1,1.591,1.123,3.07,3.07,0,0,1,.655,1.31c.121.58-.041.772.094,1.4a6.787,6.787,0,0,0,.468,1.123,6.626,6.626,0,0,1,.562,2.152c.039.7-.1.987.093,1.123.355.25,1.237-.432,1.4-.561.852-.66.755-1.076,1.31-1.4.6-.354,1.059-.073,2.62.093,1.969.21,1.855-.172,2.807.094.687.191.734.386,3.182,2.059.491.335,1,.682,1.684,1.123,1.1.7,1.084.647,2.62,1.59,1.8,1.109,1.926,1.255,2.433,1.31.745.082,1.18-.154,1.591.187.458.381.186.9.655,1.31.291.256.48.132,1.684.374a4.358,4.358,0,0,1,1.31.374c.667.386.613.8,1.123,1.123.547.346.891.047,2.34,0a5.1,5.1,0,0,1,2.995.468c.082.051.46.377,1.216,1.029,1.073.925,1.2,1.068,1.4,1.03.7-.132.406-2.1,1.4-2.527.732-.317,1.738.376,1.871.468.7.481.585.878,1.217,1.217a2.156,2.156,0,0,0,2.059,0c.536-.34.428-.758.936-1.03.55-.294.9.078,1.778.094,1.158.02,1.264-.612,3.088-1.03.981-.224.97-.046,1.778-.281,1.364-.4,1.4-.9,2.433-1.217,1.432-.433,1.944.362,3.462,0a5.157,5.157,0,0,0,2.153-1.216,13.06,13.06,0,0,0,3.462-4.773c.839-1.822,2.536-5.5,1.684-8.8a8.527,8.527,0,0,1-.374-2.9,12.439,12.439,0,0,1,.561-2.62,11.126,11.126,0,0,0,0-4.586c-.348-2.109-.919-1.825-2.62-5.989-1.26-3.084-1.157-3.754-2.246-4.866a7.665,7.665,0,0,1-1.871-2.153,6.581,6.581,0,0,1-.655-2.62c-.024-.724.1-.767.094-1.4a7.372,7.372,0,0,0-1.03-3.182c-.527-1.106-1-1.953-1.591-2.995-.61-1.082-.888-1.521-1.31-2.433a6.578,6.578,0,0,1-.748-2.153c-.1-.931.172-1.117,0-1.965a4.608,4.608,0,0,0-.842-1.778c-.733-1.049-1.11-.911-1.591-1.778-.5-.893-.232-1.285-.748-1.778a2.683,2.683,0,0,0-1.684-.561c-1.384-.159-1.689.27-2.714.094-.62-.106-.484-.259-2.059-1.029-1.8-.881-2.3-.84-2.713-1.5-.377-.6-.135-.909-.562-1.5a2.963,2.963,0,0,0-1.777-1.03c-3.061-.74-6.039-1.792-9.077-2.62a25.275,25.275,0,0,1-7.3-2.994c-1.787-1.122-1.55-1.335-5.334-4.024-3.065-2.178-3.2-2.02-4.305-3.088a45.567,45.567,0,0,0-3.462-2.994,4.812,4.812,0,0,0-1.778-.936,7.23,7.23,0,0,0-2.058-.094,16.239,16.239,0,0,1-2.9-.093,7.6,7.6,0,0,1-2.34-1.123,26.847,26.847,0,0,0-4.211-1.871c-2.468-.9-2.342-.439-4.491-1.31a16.674,16.674,0,0,0-2.9-.842c-.972-.191-1.543-.212-1.955.11" transform="translate(535.71 1539.395)" fill="#e2e2e2"/><path d="M49.14,239.618a6.941,6.941,0,0,0,.035-1.214c-.065-.57-.216-.859-.1-.937s.393.193,1.179.763a7.706,7.706,0,0,1,.971.694c.392.422.3.631.8,1.561a5.766,5.766,0,0,0,.763,1.179A9.4,9.4,0,0,0,54,242.67c1.117.916,1.042,1.011,1.526,1.249.421.207.656.222.8.485.181.338-.044.61.069,1.076.085.349.287.5.625.867,1.135,1.223.995,1.78,1.838,2.22.4.21.463.1.867.347a3.442,3.442,0,0,1,1.11,1.214,8.788,8.788,0,0,1,.693,1.491c.543,1.408.5,1.811.937,2.046.322.175.46.015,1.145.243a2.857,2.857,0,0,1,.937.451c.7.582.268,1.34.937,2.462.127.214.044.021,1.04,1.179a10.788,10.788,0,0,1,1.249,1.6c.355.651.288.854.59,1.075.51.374.907-.054,1.579.18.518.181.969.931,1.872,2.43a3.732,3.732,0,0,0,.591.854c.614.607.984.394,1.412.92.388.475.278.885.788,1.248.225.159.268.1.46.23.639.447.651,1.5.657,2.1a11.224,11.224,0,0,1-.2,1.741c-.151,1.045-.227,1.567-.262,1.741a8.929,8.929,0,0,1-1.092,3.151c-.488.784-.672.7-1.411,1.8-.568.851-.661,1.205-.94,1.646-.351.555-1,1.242-3.762,2.273a26.9,26.9,0,0,1-5.016,1.411,17.515,17.515,0,0,1-6.113.392,12.2,12.2,0,0,1-4.389-1.332c-.509-.281-.944-.579-1.959-1.1a12.476,12.476,0,0,0-2.587-1.1,5.33,5.33,0,0,0-2.665-.235c-.8.172-.734.416-1.332.47-1.16.106-2.174-.74-2.979-1.411-.928-.774-.729-.915-1.254-1.176-.951-.473-1.492.048-3.37-.078-1.054-.07-1.842-.135-2.273-.7-.135-.18-.156-.3-.392-1.646-.308-1.751-.307-1.732-.313-1.8-.15-1.588.208-2.146-.157-2.43-.531-.412-1.622.506-2.038.078a.9.9,0,0,1,0-.941c.256-.5.728-.391,1.411-.94a1.984,1.984,0,0,0,.862-1.254,1.8,1.8,0,0,0-.627-1.411,1.857,1.857,0,0,0-1.41-.549c-.888.129-.935,1.143-2.195,1.724-.249.115-.979.452-1.332.157-.369-.308-.205-1.2.157-1.8a3.448,3.448,0,0,1,2.116-1.411c.02.043-2.076,1.622-3.527,1.019a3.23,3.23,0,0,1-1.489-2.116c-.179-.564-.516-1.629,0-2.273.482-.6,1.306-.328,1.646-.941.126-.226.1-.411-.078-1.332a15.354,15.354,0,0,1-.47-2.9,13.863,13.863,0,0,0,.157-1.568c-.02-.347-.1-1.687-.705-1.881-.465-.148-1.057.437-1.646,1.019-.907.9-.987,1.436-1.489,1.489-.673.072-1.256-.823-1.332-.94a3.607,3.607,0,0,1-.313-2.586,6.4,6.4,0,0,1,.7-2.116,4.371,4.371,0,0,1,1.646-1.959c.661-.371,1.227-.362,1.254-.627s-.488-.319-1.019-.862a4.323,4.323,0,0,1-.94-1.881,4.522,4.522,0,0,0-.549-1.567,6.847,6.847,0,0,0-.549-.627c-.589-.629-.813-.747-.784-.941.045-.311.65-.208.94-.627.508-.731-.49-2.264-.549-2.351-.078-.119-.34-.471-.862-1.176-.376-.508-.5-.662-.471-.862.05-.4.63-.628,1.254-.862,1.537-.576,2.266-.782,3.135-1.1,1.736-.629,1.046-.608,2.587-1.176.4-.148.842-.294.862-.549.026-.32-.642-.4-1.176-1.1a2.991,2.991,0,0,1-.549-1.489,3.791,3.791,0,0,1,.156-1.646c.113-.373.282-.755,1.8-2.587.877-1.056,1.144-1.32,1.411-1.254.33.081.242.561.862,1.176a4.291,4.291,0,0,0,1.019.705,7.4,7.4,0,0,0,.862.392c.834.374.875,1.686,1.411,3.919.615,2.564.969,2.53.94,3.762s-.4,1.758,0,2.351c.45.669,1.149.354,2.43,1.1,1.2.7.987,1.207,1.959,1.646,1.318.595,1.829-.289,3.214.235,1.348.511,1.349,1.535,2.665,1.725a4.2,4.2,0,0,0,1.724-.078,7.3,7.3,0,0,1,.784-.235c.406-.094.423-.054.862-.157.354-.083.426-.127.534-.081.218.093.265.424.316.811.159,1.217.238,1.83.226,1.985a4.388,4.388,0,0,1-.361,1.533c-.652,1.414-2.1,2.009-2.029,2.119a4.713,4.713,0,0,1,1.939-.586,2.068,2.068,0,0,0,1.082-.045,3.409,3.409,0,0,0,.722-.586c.562-.522.516-.553.631-.587.486-.143.8.555,1.849.9.339.112.868.288,1.128.045.305-.286.168-1.09-.271-1.488-.326-.3-.556-.128-1.218-.406a7.171,7.171,0,0,1-1.353-.948c-1.036-.749-1-.568-1.263-.857a3.561,3.561,0,0,1-.777-2.271" transform="translate(553.407 1517.962)" fill="#68b3f2"/></g></g></svg>